<svg width="72" height="159" viewBox="0 0 72 159" fill="none" xmlns="http://www.w3.org/2000/svg">
<path d="M39.5174 1.69168L39.6089 1.79937L39.6076 1.91229L39.9131 2.14319L40.5239 2.49476L41.0961 3.17329L41.6296 4.18129L42.1309 4.92855L42.5987 5.41117L43.0291 5.75372L43.4222 5.9535L43.6322 6.11567L43.6593 6.24023L44.0266 6.49837L44.734 6.89143L45.1812 7.28458L45.3694 7.67638L46.0678 8.08244L47.2779 8.50021L48.1581 8.69999L48.707 8.68178L49.4944 9.01522L50.5202 9.70277L51.1465 10.1802L51.372 10.4462L52.0434 10.8782L53.7187 11.7721L54.4572 11.9965L54.8077 12.2015L55.0151 12.461L55.2201 12.5414L55.4224 12.4402L55.8425 12.5336L56.4817 12.8217L56.9817 13.1706L57.6247 13.94L57.8296 14.2474L57.916 14.5224L57.8851 14.7651L57.6892 15.0245L57.3283 15.2996L57.2214 15.4202L57.2137 15.5357L57.1221 15.7679L56.8232 16.2635L56.7472 16.4944L56.7304 16.6656L56.541 16.8525L56.0371 17.1976L55.9327 17.3649L55.9069 17.5453L55.8438 17.653L55.7755 17.6983L55.6788 17.8786L55.6002 18.1784L55.5925 18.5624L55.6543 19.032L55.6415 19.1838L55.5306 19.2643L55.4675 19.3732L55.4456 19.5925L55.3502 19.7533L55.184 19.8559L55.1221 19.9726L55.1659 20.1062L55.0435 20.2373L54.7548 20.367L54.5783 20.5564L54.5126 20.8042L54.3515 21.026L54.095 21.2219L54.0113 21.4827L54.1453 21.9653L55.7252 21.798L57.0126 21.9744L58.5358 22.4388L59.5462 22.601L60.0449 22.4609L60.4147 22.4804L60.6557 22.6607L60.9792 22.697L61.3851 22.5906L61.7214 22.6723L61.9869 22.9422L62.2279 22.8747L62.4444 22.4726L62.6931 22.1781L62.9741 21.9939L63.3233 21.9381L63.7421 22.012L64.0759 22.1599L64.3259 22.3817L64.5978 22.3752L64.8929 22.1405L65.0347 21.859L65.0218 21.5307L65.139 21.2959L65.3852 21.1545L65.5514 20.9638L65.6378 20.7224L65.9303 20.5759L66.429 20.5227L66.6906 20.4046L66.7138 20.2217L66.8607 20.053L67.1326 19.8986L67.3195 19.7067L67.42 19.477L67.5837 19.3317L67.813 19.2733L68.0682 18.7894L68.3479 17.8839L68.5141 16.6617L68.5721 14.9324L68.8543 14.9337L68.9857 15.0622L69.1945 15.1283L69.4136 14.983L69.6005 14.9155L69.8956 14.9104L70.0554 14.7468L70.2422 14.721L70.3698 14.8092L70.4935 14.9169L70.7564 14.9415L70.9652 15.2217L71.1946 15.3073L71.2925 15.6291L71.4407 16.4762L71.7165 16.9771L71.9897 17.5479L72 17.8022L71.8466 18.059L71.8209 18.4287L71.7255 19.333L71.6933 19.6665L71.7887 19.8935L71.8234 20.2113L71.6752 20.5992L71.3866 21.1804L71.1069 21.3374L71.0347 21.3439L70.6559 21.6799L70.3891 21.8058L70.2345 21.7214L70.0579 21.8667L69.8595 22.2443L69.6172 22.4129L69.1791 22.5063L69.0476 22.5504L68.7925 22.5374L68.5734 22.6308L68.3904 22.832L68.1958 22.9072L67.9883 22.8566L67.8002 22.9306L67.6313 23.1291L67.5334 23.3444L67.5064 23.5766L67.3414 23.7349L67.0373 23.8192L66.9316 23.936L66.9509 24.0981L66.8143 24.224L66.3002 24.3563L65.9277 24.5899L65.6983 24.9258L65.4561 25.1373L65.0746 25.267L64.5566 25.6096L64.4818 25.821L64.679 26.0156L64.7499 26.1894L64.6944 26.3412L64.5334 26.362L64.2653 26.2518L64.0746 26.2284L63.9612 26.2933L63.9071 26.4152L63.9135 26.5942L63.8182 26.7162L63.6197 26.781L63.4947 26.9289L63.4418 27.1612L63.1931 27.4544L62.7498 27.8072L62.4006 28.2834L62.1441 28.8828L61.8452 29.2771L61.5024 29.4665L61.2665 29.7364L61.1377 30.0867L60.7717 30.629L60.1712 31.3659L59.626 31.8718L59.1364 32.1469L58.8619 32.4583L58.8013 32.8046L58.4843 33.2004L57.9108 33.644L57.7484 33.8438L57.6144 34.0072L57.5951 34.2927L57.3721 34.6676L56.943 35.1334L56.7935 35.5368L56.9881 36.0467L57.0165 36.6655L56.9314 36.9134L56.7433 36.9976L56.7007 37.1573L56.8026 37.3934L56.8077 37.7034L56.7175 38.0887L56.5191 38.5298L56.211 39.0267L56.1363 39.3588L56.2961 39.5262L56.3747 39.7039L56.3721 39.8934L56.3064 40.1671L56.1788 40.5264L55.9855 40.7937L55.7265 40.9676L55.6479 41.1881L55.7523 41.4541L55.7664 41.7317L55.6917 42.0209L55.7355 42.3025L55.8979 42.5763L55.8863 42.8889L55.6041 43.5311L55.5358 43.9281L55.7123 45.6315L55.6054 45.8702L55.4262 46.1452L55.2136 46.166L54.9713 46.118L54.7961 46.2893L54.6866 47.0456L54.3528 48.6854L54.412 49.076L54.6801 49.7103L54.778 50.1151L54.8528 50.42L54.9121 50.9986L54.7561 51.2594L54.6118 51.3048L54.4301 51.4514L54.6453 52.1584L54.8167 52.484L55.3064 53.1535L57.1866 54.085L57.9662 54.6351L58.849 55.3862L59.3309 56.1594L59.3735 56.7977L58.6686 57.7539L58.59 58.5582L58.7343 59.1252L58.9894 59.6519L59.6724 60.3369L60.1751 60.5886L60.8542 60.5613L60.9701 60.7533L61.0397 60.922L61.1467 62.3167L61.1338 62.8421L60.9341 63.3247L59.6299 65.5483L58.5165 66.9131L58.1132 67.6695L57.9701 68.4803L57.6131 68.8669L55.6827 70.0968L52.6878 71.1982L50.2676 71.7717L49.7174 71.965L45.8269 72.5968L45.0742 72.6851L44.0948 72.6292L43.2998 72.7136L42.4131 72.541L41.6219 72.3425L41.1785 71.8495L40.6528 71.7885L40.5097 72.035L40.7662 72.6642L40.6412 73.4232L40.7971 73.8565L41.1077 73.9434L41.4066 74.1679L41.6708 74.4689L41.2159 74.5L41.3925 74.74L41.5871 74.8801L41.5652 75.3822L41.3886 76.594L40.9453 76.8534L40.8268 76.9234L40.6927 77.1855L40.4105 78.3505L40.3203 79.1082L40.4414 79.5972L40.9736 80.6273L40.7726 81.2981L40.4363 81.6627L38.9788 82.4138L38.3963 82.7148L37.4788 82.9211L36.0006 82.9561L35.4542 82.9094L34.1875 82.2244L33.2467 81.8145L32.3859 81.4888L31.5482 81.2942L31.6681 81.1956L31.7235 81.0191L31.4877 80.9206L31.3163 80.8985L30.7647 81.2527L30.5328 81.6147L30.4657 81.9325L30.4541 82.6953L30.5521 83.3376L30.949 84.9242L30.9902 85.7895L30.8021 86.8844L31.065 87.5306L31.3846 87.8224L32.1024 88.1118L32.3807 88.3089L32.6874 88.2778L32.7815 88.3543L32.7364 88.4957L32.556 88.7747L32.5676 89.0692L33.1114 89.1561L33.6758 89.0964L34.2674 88.9654L34.4065 88.7605L34.4104 88.3323L33.7171 88.2571L33.8047 88.0974L34.3305 87.9236L35.0186 87.6395L35.3705 87.5863L35.6102 87.7771L35.7713 87.9521L35.9697 88.4128L36.0934 89.0212L36.0986 89.7542L36.0161 90.4457L35.9181 90.6909L35.7442 90.9854L34.5071 91.3616L34.1604 91.263L33.8382 90.7402L33.7364 90.1992L33.4606 89.8347L32.8691 89.5453L32.2802 89.6335L31.6965 90.1356L31.123 90.2978L30.9193 90.7557L32.3575 91.4978L33.0367 91.7054L33.2583 91.6976L33.4787 91.7949L33.2738 92.0713L33.0689 92.2425L32.0457 92.6213L31.5946 92.886L31.0676 93.4075L30.3292 94.5479L30.1023 94.7969L29.9889 95.0875L29.9129 95.8776L30.1526 97.1945L29.9 97.7472L30.0559 98.3621L29.9683 98.7733L29.7106 99.3662L28.6745 100.304L28.4902 100.992L28.8497 101.398L28.8252 101.753L28.7054 102.076L28.275 102.072L26.7105 101.856L26.1409 102.209L25.6126 102.641L25.4682 102.847L25.2814 102.977L24.2053 103.208L23.9927 103.361L22.8483 105.015L22.3587 106.045L21.7671 107.059L21.6125 107.49L21.579 108.088L21.6615 108.628L21.7439 109.026L21.9501 109.539L22.3831 110.124L24.5881 112.52L25.0455 112.73L27.4038 112.988L27.927 113.324L28.2324 113.859L28.3446 114.331L28.2092 115.53L28.0688 115.906L27.8085 116.249L27.2505 116.69L26.5829 116.924L26.7737 117.092L27.0443 117.067L27.6345 116.924L27.8897 117.067L28.083 117.543L27.7131 117.735L27.601 117.968L27.3342 118.319L25.9734 119.725L25.2401 120.147L24.5661 120.714L23.6615 121.289L23.3071 121.62L22.8277 122.315L22.0945 123.074L21.3032 124.71L21.2723 125.028L21.387 125.24L20.9475 128.135L20.7942 128.477L20.4759 128.843L19.6382 129.448L19.2349 129.523L18.7014 129.173L18.4011 128.807L18.106 128.182L17.7503 127.538L17.7322 127.768L17.856 128.159L17.7722 128.569L16.8624 128.756L16.6214 128.948L17.4423 128.863L18.0016 128.987L18.2387 129.136L18.4514 129.449L18.6395 129.825L18.4823 130.034L18.0338 130.207L17.4539 130.525L16.7683 131.099L16.3882 131.766L16.2245 132.246L16.0389 133.217L15.99 133.86L15.7 134.356L15.2528 134.803L15.2786 134.906L15.5815 134.676L15.8237 134.603L16.0325 135.2L16.3134 136.398L16.4436 137.231L16.423 137.477L16.3392 137.817L15.7619 137.899L15.2464 137.888L14.8675 138.034L15.0712 138.184L15.4191 138.131L15.8997 138.489L16.4333 138.336L16.6768 138.576L16.8521 138.795L17.6691 140.552L18.383 141.643L18.7439 142.291L18.5648 142.587L18.5003 142.194L18.0351 142.092L17.5815 141.987L16.825 141.705L15.8057 141.28H14.785L13.9745 140.92L13.0788 140.523L11.1884 140.488L9.52335 140.464L7.81712 140.439L6.72563 140.422L5.99496 140.412L5.80552 140.262L5.86994 139.769L5.59933 139.406L5.20625 138.968L4.72819 138.659L4.49104 138.245L4.22558 137.781L4.37506 137.369L4.60446 136.372L4.60832 135.933L4.40082 135.627L4.3377 135.192L4.40082 134.989L4.58771 134.834L4.69983 134.125L4.61217 133.431L4.46914 132.812L4.27969 132.539L4.03614 132.41L3.85574 132.385L3.45626 132.616L2.79386 132.557L2.56832 132.646L2.24489 132.894L1.7861 133.259L1.53094 133.132L1.45232 132.74L1.28223 132.402L1.17396 132.103L1.09279 131.612L0.957467 130.983L0.686854 130.239L0.27191 129.64L0.248707 129.101L0.171389 128.427L0.382735 127.772L0.259011 127.229L0 126.585L0.0798741 125.918L0.335031 125.549L0.414944 125.082L1.5954 125.008L1.5464 124.382L1.74229 123.876L1.96264 123.418L2.15082 123.21L2.57092 123.029L3.06577 122.765L3.34543 122.464L3.47942 122.194L3.56063 121.847L3.58254 121.477L3.50133 120.692L3.59414 120.451L3.90085 120.133L4.41887 119.851L4.64182 119.105L4.51424 118.458L4.22688 117.945L3.8609 117.715L3.82869 117.189L3.99363 116.691L4.20883 116.158L4.46528 115.547L4.44983 115.12L4.67792 114.871L5.32742 114.316L5.55037 113.773L5.77843 113.627L6.04518 113.562L6.06068 113.256L5.86609 112.952L5.83514 112.572L5.85834 112.152L5.91761 111.59L6.22047 111.38L6.66892 110.926L6.78879 110.638L6.80424 110.252L6.67407 109.458L6.56324 108.89L6.50653 108.681L6.30294 108.297L6.15215 108.055L6.39315 107.751L6.8442 107.433L7.0349 106.973L6.85966 106.582L6.6045 106.376L6.52459 105.779L6.61996 105.023L6.81069 104.794L7.48079 104.68L7.54395 104.292L8.05427 103.745L8.03881 103.222L7.71405 102.901L7.39573 102.385L7.16122 101.93L6.38025 101.681L5.55037 101.546L5.43824 101.116L5.47045 100.869L5.85578 100.968L6.48593 100.881L6.96018 100.862L7.29006 100.818L7.67023 100.756L8.02076 100.936L8.37129 100.823L8.51432 100.147L8.73727 99.7879L8.76948 99.4506L8.54653 99.182L8.13804 99.099L6.3506 98.8862L6.29649 98.6176L6.31194 98.1675L6.37896 97.7082V97.4825L6.54134 97.284L6.72693 96.8689L6.85706 96.5925L6.72693 96.2344L6.44212 95.7064L6.64961 95.4625L6.66636 95.1719L6.6019 94.8878L6.30553 94.5725L6.04393 94.1379V93.6761L6.3506 93.5528L6.55424 93.4114L6.6019 93.126L6.48978 92.7744L6.06583 92.6667L5.50136 92.4514L5.32868 92.2711L5.16889 91.8948L5.28746 90.8401L5.2282 90.2056L5.17793 89.8554L5.31582 89.5855L5.50396 89.3429L5.41504 88.7786L5.2475 88.4828L5.30677 88.2557L5.4653 88.0275L5.60318 87.7459L5.72175 87.6798L5.89959 87.8406L6.19986 87.7459L6.56195 87.5189L6.60061 87.2516L6.52844 86.8702L6.25913 85.9128L6.01687 85.3225L6.06713 85.1097L6.16246 84.8866L6.08644 84.077L6.11094 83.5892L6.12895 82.1557L6.15605 81.6678L5.9086 81.1697L5.94211 80.7039L6.11609 80.364L6.27973 79.9048L6.40216 79.4987L6.53104 79.3157L6.74883 79.2249L6.79909 79.0031L6.69987 78.8345L6.41891 78.5711L6.35449 78.2494L6.41376 78.0029L6.55164 77.8601L6.76558 77.8615L6.92667 77.5099L6.97304 77.0765L7.00654 76.8755L6.88286 76.6225L6.79394 76.027L6.71017 75.6897L6.8094 75.5483L6.94728 75.4964L7.19083 75.5768L7.36222 75.5353L7.39187 75.355L7.41122 75.1617L7.47694 75.0306L7.63028 74.5947L7.79396 74.055L7.83262 73.6749L7.77461 72.6461L7.86097 72.41L8.03622 72.1946L8.27977 71.9922L8.60064 71.8249L8.99887 71.5836L9.48858 71.4953L9.68703 71.2281L9.82491 70.8726L9.86357 70.5808L9.67542 70.3784L9.42798 70.137L9.31074 69.5312L9.24758 68.9721L9.21148 68.2688L8.96537 67.6656L8.70762 66.9884L8.63804 66.3864L8.72437 66.0582L8.82619 65.5367L8.71792 65.2992L8.58904 64.875L8.72307 64.5429L8.88545 64.0278L8.86614 63.7671L8.73727 63.1456L8.6187 62.798L8.73727 62.4269L8.92541 62.0805L9.0736 61.895L9.04913 61.5966L9.11355 61.3514L9.39447 61.188L9.65737 60.8844L9.84552 60.8481H10.0723L10.2205 60.7625L10.2798 60.5289L10.3198 60.2707L10.6819 59.9503L10.8945 59.6558L11.2798 59.5948L11.468 59.2757L11.4719 58.867L11.428 58.4544L11.5569 57.9784L11.4139 57.2518L11.428 56.8678L11.2798 56.5512L11.3095 56.21L11.2296 55.9921L11.0053 55.9103L10.9229 55.6392L11.0311 55.5056L11.2425 55.4031L11.5079 55.1955L11.7064 54.1992L11.8004 53.9033L11.892 53.5492L11.8804 53.365L12.0079 53.099L12.1677 52.6955L12.419 52.3064L12.5621 52.0391L12.7012 51.6797L12.7412 51.463L12.919 51.3554L13.1239 51.3281L13.3649 51.2607L13.4642 51.1283L13.4461 50.9363L13.4306 50.5121L13.3585 49.8388L13.3121 48.9734L13.3546 48.4052L13.5131 47.8356L13.6613 47.5269L13.6214 47.2895L13.5814 47.0288L13.3044 46.886L13.0415 47.0093L12.8572 46.9756L12.6214 46.6732L12.5518 46.3528L12.5917 45.9156L12.776 45.6431L12.8482 45.3007L12.7399 45.1943L12.5079 44.9672L12.2889 44.1862L12.316 43.522L12.0982 43.3455L11.9963 42.8279L11.7721 42.6424L11.6832 42.2558L11.6136 41.8575L11.6433 41.6824L11.8778 41.6331L12.0105 41.3191L11.9113 41.144L11.7334 40.9922L11.5066 41.0038L11.303 40.8248L11.0311 40.0763L10.8159 39.6637L10.8842 39.063L10.9267 38.5947L11.0195 38.1938L11.053 37.8785L11.2206 37.7281L11.3791 37.7968L11.5273 37.7618L11.6639 37.5062L11.8133 37.3453L11.8043 37.2182L11.7154 37.0807L11.6729 36.8381L11.7773 36.5488L11.9577 35.8884L12.2309 35.1619L12.3482 34.8908L12.3185 34.6611L12.3778 34.5573L12.5634 34.6728L13.0904 34.5457L13.2683 34.2239L13.3379 33.9372L13.4964 33.7763L13.4268 33.548L13.209 33.4792L13.0775 33.3716L13.1304 33.1121L13.2077 32.5166L13.1948 32.0794L12.9964 31.1467L12.8366 30.2255L12.9487 29.918L13.294 29.4977L13.5556 29.3083L13.6033 29.0682L13.8623 27.9863L13.892 27.396L14.0621 27.0704L14.1742 26.458L14.6433 25.9313L14.7812 25.5823L14.9693 25.5486L15.0686 25.4357L15.3173 25.0478L15.6407 24.6496L15.9191 24.4484L15.9887 24.1345L16.1214 23.7063L16.3972 22.9967L16.5518 22.5024L16.7593 22.3246L17.0016 21.6786L17.106 21.2998L17.383 21.1441L17.5995 21.1L17.807 21.2778L18.0248 21.244L18.2233 21.0222L18.7001 20.8704L18.9153 20.7886L19.0145 20.5668V20.1776L18.816 19.8896L18.4127 19.3382L18.0648 18.7219L18.0274 18.5287L18.0248 18.3172L18.0841 18.0499L18.2503 17.7477L18.6678 17.2494L18.6227 16.894L18.3186 15.5875L18.2065 15.2282L17.9952 14.5627L18.0248 14.2993L18.2104 13.565L18.3714 13.2692L18.6086 13.2147L18.7374 13.1161L18.7774 12.9851L18.6189 12.8217L18.5493 12.614L18.4797 12.3183L18.2606 12.2145L18.1343 11.9692V11.6099L18.3315 11.1415L18.5493 11.0106L18.6382 10.8029L18.8714 10.6135L19.0841 10.467L19.2619 10.1958L19.9952 9.86367L20.5777 9.60553L21.7143 9.11254L22.4939 8.77395L22.5687 8.54035L22.628 8.3808L22.9888 7.19114L23.4566 5.65641L23.7491 4.69638L23.0764 3.99062L23.195 3.80248L23.5803 3.31985L23.6602 2.93328L23.8136 2.76723L24.5043 2.37408L24.6229 2.11333L24.6834 1.824L24.8239 1.61646L25.0868 1.57362L25.5649 1.38944L26.0778 1.21428L26.2324 0.976889L26.378 0.564342L26.503 0.107611L26.6023 0L26.7672 0.01164L27.0417 0.125823L27.1861 0.298364L27.9038 0.84584L28.226 1.15846L28.5327 1.20003L29.1384 1.13906L29.2608 1.15331L30.806 1.17144L31.0418 1.19868L31.5817 1.33234L31.8872 1.44003L32.0998 1.49578L32.4413 1.66444L32.7377 2.22364L32.9039 2.66857L33.0199 3.06037L33.279 3.74927L33.4555 4.01137L33.5186 3.8842L33.6694 3.13045L33.8769 2.69193L34.1565 2.20028L34.7197 1.05338L34.9169 0.882185L35.1359 0.799122L35.2893 0.792628L35.4452 0.878305H35.6578L35.8086 0.787482L37.2854 0.773149L38.8177 0.760242L38.8499 0.766735L38.9195 0.963903L39.1747 1.39458L39.4608 1.62295L39.5174 1.69168ZM42.3216 73.5114L42.3577 73.8073L42.1696 73.7722L41.7224 73.4894L41.5716 73.2247L41.5368 73.1131L41.993 73.2338L42.2082 73.3441L42.3216 73.5114ZM17.8096 157.873L17.8302 156.451L17.8586 154.551L17.8637 152.869L17.8689 151.239L17.874 149.563L17.8792 147.899L17.8856 146.13L17.8921 144.347L18.1047 144.599L18.9449 145.832L19.164 146.338L19.3019 146.929L18.9655 146.553L18.6111 146.769L18.4359 147.122L18.2864 147.506V147.777L18.4024 148.014L18.7478 148.22L19.5867 148.29L19.6485 148.368L20.1382 149.861L20.3844 150.196L20.6704 150.462L21.3328 151.23L21.9682 152.061L22.722 152.851L23.5339 153.459L24.2736 153.921L24.9785 154.488L25.7311 155.282L26.5494 155.86L27.4283 156.269L28.3162 156.612L29.6835 156.478L30.1075 156.514L30.3717 156.766L30.1062 157.463L29.7673 158.024L29.3149 158.257L28.8368 158.342L28.4051 158.331L27.9747 158.227L27.5701 158.285L27.1835 158.523L26.7801 158.641L26.3651 158.656L25.9605 158.856L25.5546 159L25.1332 158.881L24.0378 158.32L23.3264 158.187L20.9166 157.965L20.1434 157.836L19.3728 157.643L18.9694 157.634L18.3933 157.76L17.932 157.744L17.8096 157.873ZM32.6526 157.007L33.0521 157.153L33.8408 157.042L34.2571 157.041L34.4401 157.093L34.5212 157.171L35.065 157.049L35.306 157.063L35.2442 157.333L34.7429 157.601L34.5367 157.487L33.4709 157.512L32.9993 157.79L32.7983 157.787L32.333 158.183L31.9928 157.932L31.8988 157.703L32.1449 157.376L32.3769 157.369L32.5353 157.237L32.6526 157.007Z" fill="url(#paint0_linear_2_277)"/>
<defs>
<linearGradient id="paint0_linear_2_277" x1="2.90071e-07" y1="16.5" x2="78" y2="159" gradientUnits="userSpaceOnUse">
<stop stop-color="#8FFFF4"/>
<stop offset="1" stop-color="#3064FF"/>
</linearGradient>
</defs>
</svg>
