<svg width="219" height="206" viewBox="0 0 219 206" fill="none" xmlns="http://www.w3.org/2000/svg">
<path d="M94.1266 6.82263L93.9311 6.33163L94.0173 6.20883L94.117 6.14362L94.2435 6.15901L94.7419 6.68454L94.9586 6.82842L95.2767 7.21007L95.9955 7.25614L96.8581 6.84563L97.2607 7.01252L97.4524 6.98184L98.085 6.59247L98.4971 6.48125L98.7732 6.19349L99.053 6.50425L99.6779 6.86483L99.8754 7.24268L100.14 7.42109L100.228 7.53998L99.8466 7.93702L99.7986 8.36479L99.3903 8.336L98.9015 9.03801L97.0671 10.2157L95.4205 9.21063L94.7055 8.53168L94.2263 7.59178L94.1266 6.82263ZM129.526 31.1497L129.587 31.4278L129.878 31.6982L130.108 31.4412L129.988 31.2187L129.951 30.8006L129.656 30.4227L129.53 30.743L129.409 30.8178L129.296 31.0729L129.526 31.1497ZM141.654 36.6814L141.89 36.6852L142.273 36.5587L142.472 36.2901L142.681 36.3592L143.097 35.8681L143.377 35.6264L144.121 35.5459L143.619 34.9225L143.528 34.8784L142.835 35.1201L141.941 35.2793L141.596 35.615L141.24 36.1654L141.159 36.6565L141.222 36.8118L141.654 36.6814ZM157.407 0.55626L157.537 0.18222L157.305 0L157.029 0.381708L157.267 0.703944L157.407 0.55626ZM127.448 7.22353L128.216 6.22036L128.425 5.22678L128.163 5.29392L128.138 5.73124L128.048 6.02473L127.927 6.13021L127.718 6.31624L127.239 7.11419L127.034 7.31175L127.061 7.55724L127.448 7.22353ZM105.365 6.05154L105.795 6.89363L105.902 6.80922L106.096 6.08034L105.921 5.73891L105.902 5.14624L105.823 4.98895L105.603 5.31312L105.314 5.36106L105.488 5.79071L105.365 6.05154ZM126.267 8.33986L126.758 7.93702L126.806 7.70112L126.643 7.8162L125.663 8.30339L125.195 8.85198L126.047 8.44534L126.267 8.33986ZM128.782 30.6011L128.868 30.5608L129.016 30.3882L128.945 29.9087L128.776 30.1388L128.782 30.6011ZM157.209 3.20322L157.181 3.35477L157.242 3.70001L157.533 3.86303L157.982 3.55039L157.568 2.93659L157.209 3.20322ZM126.932 30.3556L126.993 30.6011L127.084 30.6299L127.406 30.6068L127.523 30.1388L127.381 30.0813L127.039 30.1331L126.932 30.3556ZM128.991 22.6852L128.462 22.4684L128.262 22.2325L128.238 21.9985L128.468 21.2984L128.611 21.0874L128.763 21.0279L129.1 20.6443L129.02 20.4218L128.91 20.2953L128.774 20.2243L128.556 20.7287L128.305 20.7441L128.073 20.5158L127.971 20.0881L128.004 19.8426L127.754 19.8119L127.363 20.0612L127.099 20.4602L126.51 20.8534L126.44 21.659L126.528 22.2939L126.336 22.5663L126.031 22.7657L126.181 22.8597L126.702 22.8904L127.72 23.1436L128.33 23.1033L129.035 23.2127L129.234 22.9537L129.34 22.6123L129.25 22.5835L128.991 22.6852ZM206.203 76.9649L206.328 76.8863L206.513 76.6408L206.396 76.3378L206.151 75.9081L206.213 75.5282L206.061 75.4324L205.892 75.4497L205.708 75.3019L205.243 75.1255L205.099 75.5321L205.912 76.7616L206.203 76.9649ZM215.962 88.7745L216.098 88.6116L216.132 88.2049L216.443 87.1979L217.566 84.5356L217.614 84.0312L217.284 83.6629L217.198 82.6194L217.064 82.5638L216.882 82.6272L216.654 82.7768L216.454 83.0721L216.684 83.1776L216.983 83.707L216.905 84.198L216.7 84.5816L215.887 85.3048L216.008 85.9511L215.958 86.26L215.678 86.8182L215.557 87.4281L215.72 88.483L215.962 88.7745ZM217.946 98.0677L218.063 97.9775L217.976 97.2871L218.193 96.3031L218.007 96.2551L217.725 96.372L217.645 96.9092L217.706 97.4903L217.946 98.0677ZM217.838 99.1226L217.812 100.086L217.976 100.335L218.116 100.367L218.58 98.7044L218.488 98.62L218.024 98.5165L217.838 99.1226ZM202.323 68.512L202.496 68.4218L202.35 67.9673L202.17 67.8655L202.151 68.1954L202.03 68.4276L202.168 68.5254L202.323 68.512ZM199.158 67.7639L199.156 67.5107L199.072 66.9295L198.873 67.0753L198.84 67.5165L198.969 67.9385L199.158 67.7639ZM178.648 45.5103L179.052 45.9073L179.292 46.4022L179.631 46.5941L179.783 46.3907L179.863 46.1164L179.631 45.7002L179.52 45.1651L179.363 45.1344L179.265 45.2207L179.027 45.2994L178.554 45.2802L178.648 45.5103ZM158.009 1.10099L158.329 0.763416L158.114 0.481452L157.683 0.531324L157.556 0.801756L157.669 0.999371L158.009 1.10099ZM193.818 56.0367L193.929 55.9504L193.992 55.4345L193.795 55.5745L193.661 55.7624L193.555 56.0003L193.697 56.0617L193.818 56.0367ZM194.096 56.9018L194.27 56.9056L194.399 56.8424L194.406 56.7617L194.188 56.4414L194.061 56.0541L193.835 56.7963L194.096 56.9018ZM142.837 38.5285L142.562 38.7606L142.633 38.9908L142.835 38.8949L143.435 38.7817L143.377 38.4882L143.017 38.2005L142.837 38.5285ZM175.262 168.567L174.939 168.289L174.233 168.321L174.183 168.473L174.153 168.812L174.452 169.019L175.262 168.567ZM190.385 179.847L190.237 179.715L189.743 179.517L188.786 178.253L188.426 178.032L187.92 178.769L187.532 179.039L187.776 179.32L188.121 179.285L188.28 179.745L188.198 180.046L188.918 181.149L189.039 181.435L189.183 181.633L189.355 181.782L189.919 181.583L190.398 181.153L190.473 181.161L190.525 180.957L190.136 180.641L190.345 180.401L190.385 179.847ZM190.059 183.566L189.959 183.495L189.823 183.482L189.415 183.61L189.467 183.769L189.794 184.113L190.059 183.566ZM173.336 169.75L174.101 169.696L174.553 169.952L174.521 169.823L174.333 169.499L174.191 169.372L173.815 169.28L173.336 169.75ZM171.484 183.507L171.519 183.039L171.479 183L171.306 183.25L171.086 183.355L171.287 184.09L171.484 183.507ZM125.086 20.1456L124.95 20.2358L124.885 20.3873L124.889 20.5868L125.378 20.6923L125.504 20.6309L125.707 20.4468L125.611 19.9807L125.385 19.7505L125.086 20.1456ZM190.54 182.099L189.85 182.458L189.101 182.452L188.84 182.619L188.892 182.784L189.334 183.117L189.934 183.159L190.502 182.998L190.682 183.44L190.958 183.365L191.336 182.983L191.048 182.523L190.54 182.099ZM190.619 194.961L190.55 194.691L190.408 194.447V194.188L190.483 193.636L190.333 192.83L190.381 191.613L190.329 190.958L190.345 190.314L190.465 189.489L190.433 188.657L190.354 188.24L190.32 187.819L190.36 186.622L189.942 185.968L188.961 185.444L188.614 185.434L188.098 186.094L187.801 186.088L186.747 185.897L186.518 186.115L186.095 186.744L185.848 187.011L185.487 186.896L185.125 186.691L184.847 186.714L184.577 186.883L183.969 186.959L183.346 186.946L182.968 187.126L182.629 187.414L182.518 187.776L182.583 188.194L182.248 187.807L181.912 187.554L181.519 187.826L181.109 188.012L179.727 188.162L178.617 187.84L177.059 187.174L176.811 186.978L176.587 186.729L176.33 186.566L175.74 186.319L175.51 186.035L175.249 185.954L174.95 185.994L174.519 185.768L174.16 185.369L173.844 185.335L173.491 185.515L172.868 185.488L171.661 185.028L171.124 184.679L171.076 185.461L170.733 186.865L170.821 187.562L171.013 188.358L171.371 189.434L171.381 189.781L171.446 189.986L172.186 191.599L172.939 192.913L173.923 194.304L174.036 194.937L173.907 195.585L174.227 195.543L174.425 195.224L174.471 195.541L174.582 195.807L175.422 196.728L175.479 196.972L175.161 197.733L174.981 197.104L174.647 196.611L173.712 195.83L173.917 197.461L174.084 198.107L175.264 200.898L175.425 201.078L175.694 201.201L175.922 201.424L176.307 201.993L176.959 203.228L177.338 203.585L177.887 203.472L178.694 203.723L178.97 203.654L179.14 203.76L179.24 204.047L178.608 204.042L177.992 204.201L177.925 204.441L178.094 204.711L178.255 205.469L179.027 205.214L180.246 205.263L180.975 205.183L181.786 205.871L182.512 206L182.725 205.95L183.16 205.135L183.43 204.155L183.597 203.781L183.821 203.462L183.338 203.042L183.323 202.829L183.386 202.584L184.333 203.317L184.72 203.021L184.801 202.363V201.957L184.914 201.667L185.152 201.533L185.248 201.172L185.274 200.894L185.029 200.265L185.006 199.902L185.6 200.656L185.838 201.679L186.292 201.408L186.357 201.247L186.287 200.539L186.49 200.303L187.134 200.495L187.707 200.906L187.747 201.095L187.709 201.287L187.567 201.456L187.101 201.283L186.888 201.583L187.164 202.331L187.632 203.048L187.914 202.864L188.489 202.766L188.681 202.584L188.558 201.141L188.328 200.087L188.313 198.934L188.378 198.307L188.642 197.823L188.836 197.313L188.811 196.655L188.907 196.034L189.143 195.389L189.472 194.908L189.626 194.796L189.545 194.662L189.685 194.246L189.934 193.941L190.086 194.315L189.886 194.461L189.77 194.624L190.161 194.898L190.277 195.142L190.318 195.41L190.277 195.744L190.348 196.001L190.569 196.049L190.63 195.713L190.567 195.307L190.619 194.961ZM218.78 103.573L218.13 102.406L217.986 101.491L217.758 100.709L216.748 98.5108L216.311 97.2429L216.554 95.9693L216.134 91.901L216.569 89.8756L216.359 89.6281L215.835 89.3155L215.603 88.9952L215.256 88.2355L215.218 86.7146L214.547 85.7786L213.823 85.3508L213.332 84.5835L213.002 83.9448L212.956 83.5899L212.757 82.9896L212.201 82.5773L211.819 82.3817L211.001 81.7812L210.6 81.1751L209.778 79.4508L209.396 78.9924L208.637 78.4975L208.016 78.4687L207.616 78.346L206.193 77.2488L205.751 77.0091L205.394 76.495L204.861 75.9426L204.552 75.536L204.079 75.1045L203.755 73.4644V71.8725L203.652 69.9755L203.159 69.0606L202.892 68.7652L202.601 68.863L202.578 69.4537L202.659 69.8565L202.454 69.8757L201.721 69.354L200.805 68.7977L200.31 68.1763L199.95 67.5932L199.651 67.6162L199.44 67.7083L199.229 68.4257L199.572 69.6628L199.404 69.8316L199.114 69.5458L198.587 68.8994L198.313 69.1104L197.951 69.1929L197.634 68.5445L197.368 68.1361L196.983 66.7838L196.638 65.2954L196.605 64.2192L195.932 63.6285L195.67 62.6139L195.461 62.332L195.263 61.6127L194.487 60.6727L193.69 60.0092L193.028 59.3819L192.459 58.4938L192.708 57.8513L193.112 57.9875L193.542 57.9261L193.199 57.2721L192.865 56.8328L192.012 56.0099L191.615 55.8027L190.757 55.6819L189.802 54.9319L189.217 54.6078L188.805 54.556L188.328 54.439L187.991 54.0152L187.394 53.8751L186.555 53.0369L186.143 52.193L185.936 51.8823L185.654 51.6482L185.24 51.7882L184.899 51.8515L184.147 51.7326L183.9 51.3893L183.415 50.9539L182.482 50.8388L181.744 50.5645L181.18 50.2941L180.609 49.9487L180.083 49.3733L179.618 48.6042L179.698 47.6183L179.815 46.9796L179.221 46.7322L178.195 45.3953L178.145 44.8485L178.421 43.7323L178.701 41.8103L178.293 40.3833L177.498 38.6436L177.551 37.7613L177.151 37.7498L176.706 37.5771L176.079 36.7198L175.604 36.1558L175.284 35.636L174.937 34.9321L174.992 34.3682L175.075 33.9884L175.109 32.9833L174.666 32.007L174.526 31.0077L174.107 29.7591L174.224 28.9304L174.132 28.2476L174.001 27.6568L174.137 27.2809L174.193 26.8033L173.614 26.3257L172.993 25.9612L172.192 25.3168L170.752 24.3117L170.42 23.5522L169.811 22.8732L168.996 23.1359L168.396 23.2606L167.837 23.7727L167.062 24.1506L166.311 23.8092L165.954 23.5214L165.69 22.5048L165.346 21.3962L165.055 20.84L164.837 20.1687L165.042 18.5325L164.735 17.7634L164.639 16.6145L164.348 15.3025L164.024 14.6465L164.047 14.119L163.445 13.346L163.253 12.7917L162.912 12.5922L162.479 12.2758L162.417 11.8519L162.45 11.543L162.709 11.0309L162.849 10.3672L162.245 10.2023L161.825 10.1735L161.532 9.96445L161.202 9.64028L161.083 8.60836L161.095 7.51504L161.009 6.83223L160.828 6.32397L160.702 5.78691L160.397 5.21531L159.481 4.47297L159.548 4.17379L159.761 3.78629L159.437 3.5638H158.961L158.693 4.08172L158.26 4.5267L157.411 4.86621L157.251 6.6462L156.724 8.60262L156.245 10.0469L156.333 10.4842L156.295 10.912L156.036 10.7202L155.808 10.4804L155.459 11.052L154.829 12.5347L154.771 13.3038L155.141 13.511L155.4 13.7143L155.708 13.7815L155.848 13.9714L155.927 14.3435L156.126 14.6638L156.076 15.0109L155.837 14.8747L155.333 14.8767L155.076 15.1778L154.426 15.7801L154.597 17.514L154.292 18.4271L153.999 19.1348L153.667 20.4775L153.711 21.1891L154.004 21.6954L154.321 22.4358L154.129 23.4562L153.935 24.187L154.369 26.3046L154.489 27.4324L154.251 28.2016L153.554 30.4764L153.239 32.1413L153.341 33.0601L153.038 33.904L152.693 35.2543L152.304 36.2748L150.941 38.3348L150.671 39.3322L150.213 40.5751L149.233 41.3001L148.493 41.7529L146.872 42.2016L145.936 42.1921L145.453 41.9178L145.175 41.6799L144.073 41.2829L142.733 40.3852L141.702 40.0937L141.192 39.1922L141.142 38.8181L140.958 38.3309L140.417 37.6903L139.398 37.4736L138.351 37.0113L137.705 37.0765L136.304 36.6795L135.37 36.1136L134.517 35.3291L133.392 33.9712L132.437 33.6048L131.216 33.0428L130.515 32.5748L130.089 32.3485L129.618 31.9974L129.188 32.0761L128.446 32.0857L127.981 31.7558L127.921 31.4968L127.992 31.2935L128.019 30.9233L127.856 30.8677H127.691L127.555 30.9675L127.365 31.0403L126.71 30.7564L125.792 30.2827L125.619 29.8665L125.33 29.3581L124.061 28.6197L123.325 28.0098L121.699 27.1256L121.283 26.6978L121.147 26.3237L121.026 25.7848L121.39 25.2247L121.745 24.8276L122.851 23.1801L123.183 22.8924L123.599 22.4454L123.98 21.2428L124.17 20.5561L123.846 19.5165L123.834 17.771L125.119 17.094L125.477 17.0058L125.809 16.8561L126.188 17.0671L126.443 17.3951L126.708 17.3357L127.425 16.1196L127.31 15.6132L127.013 15.1816L127.116 14.915L129.324 12.5347L129.054 11.9516L128.726 11.8173L128.098 11.8576L127.505 11.3493L127.133 10.3884L126.612 10.3538L125.68 11.3397L125.571 11.566L125.797 11.6946L125.995 12.293L125.631 12.995L125.266 13.0008L124.668 12.9317L124.396 12.4311L124.273 11.6677L123.894 11.4529L123.461 11.5968L123.102 11.8653L122.849 11.942L122.638 11.7674L122.627 11.4491L123.173 10.9197L123.631 10.5802L123.668 10.4536L123.334 10.35L123.384 10.1045L123.81 9.66908L123.61 9.64607L123.091 10.1121L122.537 10.3807L121.801 10.9523L120.744 11.3263L120.02 11.8327L119.01 11.6792L118.068 11.1805L117.863 10.9177L117.399 10.5322L116.366 10.9504L115.716 10.9062L115.358 10.7585L114.747 10.6588L114.221 10.2886L112.956 9.69782L111.612 9.58467L110.961 9.61154L110.476 9.30657L110.008 9.13202L109.09 9.00927L108.708 8.55082L108.227 7.62825L107.882 7.38082L107.324 7.29255L106.732 7.71646L106.385 7.91595L105.708 7.15833L104.506 6.37571L104.123 6.2683L103.922 6.45819L103.776 6.81882L103.548 6.85336L103.282 6.69028L102.812 6.22803L102.505 6.14362L101.7 6.6366L101.756 6.80536L102.413 7.05665L103.103 7.74526L103.431 7.88715L104.206 7.70686L105.268 7.83733L106.339 8.69663L106.182 9.12435L106.101 9.71895L106.13 10.3672L106.105 10.8065L106.546 11.2899L106.349 11.3263L105.85 11.217L105.457 11.3512L105.087 11.5795L104.923 12.2297L104.714 11.9228L104.073 11.6313L103.694 11.8557L103.057 12.1511L102.478 12.0321L102.11 11.8825L101.24 12.1357L99.6894 12.1281L99.1719 11.7636L99.0204 11.1383L98.8996 10.9849L98.7578 11.2649L98.5144 11.5872L97.577 11.6524L97.4371 11.7847L97.4926 12.0974L97.4562 12.4906L97.0959 12.5193L96.6512 12.6229L96.699 13.1043L96.7815 13.4803L96.6167 13.6683L96.1279 13.3249L95.9093 12.9548L95.5662 12.8396L95.2979 12.972L95.2288 13.3019L95.2691 14.1536L95.0256 14.2495L94.3912 14.2169L94.0998 14.3779L93.6609 15.4483L92.8538 15.8568L92.7311 16.415L92.6775 16.8906L93.3484 17.7519L93.0244 18.193L92.6832 18.5536L92.3419 18.7071L91.6174 18.8471L91.0845 19.2403L90.8603 19.6546L90.8181 20.0497L90.6705 20.5561L90.4385 21.1564L90.3925 21.4806L89.9076 21.8028L89.045 22.7677L88.6098 23.7555L89.1772 24.2925L89.8443 24.6781L90.3292 24.6666L90.3331 24.7644L89.8271 25.1614L90.1415 25.5681L90.6264 25.9478L90.9216 26.0034L91.1382 26.1646L90.68 26.2547L90.0015 26.2873L89.8711 26.7016L89.9536 27.1792L90.0743 27.5935L89.9899 27.887L89.737 27.6856L89.6257 27.3749L89.0431 26.7419L88.6252 26.5482L88.0136 26.3985L87.8296 26.5904L87.8545 27.5552L87.7338 27.9983L87.5172 27.747L87.4635 27.0411L86.8866 26.4696L84.6131 25.898L84.2911 25.8615L83.7621 25.9363L83.3997 26.1627L83.3633 26.3851L83.1217 26.5654L82.7289 26.7707L82.3684 27.0852L82.1346 27.348L82.1231 27.676L82.4145 28.2917L82.5851 28.4701L82.562 28.7635L82.2783 28.4586L82.0291 28.3608L81.7934 28.8403L81.5672 28.9362L81.6266 27.5974L81.8624 26.6901L82.054 26.155L82.265 25.7368L82.1633 25.5162L80.5877 24.2638L79.9206 23.2376L79.4318 22.6621L78.6708 22.1078L78.274 21.7588L77.3903 21.2255L76.3475 20.8553L75.8453 20.3547L75.2914 20.1763L74.605 20.4199L74.5476 20.886L74.6338 21.3387L74.0876 22.0791L73.4991 22.4742L73.0294 22.0215L72.6019 21.6916L72.1707 21.9294L72.0402 22.338L71.8237 22.4895L71.6607 22.2114L71.4249 21.5976L71.0742 21.354L70.7234 21.4615L70.8288 21.9486L71.0301 22.2171L70.9745 22.6046L70.7214 22.783L70.6736 23.1493L70.5221 23.6366L70.5451 24.3174L70.1445 24.4613L69.8455 25.0003L69.6288 24.8852L69.5732 24.5342L69.464 24.1755L69.027 24.0393L68.866 24.3731L68.7682 24.4863L68.6129 24.5093L68.7183 24.2369V23.7267L68.8448 23.1935L68.4308 23.0016L68.2659 23.1206L68.2717 23.5809L68.1721 24.2522L67.7618 24.3577L67.3975 24.6589L66.859 24.6646L66.5849 24.8104L66.4871 25.1653L66.0136 25.5316L66.0232 25.9708L66.3414 26.4158L66.3625 26.8033L67.1197 27.1965L67.0756 27.5916L66.9682 27.7758L66.6826 27.7029L66.0711 27.3615L65.4481 27.2886L65.2602 27.1313L65.1855 27.2444L65.1817 27.5072L64.9401 27.699L64.5932 27.7182L64.1888 28.0002L64.4762 28.4413L64.4245 28.6159L64.5663 28.8269L65.1836 28.8652L65.4461 28.8096L65.4731 29.1855L65.3944 29.5615L65.1434 29.6958L64.9037 29.3505L63.7133 28.6887L63.4009 28.6255L63.3358 28.8326L63.3913 29.1031L63.1403 29.4311L62.6974 29.8607L62.3965 29.7437L62.0399 29.8454L61.8099 30.58L61.7294 31.3146L62.1242 31.8287L62.3888 32.5058L62.9389 31.6733L63.1632 31.5774L63.1652 31.938L62.9505 32.312L62.8239 32.7724L62.7818 33.2922L62.4214 33.3056L62.017 33.2365L61.9192 33.4015L61.7678 33.789L61.8559 34.3241L62.1242 34.5255L62.7473 34.5063L63.2782 34.5447L63.7517 34.7384L63.8303 34.9014L63.4028 34.8094L62.5287 34.8592L62.1128 34.7864L61.2865 34.8362L60.6731 34.5313L60.3703 34.2263L59.9122 34.1476L59.4655 34.2704L59.2163 34.6981L58.9154 34.8017L58.2157 33.7429L57.7768 33.672L57.5602 33.9194L57.771 34.583L57.6599 34.9916L57.4203 35.2965L57.1174 35.2774L56.9295 35.4059L57.079 35.6859L57.5582 36.3975L57.9512 36.7082L58.3001 37.1398L58.4784 37.5119L58.9 37.4947L58.9978 37.7958L58.7562 38.2331L58.764 38.9275L58.5914 38.9639L58.348 38.8105L57.865 38.3828L57.6158 38.3003L57.4873 38.423L57.447 38.7165L57.5639 39.4837L57.3167 40.579L57.3666 40.8993L57.3225 41.1716L57.1192 40.9741L56.87 40.5502L56.3544 39.8923L55.7238 38.4595L55.0567 37.4889L54.6945 36.6622L54.1366 35.1067L53.8472 35.0836L53.4772 35.7531L53.0689 36.6334L52.7909 37.0669L52.1315 37.4985L51.7252 37.9358L51.2382 38.0893L50.7034 38.588L50.3182 39.0157L49.7776 40.0131L49.6856 40.6557L49.7086 41.3328L49.9444 42.2937L50.1936 43.69L50.5597 43.8396L50.8548 44.0756L50.7725 44.4976L50.3239 44.7643L48.9476 46.0857L48.0218 46.5577L47.7572 46.8894L47.4179 47.5895L46.9272 48.4737L46.7048 49.0319L46.1892 50.1137L45.3497 51.3221L44.5005 52.2198L43.5209 52.939L42.8788 53.2824L40.4864 54.2875L39.2099 54.6711L36.9039 54.9511L35.9262 55.4057L34.7033 55.258L33.3346 55.1602L31.4349 56.6793L29.8593 57.0495L28.4638 57.3277L27.8638 57.577L26.4913 58.4535L25.692 58.8544L24.2006 59.3032L23.5891 59.2572L22.763 58.8448L21.9905 58.9408L21.1356 58.8813L20.4378 58.9196L19.8954 59.2611L16.6961 61.0756L16.0635 61.5704L15.406 62.2897L14.4628 62.9552L13.7095 63.7225L12.1262 64.5223L10.4969 65.1284L9.6917 65.6329L9.11865 66.3177L8.11996 68.159L7.90901 68.6251L7.51029 69.1104L6.98122 69.2869L6.63819 69.4441L6.75893 68.5196L6.37752 67.6987L6.64579 66.1316L6.54611 65.6637L6.00172 65.9686L5.65483 66.3023L4.77501 68.5733L4.17306 70.3438L4.62923 71.3603L4.77688 71.951L4.77501 72.5859L4.6139 73.4989L4.62549 74.0935L4.57178 74.8858L3.47529 76.7233L3.13412 77.5231L2.76605 79.0614L2.72194 79.775L2.74885 80.8434L3.21076 81.7793L3.5635 82.3586L4.10976 84.035L4.76541 85.1494L5.8446 87.3954L7.03493 89.2176L7.11168 89.9158L6.97748 90.8557L7.04265 91.8282L6.82983 92.114L6.3698 92.4496L5.84261 92.0181L5.57433 91.644L5.23691 90.2668L5.09886 90.1881L4.8727 90.7905L4.6235 91.0533L4.39734 90.8749L4.22477 90.6466L4.18265 90.4088L4.25928 90.1249L4.34177 89.093L3.84722 88.5041L3.40825 87.8712L2.93476 87.7157L2.64344 88.0016L2.63384 88.3947L3.26832 89.4958L3.67652 90.6889L4.30725 91.4349L4.67907 91.6267L5.09511 92.0813L5.00502 93.0883L4.70399 93.4642L4.45291 93.6561L3.6344 93.4336L3.44463 92.7086L2.80442 91.2835L2.59734 90.731L2.42102 90.5814L2.35012 90.8538L2.36346 91.3448L2.24471 91.5558L2.12011 91.5347L1.86704 91.2777L1.6389 91.1396L1.50096 91.1875L1.75016 91.5424L2.29829 92.5935L4.32258 95.1714L6.03823 98.175L6.41578 99.3642L6.60555 101.981L6.77613 102.614L7.78827 103.916L8.77936 105.425L9.07068 106.177L9.06495 106.822L9.26618 107.434L10.4969 109.095L11.0451 110.879L11.1122 111.531L10.955 112.651L11.0987 114.632L11.2368 115.71L11.6833 117.847L12.2163 119.389L12.847 120.348L13.7095 122.481L15.0207 124.944L15.2335 126.162L15.1664 129.409L15.0724 130.468L14.7849 130.65L14.5913 131.097L14.8712 133.234L14.9363 134.454L14.5127 135.605L14.0335 136.627L13.192 137.325L12.2393 137.348L11.7965 136.941L11.231 136.525L11.1314 138.384L11.1199 139.98L11.2923 140.588L11.3115 141.305L11.9517 141.863L12.3121 141.646L12.7568 141.616L14.3037 142.406L15.1721 143.058L16.5715 144.811L17.8098 145.274L19.4238 146.071L21.2985 146.325L22.7975 146.371L25.1534 146.791L25.6575 146.641L26.6658 146.511L27.4363 146.238L28.1302 146.064L30.2005 144.435L32.2189 142.759L33.2176 142.627L34.1129 142.607L35.2055 142.036L36.1984 140.304L36.7045 139.918L37.3773 139.487L39.2884 139.233L40.4137 139.412L41.0155 139.132L42.5432 138.819L45.7215 138.532L47.4659 138.764L48.6313 138.725L49.2486 138.84L49.7316 139.598L53.1034 138.946L54.0619 138.9L54.6618 139.009L55.417 139.575L56.2643 139.04L57.0254 139.111L57.7959 138.595L58.9672 137.049L59.5 136.084L60.353 134.053L60.9856 133.324L61.6814 132.961L62.4981 132.844L63.7574 132.478L66.4889 130.769L67.5491 130.401L68.1088 130.078L69.9893 128.753L71.1681 128.498L74.6261 128.841L76.2651 128.753L77.5341 128.546L79.4605 127.832L81.5576 127.295L84.132 126.168L86.2828 125.001L87.5843 124.733L89.6335 124.528L92.6506 124.224L96.1642 124.382L97.0537 124.142L97.4908 123.929L98.106 123.701L98.8651 123.86L99.4479 124.033L101.211 124.963L103.868 126.921L104.455 127.004L106.203 126.557L106.788 126.601L109.234 128.04L110.248 128.07L111.058 128.034L111.672 128.189L112.324 128.581L113.096 129.486L114.731 130.355L114.814 131.057L114.693 131.513L114.325 131.53L114.012 131.628L114.405 133.099L115.092 134.289L116.74 134.45L117.34 134.866L117.725 135.336L118.026 136.082L118.251 137.25L119.077 138.225L119.847 139.057L120.028 139.4L120.39 140.58L120.528 140.925L120.829 142.093L121.268 143.428L121.147 143.565L120.886 143.536L120.422 143.196L120.014 142.818L119.796 142.878L119.546 143.137L119.51 143.457L119.874 143.373L120.087 143.419L120.591 143.827L121.061 144.303L121.433 144.581L122.33 145.766L122.68 145.502L123.11 145.266L123.792 145.91L124.064 146.039L124.22 145.791L123.961 144.635L123.702 144.355L123.641 143.944L123.961 143.651L124.116 143.3L124.877 142.435L126.543 139.851L127.055 139.556L127.645 138.99L128.443 138.558L129.267 138.046L129.792 137.847L130.308 137.741L130.885 137.268L131.513 135.986L131.987 134.469L132.493 133.802L133.267 133.09L133.864 132.102L133.816 131.329L133.823 130.541L134.253 131.149L134.523 131.766L134.95 133.832L134.584 134.287L134.197 134.515L134.272 135.24L134.531 136.186L134.627 136.943L133.814 137.743L133.112 138.748L132.271 140.701L132.217 141.292L132.085 142.113L132.135 142.836L132.265 143.536L132.058 144.621L131.719 145.592L131.274 145.617L130.971 145.58L130.306 145.667L129.692 145.609L128.989 147.731L129.436 147.83L129.777 147.71H130.392L131.08 147.33L132.087 147.019L132.662 147.128L133.336 147.094L134.318 144.378L134.561 142.611L135.062 141.819L135.217 141.272L135.476 140.755L135.997 141.645L136.417 142.51L137.341 143.914L137.63 144.614L137.745 146.317L137.145 148.293L136.785 148.858L136.35 149.351L135.986 150.182L137.088 150.393L137.803 150.378L138.92 149.773L139.141 149.693L139.702 149.683L139.917 149.367L140.467 149.066L140.877 148.713L141.408 148.435L141.891 148.619L142.001 148.778L142.121 148.956L141.943 149.348L141.928 150.174L141.612 150.084L141.33 149.593L140.977 149.72L140.732 150.09L140.205 149.973L140.293 150.215L140.575 150.688L141.688 151.601L142.879 152.812L143.322 153.383L144.291 155.207L144.981 157.146L144.926 157.72L144.587 158.756L144.343 159.809L144.364 160.361L144.589 161.061L145.077 161.779L146.891 163.737L147.849 165.463L149.124 166.359L151.188 166.689L152.279 167.337L153.412 168.645L153.772 168.757L154.323 168.81L155.028 168.014L156.103 168.099L157.518 168.889L158.359 168.701L158.959 168.799L159.799 169.246L161.028 170.13L162.331 170.575L163.106 171.244L163.708 171.344L164.787 171.78L165.58 171.407L166.255 170.939L167.813 169.319L169.035 168.538L169.677 168.235L170.192 168.101L170.846 167.594L170.44 167.238L170.054 167.297L169.395 167.096L169.771 166.862L170.164 166.687L172.061 165.482L172.565 165.839L172.914 166.238L173.292 166.785L173.008 167.558L172.755 167.922L172.171 168.507L171.465 168.53L171.13 168.482L171.826 169.138L172.427 169.58L173.673 168.778L173.984 168.147L174.22 167.78L174.615 167.7L175.205 167.823L175.433 168.285L175.561 168.849L175.134 169.002L174.927 169.42L174.781 169.817L175.525 170.327L175.907 170.652L176.367 170.644L176.898 170.723L177.3 171.473L177.676 172.338L178.121 172.098L178.399 171.872L178.874 172.088L179.392 172.769L179.811 173.542L179.853 173.868L180.176 174.018L180.48 173.788L180.626 173.462L180.615 172.861L180.532 171.914L180.319 171.77L179.834 172.284L179.558 171.912L179.186 171.517L179.192 171.135L179.597 170.945L179.94 171.028H180.369L182.635 170.696L185.533 167.656L186.802 166.541L188.121 165.715L189.486 165.183L190.197 165.012L193.862 164.727L195.769 164.819L196.751 164.61L197.205 164.33L197.976 163.564L198.516 163.096L199.179 162.966L199.34 162.394L199.342 161.783L199.469 161.144L199.275 159.945L199.327 158.37L199.477 157.549L199.877 156.396L200.054 155.213L200.234 153.537L200.393 152.543L200.592 151.636L201.112 150.636L201.553 149.99L202.593 147.558L202.954 147.318H203.255L203.385 147.171L203.425 147.036L203.337 146.938L203.205 146.656L203.293 146.428L203.609 146.202L203.709 146.288L203.87 146.24L203.895 146.116L203.745 145.45L203.964 144.518L204.23 142.889L204.531 142.159L204.71 141.577L205.406 140.705L206.166 139.845L205.95 139.753L205.593 139.688L205.823 139.483L206.005 139.422L206.237 139.558L206.429 139.18L206.471 138.587L206.657 137.713L206.492 136.951L206.845 136.713L207.246 136.569L207.414 135.771L207.526 135.451L207.775 135.154L208.193 134.519L208.52 133.857L209.297 132.595L210.056 132.079L211.187 131.68L211.313 131.452L211.026 131.312L211.037 131.174H211.463L211.635 130.733L212.084 130.407L212.833 129.655L213.083 128.964L213.238 128.412L213.313 127.163L214.532 125.525L215.381 123.313L215.586 121.896L215.797 121.131L215.939 120.011L215.81 118.844L215.847 117.868L216.694 115.39L216.888 114.368L217.148 113.712L217.549 111.27L217.557 110.004L218.17 108.531L218.935 107.332L219 106.223L218.743 105.372L218.78 103.573ZM92.6544 9.65948L93.655 9.36984L94.6518 9.71895L95.2097 9.61534L95.1905 9.37944L95.0677 9.18189L94.8646 8.99581L94.4218 8.86732L94.28 8.38973L94.0251 7.94088L93.979 7.44983L93.7777 6.99718H93.54L93.3042 7.12572L92.7752 7.7644L92.9611 8.1135L93.0168 8.75224L92.7024 8.9632L92.3419 8.87499L92.1867 9.45806L92.3669 9.66521L92.6544 9.65948ZM1.20378 89.8084L1.20191 89.3941L1.01015 88.9932L0.398727 87.2421L0.206968 87.3092L0 87.5374L0.300917 88.8033L1.33412 90.6581L1.47604 90.4126L1.29001 89.9408L1.20378 89.8084ZM13.3415 60.128L13.6539 59.6811L13.7134 59.2726L13.5907 58.9964L13.1594 59.4432L12.9122 59.8134L12.962 60.0398L13.3415 60.128ZM62.4903 29.4598L62.6821 29.5078L62.8833 29.3505L62.9256 29.0992L62.707 28.846L62.6341 28.6217L62.4635 28.6063L62.3811 28.7444L62.266 29.011L62.4866 29.245L62.4903 29.4598ZM66.119 24.797L66.0903 24.6474L66.1153 24.2177L65.91 24.1142L65.682 24.3136L65.5421 24.866L65.776 25.1422L66.119 24.797ZM185.301 202.024L185.165 202.275L185.121 202.501L184.998 202.622L185.223 202.782L185.282 203.142L185.405 203.203H185.742L185.543 202.302L185.301 202.024ZM185.085 203.495L184.931 203.485L184.663 203.865L184.586 204.166L184.471 204.224L184.396 204.435L184.28 204.6L183.965 204.471L183.967 204.606L184.23 205.116L184.648 204.991L185.065 205.122L185.318 204.354L185.246 203.98L185.085 203.495ZM189.553 198.627L189.175 198.46L188.905 198.805L188.949 198.972L188.941 199.348L189.043 199.381L189.344 199.316L189.323 199.099L189.693 198.888L189.553 198.627ZM134.603 150.911L134.103 151.149L132.815 150.993L132.825 150.884L133.024 150.45L132.752 150.211L132.459 150.111L131.402 150.028L130.099 150.498L127.662 151.06L127.34 151.456L127.135 151.995L127.398 152.294L128.289 152.942L129.137 153.03L129.744 152.879L130.4 152.98L130.733 152.604L131.661 152.86L132.018 153.218L132.781 152.902L132.953 152.313L133.216 152.046L134.101 151.847L135.05 152.11L135.343 152.064L135.65 151.743L135.236 151.101L134.603 150.911ZM167.915 178.445L167.756 177.419L167.269 177.016L166.989 177.041L166.938 177.559L166.615 177.85L166.521 178.115L166.539 178.715L166.397 179.273L166.661 179.83L166.598 180.392L166.721 180.787L166.878 180.758L167.453 180.493L167.869 180.1L168.024 179.621L167.837 179.062L167.915 178.445ZM57.493 13.0027L57.4893 12.947L57.3684 12.9375L57.3723 12.9931L57.493 13.0027Z" fill="url(#paint0_linear_1_261)"/>
<defs>
<linearGradient id="paint0_linear_1_261" x1="60.5" y1="17.5" x2="206.5" y2="197" gradientUnits="userSpaceOnUse">
<stop stop-color="#85EEF6"/>
<stop offset="1" stop-color="#3064FF"/>
</linearGradient>
</defs>
</svg>
