<svg width="203" height="212" viewBox="0 0 203 212" fill="none" xmlns="http://www.w3.org/2000/svg">
<path d="M90.7047 17.1171L90.8597 17.167L91.2067 17.2095L92.0298 17.4071L93.1039 17.6306L93.3973 17.5531L93.5726 17.3961L93.6132 16.9361L93.6465 16.611L93.4047 16.3247L93.1039 15.9996L92.8271 15.5951L92.4948 15.4787L92.5373 15.27L92.7532 15.0539L92.9747 14.9357L93.102 14.7898L93.2423 14.2504L93.3346 14.1544L93.4287 14.1304L93.5394 14.1507L93.759 14.2911L94.6043 14.7196L94.9752 14.6549L96.3925 14.5423L96.6066 14.2947L96.9075 14.2393L97.4168 13.9918L97.618 13.9752L97.7989 14.0343L98.0258 13.9881L98.3599 13.7573L98.5001 13.7332L98.5537 13.9881L98.7696 14.2523L99.0317 14.4942L99.1571 14.5496L99.5964 14.4721L99.8271 14.5404L99.9267 14.7658L99.9562 14.9615L100.141 15.1278L100.377 15.1315L100.503 15.1999L100.718 15.307L100.901 15.5526L101.326 15.7484L102.051 16.0218L102.389 16.0255L102.702 16.1086L102.894 16.1917L103.103 16.0384L103.845 15.6154L104.206 15.379L104.45 15.1999L104.633 15.0299L104.769 14.9855L104.862 15.0872L104.941 15.2239L105.207 15.3033L105.827 15.4621L106.111 15.5065L106.51 15.3716L106.851 15.1407L107.013 15.0613L107.266 15.2922L107.44 15.6154L107.556 15.7576L107.813 15.7244L108.32 15.7743L108.695 15.8777L108.927 15.8685L109.245 15.7244L109.416 15.4399L109.867 15.1795L110.295 14.9394L110.54 14.6198L110.904 14.0879L111.026 13.8607L111.051 13.4765L111.563 12.3608L111.756 12.1558L111.871 11.803L112.076 11.3948V11.0531L112.225 10.7224L112.519 10.438L112.735 10.2588L113.081 9.77855L113.323 9.32601L113.927 8.32303L113.973 8.0386L114.213 7.86864L114.292 7.65252L114.549 7.38471L114.818 7.17417L114.934 6.862L115.132 6.53872L115.564 6.29678L115.724 6.18596L116.215 5.29567L116.27 4.89849L116.713 4.88372L117.409 5.34364L117.965 6.02153L118.708 8.1993L118.832 10.2108L119.133 11.2636L119.998 13.458L120.054 13.8644L120.192 14.3557L120.465 14.8766L120.768 15.7336L120.779 15.8925L120.583 16.1252L120.871 16.1418L121.132 16.2804L121.301 16.8235L121.517 17.191L121.909 17.6934L122.709 17.8578L123.315 17.9188L124.003 18.2032L124.509 18.5671L124.9 19.8028L124.773 20.5786L124.811 21.1253L124.608 21.3396L124.042 21.6979L123.918 21.8882L122.761 22.8117L122.508 23.2477L121.888 23.8332L121.274 24.9489L120.375 25.9685L120.057 26.227L119.572 26.2862L119.277 26.4432L118.579 27.2762L117.642 27.5533L117.555 28.0354L117.014 29.1363L116.536 29.7384L116.232 29.9416L115.466 31.0388L115.368 31.519L115.372 32.3595L114.861 32.8711L114.329 33.1962L114.263 33.9147L114.023 34.1604L113.818 34.3192L112.736 34.1309L111.057 34.9122L110.483 35.1061L112.316 35.1449L112.904 35.5605L114.194 35.2853L115.756 34.2952L116.352 34.0865L117.562 33.4142L118.055 32.9653L118.952 32.4278L119.144 32.1914L119.646 31.9402L119.919 32.2597L119.941 32.461L119.528 32.8545L119.635 33.1075L119.906 33.4252L120.004 33.8648L120.041 34.1992L120.209 34.7847L120.764 35.5771L120.783 35.8394L120.705 36.1848L120.971 36.4693L121.246 36.6374L122.191 37.4907L122.929 37.0142L123.385 36.8756L123.675 36.6762L124.284 36.5432L124.782 36.7427L125.732 37.029L126.428 36.7242L127.834 36.026L127.395 37.2617L127.076 38.3958L126.834 38.8539L126.594 40.0878L126.358 40.4184L126.166 40.7952L126.48 40.6641L126.749 40.4849L127.094 40.0102L127.353 39.1845L128.371 36.9809L128.663 36.7851L129.51 36.5339L130.968 34.7718L131.538 34.7774L131.904 35.1819L132.249 35.422L132.337 34.9399L132.836 34.7441L132.31 34.5058L132.225 34.2897L132.175 33.9295L132.533 33.4419L132.319 33.0097L133.061 32.4666L133.004 32.0584L133.269 31.7222L133.605 31.375L133.985 31.2069L134.056 30.9095L134.296 30.7876L134.484 30.7432L134.855 31.0757L135.257 30.6842L135.648 30.5308L135.824 30.5992L136.043 30.7728L136.274 30.8467L136.46 30.8153L136.946 30.5641L137.394 30.9686L137.664 31.0573L137.59 30.83L137.448 30.6195L137.558 30.4477L137.771 30.3406L138.442 30.4366L138.795 30.6176L139.177 30.952L139.707 30.976L140.124 30.9409L140.386 31.1293L140.812 31.1274L141.026 31.4211L141.676 31.833L141.816 32.1119L142.338 32.2468L142.829 32.4186L143.351 32.4647L143.879 32.4241L143.901 32.7769L144.287 32.873L144.784 32.7954L145.158 33.2295L146.16 33.5564L146.854 34.057L147.31 33.9683L147.819 34.1013L148.366 35.1892L148.489 35.9613L148.733 35.8542L148.96 35.5088L149.251 34.8771L149.8 34.6683L150.062 34.9103L150.61 35.2982L151.082 35.7231L151.282 35.9964L151.638 36.0408L151.341 36.3769L151.64 36.3418L151.999 36.1036L152.308 36.5986L152.54 37.1379L152.586 37.6865L152.367 38.0005L152.175 38.1982L151.961 38.5861L151.708 38.6562L151.455 38.7819L151.743 39.0645L151.94 39.336L152.372 38.6008L152.677 38.394L153.116 38.2795L153.345 38.8022L153.393 39.2972L152.677 39.5022L152.675 39.892L152.461 40.1136L152.321 40.3685L152.208 40.9005L152.062 41.342L151.636 43.2999L151.629 43.6232L152.149 43.2777L153.109 42.2803L153.4 41.2182L153.779 40.1709L154.19 39.8421H154.447L154.829 39.9566L154.851 40.3002L154.792 40.4978L154.382 41.0187L154.209 41.3032L154.376 41.5839L155.305 40.7213L155.722 40.4184L156.076 40.4793L156.779 40.0803L158.197 39.9973L158.304 39.541L158.586 39.3471L159.365 39.3988L160.882 39.8052L161.423 40.1376L162.233 40.4461L162.659 40.8137L164.44 41.4897L165.734 41.5617L166.374 41.2551L167.173 41.5766L167.596 41.9367L168.426 42.1307L169.264 42.2322L169.905 41.9737L171.558 41.8887L173.634 41.5063L174.873 41.5969L176.275 41.8462L177.275 42.4871L178.117 42.8492L178.626 43.2057L179.448 43.5769L181.199 44.5725L181.814 45.1488L182.899 45.932L183.989 46.2608L184.578 47.0809L185.045 47.4503L186.2 48.8357L187.511 49.8054L188.387 50.7751L190.07 51.3995L190.727 52.4301L191.866 52.5558L192.351 52.709L192.942 53.1431L193.752 53.3851L194.808 53.3168L195.972 53.3666L196.915 53.1634L199.145 53.5495L199.495 53.7397L199.957 54.1775L200.771 55.8122L201.256 57.6261L201.496 59.0132L202.051 60.0919L202.354 62.1201L202.612 62.7592L202.633 63.2523L202.852 63.3632L203 64.7337L202.943 65.286L202.729 66.0045L202.714 66.3259L202.745 66.5291L202.651 66.8302L202.622 67.1183L202.838 67.7648L202.849 68.282L202.559 68.91L202.164 70.5521L201.175 73.2766L200.226 74.8429L198.899 76.461L198.034 77.307L197.69 77.3938L197.377 77.2257L197.6 77.6727L197.406 78.0661L196.528 79.2594L195.655 80.0389L194.749 81.3946L194.68 81.426L193.52 81.9506L192.833 82.3792L191.955 83.1586L191.148 84.3888L190.982 84.5458L190.685 84.459L190.694 85.0833L190 86.0734L189.788 86.2193L189.794 85.9385L189.914 85.7243L189.969 85.4971L189.965 85.2274L189.771 85.4232L189.36 86.1657L189.498 86.7088L189.201 87.5308L188.064 89.8803L186.673 91.8585L186.352 92.4699L185.209 93.8054L184.37 94.45L184.133 94.4537L183.866 94.3983L183.731 93.3713L183.063 92.7507L182.871 92.6417L182.598 93.2992L182.369 93.4802L182.039 93.519L182.391 93.8054L182.495 94.1379L182.135 94.8028L182.124 95.4068L181.481 96.0736L181.109 96.5612L180.92 97.1727L180.806 97.7434L181.088 97.5882L181.223 97.7083L181.328 97.8856L181.264 98.1479L181.057 98.6448L181.088 99.8805L181.02 100.161L181.225 100.466L181.443 99.947L181.568 100.093L180.961 103.41L181.199 104.906L181.288 106.604L181.561 108.264L181.862 109.75L181.886 109.868L181.47 111.595L180.939 113.302L180.62 114.696L180.418 116.203L180.217 116.929L180.153 117.672L180.383 119.434L180.47 119.768L179.826 120.555L179.13 120.937L178.746 121.318L177.897 122.74L177.436 124.846L177.425 125.967L177.643 128.32L177.48 129.283L177.211 129.927L176.893 130.35L176.083 130.858L175.356 132.098L175.041 133.402L174.542 133.878L174.441 134.61L174.04 135.4L173.001 136.581L172.326 136.924L172.005 137.255L171.8 137.948L171.148 139.089L170.669 140.572L170.794 141.077L170.801 141.154L170.977 142.872L170.912 143.31L170.279 143.784L167.895 144.671L167.26 145.039L165.837 146.55L165.748 146.906L165.808 147.416L166.04 147.71L165.8 148.027L165.516 148.598L165.101 148.563H162.726L161.441 148.744L160.773 148.709L160.472 148.572L160.136 148.349L160.035 148.055L160.218 147.612L160.109 147.348L159.756 147.357L159.37 147.482L159.304 147.746L159.332 147.937L159.476 148.212L159.555 148.552L159.396 148.845L158.643 148.884L157.798 149.154L156.742 149.267L155.901 149.462L155.513 149.215L155.901 149.091L156.458 149.15L157.056 148.945L156.916 148.703L156.071 148.393L155.131 148.583L154.611 148.954L153.472 148.919L152.077 149.202L151.85 149.49L151.889 150.048L152.16 150.17L152.428 150.425L152.171 150.663L151.922 150.768L150.449 151.029L149.084 152.12L148.513 152.257L148.006 152.739L147.954 153.151L147.794 153.4L147.469 153.413L146.756 153.188L145.832 153.183L145.164 153.362L141.751 155.137L140.526 155.85L139.129 157.303L136.772 158.936L135.534 159.913L135.299 160.166L135.104 160.179L134.716 160.383L134.869 160.551L135.133 160.565L135.025 161.136L134.532 161.526L133.607 162.551L133.402 162.475L133.696 161.942L133.242 161.921L132.574 161.725L132.284 161.945L132.444 162.473L132.194 162.701L131.738 162.727L131.324 162.664L130.87 162.278L131.075 162.978L132.035 163.148L132.433 163.312L132.583 163.582L131.837 164.832L131.214 164.995L131.145 165.172H131.488L131.679 165.519L131.455 166.919L131.147 167.185L130.966 167.193L130.787 167.433L131.033 167.891L131.287 168.225L131.252 168.875L131.156 169.413L131.151 169.936L131.472 170.948L131.588 171.988L131.717 172.367L131.791 172.788L131.577 173.181L131.699 173.813L131.334 174.89L131.525 176.445L131.448 177.908L131.304 178.678L131.071 179.28L130.533 180.056L130.521 180.834L129.361 181.56L128.078 182.574L126.893 183.778L125.618 185.479L124.13 188.076L122.752 191.802L121.093 194.632L120.428 195.657L119.532 196.806L118.337 198.147L116.739 199.491L114.99 200.692L114.359 201.233L113.742 201.996L113.589 201.68L113.722 201.159L113.637 200.77L113.619 200.265L113.971 200.171L114.499 200.492L114.768 200.275L114.964 200.06L115.601 199.925L116.815 198.608L117.716 198.123L118.223 197.293L118.31 196.854L118.289 195.961L118.577 195.734L119.229 195.812L119.362 195.557L119.304 195.276L119.432 194.663L120.316 194.12L120.735 193.466L120.595 191.8L120.757 191.724L121.12 191.983L121.292 191.876L121.475 191.146L121.386 190.767L120.958 190.668L119.478 191.49L118.996 191.455L118.917 190.81L118.197 190.514L117.917 189.979L117.834 189.613L117.584 189.463L117.599 190.097L117.668 190.712L118.313 191.431L118.157 191.717L117.85 192.049L117.636 192.79L117.66 193.752L117.487 193.459L117.265 193.289L117.175 194.323L116.747 194.72L116.612 195.11L116.724 195.563L116.503 195.875L115.412 196.715L114.325 197.29L114.089 197.559L113.973 198.202L113.807 198.861L113.325 199.443L112.943 200.6L112.952 201.098L113.08 201.833L113.284 202.317L112.96 202.641L112.522 203.269L112.175 203.978L111.312 206.647L110.568 208.263L109.994 209.056L109.176 209.892L106.847 212L106.707 211.97L106.366 211.8L106.08 211.599L106.015 211.464L105.982 211.263L106.021 210.504L106.015 208.468L106.117 208.084L106.268 207.837L106.722 207.478L107.163 206.967L107.661 206.315L108.121 205.797L107.957 205.45L107.573 205.114L106.892 204.844L106.236 204.368L105.655 203.754L105.386 203.117L105.138 202.43L104.904 201.889L104.827 201.641L104.596 201.538L104.23 201.263L104.002 201.006L103.668 200.858L103.07 200.698L102.448 200.415L101.674 199.746L101.117 199.006L100.842 198.516L100.549 198.173L98.9523 197.604L98.227 196.926L97.941 197.138L97.5146 196.931L97.0938 196.606L96.9684 196.355L96.7912 196.098L96.6251 195.805L96.5181 195.524L96.0862 195.031L95.527 194.499L95.2908 194.347L95.1653 194.391L95.0454 194.595L94.9678 194.792L94.7574 194.923L94.4972 195.167L94.2296 195.466L93.8882 195.664L93.4822 195.733L93.2091 195.723L93.1537 195.605L93.1389 195.197L93.2405 194.268L93.0042 193.909L92.6886 193.525L92.3251 193.013L91.1292 191.929L89.4996 190.372L88.9238 189.898L88.3831 189.861L87.8884 189.914L87.4326 190.119L87.0875 190.838L86.9454 190.948L86.0669 190.934L85.194 190.817L84.9006 190.38L85.1331 190.095L85.9544 189.463L86.4083 188.9L86.4951 188.407L86.8882 187.964L87.5895 187.572L88.3702 186.852L89.2302 185.802L89.7543 185.03L89.9388 184.532L90.2765 184.147L90.7674 183.878L91.1956 183.316L91.5628 182.463L92.063 181.785L92.6979 181.283L93.054 180.865L93.1297 180.534L93.3087 180.324L93.5929 180.232L93.7295 180.058L93.7202 179.803L93.7978 179.629L93.9602 179.537L94.2333 179.57L94.6172 179.727L94.8479 179.698L94.9273 179.482L94.8257 179.234L94.5434 178.957L94.6504 178.656L95.3923 178.168L95.9385 177.984L96.2855 177.683L96.614 177.204L97.1473 176.872L97.8837 176.683L98.0793 176.504L98.0517 176.273L98.203 176.107L98.6385 175.987L98.8747 175.762L98.9135 175.431L99.0538 175.124L99.2955 174.842L99.565 174.736L99.8621 174.808L100.141 174.701L100.403 174.415L100.717 174.282L101.082 174.3L101.27 174.238L101.898 174.105L102.245 173.865L102.529 173.327L102.782 173.12L103.003 173.24L103.385 173.061L103.928 172.583L104.031 172.573L104.432 172.35L104.845 171.522L105.057 170.97L105.007 170.518L104.871 170.194L104.917 169.72L105.054 168.432L105.09 167.906L105.31 167.54L105.295 167.178L104.904 166.365L104.509 165.652L104.297 164.446L104.157 163.988L103.828 163.866L103.529 163.467L103.153 163.432L102.975 163.279L102.793 163.153L102.525 163.19L102.296 163.423L101.874 163.43L101.606 163.526L101.292 163.733L100.993 163.639L100.805 163.456L100.401 163.454L100.429 162.636L101.141 161.424L101.333 160.861L101.241 160.541L101.453 159.417L101.972 157.492L102.138 156.234L101.949 155.641L101.944 155.227L102.211 154.876L102.341 154.771L101.673 154.342L101.313 153.951L100.851 153.672L100.355 153.448L100.115 153.543L99.8584 153.672L99.362 153.877L98.7972 154.232L98.5057 154.361L97.9907 154.492L97.4094 154.605L96.9296 154.531L96.5181 154.455L96.2597 154.232L96.1231 153.746V153.336L96.0382 152.741L95.73 152.405L95.6267 152.144L95.6101 151.829L95.6451 151.476L95.73 151.215L95.6783 150.899L95.5418 150.676L95.5768 150.286L95.5085 149.747L95.3037 149.413L95.2003 149.025V148.637L95.0472 148.249L95.0306 147.824L95.1671 147.436L95.2188 147.048L95.0656 146.771L94.7741 146.605L94.5507 146.162L94.5157 145.589L94.2757 145.277L94.0193 145.018H93.7276L93.2829 144.871L92.8898 144.889L92.2549 144.871L91.9633 144.778L91.8101 144.577L91.4171 144.302L91.1938 143.823L90.9206 143.731L90.5257 143.879L90.3891 144.063L90.2359 144.322L89.9628 144.617L89.603 144.599L89.2264 144.765L88.8666 144.784L88.3868 144.821L87.9069 144.673L87.3256 144.507L86.8273 144.396L86.3475 144.507L86.0227 144.414L85.5945 144.359L85.1147 144.322L84.7382 144.026L84.3266 143.862L84.1033 143.917L83.8118 144.102L83.5036 144.065L83.1086 143.917L82.9555 143.568L82.9905 143.347L83.0754 143.125L83.2286 142.813L83.1437 142.482L83.1787 142.188L83.247 141.932L83.3153 141.638L83.2636 141.363L83.247 141.069L83.2119 140.794L83.1603 140.5L83.3651 140.079L83.5367 139.732L83.4334 139.44L83.4685 139.239L83.6051 138.91L83.7767 138.507L83.7601 137.757L83.6069 137.32L83.439 137.201L83.3965 137.07L83.4777 136.897L83.3891 136.719L83.354 136.536L83.4426 136.377L83.3209 136.064L83.0754 135.973L82.9905 135.882L82.9056 135.535L82.8373 135.134L82.8724 134.826L82.7524 134.554L82.5808 134.39L82.4092 134.1L82.2375 133.882L82.1692 133.574L82.0548 133.175L82.3963 133.101L82.531 132.877L82.7709 132.574L83.0865 132.495L83.463 132.384L83.6013 132.161L82.7248 131.355L82.1988 130.873L82.507 130.219L83.0274 129.12L83.5294 128.056L83.9132 127.247L84.0111 127.098L84.347 127.046L84.286 126.628L84.275 126.355L84.0056 126.34L84.3064 125.354L84.7511 123.95L85.0888 122.888L85.1977 122.711L85.4395 122.661L85.4948 122.539L85.2033 122.369L85.0242 122.038L84.6348 121.091L84.0203 119.598L83.976 119.065L83.7509 118.736L83.3744 118.847L82.9296 118.741L81.8168 117.932L81.0804 117.495L80.8313 117.236L80.7205 116.407L80.5009 115.492L80.4068 114.362L80.4455 114.092L81.0675 113.235L81.0656 112.803L81.1173 112.424L81.0915 112.125L80.9383 112.121L80.6891 112.252L80.3108 112.352L80.0968 112.361L77.9246 112.28L75.4535 112.188L73.3976 112.11L71.6129 112.044L71.5539 111.307L71.4524 110.075L71.3804 109.199L71.266 107.814L70.55 106.951L69.773 106.017L69.4999 105.776L70.4392 105.747L71.1054 105.727L70.9744 103.22L70.7714 102.965L70.5906 102.156L70.4687 101.698L70.1384 101.329L70.0627 100.911L70.1237 100.634L70.3045 100.462L70.4245 100.034L70.334 99.6034L70.1384 99.2026L69.8985 98.8184L69.439 98.582L68.7819 98.1534L67.7854 97.6086L66.9438 97.2281L66.6744 97.2742L65.1869 97.422L64.6923 97.4996L64.3601 97.4127L63.251 97.4165L62.8154 97.1246L62.45 96.7829L61.6731 95.9148L61.5531 95.4807L61.2523 95.3422L60.7965 95.3957L60.3351 95.3366L59.4418 94.9764L58.604 94.607L58.198 94.6218L57.8381 94.3909L57.2014 93.8275L56.9043 93.6077L56.7695 93.3159L56.6348 92.8874L56.3783 92.795L56.048 92.8726L55.6899 93.0924L55.188 92.9464L54.5734 92.5512L54.1766 92.2427L53.9496 92.0968L53.4163 91.8807L52.9014 91.8364L52.1226 92.154L51.4841 92.0229L50.4838 91.9084L49.6275 91.6775L49.3156 91.079L49.1477 90.6838L48.6383 90.4363L48.2323 90.1333L47.7487 89.6734L47.5089 89.5201L47.0715 89.3926L46.6673 89.2301L46.623 88.9401L46.4717 88.5577L46.4366 88.4635L46.1616 87.9999L46.0324 87.9667L45.8903 88.059L45.7833 88.1255L45.667 88.0442L45.6467 87.8373L45.7205 87.5049L45.5618 87.1576L45.1687 86.7919L44.962 86.4132L44.9436 86.0216L44.8568 85.7612L44.7 85.6282L44.6114 85.3992L44.5929 85.0741L44.7074 84.6862L44.9547 84.2373L44.9011 83.5447L44.5487 82.6101L44.353 81.9377L44.3161 81.5239L44.3696 81.2173L44.5837 80.9199L45.01 80.1903L45.0857 79.6343L44.9509 79.0082L44.9325 78.5298L45.0303 78.201L44.8827 77.7706L44.58 77.3643L44.3696 77.355L44.0836 77.4659L43.7385 77.8094L43.3325 77.8704L42.9726 77.658L41.8431 77.7466L40.088 77.959L39.3868 78.1788L38.9734 78.273L38.4732 78.345L37.6723 78.7404L35.6958 80.2753L35.286 80.4988L34.821 80.5302L34.5497 80.7426L34.1141 80.9088L33.2578 81.5165L32.8223 82.0042L32.5363 82.4456L32.2059 82.4604L31.9494 82.3385L31.1392 82.3995L30.724 82.5509L30.2736 82.9794L29.7144 83.7553L29.4838 83.9769L29.0335 84.2059L28.5131 84.3962L27.8689 84.6807L27.5811 84.6991L27.3264 84.749L27.1068 84.6197L27.033 84.3408L26.7007 84.1653L25.9072 84.0766L24.7316 83.8735L23.5191 83.8347L22.9175 83.8532L22.4229 83.8661L21.5647 83.7571L20.9391 83.7386L20.391 84.0138L19.5937 84.3555L19.2301 84.4424L18.9626 84.4553L18.7024 84.4128L18.3978 84.2355L17.9715 83.8273L17.643 83.9843L17.4068 84.1598L17.4105 83.2713L17.4161 81.9358L17.4216 80.7592L17.4252 79.819L17.4289 78.7219L17.4326 77.9479L17.6559 77.6542L17.7925 77.3254L17.6283 76.8859L17.6652 76.4832L17.7796 76.2024L17.9291 75.9291L17.5839 76.0658L17.4326 76.1415L17.2481 76.3483L16.8015 76.6291L16.5025 76.9099L16.15 77.1389L15.7034 77.6432L15.3361 77.9202L14.9541 78.0975L14.3193 78.6905L13.7933 78.8087L12.4018 78.8992L10.9549 78.8974L9.63168 78.8955L9.43236 78.8881L9.44531 78.3987L9.47849 78.0532L9.02635 77.6894L8.99498 77.2405L8.87501 76.9302L8.72368 76.5515L8.40812 76.3096L7.96336 76.2154L7.23435 76.0066L6.15288 75.7886L5.11941 75.7739L4.10626 75.7942L4.72449 75.0332L5.34272 74.2741L5.3243 73.6128L4.82412 73.0365L4.55468 72.6781L4.13763 72.185L3.62269 71.8432L3.34222 71.3889L3.36807 71.1137L3.32374 70.9326L3.12814 70.8274L2.93249 70.6611L2.66305 70.4782L2.34749 70.2363V69.9943L2.22753 69.7375L2.03187 69.4364V69.1945L1.85102 68.8158L1.65542 68.5443L1.45977 68.3633L1.17372 68.1065L1.18853 67.896L1.39888 67.7907L1.48933 67.5487L1.45977 67.3068L1.2199 67.1553L0.933847 67.0795L0.557346 66.6418L0.286051 66.4146L0.105206 66.2779L0 66.1264L0.105206 66.0211L0.225169 65.8697L0.256539 65.6277L0.195601 65.4024V65.2066L0.376501 65.1456L0.572102 65.177L0.767702 65.057L1.02424 65.0126L1.31029 64.9812L1.46163 64.8464L1.44687 64.6063L1.26602 64.139L1.08512 63.9431L1.02424 63.6569L1.17191 63.1064L1.26602 62.7536L1.59634 62.3805L2.60403 61.5807L3.50831 61.0377L3.94935 60.9822L4.27601 60.7809L4.4827 60.4724L4.53993 60.1363L4.4938 59.8426L4.32585 59.4104L4.12468 58.871L3.97334 58.5699L4.10806 58.2097L4.34799 57.7165L4.83893 56.9722L5.29659 56.1706L5.34643 55.9378L5.40546 55.4483L5.61587 54.4509L5.73211 53.9115L5.67123 53.7028L5.77644 53.5218L6.06249 53.3703L6.7527 53.2336L7.22145 52.9363L7.94303 52.3766L8.5447 51.7818L9.04296 51.5897L9.94544 51.0393L10.464 50.6902L10.667 50.5812L11.1764 50.3281L12.0899 50.2413L12.8502 50.1508L13.2802 49.9846L13.9095 49.9162L14.3322 49.7297L14.8028 49.7241L15.6868 49.5339L15.9876 49.2494L16.2441 48.9096L16.5892 48.6196L16.9934 48.5438L17.4437 48.5937L17.9826 48.5882L18.6359 48.4976L18.9515 48.723L19.0899 48.9982L19.4922 49.2771L19.7783 49.2623L20.0643 49.2014L20.4555 49.4415L20.7121 49.4119L20.8764 49.2771L20.9077 48.941L21 48.7581L21.1919 47.7053L21.5094 45.9671L21.7973 44.3915L22.1147 42.6497L22.445 40.8506L22.779 39.0293L23.0522 37.5351L23.2866 36.2513L23.4324 35.4626L23.6575 34.4301L23.7461 33.5231L23.8365 33.2627L23.7793 33.0429L23.5837 32.7308L23.5855 32.5941L23.6077 32.4131L23.5855 32.2542L23.3807 32.0843L23.222 31.9827L23.0965 31.8349L23.0393 31.6299L22.9359 31.4248L22.8898 31.2087L22.7403 31.0388L22.696 30.8227L22.7994 30.6176L22.8436 30.4015L22.7994 30.1984L22.7422 29.9601L22.6277 29.7329L22.4542 29.5944L22.039 29.441L21.6219 29.0735L21.1292 28.7447L20.5017 28.1204L20.3652 27.8248L20.3633 27.014L20.391 26.1347L20.4316 24.8066L20.4519 24.1306L20.8062 24.0918L21.1181 24.0733L21.4448 24.0272L21.7289 23.981L21.991 23.8831L22.1867 23.763L22.4192 23.6855L22.6019 23.7131L22.7846 23.606L22.9857 23.5044L23.1814 23.4213L23.4656 23.3511L23.7314 23.5136L23.8808 23.6762L24.0543 23.7538L24.2167 23.7353L24.3293 23.7501L24.4456 23.8794L24.595 23.8886L24.8091 23.8646L25.0103 23.8369L25.1025 23.7981L25.1173 23.715L25.0656 23.5709L24.9955 23.4361L25.0509 23.2273L25.0564 22.9762L25.0656 22.6566L24.9069 22.4793L24.7482 22.1449L24.571 21.8753L24.2961 21.6943L24.0395 21.6241L23.8255 21.7367L23.6262 21.7552L23.4767 21.6536L23.2349 21.6499L22.9728 21.6167L22.6979 21.5779L22.1996 21.6518L22.0224 21.5613L21.7807 21.5521L21.5001 21.6499L21.5075 20.3662L21.5149 19.1564L21.5186 18.3067L21.7696 18.3251L22.0815 18.1718L22.5447 18.1478L22.9009 17.9871L23.1002 17.9742L23.4767 18.0517L23.8697 18.218L24.2555 18.242H25.2668H26.3593H27.5755H28.7935H29.8492L30.1758 18.2512L29.9857 17.9687L29.7643 17.6029L29.8492 17.3148L29.9581 17.0248L30.0854 16.8733L30.4139 17.034L30.6889 17.5272L30.9177 17.8985L31.141 18.0813L31.4178 18.1016L31.7316 18.0388L32.0453 17.8855L32.5805 17.2058L33.112 16.624L33.387 16.4281L33.6786 16.249L33.8964 16.1806L34.1935 16.2028L34.4445 16.3617L34.6069 16.6387L35.2012 17.6029L35.6496 18.3307L35.8009 18.7851L35.8102 19.8933L35.7825 20.8742L35.8415 21.0016L35.9301 21.0385L36.9101 20.8076L38.2407 21.9972L39.2244 22.8764L39.6488 23.1572L39.885 23.2347L40.4571 23.1757L41.1363 23.0611L41.4666 22.9355L41.832 22.6603L42.4245 22.278L42.908 22.0674L43.0981 22.0396L43.29 22.108L43.6979 22.3371L43.9212 22.7619L43.7163 23.2551L43.7514 23.5617L44.1795 23.545L44.5228 23.0352L44.7627 22.6326L45.2647 22.3057L45.7537 21.842L46.0952 21.3987L46.4956 21.1401L47.0991 20.8243L47.5771 20.6322L48.0237 20.6525L48.3559 20.4438L48.7859 20.0522L49.0867 19.7382L49.2953 19.6255L49.7142 19.6569L50.2365 19.6144L50.7495 19.2321L51.2164 18.7703L51.4637 17.9908L51.6261 17.3L51.7664 17.1596L51.9362 17.0488L52.1355 16.9767L52.6154 16.9269L53.4569 16.5593L54.0364 16.1862L54.5863 16.1068L54.7487 16.007L54.948 15.6616L55.0477 15.0539L54.972 14.6863L53.9607 14.5718H53.2982L52.202 14.4776L51.6797 14.3261L51.5671 14.2208L51.556 14.1045L51.6612 13.8403L51.7627 13.3472L51.6133 12.6785L51.0669 11.6312L50.6775 10.6005L50.6259 9.88198L50.6351 9.12286L50.6665 8.62596L50.386 8.23809L48.8708 7.01346L48.3467 6.43528L48.1732 6.0345L47.5753 5.29747L47.7266 5.0703L48.0717 5.07769L48.3651 5.26979L48.6346 5.67982L48.8265 5.77221H49.0904L50.4875 5.77035L50.8141 5.84053L51.0116 5.97909L51.1795 6.15084L51.4305 6.62925L51.7 6.862L52.2536 6.85462L53.121 6.84537L53.6082 6.80287L53.8998 6.93584L54.2615 7.04672L55.0237 6.79182L55.2359 6.78624L55.4648 6.89892L56.286 7.75416L56.7566 8.1143L57.1534 8.5927L57.731 8.59457L58.2109 8.18454L58.3382 6.80473L58.4822 6.40389L58.724 6.2912L59.0118 6.2783L59.3533 6.06218L59.7224 5.7814L60.0435 5.68721L61.3778 5.98833L61.7487 5.84425L63.0997 5.48033L64.4801 5.01117L64.8676 4.42008L65.4453 4.26123L65.8993 3.82905L66.2647 3.87336L66.8183 3.89185L67.1616 3.81609L67.3351 3.73486L67.5252 3.53165L67.8371 2.95352L68.2154 2.73368L68.6897 2.50099L69.0145 2.2276L69.2821 1.88955L69.4057 1.59587L69.402 1.36312L69.2452 0.910589L69.0532 0.48579L68.8465 0.345374L68.6915 0.291824L69.1621 0.192106L69.5497 0.34171L70.155 0.363864L70.4189 0.249321L70.8009 0.304732L71.2845 0L71.5945 0.0997172H71.7994L71.9858 0.330606L72.1315 0.591032L72.5837 0.906925L72.5394 1.38713L72.4563 1.81199L72.3973 2.3033L72.3715 2.67641L72.1795 3.05877L71.8916 3.4153L71.8067 3.55938L71.7661 3.74777L71.9599 3.86231L72.3032 3.89551L72.7313 3.91034L73.0229 4.02116L73.3994 4.04331L73.8534 4.3499L74.073 4.53463L74.0915 4.67685L73.9475 5.01675L73.8903 5.33073L74.0029 5.53022L74.1358 5.6743L74.503 6.38359L74.6783 6.62925L74.826 6.70868L74.861 6.84537L74.7356 7.10394L74.5842 7.43274L74.2428 7.77817L74.1967 8.0515L73.9254 8.22332L73.2887 8.63154L73.3994 9.27799L73.4216 9.60493L73.4105 9.85983L73.1927 10.2015L72.8162 11.2082L72.6778 11.7107L72.556 12.8706L72.5634 13.2604L72.7369 13.7831L73.106 14.945L73.3163 15.1315L73.8017 15.403L73.8627 16.188L73.8202 17.0081L73.7981 17.3258L73.8774 17.4625L74.0951 17.529L74.2502 17.627L74.2742 17.8689L74.2594 18.122L74.6211 18.2679L74.9367 18.3603L75.2283 18.7075L75.7543 19.2487L75.9646 19.3484L76.0698 19.5719L76.5146 20.0282L77.1919 20.1944L77.8747 20.3958L78.1442 20.6821L78.4247 20.9148L78.6369 20.9258L78.816 20.8889L79.1113 20.6876L79.3475 20.514L79.759 20.5251L80.2426 20.4955L80.3256 20.3532L80.3717 20.1704L80.2721 19.7031L80.4437 19.5609L80.8442 19.4814L80.9235 19.2321L81.014 19.0954L81.1284 18.9365L81.265 18.9144L81.4366 19.0049L81.7005 19.0621L81.9976 19.1415L82.1563 19.3004L82.4202 19.3133L82.7137 19.2838L82.8318 19.1822L82.9185 19.0049L82.9831 18.6225L83.1713 18.6114L83.5497 18.5265L83.952 18.3584L84.4909 18.3325L84.9947 18.3362L85.2475 18.2236L85.4819 17.9779L85.9359 17.2815L86.174 17.1208L86.4305 17.0007L86.6483 17.023L87.093 16.9066L87.4584 16.7403L87.595 16.7828L87.8793 17.1393L88.0232 17.2169L88.2336 17.2427L88.9219 17.4237L89.2874 17.3665L89.6823 17.252L90.0625 17.2095L90.3356 17.2889L90.5331 17.1855L90.7047 17.1171ZM122.733 17.1356L122.217 17.3702L121.92 17.2797L121.646 16.6664L121.739 16.1566L122.113 15.9867L122.403 16.0236L122.51 16.0883L122.769 16.925L122.733 17.1356ZM123.49 25.0966L122.927 25.2703L122.822 25.1077V24.4594L122.981 24.1047L123.697 24.005L123.771 23.8997L123.975 23.8332L124.09 24.0567L124.073 24.428L123.49 25.0966ZM122.075 26.4025L121.982 27.1598L121.05 26.8403L121.12 26.0664L121.556 25.8484L121.942 25.4365L122.075 24.9322L122.082 24.2451L122.226 24.1269L122.351 24.0789L122.464 24.1251L122.508 25.1557L122.562 25.7875L122.075 26.4025ZM125.638 25.7394L125.85 26.0091L125.118 27.086L124.714 27.2411L124.271 27.2725L123.697 26.9512L122.804 26.9752L122.525 26.8994L122.495 26.4303L122.87 25.9297L123.619 25.9574L124.909 25.5547L125.638 25.7394ZM127.163 27.6992L125.79 27.8599L125.162 27.6032L125.304 27.3871L125.773 27.0416L126.343 26.7978L126.854 26.6888L127.388 26.8255L127.534 27.1155L127.489 27.4074L127.163 27.6992ZM120.901 27.7971L119.484 28.8057L119.004 28.475L118.904 28.2829L118.985 28.089L118.969 28.0077L119.127 27.6623L119.919 27.3797L120.318 27.3317L120.827 27.4203L120.912 27.6678L120.901 27.7971ZM126.205 28.3014L126.688 28.3235L127.373 28.2256L127.833 27.9855L128.346 27.9375L128.853 27.9633L130.564 28.2312L131.592 28.3143L131.968 28.3993L132.336 28.5212L132.605 28.6523L132.672 28.9368L132.422 29.3949L132.236 29.8751L132.062 30.5456L131.928 30.6804L131.703 30.6454L131.843 31.2457L131.793 31.4858L131.68 31.7185L131.405 32.2025L130.988 32.8194L130.865 32.9487L130.547 33.1629L130.289 33.4363L130.344 33.695L130.473 33.9554L130.32 34.2805L129.828 34.7551L129.532 34.8697L129.261 34.9177L129.01 34.8715L128.565 34.395L128.519 34.7681L128.399 35.1505L128.248 35.3591L127.674 35.337L127.355 35.132L126.836 34.9048L126.738 35.518L126.415 35.941L126.09 36.074L125.581 36.1627L125.289 36.3437L124.74 36.2033L124.228 35.9226L123.939 35.8985L123.713 36.1257L122.527 36.1682L121.982 36.3991L121.65 36.3344L121.161 35.8689L121.084 35.5605L120.792 34.9343L120.53 34.1899L120.343 33.5139L120.5 32.9302L120.818 32.9487L121.192 33.0355L121.272 32.9948L121.29 32.8065L121.207 32.6513L120.604 32.6753L120.222 32.3281L120.155 31.7924L120.233 30.6768L120.283 30.4477L120.55 30.1282L120.637 29.8456L120.571 29.5463L120.685 29.0014L120.934 28.5304L121.886 27.9356L122.992 27.7232L126.205 28.3014ZM114.79 34.504L114.242 34.6019L114.949 33.3126L115.58 32.7123L115.589 31.5227L116.274 30.4643L116.904 30.0339L117.788 29.9083L118.271 30.553L117.671 32.3816L117.496 32.3927L116.693 33.3569L115.8 34.0311L114.79 34.504ZM150.785 33.9074L150.453 34.1549L150.344 34.2823L150.071 34.1863L150.121 34.044L150.202 34.0588L150.291 33.6451L150.757 33.695L150.785 33.9074ZM152.773 42.2636L152.263 42.7698L152.431 42.1842L152.346 41.7797L152.413 41.4675L152.762 41.1646L152.867 41.1203L152.837 41.4934L152.861 41.608L152.773 42.2636ZM182.581 95.163L182.378 95.2775L182.358 94.9413L182.888 94.5183L182.974 94.0178L183.251 94.2487L183.325 94.5054L183.321 94.6125L182.581 95.163ZM181.755 97.1542L181.577 97.4663L181.372 97.4202L181.291 97.2114L181.14 97.0082L181.221 96.8494L181.358 96.7589L181.736 96.7718L181.755 97.1542ZM154.688 149.704L154.851 149.858L154.552 149.843L154.216 149.978L153.701 150.098L153.494 149.873L153.939 149.558L154.102 149.324L154.218 149.374L154.367 149.544L154.688 149.704ZM148.831 153.907L148.827 154.2L148.611 154.051L148.039 154.165L147.84 153.943L148.611 152.996L148.766 153.134L148.886 153.306L148.969 153.546L148.881 153.702L148.831 153.907ZM131.614 168.216L131.518 168.286L131.193 167.571L131.847 166.886L132.064 167.163L131.891 167.706L131.699 168.09L131.614 168.216ZM132.125 176.124L131.769 176.388L131.834 175.004L132.026 174.542L132.234 174.197L132.492 173.985L132.684 174.286L132.52 174.953L132.068 175.771L132.125 176.124Z" fill="url(#paint0_linear_6_2)"/>
<defs>
<linearGradient id="paint0_linear_6_2" x1="51" y1="17" x2="174" y2="198" gradientUnits="userSpaceOnUse">
<stop stop-color="#8FFFF4"/>
<stop offset="1" stop-color="#3064FF"/>
</linearGradient>
</defs>
</svg>
