<svg width="255" height="188" viewBox="0 0 255 188" fill="none" xmlns="http://www.w3.org/2000/svg">
<path d="M155.478 180.195L155.686 180.392L155.821 180.676L155.932 181.201L155.999 181.684L155.579 181.991L155.201 182.115L154.445 183.291L154.287 183.662L154.16 183.817L154.119 183.978L154.134 184.139L153.938 184.703L153.766 185.396L153.656 185.679L153.439 185.897L153.164 186.007L152.986 186.023L152.824 186.083L152.424 186.46L151.974 186.743L152.05 186.873L152.054 186.997L151.856 187.134L151.638 187.107L151.003 187.219L150.772 187.431L150.534 187.821L150.443 187.875L150.06 187.966L149.769 188L149.271 187.724L149.024 187.644L148.367 187.532L147.727 187.346L147.278 187.132L146.358 186.611L146.251 185.667L146.094 185.157L146.083 184.975L146.144 183.403L146.208 183.23L146.326 183.079L146.731 182.728L147.196 182.449L147.864 181.865L148.348 181.598L148.754 181.213L148.516 181.23L148.341 181.18L148.513 180.851L148.699 180.675L148.914 180.58L149.345 180.648L149.743 180.58L150.038 180.287L150.317 180.225L151.381 180.32L152.118 180.186L152.486 179.916L152.66 179.906L153.204 179.982L153.406 180.262L153.388 180.074L153.412 179.891L153.512 179.91L154.224 180.258L154.225 179.833L154.265 179.721L154.487 179.544L154.598 179.547L154.874 179.889L155.143 180.089L155.478 180.195ZM153.378 175.304L153.533 175.459L153.946 175.35L154.021 175.547L154.018 175.64L153.871 175.866L153.53 175.692L153.189 175.732L152.943 175.717L152.876 175.61L153.065 175.389L153.378 175.304ZM162.798 172.863L162.389 172.956L162.301 172.937L162.444 172.706L162.814 172.547L162.798 172.863ZM163.408 173.032L163.328 173.122L163.206 172.959L163.172 172.727L163.084 172.602L163.285 172.444L163.374 172.269L163.612 172.304L163.71 172.356L163.5 172.538L163.451 172.615L163.408 173.032ZM166.599 167.63L166.633 167.839L166.307 167.522L166.214 167.504L166.059 167.384L165.969 167.185L166.221 167.177L166.453 167.414L166.599 167.63ZM185.898 159.946L185.759 160.222L185.512 160.176L185.505 159.98L185.454 159.924L185.522 159.742L185.567 159.691L185.846 159.846L185.898 159.946ZM192.729 155.537L192.419 155.75L192.226 155.649L192.223 155.362L192.321 155.104L192.208 154.918L192.318 154.698L192.548 154.632L192.631 154.771L192.76 154.844L192.801 154.92L192.802 155.064L192.679 155.303L192.775 155.432L192.729 155.537ZM198.694 143.281L198.33 143.394H198.193L198.205 143.051L198.502 142.725L198.623 142.834L198.691 143.003L198.694 143.281ZM202.535 135.71L202.52 135.799L202.165 135.488L201.994 135.437L202.076 135.26L202.315 135.215L202.505 135.605L202.535 135.71ZM203.501 134.687L203.461 134.909L203.349 134.878L203.201 134.483L203.281 134.386L203.492 134.41L203.501 134.687ZM203.051 134.346L202.99 134.44L202.474 134.164L201.916 134.106L201.722 133.863L201.688 133.481L202.277 133.498L203.002 133.842L203.158 134.018L203.051 134.346ZM201.242 126.94L200.901 127.08L199.816 126.662L199.049 126.201L198.591 125.642L198.526 125.411L199.059 125.45L199.581 125.651L199.697 125.958L199.908 126.055L200.051 126.234L201.017 126.65L201.165 126.775L201.242 126.94ZM208.027 0.195292L208.216 0.216172L208.32 0.214671L208.521 0.0745595L209.075 0.323485L210.134 1.06285L210.799 1.39079L211.073 1.31027L211.371 1.51453L211.696 2.00346L212.099 2.29115L212.824 2.4238L213.543 2.95745L213.833 2.98725L213.934 2.68764L214.203 2.51623L214.637 2.47152L215.265 2.73536L216.087 3.30627L216.603 3.5567L216.812 3.4881L217.032 3.59396L217.209 3.86076L217.225 4.19021L217.164 4.36612L217.362 4.64339H217.589L217.961 4.77604L218.252 5.26497L218.514 5.49156L218.696 5.68681L218.729 5.8493L218.745 6.01325L218.692 6.13999L218.592 6.35016L218.561 6.57525L218.688 6.82868L219.15 7.012L219.306 7.20134L219.341 7.4428L219.485 7.70961L219.801 8.01817L219.919 8.27606L219.847 8.48327L219.94 8.65618L220.095 8.79183L220.127 9.28227L220.141 9.56399L220.395 9.88002L220.447 10.5269L220.624 11.241L221.22 12.2173L221.417 12.745L221.367 13.3711L221.453 13.6648L221.725 13.8064L221.854 14.0702L221.839 14.4563L221.945 14.6963L222.031 14.9512L221.973 15.3477L222.059 15.7039L222.199 15.9127L222.297 16.2972L222.352 16.7772L222.752 17.5344L223.493 18.569L223.948 19.3709L224.113 19.9404L224.114 20.4084L223.952 20.7751L223.943 21.0419L224.089 21.2089L224.132 21.434L224.074 21.7187L224.315 22.0556L225.129 22.6399L224.804 23.5343L224.718 24.1619L224.761 24.8207L224.963 25.2843L225.321 25.5526L225.544 25.8329L225.631 26.125L226.062 26.4426L226.835 26.7869L227.826 26.848L229.034 26.6229L229.773 26.5857L230.045 26.7347L230.138 26.9613L230.051 27.2639L230.256 27.4621L230.752 27.5575L231.092 27.7469L231.28 28.033L231.508 28.1136L231.78 27.9898L232.045 28.0077L232.302 28.1657L232.468 28.1106L232.614 27.9377H232.847L233.087 27.9407L233.235 28.3595L233.476 28.595L233.809 28.6472L234.315 29.1555L235.335 30.6L235.997 31.1112L236.662 31.2707L237.488 31.3035L237.755 31.8611L237.538 32.4498L237.483 32.9403L237.671 33.1161L237.929 33.6916L238.295 34.0255L238.365 34.2893L238.534 34.5845L238.463 35.1285L238.149 35.923L238.235 36.5998L238.72 37.1588L238.999 37.6969L239.072 38.2127L239.192 38.5257L239.363 38.636L239.859 38.5972L240.684 38.4109L241.288 38.4422L241.674 38.6941L242.626 38.7031L244.147 38.4706L245.106 38.399L245.508 38.4884L245.864 38.156L246.178 37.4002L246.471 37.0455L246.745 37.0902L247.179 36.8473L247.775 36.3151L248.292 36.0572L248.948 36.084L249.646 36.1109L250.083 35.8873L250.493 35.4207L251.205 35.0078L252.722 34.4667L253.086 34.3817L253.26 34.4115L253.765 34.4965L254.214 34.7081L254.637 35.133L254.703 35.4058L254.655 35.7635L254.562 35.9707L254.388 36.2033L254.224 36.5804L254.33 36.8741L254.575 37.5016L254.777 37.9548L255 38.4884L254.9 38.6792L254.765 39.0489L254.351 39.6735L254.125 39.912L253.881 40.1445L253.461 40.2012L253.281 40.2548L253.077 40.3532L252.949 40.5739L252.804 40.7289L252.563 41.0389L252.544 41.3058L252.652 41.7023L252.706 42.1077L252.434 42.4699L252.223 43.026L252.159 43.1929L252.055 43.6133L252.024 43.7594L251.957 44.6418L251.685 45.2425L251.306 45.9402L251.391 46.3561L251.457 46.7407L251.364 46.927L251.34 47.0894L251.285 47.4591L251.166 47.6007L250.821 47.8318L250.615 48.1106L250.658 48.5324L250.553 48.8976L250.395 49.2196L250.23 49.4298L249.992 49.5639L249.835 49.6772L249.716 50.0856L249.68 50.4017L249.569 50.7162L249.637 51.0367L249.517 51.3139L249.178 51.5077L248.986 51.6225L248.809 51.6687L248.471 51.9698L248.168 52.9999L248.099 53.5976L248.169 54.1283L247.744 54.4607L247.429 54.7245L247.231 54.6291L247.022 54.5397L246.54 54.4249L246.3 54.3474L245.815 54.1745L245.04 53.9554L244.282 53.7005L243.806 53.5663L243.432 53.459L243.148 53.2831L242.909 52.9685L242.671 53.0953L242.451 53.4679L242.084 53.6885L241.918 54.0955L241.77 54.407L241.39 54.8229L241.221 54.9943L240.476 55.2761L240.308 55.37L239.701 55.4296L239.494 55.5533L239.28 55.8157L239.222 56.0766L239.374 56.3508L239.61 56.8994L239.72 57.2735L239.88 58.0144L240.42 60.3294L240.246 60.7274L240.084 62.452L240.123 62.7621L240.106 63.2451L240.117 63.5983L240.228 63.6863L240.374 63.81L240.448 64.0157L240.429 64.3317L240.354 64.5628L240.24 65.0204L240.088 65.6808L239.92 65.9342L239.811 66.1354L239.717 66.2741L239.705 66.7406L239.643 67.0477L239.38 67.1565L239.118 67.3354L238.807 67.2698L238.534 67.3056L238.197 67.4248L237.592 67.5635L237.241 67.7483L237.073 67.8824L236.957 68.0434L236.937 68.1985L237.017 68.2804L237.357 68.3431L237.59 68.6323L237.623 68.9482L237.382 69.1286L237.264 68.9304L237.063 68.8678L236.69 68.589L236.417 68.2819L236.213 67.9421L236.222 67.2161L236.188 67.1073L235.816 66.9582L235.706 66.7406L235.529 66.6378L235.278 66.7034L235.09 66.6348L234.94 66.5155L234.761 66.5021L234.607 66.6899L234.523 67.0939L234.263 67.7632L234.24 68.1672L234.128 68.7425L234.017 69.4715L233.923 69.6235L233.633 69.6459L233.534 69.6936L233.381 69.941L233.198 69.9827L233.036 69.8382L232.782 69.6936L232.54 69.6742L232.323 69.8188L232.067 70.1333L231.922 70.3867L231.87 70.6252L231.829 70.9189L231.571 71.1991L231.336 71.3467L230.85 71.7596L230.696 71.931L230.348 71.9325L229.969 71.9161L229.458 72.0279L228.626 72.0846L228.128 71.9996L227.513 72.0786L227.033 72.2128L226.964 72.414L226.982 72.7122L227.077 72.9059L227.195 73.0356L227.394 73.4351L227.603 73.8212L227.92 74.0701L228.052 74.3384L228.058 74.5874L227.908 74.9004L227.681 75.3088L227.468 75.5607L227.309 75.5518L227.065 75.4057L226.9 75.2209L226.507 75.1523L225.544 75.2701L225.062 75.1881L224.832 75.0376L224.429 75.0271L223.807 74.8259L223.426 74.7618L223.246 74.6336L223.212 74.3384L223.034 74.1357L222.933 73.8927L222.707 73.5871L222.49 73.4336L222.276 73.3695L222.043 73.5544L221.793 73.7213L221.607 73.684L221.517 73.7302L221.416 73.8689L221.015 74.1521L220.921 74.4115L220.762 74.9615L220.65 75.5265L220.555 75.7262L220.393 75.7605L220.228 75.9304L219.882 76.4596L219.569 76.947L219.114 77.2765L218.899 77.5776L218.789 77.8519L218.465 78.235L217.989 78.3035L217.61 78.4153L217.378 78.4451L217.212 78.6002L217.09 78.8357L217.032 78.9296H216.817L216.603 79.1294L216.078 79.584L215.65 79.669L215.115 79.9716L214.644 80.2011L214.448 80.3308L214.396 80.4739L214.328 80.6558L214.1 80.6916L213.88 80.6826L213.39 81.0985L213.142 81.4518L212.178 82.203L211.784 82.6249L211.683 83.1705L211.632 83.1302L211.289 83.6058L210.614 84.0574L209.173 84.1588L208.717 83.8383L208.552 84.0589L208.424 84.3555L208.045 84.4539L207.455 84.4808L207.124 84.6761L206.947 84.8937L206.137 84.9637L205.84 85.2544L205.335 85.3573L203.229 86.6243L202.77 87.1565L202.335 87.7781L202.03 88.0896L201.757 88.3072L201.508 88.3967L201.265 88.6113L201.018 88.6382L200.767 88.5398L200.486 88.5741L200.3 88.8335L200.456 89.1718L200.37 89.3149L199.817 89.4983L198.994 89.619L198.646 89.8396L198.525 89.9648L198.343 90.0275L198.168 89.5922L198.105 89.0168L198.446 88.8782L198.759 88.8051L200.496 88.0091L200.279 87.4099L200.434 87.149L200.823 86.7242L201.076 86.514L200.939 86.4365L199.799 86.5766L199.147 86.5662L198.811 86.5229L198.912 86.1592L198.856 85.7955L198.777 85.6598L199.358 85.2455L199.621 85.1441L199.822 85.1501L199.807 84.8996L199.64 84.5225L199.82 84.035L201.003 83.4612L201.287 82.9394L201.761 82.452L202.629 81.2386L202.681 81.0314L202.933 80.4605L202.978 80.2324L202.577 79.8985L202.418 79.4305L201.244 78.5838L201.144 77.8548L201.034 77.8861L200.856 78.396L200.703 78.5599L200.159 78.5748L199.902 78.3825L198.389 78.2573L198.019 78.5867L197.675 79.0951L197.337 79.4588L196.998 79.6451L196.704 79.976L195.489 81.9347L195.03 82.0838L192.867 83.2629L191.784 83.725L190.951 84.5389L190.664 85.0308L190.41 85.5764L190.255 86.4007L189.485 87.4009L189.221 87.6156L188.952 87.7021L188.594 87.6707L188.285 87.7334L187.759 87.6454L187.114 87.9614L186.389 88.2342L185.763 87.547L185.316 87.3771L184.586 87.5679L184.247 87.8735L183.546 89.3835L183.283 90.2466L183.301 90.5999L183.709 91.6701L184.172 92.2679L185.207 92.9491L187.41 93.4172L187.927 93.2502L188.481 93.2487L189.065 93.6929L189.43 94.4263L189.463 94.9257L189.475 95.0986L189.609 95.2462L189.688 95.4981L189.456 95.7068L189.277 95.8112L189.127 96.5848L189.118 97.4389L189.307 97.7222L189.781 98.1201L190.514 98.4481L191.191 98.5182L192.486 98.3602L193.015 97.8459L192.983 97.6238L192.997 97.3361L194.137 96.5803L194.786 95.9095L194.685 95.7322L194.56 95.6144L194.674 95.5458L195.03 95.4981L196.614 94.7975L197.86 95.3699L198.572 96.0288L199.276 96.1391L199.764 96.476L200.327 96.7622L201.061 96.7816L201.681 96.8412L201.869 96.5759L202.064 96.4015L202.284 96.4357L202.532 96.783L203.236 97.0499L203.886 97.0365L204.341 96.9396L204.611 97.0633L204.22 97.5075L204.278 98.223L203.979 98.4496L203.693 98.8133L203.862 99.0533L204.012 99.1547L203.997 99.4453L203.736 99.6108L203.251 100.043L202.972 100.036L202.84 99.9522L202.746 99.7971L202.676 99.5482L202.507 99.3842L202.037 99.3216L201.55 99.3812L200.453 100.022L199.382 100.532L198.26 100.936L197.884 101.191L197.617 101.261L197.152 101.069L196.871 101.081L196.811 101.213L197.169 101.568L197.263 101.845L197.226 102.058L197.022 102.152L196.727 101.997L196.456 102.219L196.334 102.594L196.328 103.483L196.15 103.682L195.655 103.791L195.129 104.074L194.942 103.943L194.868 103.783L194.923 103.375L194.857 103.175L194.616 103.185L194.254 103.308L193.978 103.576L193.882 103.738L194.246 104.262L194.593 104.315L194.677 104.433L194.402 104.688L193.717 105.067L193.603 105.384L193.399 105.688L193.12 105.93L192.93 106.185L192.698 106.317L192.319 106.466L191.854 107.074L191.514 107.642L191.11 107.935L190.79 108.892L190.218 109.41L190.007 110.239L190.156 110.747L190.784 110.743L191.098 110.922L191.749 111.59L192.527 112.025L193.336 112.269L194.327 112.885L194.6 113.146L194.833 113.675L195.263 115.196L195.572 115.947L195.593 116.339L196.056 117.077L196.551 118.344L197.122 119.438L197.23 120.298L197.046 120.69L197.047 121.198L197.617 121.665L198.883 122.206L199.085 122.365L199.333 122.628L199.345 123.443L199.541 123.703L199.706 123.861L200.473 124.205L200.794 124.491L201.134 124.947L201.232 125.356L201.274 125.909L200.846 125.928L200.501 125.866L199.129 125.147L198.773 125.128L198.269 125.228L197.551 125.095L196.793 124.297L196.247 124.056L195.66 123.934L194.26 124.619L193.903 124.57L193.801 124.648L193.643 124.765L194.293 124.913L194.943 124.688L195.567 124.355L196.478 124.533L196.631 124.833L196.781 125.338L197.406 125.679L197.896 125.83L198.52 126.277L199.129 126.975L200.421 127.782L200.944 128.546L201.146 129.038L201.327 129.74L200.875 129.966L200.482 129.998L199.865 130.108L199.412 130.357L198.957 130.792L197.654 131.476L197.407 131.904L197.238 132.277L196.92 132.46L196.122 132.286L195.37 132.301L194.518 132.803L194.306 133.007L194.447 132.967L194.581 132.903L194.964 132.979L195.557 132.711L196.137 133.529L197.267 133.396L198.33 132.717L198.742 132.705L199.085 132.809L199.47 133.077L200.492 134.268L201.054 134.398L201.603 134.677L201.908 134.708L202.183 134.792L201.443 135.227L200.488 136.166L200.062 136.389L199.777 136.64L200.547 136.515L201.094 136.066L201.37 135.956L201.592 136.06L201.704 136.613L201.493 138.309L201.224 138.339L200.963 137.879L200.657 137.733L200.4 137.828L199.89 137.825L199.695 138.034L199.532 138.329L199.837 138.39L200.437 138.904L200.498 139.177L200.337 139.354L199.917 139.278L200.428 139.661L200.293 140.058L200.128 140.214L199.831 140.314L199.648 140.657L199.911 141.228L200.177 141.958L200.21 142.31L199.793 142.158L199.144 142.604L198.802 142.641L198.571 142.054L198.275 142.146L198.077 142.316L197.814 142.945L197.493 143.513L197.217 143.668L196.886 143.624L196.612 143.64L196.679 143.794L196.967 143.98V144.197L196.352 144.888L196.252 145.154L196.267 145.381L195.945 145.657L196.119 146.12L196.028 146.447L195.746 146.888L195.449 147.179L195.099 147.65L194.657 147.923L194.073 148.908L193.9 149.4L193.857 149.908L193.674 150.084L193.361 150.305L193.004 150.193L192.992 149.854L192.838 149.825L192.75 149.603L192.723 149.321L192.76 149.093L192.612 149.163L192.52 149.427L192.285 149.641L192.04 149.555L191.775 149.379L191.783 149.632L191.924 149.887L191.985 150.142L192.35 150.197L192.596 150.489L192.789 150.938L192.827 151.107L192.977 151.306L192.998 151.478L192.649 151.636L192.212 151.931L191.688 152.436L191.255 152.773L190.864 152.776L190.628 152.737L190.291 152.544L189.903 152.463L190.423 153.144L190.707 153.265L191.063 153.24L191.41 152.986L191.902 153.013L192.025 153.405L191.894 153.848L191.625 154.422L191.57 154.918L191.903 155.628L191.918 155.841L191.793 155.947L191.402 155.76L191.08 155.525L190.754 155.587L190.417 155.488L190.071 155.571L189.93 155.735L190.025 156.005L190.335 156.228L190.509 156.573L190.301 156.694L189.42 156.613L189.224 156.679L188.961 157.057L189.132 157.618L188.937 157.965L188.574 158.047L188.098 158.327L187.803 158.393L187.818 158.515L188.034 158.637L188.148 158.803L187.888 159.374L187.485 159.562L186.867 159.468L186.381 159.596L185.961 159.353L185.512 159.348L185.207 159.655L185.175 160.012L184.879 160.047L184.72 160.021L184.496 160.046L184.519 160.237L184.647 160.404L185.253 160.478L185.362 160.718L185.386 161.088L184.751 161.724L184.481 162.154L184.074 162.142L183.766 162.486L183.601 162.953L183.397 162.86L182.926 162.935L182.788 163.157L182.898 163.249L182.909 163.409L182.72 163.932L182.515 164.08L182.426 163.865L182.359 163.533L182.194 163.507L181.919 163.813L181.598 164.032L181.323 164.123L181.115 163.92L180.605 163.814L180.397 164.692L179.975 165.011L179.778 165.111L179.433 165.141L179.653 165.262L179.721 165.487L179.598 165.71L179.253 165.755L179.053 165.93L178.975 166.712L178.77 166.986L178.247 167.009L177.856 166.827L177.731 166.97L177.666 167.11L177.461 167.252L177.066 167.289L176.188 167.639L175.785 167.538L175.305 167.405L174.974 167.535L174.864 167.803L174.711 168.012H174.229L173.843 167.754L173.449 167.568L173.014 167.729L172.682 168.057L172.275 168.167L172.199 168.371L172.022 168.473L171.592 168.429L171.428 167.923L171.18 167.848L170.935 168.104L170.847 168.304L170.733 168.456L170.773 168.869L170.53 168.878L170.214 168.625L169.881 168.58L169.571 168.815L169.413 168.757L169.247 168.708H168.975L168.871 168.771L168.672 168.808L168.538 168.936L168.526 168.947L168.175 168.86L167.746 168.517L167.438 167.948L167.047 167.641L166.875 167.371L166.808 166.887L166.737 166.656L166.761 166.399L166.879 166.171L166.459 166.286L166.148 166.499L166.212 166.767L166.135 167.016L165.671 167.146L165.7 167.25L165.731 167.361L166.093 167.7L166.168 167.985L166.315 168.137L166.599 168.58L166.591 169.436L166.747 169.677L166.695 169.917L166.582 170.241L166.572 170.245L166.489 170.147L166.352 170.166L166.297 170.275L166.288 170.373L166.264 170.378L166.024 170.449L165.821 170.51L165.658 170.597L165.401 170.852L164.912 170.914L164.661 170.318L164.324 170.716L164.223 171.528L164.098 171.667L163.888 171.783L163.491 171.5L163.145 171.689L162.875 171.882L162.763 172.059L162.564 172.251L162.182 172.065L161.875 171.786L161.952 171.576L161.909 171.439L161.771 171.335L161.618 171.35L161.693 171.622L161.744 172.144L161.604 172.295L161.389 172.411L160.924 172.315L160.607 172.122L160.222 171.958L159.884 171.928L159.809 172.257L159.589 172.523L159.386 172.555L159.182 172.514L158.915 172.8L158.788 173.009L158.459 173.229L157.582 173.337L157.276 173.554L156.866 173.52L156.548 173.572L156.365 173.56L156.201 173.442L156.017 173.439L155.932 173.803L155.436 173.957L154.99 173.998L154.494 174.478L154.14 174.769L153.877 174.799L153.684 174.696L153.588 174.267L153.49 174.216L153.433 174.62L153.339 174.955L153.158 175.139L152.585 175.556L152.42 175.971L152.53 176.354L153.301 176.448L153.396 176.658L153.322 176.829L153.137 176.972L153.082 177.187L153.91 177.87L153.935 178.127L153.807 178.275L153.653 178.593L153.216 178.861L152.292 178.998L151.521 178.859L151.287 178.554L151.302 178.336L151.494 178.399L151.711 178.379L151.645 178.18L151.553 178.063L151.198 177.886L150.91 177.408L150.965 177.01L150.809 176.701L150.636 176.443L150.464 176.288L150.37 176.096L150.546 175.491L150.449 175.139L150.779 174.706L150.861 174.219L151.449 174.045L151.489 173.58L151.067 173.566L150.775 173.225L150.708 173.369L150.473 173.384L150.087 172.725L149.971 172.642L149.783 172.63L149.877 173.325L149.424 173.585L149.052 173.7L148.526 173.748L148.226 173.828L147.947 173.763L148.015 173.553L148.164 173.302L148.032 173.092L147.734 172.931L147.28 172.94L146.966 172.895L146.654 172.913L146.54 172.819L146.25 172.49L146.005 172.286L145.895 172.081L146.005 171.844L145.913 171.7L145.439 171.683L145.442 172.023L145.491 172.424L145.629 172.728L145.531 172.898L145.29 173.015L145.033 172.693L144.915 172.614L144.792 172.629L144.699 172.949L144.465 173.234L144.046 173.202L143.719 173.378L143.324 173.459L143.055 173.223L142.611 172.845L142.434 172.801L141.941 172.986L141.232 173.055L141.074 172.858L140.732 173.007L140.403 172.552L140.012 172.523L139.524 172.178L139.349 171.995L139.294 171.733L139.145 171.596L138.955 171.613L138.743 171.473L138.407 171.335L138.137 171.253L138.003 171.315L137.862 171.348L137.836 171.172L137.847 170.641L137.822 170.17L137.747 169.957L137.566 169.796L137.402 169.719L137.33 169.476L137.389 168.999L137.523 168.675L137.734 168.617L138.019 168.385L138.165 168.054L138.348 167.747L137.697 167.316L137.355 167.161L136.976 167.226L136.505 167.364L136.26 167.39L136.136 167.337L135.861 166.949L135.713 166.882L135.38 166.857L135.099 166.86L134.939 167.028L134.689 167.085L134.439 167.094L134.187 166.884L133.806 166.609L133.211 166.415L133.138 166.193L132.986 165.927L132.76 165.679L132.386 165.351L132.072 165.181L131.919 165.286L131.711 165.472L130.906 165.864L130.549 166.018L130.359 166.126L130.2 166.29L130.151 166.694L130.072 167.144L129.84 167.372L129.62 167.545L129.39 167.563L129.164 167.556L128.952 167.627L128.304 168.079L127.999 168.043L127.748 167.788L127.641 167.604L127.351 167.645L126.98 167.861L126.808 168.249L126.717 168.611L126.635 168.772L126.51 168.818L126.4 168.826L125.243 167.781L125.172 167.727L124.963 167.942L124.775 168.496L124.639 168.602L124.547 168.559L124.069 167.85L123.946 167.782L123.837 167.806L123.693 168.036L123.39 168.374L123.158 168.58L123.152 168.808L122.899 169.009L122.607 169.21L122.509 169.231L122.314 169.151L122.06 168.884L121.876 168.605L121.419 168.328L120.908 168.094L120.57 167.911L120.376 167.866L120.196 167.948L120.106 168.06L119.978 168.337L119.672 168.79L119.399 169.151L119.144 169.382L118.942 169.541L118.791 169.392L118.511 169.27H118.183L117.751 169.5L117.41 169.041L117.321 169.018L117.19 169.057L117.039 169.166L116.935 169.422L116.825 169.772L116.608 170.002L116.428 170.103L116.48 170.3L116.583 170.513L116.575 170.7L116.641 170.993L116.753 171.287L117.156 171.768L117.311 172.019L117.342 172.236L117.357 173.009L117.34 173.331L117.26 173.951L117.254 174.308L117.422 174.469L117.584 174.662L117.577 174.766L117.505 174.803L117.275 175.016L117.178 175.045L117.027 174.957L116.831 174.891L116.675 174.806L116.501 174.669L116.089 174.684L115.413 174.893L115.274 174.833L115.177 174.715L115.123 174.471L115.156 174.185L115.097 174.001L114.97 173.893L115.061 173.381L114.82 173.179L114.854 173.116L114.774 172.563L114.785 172.426L114.743 172.38L114.574 172.336L114.321 172.423L113.553 172.786L112.893 173.459L112.591 173.608L112.287 173.669L111.929 173.553L111.532 173.477L110.966 173.647L110.686 173.568L110.557 173.43L110.443 173.222L110.513 172.956L110.469 172.761L110.244 172.663L109.98 172.578L109.825 172.323L109.762 172.044L109.823 171.682L109.854 171.293L109.728 171.114L109.343 171.017L108.373 170.84L107.523 170.743L107.166 170.789L106.875 170.746L106.707 170.674L106.625 170.552L106.621 170.376L106.759 169.972L106.915 169.577L107.31 169.002L107.334 168.602L107.313 168.142L107.509 167.526L107.85 167.065L108.018 166.921L107.977 166.715L107.841 166.527L107.646 166.423L107.324 166.302L106.821 166.269L106.132 166.146L105.334 165.871L105.426 165.345L105.413 165.016L105.315 164.744L105.153 164.552L105.061 164.381L105.205 163.91L105.019 163.394L104.8 163.188L104.575 162.921L104.557 162.634L104.659 162.365L105.212 161.789L105.217 161.648L105.08 161.66L104.922 161.672L104.167 161.882L104.086 161.75L103.815 161.674L103.264 161.659L102.619 161.698L101.803 161.903L101.054 162.264L100.714 162.511L100.424 162.665L100.19 162.716L99.9176 162.607L99.9325 162.254L100.444 161.605L100.516 161.159L100.362 160.776L100.344 160.469L100.164 160.274L99.9132 160.179L99.7794 159.961L99.7705 159.323L99.9949 158.666L100.359 158.458L100.58 158.359L100.64 158.23L100.527 157.768L100.545 157.475L100.762 156.907L100.979 156.476L101.389 156.547L101.573 156.44L101.777 156.287L101.998 156.027L102.147 155.719L102.328 155.003L102.451 154.896L102.968 155.015L103.123 154.932L103.405 154.511L103.673 153.998L104.06 153.84L104.34 153.824L104.469 153.654L104.462 153.404L104.196 153.006L104.084 152.688L104.117 152.494L104.497 152.377L104.591 152.146L104.534 151.639L104.69 151.029L104.784 150.315L104.815 149.781L104.811 149.374L104.774 148.947L104.72 148.166L104.546 147.484L104.578 147.228L104.554 146.401L104.447 145.694L104.233 145.57L103.835 145.341L103.618 145.296L103.436 145.38L103.368 145.626L103.193 145.855L102.977 145.798L102.875 145.569L102.736 145.268L102.274 143.835L102.224 143.422L102.142 143.011L101.988 142.805L101.824 142.683L101.456 142.2L101.262 141.999L101.169 141.966L100.967 142H100.768L100.606 141.759L100.457 141.464L100.308 141.319L100.059 141.239L99.8031 141.27L99.653 141.525L99.552 141.669L99.3588 142.009L99.0468 142.479L98.9042 142.652L98.766 142.562L98.1642 142.073L97.8744 141.938L97.4792 142.085L96.8624 141.969L96.6247 141.947L96.1106 141.556L95.901 141.508L95.1714 141.763L95.011 141.944L94.9174 141.947L94.7226 141.856L94.5636 141.735L94.5532 141.659L94.7509 141.468L94.7657 141.334L94.7554 141.198L95.0392 140.814L95.8133 140.068L95.6841 139.755L95.3795 139.138L95.3394 138.839L95.207 138.703L94.8371 138.813L94.0674 139.374L93.9619 139.313L93.9812 139.119L93.9009 138.554L94.1446 138.384L94.5191 138.177L94.8073 137.946L94.8742 137.759L94.7955 137.701L94.3705 137.774L94.2026 137.648L93.9247 137.127L93.7211 136.923L93.5369 136.813L92.9098 137.081L92.1817 137.449L91.3703 137.962L91.3748 138.224L91.2782 138.292L91.1236 138.457L90.9721 138.685L90.8428 138.766L90.6912 138.773L90.3822 138.709L89.822 138.45L89.2142 138.235L89.0834 138.259L88.2572 138.107L88.2305 137.984L88.1056 137.744L87.8709 137.527L87.6465 137.454L87.0002 137.913L86.2705 138.254L85.8559 138.658L85.5142 139.059L85.1218 139.137L85.1041 139.384L84.9391 139.606L84.6419 139.881L84.052 140.229L83.6522 140.417L82.3832 140.589L81.93 140.705L81.7398 140.888L81.5363 141.353L81.3757 141.781L81.0251 142.134L80.3861 142.605L79.6356 142.987L79.4291 143.24L79.392 143.391L79.4856 143.446L79.5778 143.561V143.734L79.4812 143.922L78.9908 144.25L78.7144 144.406L78.4395 144.506L78.1319 144.524L77.8361 144.479L77.7544 144.426L77.6371 144.494L77.3666 144.563L77.1318 144.585L76.6162 144.949L76.3324 144.952L75.9787 144.873L75.5122 144.81H75.1749L75.1644 144.618L75.2164 144.041L75.0634 143.907L74.5968 143.765L74.0707 143.577L73.8181 143.378L73.677 143.311L73.4794 143.343L73.1629 143.553L72.8626 143.801L72.6249 143.822L72.3812 143.707L72.1494 143.555L71.3529 143.342L70.9963 143.311L70.3588 143.346L69.8388 143.302L69.757 143.236L69.7585 143.117L69.8358 142.886L69.8804 142.658L69.8194 142.528L69.289 142.368L68.8046 142.254L68.2889 142.21L67.9427 142.291L67.6038 142.47L67.3245 142.792L66.9203 142.932L66.4374 143.172L66.2041 143.395L65.8504 143.875L65.3363 144.464L64.8697 145.038L64.6275 145.596L64.3065 145.946L63.9811 146.198L63.7463 146.891L63.5011 146.672L63.2202 146.357L63.1534 145.927L63.4862 144.782L63.565 144.305L63.4803 144.123L63.3763 143.653L63.1787 143.498L62.614 143.252L62.4342 143.245L62.241 143.415L62.0523 143.522L61.8012 143.63L61.1711 143.831L60.6124 143.925L60.4787 143.999L60.437 144.133L60.4817 144.293L60.1221 144.232L59.7461 144.197L59.4429 144.22L58.7015 144.524L58.4503 144.554L58.171 144.522L57.7905 144.513L57.0669 144.522L56.4442 144.445L55.9375 144.02L55.5795 143.832L55.1975 143.688L54.8127 143.579L54.6849 143.351L54.563 143.236L54.2465 143.199L53.9955 143.282L53.8394 143.856L53.7057 143.969L53.3877 144.02L53.0533 143.874L52.5912 143.579L52.4099 143.251L52.2554 143.145L52.0117 143.29L51.9982 143.71L51.9507 143.992L51.6609 144.107L51.4931 144.023L51.3578 143.734L51.0175 143.047L50.6802 142.644L50.34 142.376L49.224 142.383L48.3963 142.304L48.0219 142.194L47.8806 141.929L48.0174 141.398L48.1779 140.984L48.1734 140.887L48.0367 140.838L47.7989 140.805L46.9058 141.07L46.6622 141.039L46.5077 140.948L46.319 140.87L46.1629 140.747L46.0544 140.566L45.2817 140.124L45.0544 139.881L44.6428 139.576L44.2951 139.369L44.0751 138.776L43.8745 138.205L43.7646 137.901L43.4332 137.74L43.0751 137.618L42.4688 137.867L41.971 138.056L41.6055 138.075L41.0779 137.49L40.6544 136.856L40.1537 136.303L39.8209 136.024L39.2309 135.997L38.5666 135.686L37.6751 134.976L37.0317 134.447L35.9231 133.858L35.6646 133.611L35.5665 133.401L35.4149 132.986L35.1831 132.593L34.3971 132.421L33.5084 132.299L32.5708 132.541L31.8962 133.718L31.5708 133.975L31.2914 133.99L31.0625 133.69L30.8739 133.375L30.7713 133.027L30.3047 132.769L29.7772 132.432L29.5067 132.169L29.2022 132.005L28.9183 131.935L28.3715 131.713L27.7519 131.463L27.4605 131.429L27.4398 131.25L27.5275 130.87L27.474 130.504L27.2868 130.355L27.0044 130.394L26.3506 129.875L26.3179 129.849L26.1321 129.701L25.8097 129.489L25.2658 129.504L24.8542 129.582L24.5526 129.366L24.1157 129.023L24.037 128.947L23.9076 128.821L23.4648 128.16L22.9418 127.376L22.6772 127.261L22.5406 127.32L22.386 127.736L22.2701 127.695L22.0755 127.723L21.8467 127.869L21.6267 127.906L21.4855 127.863L21.4261 127.76L21.4885 127.21L21.3548 127.039L21.4736 126.656L21.6742 126.325L21.4692 126.079L21.2166 125.727L21.1884 125.408L21.3251 125.005L21.3919 124.661L21.3503 124.534L21.1512 124.342L20.3919 123.394L20.3517 123.294L20.2239 122.978L20.1645 122.501L20.0665 122.16L19.9506 121.897L19.9594 121.774L20.0472 121.71L20.5211 121.646L20.9595 121.605L21.2478 121.516L21.3979 121.707L21.4677 121.999L21.5435 122.152L21.8213 122.43L22.1602 122.695L22.4886 122.661L22.7783 122.547L23.0294 122.115L23.2063 122.009L23.4128 121.99V121.959L23.4009 121.68L23.4737 120.993L23.4485 120.717L23.3548 120.468L23.3713 120.191L23.34 119.788L23.1038 119.512L22.9492 119.407L22.9239 119.257L23.0042 118.982L23.0592 118.664L22.9774 118.43L22.964 118.394L22.7724 118.274L22.548 118.069L22.2805 117.794L22.1483 117.594L21.9314 117.373L21.6668 117.03L21.6178 116.278L21.5911 115.485L21.4989 115.09L21.3518 114.459L21.3741 114.247L21.4633 114.086L22.2092 113.577L22.3711 113.378L22.3979 113.228L22.3682 113.004L22.227 112.755L21.9298 112.562L21.5048 112.246L21.12 111.916L20.4722 111.715L19.686 111.469L19.4974 111.229L19.3071 110.642L18.9832 109.744L18.6385 108.786L18.3725 108.194L18.359 107.909L18.5181 107.182L18.4988 107.027L18.359 106.973L18.0931 107.068L17.8806 107.183L17.6993 107.124L17.5314 107.001L17.4972 106.96L17.4838 106.943L17.1688 107.022L16.5373 107.067L16.3188 107.06L16.0127 107.049L15.3798 106.882L14.5253 106.657L13.6441 106.344L13.1775 106.095L13.014 106.009L12.6144 105.749L12.3306 105.526L12.28 104.94L12.0734 104.985L11.589 105.196L11.0303 105.33L10.7213 105.332L10.5964 105.238L10.4106 104.619L10.2755 104.445L10.0243 104.376L9.7509 104.268L9.61268 104.107L9.58148 103.902L9.70337 103.668L9.84749 103.488L9.8727 102.385L9.77911 101.993L9.70038 101.663L9.49976 101.254L9.31257 101L9.03023 100.765L8.59181 100.52L8.201 100.429L7.72847 100.608L7.57846 100.539L7.38074 99.7822L7.25449 99.6272L6.41492 99.3157L6.03454 99.2441L5.59612 99.341L5.34652 99.4245L5.14591 99.2859L4.83237 99.1099L4.52473 98.9892L4.1429 98.9847L3.89621 99.0593L3.83381 99.016L3.7149 98.8774L3.20674 98.4586L3.18887 98.3527L3.96749 97.9398L4.42669 97.7833L4.66739 97.6581L4.71791 97.6849L4.83681 97.8757L5.13992 98.0009L5.35396 97.9666L5.46543 97.8712L5.84281 97.6431L6.13703 97.3778L6.30201 97.1602L6.21285 96.8173L5.74921 96.4015L5.455 96.1793L5.3643 96.0288L5.44012 95.5771L5.54714 95.1284L5.47577 94.957L5.38815 94.8109L5.34952 94.3205L5.14736 93.7272L4.92742 93.3814L4.86656 92.9134L4.85468 92.4751L5.1206 91.7864L5.02256 91.4883L4.74322 91.223L3.7803 90.7429L2.79362 90.4255L2.41768 90.4374L2.18441 90.418L1.90797 90.6982L1.74308 91.0649L1.51272 91.0977L1.09216 90.9427L0.811366 90.7072L0.612197 90.2168L0.457652 89.5847L0.370039 89.3865L0.414571 89.215L0.511162 89.063L0.780166 88.9199L0.824698 88.7738L0.78461 88.5935L0.567666 88.3654L0.346277 88.0434L0 87.3741L0.0668429 87.0044L0.121895 86.4723L0.101035 86.192L0.451756 86.119L0.898978 85.9744L1.10703 85.7344L1.25115 85.4899L1.28244 85.3379L1.14721 84.7521L0.968904 84.4912L0.951037 84.2885L1.03874 84.1334L1.1561 83.8666L1.38193 83.3181L1.60187 82.9677L1.72222 82.8798L1.99123 82.7978L2.64796 82.7009L3.35384 82.455L4.19187 81.7186L4.47131 81.5084L4.83681 81.4026L5.09838 81.41L5.14591 81.3206L4.97648 80.863L5.01811 80.6975L5.1177 80.5678L5.24395 80.5082L5.82495 80.7497L6.26926 80.7244L6.81017 80.5812L7.97662 79.7733L8.12227 79.7852L8.23963 79.8941L8.38085 80.3815L8.54129 81.407L8.63044 81.5352L9.44181 81.5487L9.9946 81.176L10.2368 81.0881L10.6291 81.1492L10.8372 80.9748L11.0541 80.8526L11.3052 81.2819L11.6291 81.0761L11.9784 80.7497L12.1493 80.4113L12.3855 80.0461L12.5697 79.5825L12.6441 79.1443L12.7347 78.9386L12.9309 78.7269L13.4138 77.822L13.7615 77.591L14.0914 77.509L14.9071 77.6656L15.3307 77.6462L16.573 77.7654L17.1465 77.591L17.5478 77.4181L18.1362 77.4449L18.8331 77.3078L19.7618 76.1674L19.7737 75.9245L19.8302 75.6666L20.166 75.4117L20.5835 75.1777L21.4157 74.6187L23.1082 73.7317L23.7144 73.3755L23.9671 73.3844L24.5912 73.1608L25.6849 72.7256L25.9939 72.183L26.2822 72.0741L27.5601 71.9772L27.6404 71.9146L27.6849 71.8222L27.6136 71.4287L27.5305 71.0903L27.63 70.9905L27.737 70.8354L27.7207 70.6178L27.5141 69.9112L27.4041 69.2404L27.3313 68.6337L27.3447 68.4072L27.4992 68.0151L27.6998 67.6588L28.4235 67.3264L28.9034 67.2265L28.9227 67.0089L28.5349 66.8733L28.2541 66.6556L28.2051 66.5319L28.2184 66.3903L28.2838 66.2606L28.7712 66.0162L29.2304 65.7732L29.7906 65.9208L29.9005 65.8268L29.9332 65.5839L29.8128 65.3394L29.6999 64.9384L29.4413 64.7327L29.431 64.4868L29.59 64.0619L29.3701 63.2748L29.1308 62.5787L28.7251 61.3832L28.4562 61.0374L28.3061 60.4844L28.1382 60.1937L28.153 59.7629L28.1813 59.4603L28.1382 58.8596L28.0594 58.2067L28.1382 57.5433L28.2898 57.1051L28.2496 56.9367L28.3299 56.8114L28.5587 56.7697L28.6672 56.5893L28.5587 56.4045L28.1634 56.2614L27.7221 56.0393L27.1916 56.0646L26.6477 56.1034L26.3758 55.9394L26.1381 55.7292L26.1247 55.5951L26.4516 55.2403L26.9063 54.8721L27.6122 54.7096L28.3893 54.4666L28.7831 54.2908L29.3077 54.164L29.9139 54.1104L30.2185 54.1462L30.9987 53.9106L32.2261 53.4545L33.3405 53.0714L33.715 52.8433L33.9944 53.0714L34.1236 53.5737L34.449 53.8331L34.7715 53.9583L34.9573 53.9524L35.513 53.7571L36.1134 53.614L36.3497 53.6915L36.6542 53.9479L36.996 54.1775L37.1744 54.167L37.3303 53.9897L37.4879 53.6319L37.5874 53.1757L37.6082 52.6928L37.5487 52.3976L37.4284 52.2888L36.8816 52.1144L36.36 51.8297L36.3006 51.5688L36.3125 51.3825L36.4507 50.9264L36.791 50.0871L37.1327 48.9259L37.314 48.0062L37.8861 46.6303L38.3363 45.1904L39.0645 43.1094L39.1864 42.6965L39.2532 42.0362L39.2918 41.7634L39.546 41.6203L39.9739 41.7604L41.0185 42.2374L41.8135 42.6384L42.1464 42.774L42.6411 42.9156L43.4064 43.0826L43.8493 43.0334L44.2371 42.935L44.7542 42.9261L45.5611 43.0498L45.8107 43.0543L46.1213 43.0707L46.3413 43.2734L46.4512 43.731L46.6176 43.9367L46.9193 43.8607L47.5612 43.4568L47.9713 43.1392L48.484 42.6786L48.9922 42.616L49.5316 42.5132L49.7188 42.2851L49.9179 41.7485L50.2493 41.343L50.3043 40.8273L50.1884 40.4636L49.958 39.8703L49.9655 39.4693L49.854 38.3051L49.7054 37.2542L49.857 36.406L50.1245 35.455L50.2285 35.1628L50.3979 34.7797L50.6372 34.3191L50.973 34.1745L51.9165 34.0761L52.7903 33.8824L53.2361 33.6826L53.6997 33.5619L53.9761 33.4158L54.4516 32.7405L54.6775 32.3514L54.8439 31.3169L54.722 30.8191L54.8231 30.3778L55.0534 30.1185L55.3774 29.8576L55.5943 29.8129L56.0564 29.7339L56.8143 29.7607L57.2006 29.8874L57.5929 29.947L57.841 29.8531L58.006 29.6549L58.2602 29.5923L58.642 29.4969L59.0358 29.3776L59.2527 29.4L59.2974 29.6936L59.2616 29.9232L59.3374 30.2303L59.4934 30.433L59.4429 30.6521L59.223 30.7788L59.006 30.9502L58.9585 31.1843L59.2334 31.475L59.327 31.7537L59.7877 31.9207L60.1458 32.1085L60.2795 32.2889L60.2394 32.4916L60.0745 32.7092L59.9154 32.9432L59.8947 33.0834L59.9452 33.2473L60.2899 33.3562L60.6896 33.5365L61.3227 33.7691L61.7566 34.2013L62.1876 34.3206L62.3955 34.7409L62.4327 35.3506L62.874 35.6607L63.5264 36.0915L63.8577 36.1705L64.0791 36.415L64.3986 36.7101L64.6824 36.8025L65.0197 36.8458L65.5755 36.5715L66.1996 36.5447L66.5399 36.7011L66.8638 37.2914L67.0927 37.4778L67.2279 37.6433L67.4464 37.8013L67.6678 37.8251L67.9976 37.6939L68.1982 37.433L68.4865 37.4867L68.595 37.6567L68.6485 37.9473L68.8016 38.3081L69.1671 38.5764L69.6782 38.7359L69.7496 38.8671L69.8209 39.2263L69.9591 39.4753L70.1449 39.8002L70.3217 40.392L70.3588 40.8809L70.4405 41.1492L70.6768 41.586L71.0543 42.2836L71.3544 42.8739L71.7021 42.9887L71.9979 43.175L72.1672 43.6103L72.4808 44.4287L72.5313 44.9623L72.558 45.3603L72.6606 45.5407L72.6829 45.7657L72.4213 46.6199L72.1999 47.0045L72.1717 47.3279L72.3217 47.8899L72.5283 48.3252L72.5491 48.7411L72.3738 49.0452L72.0721 49.4253L71.9265 49.6429L71.6918 49.8337L71.3322 50.5671L71.1702 51.3765L71.133 51.7924L71.2698 52.0936L71.4986 52.4245L71.555 52.7107L71.9309 53.3502L72.0305 53.7452L72.1851 53.7586L72.35 53.6289L72.7527 53.62L73.1182 53.7601L73.469 54.0523L73.8449 54.2073L74.3828 54.1685L74.6696 54.325L74.9787 54.4532L75.6192 54.4979L76.0991 54.4965L76.8361 54.5009L77.432 54.6977L78.4796 54.8527L79.1275 54.8408L79.9982 54.6947L80.5317 54.7871L82.1113 55.0048L83.0356 55.2328L83.621 55.4892L84.0327 55.8947L84.5037 56.5267L84.8781 56.8159L85.8841 56.9903L86.5751 57.7267L87.1145 58.001L88.0225 58.712L88.6644 58.9892L89.4326 59.2442L90.6853 59.1354L90.7551 59.2308L90.6586 59.6153L90.5827 60.1415V60.5217L90.7121 60.7154L91.1905 60.8302L91.4164 61.0165L91.5887 61.3743L91.6883 61.5964L92.091 62.6905L92.7359 64.3019L92.8102 64.9205L93.0302 65.3185L93.7301 65.9491L94.0971 66.4157L94.6439 66.9046L94.8237 67.3562L94.8638 67.9391L95.002 68.0896L96.0021 67.9555L96.8684 67.8616L98.4227 67.6946L100.562 67.9987L102.769 68.2924L104.72 68.5517L105.682 68.6784L107.854 68.9512L109.062 68.6039L110.006 68.3326L110.434 68.3699L112.238 68.6755L113.296 68.8394L114.627 69.0451L115.551 69.1211L116.309 69.1167L116.658 69.2032L116.996 69.3358L117.22 69.5296L117.913 70.5075L118.3 70.9383L119.069 71.2632L120.813 71.6344L121.779 71.8595L122.888 72.1174L123.619 72.5064L124.46 72.9581L125.549 73.5424L126.742 73.2875L128.026 73.0117L128.831 72.8388V74.0582L129.98 74.1551L130.34 74.1417L130.848 74.41L131.133 74.2967L131.405 74.0328L131.745 73.6155L132.234 73.4321L133.08 72.964L133.286 72.8508L134.542 72.1845L136.417 71.3616L137.258 70.9621L137.509 70.8727L137.985 70.6685L138.306 70.5269L138.874 70.4135L139.643 70.342L140.484 70.187L142.386 69.8948L142.626 69.868L143.694 69.7472L144.149 69.634L144.828 69.6936L145.715 69.7353L146.303 69.8098L147.083 69.7517L148.156 69.6727L149.024 69.6846L149.455 69.5863L150.091 69.2777L150.518 69.0332L151.188 68.7366L152.02 68.428L152.599 68.1478L152.983 67.9614L153.448 67.7855L153.57 67.559L153.703 67.3846L153.95 67.0939L154.394 66.5513L154.733 66.0758L154.9 65.8641L155.28 65.3886L155.588 65.0293L155.98 64.5449L156.31 64.3884L156.729 64.2557L157.83 63.7802L158.048 63.6773L158.231 63.6565L158.621 63.2719L158.95 62.938L159.166 62.6891L159.613 62.5981L159.842 62.4178L159.882 62.1822L159.836 61.8215L159.621 61.4518L159.439 61.1283L158.8 60.5112L158.462 60.1281L158.117 59.6347L157.976 59.1711L157.739 58.876L157.626 58.6136L157.662 58.311L157.99 57.7714L158.094 57.43L158.231 56.8263L158.539 55.9215L158.79 55.4967L159.08 55.0823L159.693 54.5248L160.255 54.4219L160.589 54.5322H161.337L161.835 54.562L162.202 54.8408L162.607 55.3908L163.067 55.5921L164.496 56.0229L165.107 56.1138L165.544 56.1332L166.19 56.2748L166.407 56.3061L166.738 56.403L167.012 56.2986L167.426 55.9304L167.948 55.5176L168.172 55.4222L168.587 55.2433L168.795 55.0749L169.159 54.6098L169.631 54.249L170.208 53.7064L170.492 53.298L170.554 53.0341L170.617 52.7479L170.795 52.5974L171.146 52.4588L171.541 52.4215L172.293 52.6674L173.309 52.5974L173.537 52.5616L174.462 52.42L174.88 52.3037L175.468 52.1919L175.92 51.7358L176.525 51.1917L176.965 50.8891L177.257 50.831L177.623 50.5164L177.803 50.1781L177.755 49.8799L177.687 49.634L177.902 49.1764L178.292 48.3744L178.654 48.0003L178.954 47.6976L179.146 47.2102L179.382 47.0701L179.672 47.0164L180.081 46.6855L180.381 46.6184L180.88 46.7764L181.619 46.8167L182.09 46.833L182.359 46.7735L182.457 46.596L182.454 46.3218L182.604 45.7106L182.66 45.5094L182.796 45.4155L183.25 45.4035L183.556 45.6227L183.767 45.8045L184.06 45.8284L184.362 45.7091L184.765 45.2142L185.436 44.9265L185.793 44.8535L186.426 44.6195L186.826 44.7044L187.56 44.773L187.843 44.7134L188.152 44.773L188.433 44.4376L188.656 44.3571L189.129 44.5121L189.426 44.7715L189.982 45.0965L190.691 45.2485L191.283 45.171L191.893 45.3081L192.252 45.2962L192.423 45.168L192.922 44.8952L193.041 44.5255L192.992 44.1693L193.05 43.7653L192.903 43.4672L192.594 43.026L192.474 42.7308L192.463 42.3447L192.27 41.9765L191.806 41.5323L191.502 41.3266L190.875 40.5574L190.662 40.3771L190.589 40.2504L190.517 39.9925L190.285 39.8688L189.98 39.6676L189.817 39.4618L189.71 39.1041L189.646 38.8701L189.377 38.6763L189.108 38.5675L188.805 38.4303L188.303 38.229L188.013 37.8281L187.502 37.0753L187.212 36.8219L186.133 36.725L185.745 36.5417L185.307 36.6043L185.045 36.725L184.466 36.7235L184.166 36.798L183.784 37.2944L183.277 37.9384L182.859 38.3304L182.562 38.7374L182.424 38.8835L182.154 38.7955L181.782 38.3379L181.252 37.9279L180.76 37.7416L180.549 37.6388L179.962 37.5344L179.509 37.5672L178.931 37.7222L178.366 37.6939L178.112 37.5955L177.752 37.606L177.101 38.0323L176.764 38.5168L176.364 38.6688L176.003 38.3513L175.587 37.9757L175.189 37.5046L174.944 37.0678L174.807 35.9081L175.284 35.5623L175.893 35.1732L175.939 34.5576L175.917 33.8704L176.037 33.1042L176.593 32.3962L176.892 31.8089L176.929 31.4422L177.197 30.8325L177.452 30.1885L177.801 29.3419L178.463 27.8333L179.244 26.0415L179.635 25.1442L180.492 25.7002L181.045 25.9894L181.98 26.4276L182.944 26.526L183.867 27L184.343 27.1432H184.597L185.903 25.9894L187.007 25.01L188.276 24.2438L189.209 24.1395L189.91 23.9159L190.377 23.5716L190.655 22.9962L190.74 22.1882L190.552 21.6978L190.095 21.5279L189.977 21.3564L190.197 21.1821L190.361 20.8437L190.463 20.3399L190.728 19.8598L191.151 19.4067L191.386 18.9029L191.429 18.3484L191.685 17.7938L192.15 17.2408L192.405 16.725L192.448 16.2481L192.685 15.6637L193.327 14.6277L193.743 13.4307L194.453 12.6079L195.594 11.7612L196.306 10.919L196.59 10.0812L196.568 9.33891L196.238 8.69494L196.174 8.03905L196.379 7.36974L196.199 6.86889L195.636 6.53649L194.964 6.45451L194.184 6.62297L193.746 6.41275L193.649 5.82547L193.859 5.34995L194.374 4.98621L195.221 4.09927L196.401 2.68319L197.575 1.8976L199.326 1.67102L200.737 1.20446L202.176 0.730446L203.214 0.494895L203.391 0.65293L203.957 0.691688L204.913 0.611169L205.8 0.406961L206.62 0.0775164L207.269 0L207.746 0.174412L208.027 0.195292Z" fill="url(#paint0_linear_2_269)"/>
<defs>
<linearGradient id="paint0_linear_2_269" x1="84" y1="11.5" x2="232.5" y2="211.5" gradientUnits="userSpaceOnUse">
<stop stop-color="#8FFFF4"/>
<stop offset="1" stop-color="#3064FF"/>
</linearGradient>
</defs>
</svg>
