<svg width="305" height="101" viewBox="0 0 305 101" fill="none" xmlns="http://www.w3.org/2000/svg">
<path d="M86.6058 0.878055L94.035 2.30093L100.039 1.89747L102.91 1.05976L102.647 1.91749L105.285 4.02686L106.246 4.16791L110.127 3.09829L120.265 2.69453L121.307 3.29016L123.096 5.34871L125.683 6.62037L128.362 7.58928L131.162 7.84151L133.952 7.40757L136.57 7.61946L139.845 9.61764L140.876 9.84986L143.807 9.30473L142.948 11.1415L147.881 13.7049L151.499 18.7508L154.127 20.8198L156.907 22.6767L159.252 23.9382L161.88 24.5436L169.856 24.3013L171.746 24.4528L173.434 25.1695L175.041 25.4519L175.971 25.1793L191.376 33.0107L196.278 37.1887L199.27 39.3585L205.749 42.4869L208.347 43.1734L209.711 42.7595L209.449 42.0733L207.548 40.3375L207.265 39.7016L209.701 40.2365L214.099 43.7688L215.312 45.0706L217.505 46.2816L219.719 47.1495L218.667 48.5422L216.868 48.6632L213.421 48.0882L216.16 50.3586L216.626 52.0039L217.899 52.1449L219.799 50.3386L221.002 48.8147L225.844 52.7504L228.452 54.5469L227.785 55.5965L227.572 56.6359L230.483 55.667L231.585 55.7782L232.647 56.3332L233.809 58.0184L236.528 58.392L239.268 58.3517L244.827 59.7444L250.093 62.5803L255.046 63.1553L260.039 63.2563L262.566 64.75L263.638 66.7682L262.425 68.1914L261.738 69.6746L263.597 71.5012L259.544 72.2786L258.968 73.3784L259.18 74.5592L259.989 75.205L262.304 74.6399L265.66 75.1447L270.946 75.5885L274.484 75.2254L281.681 76.4665L283.864 77.1327L288.13 79.4638L290.101 80.9979L294.336 85.1356L297.985 86.7605L301.149 87.1541L302.251 86.8815L303.251 87.3355L304.131 87.9108L305 89.7174L304.515 91.6146L302.706 93.1588L301.705 94.2789L297.187 94.4101L290.869 94.9248L284.764 96.5999L281.782 97.9322L280.417 98.8103L277.203 99.6276L276.991 98.9313L277.051 98.0532L276.212 96.4283L275.485 97.8919L274.292 98.9615L272.28 99.8697L264.861 99.9304L261.879 98.6991L258.816 97.8614L247.657 96.9836L244.979 97.0541L237.529 97.9725L230.039 98.4672L226.905 99.0323L223.802 99.8799L217.768 99.8497L210.642 100.818L203.495 101L208.074 94.2081L217.727 87.6586L219.547 86.2455L220.841 84.4392L221.144 83.0767L220.719 81.9163L218.414 79.8574L217.95 78.3335L217.262 77.3446L213.917 76.4868L210.53 75.9722L206.962 75.962L199.472 75.2555L195.489 75.205L192.113 73.8025L186.514 68.8169L183.896 67.414L182.551 66.2939L181.5 65.0022L180.186 57.6553L179.074 54.1231L177.376 51.0451L174.788 48.7137L172.079 47.9167L161.688 49.9148L159.272 49.6121L156.917 48.9358L141.23 44.1624L134.76 41.5384L132.122 40.2365L129.868 38.3797L127.533 35.3319L124.915 32.6072L124.925 33.707L124.521 34.4237L111.391 34.7465L109.298 34.1209L107.954 33.3741L107.004 32.274L106.296 30.0639L105.043 28.2071L104.638 30.1849L103.991 32.0116L102.233 33.031L100.221 33.2025L97.7852 30.7806L87.1415 30.2758L86.2014 29.8622L82.7041 27.5107L79.7222 24.5637L82.6839 23.5242L88.8092 22.162L90.1335 21.2538L90.9016 20.0828L90.3457 18.3471L89.1226 17.0856L87.8693 16.3489L86.4844 15.8848L84.6548 15.683L60.9717 15.3701L59.6072 16.3187L57.4844 18.2464L53.2794 20.7188L50.5098 23.2822L49.4687 24.6043L48.175 25.5529L45.2638 27.1372L42.7772 29.5794L39.7651 30.6694L38.1174 30.0032L36.49 30.0134L35.3074 30.6189L34.0641 30.8914L27.9891 31.184L27.0795 31.8098L26.2102 33.5558L25.2195 36.9568L24.2896 38.077L21.2472 38.5007L18.3461 39.4293L12.443 42.6585L10.9167 43.1331L11.2503 40.7613L10.9571 38.4502L9.28935 38.3695L7.38901 38.753L5.80207 39.3988L2.87065 41.1247L1.38489 41.5587L0 40.6806L0.283024 39.5503L10.0575 35.3926L11.1491 35.0797L12.8877 35.3926L14.586 35.2512L15.9101 34.0806L14.303 28.5702L14.9194 24.8162L17.1836 21.9095L21.712 17.4995L23.8954 16.0461L46.2241 6.83226L48.5085 6.35797L63.0236 4.50115L65.2372 3.85531L71.9692 1.12013L79.0348 0L86.6058 0.878055ZM157.18 16.1268L157.231 16.9344L152.267 14.6938L150.135 12.3627L149.276 11.8277L150.671 11.7772L156.26 15.602L157.18 16.1268ZM177.588 19.538L181.48 20.1839L182.834 19.7903L184.128 19.6794L185.493 19.9516L187.403 22.4848L185.725 22.7977H184.391L183.41 22.3434L179.913 22.2326L177.608 21.4959L176.345 20.8602L175.728 20.093L177.588 19.538ZM194.691 27.6721L194.115 28.1766L192.578 27.0463L190.355 26.552L189.051 24.7857L187.797 24.1097L187.696 23.4639L189.758 23.0398L191.194 23.2316L192.791 24.5738L193.711 27.0565L194.691 27.6721ZM198.886 32.476L197.956 32.5567L195.136 31.2952L194.297 30.2354L195.287 28.8126L195.5 27.2684L195.884 27.1676L196.339 29.0445L198.492 29.8418L198.623 30.2558L199.947 31.84L198.886 32.476ZM204.86 37.8044L203.697 38.733L202.424 37.3908L201.615 37.2494L200.493 36.7145L198.32 35.2207L197.794 33.6768L199.603 33.5558L201.888 33.8281L205.881 34.7061L205.527 36.4521L204.86 37.8044ZM66.0561 49.3294L63.4179 50.9339L57.7876 53.1945L54.7654 53.2752L51.7127 52.4277L49.6103 50.5403L48.4074 48.6734L48.5085 47.7753L50.419 49.269L52.0665 50.0057L53.421 49.5111L54.3813 48.7039L51.2883 42.6687L51.4297 41.397L53.8861 38.077L60.5674 39.0862L61.7298 39.6714L62.6598 41.7706L64.1457 43.4155L65.8943 47.8156L66.0561 49.3294Z" fill="url(#paint0_linear_2_315)"/>
<defs>
<linearGradient id="paint0_linear_2_315" x1="34" y1="-22.5" x2="305" y2="117" gradientUnits="userSpaceOnUse">
<stop stop-color="#8FFFF4"/>
<stop offset="1" stop-color="#3064FF"/>
</linearGradient>
</defs>
</svg>
