<svg width="191" height="110" viewBox="0 0 191 110" fill="none" xmlns="http://www.w3.org/2000/svg">
<path d="M77.0442 8.17952L79.4869 8.06603L81.9598 6.92263L82.1612 5.05805L81.9998 1.57598L82.2622 1.0714L86.0073 2.06013L89.7622 3.62605L90.287 7.08736L91.2962 8.78721L92.487 10.3428L93.6175 11.0432L95.5858 11.1564L100.683 13.2064L103.136 13.6186L105.649 15.0402L107.769 16.4826L109.313 16.7916L110.03 18.3676L110.979 19.4494L112.654 18.615L118.771 17.4509L120.971 19.0064L122.455 20.6547L122.657 21.1697L121.88 22.6221L121.506 23.7451L120.87 24.4971L118.771 25.2902L117.59 26.5676L116.722 27.9687L117.307 29.308L119.023 30.3175L120.234 30.5441L120.699 31.5228L124.584 35.8905L127.673 41.5873L128.875 42.4733L130.005 42.6895L131.317 41.8552L132.831 40.001L134.618 38.6721L136.132 37.9817L138.806 36.4057L138.918 35.3859L136.676 31.5228L135.395 28.391L135.697 27.8244L138.554 28.319L143.399 30.0289L150.858 35.6022H152.201L154.805 35.1797L157.641 34.2733L158.993 33.2431L159.498 33.6244L159.932 36.684L159.185 38.3631L155.794 39.9906L155.986 40.7942L156.863 41.8347L158.388 42.5352L160.245 44.5129L161.527 46.7689L162.647 47.8095L163.879 48.304L166.967 47.0987L167.836 46.1509L168.229 45.4812L168.824 45.6255L169.905 46.7381L170.238 47.3873L173.235 48.6439L174.971 50.1891L176.072 50.9102L177.293 50.2098L182.047 51.4356L183.359 52.4658L183.773 54.176L183.541 55.2163L184.268 57.8948L190.284 64.3125L190.909 67.5887L191 68.8968L190.284 68.9587L188.658 69.6384L186.579 69.8859L184.328 69.7519L182.572 70.9365L180.917 72.8734L179.201 74.2123L178.282 75.3972L177.757 76.6334L171.984 80.1151L171.176 81.5679L170.541 83.5456L170.268 86.2034L169.864 88.5936L168.865 89.8502L165.746 90.932L164.969 91.5089L164.384 92.7246L162.637 94.5891L160.588 96.361L156.814 98.3903L152.766 99.0084L147.507 98.3491L144.428 97.5559L142.945 98.4315L140.886 101.069L138.685 105.602L137.767 109.011L137.06 108.043L135.799 104.437L134.375 103.974L132.427 103.634L130.964 103.098L127.795 101.017L126.169 100.389L124.302 100.224L122.525 101.45L121.173 102.892L116.984 102.871L112.392 102.202L105.821 97.4013L104.115 97.3601L102.298 97.5764L99.4214 96.433L93.8602 93.3219L91.2456 92.5906L89.6001 93.0336L88.0963 93.734L87.0164 93.8164L86.4009 92.7965L84.3316 91.55L82.2524 91.4057L81.6567 92.1577L80.95 99.0084L80.2539 101.481L77.3972 101.367L76.3776 102.521L74.137 105.828L73.7033 108.991L69.8067 108.383L67.9598 107.847L66.3248 108.249L64.5283 110L59.4914 109.897L55.5043 108.857L53.7984 104.932L51.9718 103.366L49.6702 101.986L48.873 101.666L47.6015 99.5233L45.189 96.8656L41.3028 93.2188L38.2749 93.4042L37.1543 92.436L36.6596 91.0967L35.3979 88.7788L33.965 87.172L32.2388 86.5435L29.7659 84.4831L26.4552 79.9916L23.4272 76.8805L20.5 76.932L18.6531 75.3045L16.7553 73.1617L15.3624 71.0912L13.2025 66.0432L11.6278 63.1588L10.4065 61.3766L9.02375 59.8933L8.51919 58.7087L10.2149 56.0095L10.8303 54.6705L11.5573 53.6403L11.9811 52.5482L11.9608 51.7345L10.4268 49.056L8.34762 47.1195L5.28919 45.1621L3.3412 42.6795L2.63458 40.4131L2.42266 39.1562L1.08026 37.4668L0 34.9841V33.4905L0.272607 33.068H1.28202L2.41249 34.0878L4.00717 36.0451L5.31937 38.9088L6.11686 37.817L7.62067 34.7678L10.2854 31.3166L13.0106 29.3388L15.4634 29.1741L17.4721 28.628L19.1376 27.639L22.0543 28.0407L24.164 28.7515L24.8503 28.3086L25.7085 26.5059L26.2534 24.9504L30.9167 24.0437L32.5215 21.0357L33.4197 21.0461L34.4596 20.6032L35.4484 19.4598L36.3972 18.9857L37.1543 19.5626L38.1437 19.9335L39.1731 19.2123L40.7071 15.751L41.5554 15.2153L45.6535 14.6796L51.2448 12.6399L54.0713 10.8269L56.8467 9.83787L59.8346 8.0764L64.5684 6.36618L64.7908 5.66574L62.6001 3.90427L61.8633 2.79169L61.3587 1.64829L62.1362 0.381028L63.1755 0L64.5179 0.525328L68.4847 1.27732L69.5751 2.00888L69.9688 3.79078L70.9779 5.44945L71.7855 5.63493L71.4929 8.33388L72.7546 9.38453L74.6114 10.1985L75.833 10.0337L76.7109 8.94157L77.0442 8.17952Z" fill="url(#paint0_linear_2_299)"/>
<defs>
<linearGradient id="paint0_linear_2_299" x1="28.5" y1="-5.99999" x2="170" y2="120.5" gradientUnits="userSpaceOnUse">
<stop stop-color="#8FFFF4"/>
<stop offset="1" stop-color="#3064FF"/>
</linearGradient>
</defs>
</svg>
