<svg width="160" height="159" viewBox="0 0 160 159" fill="none" xmlns="http://www.w3.org/2000/svg">
<path d="M127.505 1.714L127.81 2.30551L128.244 2.91202L129.698 3.93801L130.158 4.50833L130.514 5.14211L130.739 5.63701L131.187 6.03226L131.815 6.28579L132.354 6.58757L132.683 7.03108L133.176 7.49283L134.127 8.12053L134.591 8.13563L135.126 8.22312L135.599 8.38906L136.105 8.34081L136.921 7.93036L137.884 7.24234L138.62 6.81688L140.4 6.96773L141.393 7.31482L142.182 7.8006L142.798 7.77049L144.141 6.87121L144.853 5.91457L145.544 5.70939L146.591 6.12583L147.455 7.01902L148.215 8.31668L148.751 8.81158L149.484 9.57806L150.94 11.2287L152.836 12.0555L153.572 12.4629L153.811 12.8703L153.952 13.4135L154 14.0019L154.23 14.2464L154.742 14.1618L155.178 14.0774L155.66 14.2464L155.995 14.6749L156.162 15.0098L156.345 15.3689L156.82 15.5983L156.913 16.0599L156.587 16.6212L156.252 17.1251L155.845 18.127L155.633 19.153L155.908 19.494L156.198 19.7776L156.354 20.0643L156.446 20.3993L156.411 20.7917L155.765 22.2159L155.433 23.4592L155.421 24.0899L156.273 24.5546L157.38 24.5305L157.73 24.8141L158.08 25.2667L158.388 25.4992L158.854 25.4931L159.177 25.65L159.306 25.9699L159.683 26.3139L160 26.6942L159.847 27.1799L159.821 27.5512L159.031 28.5831L157.218 30.596L153.318 34.3288L153.315 34.3319L151.999 34.7814L151.32 35.4755L150.838 36.5649L149.702 37.4883L148.825 37.8625L148.733 38.0827L148.664 39.0846L148.754 40.5542L148.344 41.2271L147.749 42.5368L147.44 43.3546L147.201 43.5146L146.935 43.9249L146.768 45.2587L146.654 45.7084L146.226 48.4695L146.349 49.2571L146.017 50.5698L146.002 51.3423L145.864 52.2174L145.628 52.9748L145.643 54.1879L145.778 56.1675L145.754 56.4301L145.425 56.6141L144.838 57.106L144.285 57.4349L143.863 57.5194L143.16 58.3946L142.562 59.2244L142.113 60.0332L141.997 60.4043L142.09 61.4515L142.152 62.6917L142.015 63.2258L141.805 63.5427L140.824 64.2156L140.178 64.6984L139.873 64.9519L139.715 65.3411L139.999 66.2586L140.02 66.9284L140.253 67.3238L141.031 67.6436L141.028 67.9666L141.049 68.3136L141.455 68.7451L142.197 69.6262L142.792 70.453L142.807 71.1713L142.694 72.3723L142.673 73.0634L142.733 74.0109L142.73 75.7732L142.688 77.0285L142.783 77.6804L143.693 79.2344L144.094 80.9575L144.294 82.2189L144.303 82.6202L143.995 84.0717L143.645 85.481L143.624 86.0151L143.788 86.7272L144.438 88.3568L144.91 89.5428L145.138 90.2579L145.463 91.0908L145.897 92.3673L146.005 92.9738L145.915 93.4264L145.03 95.0288L144.94 95.5327L145.158 96.7761L145.448 97.977L145.867 98.6591L146.866 100.542L147.611 101.179L148.984 102.12L150.195 103.068L150.662 103.56L151.09 104.109L151.933 105.515L152.448 106.659L152.72 107.694L153.381 109.109L153.997 110.422L154.793 112.027L155.355 113.162L155.609 113.919L154.155 114.146L152.053 114.469L149.735 114.828L147.342 115.196L144.97 115.564L142.721 115.911L140.678 116.225L140.056 116.4L140.361 117.293L140.22 118.232L139.816 118.959L139.176 119.852L138.886 120.208L138.234 120.905L137.69 121.397L136.58 122.224L135.88 122.698L135.874 123.126L137.053 125.13L137.588 126.569L137.806 127.87L137.794 128.618L137.75 130.157L137.696 131.989L137.615 132.71L137.935 134.017L137.878 135.037L137.086 136.178L136.864 137.297L136.463 138.809L135.91 140.909L135.515 142.014L135.734 142.732L135.931 143.215L136.14 143.863L136.565 144.841L137.062 145.418L137.34 145.665L138.973 146.899L139.652 147.494L140.687 148.677L141.452 149.461L142.517 149.645L143.794 149.941L144.5 150.17L144.985 150.059L145.149 149.781L145.125 149.19L145.042 148.755L145.176 148.42L145.61 148.2L146.72 148.164L147.201 147.868L147.584 147.795L147.587 149.093V150.336L147.59 151.848V153.583L147.593 155.008V156.522L147.596 158.273L147.587 158.469L147.417 158.864L146.977 159L146.382 158.659L146.346 158.3L146.199 157.657L145.924 157.328L145.562 157.226L144.952 157.392L144.114 157.865L143.041 158.282L142.604 158.52L141.847 158.49L141.028 158.264L140.427 157.73L140.253 156.93L139.724 156.109L139.006 154.92L138.644 154.434L138.165 153.879L137.681 153.816L137.139 153.662L136.807 152.85L136.496 151.824L136.305 151.429L135.982 150.919L135.518 150.608L134.507 150.198L133.096 149.627L131.319 148.909L130.475 148.873L129.53 148.752L128.938 148.411L128.6 148.139L128.211 147.144L127.679 145.979L126.12 144.594L125.77 143.061L125.456 142.84L124.921 142.964L124.508 143.154L124.344 143.568L123.928 144.95L123.698 145.587L123.542 145.765L123.201 145.97L122.645 146.157L121.852 146.25L120.733 146.214L119.334 146.009L118.58 145.855L116.537 145.626L115.945 145.514L115.11 145.212L114.509 144.911L112.529 144.259L111.629 144.337L111.195 143.876L110.803 143.649L110.265 143.215L110.026 142.62L109.706 141.344L109.783 140.662L110.014 139.901L109.756 139.69H109.397L108.883 139.953L107.971 140.1L106.299 140.435L105.706 140.623L105.051 140.767L104.549 140.897L103.293 141.63L102.856 141.709L102.111 141.446L101.752 141.054L102.111 140.61L102.264 140.058L102.01 138.981L101.624 138.483L100.511 138.127L100.083 138.094L99.9038 137.49L99.5958 136.941L98.9616 136.835L98.6566 136.772L98.3395 136.941L98.16 137.385L98.1093 137.726L97.5439 137.985L96.3894 137.934L95.2438 137.686L94.4393 137.605L93.9038 137.668L91.8579 138.51L91.185 138.622L88.9895 138.558L87.7452 138.38L86.86 138.35L86.2318 138.613L85.4481 139.237L84.793 139.572L84.4911 139.536L84.3056 139.274L84.0484 138.918L83.9675 137.976L83.6416 136.947L83.8569 136.407L84.503 136.021L84.7273 135.224L84.5269 134.029L84.515 133.19L84.6884 132.704L84.4551 131.527L83.809 129.659L82.8968 128.141L81.7184 126.968L80.9467 125.848L80.5818 124.777L80.7192 122.215L81.0752 119.961L81.3564 118.171L81.2757 115.175L80.477 113.225L80.3036 111.131L80.7552 108.892L80.8209 107.359L80.5219 106.574L80.3185 106.457L80.0613 106.378L78.0424 106.303L75.3533 106.203L73.0083 106.173L70.4631 106.143L70.0472 105.859L69.8588 105.337L69.8678 104.821L70.3882 103.24L70.3134 103.11L69.4101 103.077L66.9576 103.333L65.3394 103.587L64.3134 103.671L62.5099 104.103L61.3941 105.014L61.0292 106.158L61.0591 107.102L60.9963 107.794L60.4879 108.515L60.0872 109.345L60.0722 109.782L59.8268 111.991L58.1639 112.287H56.5008L56.1119 112.26L54.0571 111.732L53.2943 111.728L52.6424 112.006L51.3831 112.278L50.1808 112.477L48.9693 113.132L48.6464 113.189L47.8417 112.848L46.7171 112.881L45.5776 113.044L45.045 113.117L44.6772 112.917L43.6304 111.27L42.2366 109.076L41.4798 107.7L41.1987 107.341L40.714 106.867L40.05 105.971L39.7749 105.12L39.8916 104.314L39.5027 103.228L38.6084 101.861L38.0191 100.557L37.7379 99.3109L37.6691 98.2487L37.8097 97.3615L37.6394 96.7097L37.1517 96.2902L36.8885 95.7561L36.6972 95.5358L36.2933 95.0319L35.405 94.4766L34.43 94.1839L32.2884 94.1779L29.4918 94.1688L26.9582 94.211L24.1408 94.2593L21.2872 94.3077L20.5186 94.38L18.3411 94.4132L16.5973 94.2714L15.9512 94.1808L14.8146 94.1115L13.02 94.0964L12.0479 94.1507L9.7208 94.1537L9.50849 94.1657L9.14063 94.3227L8.1476 94.1054L7.17247 94.1779L6.62817 93.9364L5.43167 94.0873L4.85141 94.2865L3.92127 94.9896L2.52442 95.3547L2.00696 95.3245L1.66302 95.2068L0.852459 94.4344L0.224274 93.692L0 93.2786L0.349965 93.176L1.4476 93.0191L2.27313 92.9436L2.4347 92.7474L2.5603 90.4541L2.59024 88.1275L2.29705 87.8196L2.00997 87.6326L1.99802 87.4726L2.42575 87.18L3.02089 86.8389L3.2124 86.6851L3.87034 86.0694L5.17153 84.6451L6.16155 84.295L7.08274 83.9208L7.21135 83.7851L7.33403 83.5075L7.7468 83.5285L7.87842 83.6613L8.08179 83.9631L8.44371 84.3855L9.09864 84.8865L9.75677 85.4266L10.0857 85.4961L10.6152 85.2215L11.2313 84.814L12.1377 84.5183L12.3529 84.2407L12.4696 83.6462L12.5413 83.0126L12.6191 82.2641L12.8046 82.1615L13.1306 82.0892L13.7318 82.3004L14.0071 82.5207H14.5006L14.8146 82.3215L15.3889 81.9533L16.1188 81.8055L16.8994 81.4494L17.6501 80.9968L18.0031 80.9545L18.377 81.5489L18.712 81.9624L18.7717 82.2219L18.4367 82.7168L18.0628 83.3687L18.377 84.1804L18.4517 84.968L18.4427 85.4448L18.697 85.6379L18.8705 85.7284L19.1397 85.6168L19.675 85.65L20.3182 85.8974L20.9372 85.8702L21.5355 85.5655L22.6511 84.3826L24.2813 82.3185L25.6332 81.0239L26.701 80.4958L27.4248 79.8802L27.8047 79.1711L28.4269 78.6913L29.7251 78.3081L30.712 77.8735L31.6991 76.4582L33.0151 73.9113L33.383 71.639L33.6074 70.257L33.4787 65.4921L33.3919 63.9289L33.5924 63.0779L34.0829 62.4926L35.4229 61.2523L36.3233 60.2353L37.0112 59.0463L38.3302 56.3335L38.9105 55.4584L39.1707 55.066L39.9663 54.3449L41.0821 53.7082L42.5177 53.162L44.734 51.2729L46.4958 49.3718L46.2565 47.0874L46.6693 45.1924L47.6293 42.7843L47.9433 40.2344L47.6144 37.5456L47.752 35.3458L48.6732 32.7898L49.056 31.8392L49.1847 30.2852L49.1787 27.8137L50.3482 24.4339L51.4549 22.406L52.6932 20.1428L53.1658 18.7728L53.794 16.9441L53.6952 15.4745L53.5815 13.7846L53.8926 11.461L53.7759 10.094L53.3363 8.90505L53.5607 8.15368L54.449 7.84895L55.5557 6.65996L57.5417 3.55482L59.6833 2.03992L61.1728 1.56012L62.7251 1.61141L63.7391 1.88299L64.2057 2.37191L65.3812 3.10514L67.2595 4.07385L68.6654 5.28697L69.4431 6.50911L70.0472 7.173L70.795 7.40231L72.0183 7.30275L73.3853 7.58943L74.8091 8.27441L75.6854 8.52785L76.0085 8.34983L76.6964 8.44938L78.2697 9.01068L79.5229 8.70291L81.3803 8.93526L85.6934 9.93712L85.9238 9.76813L86.0255 9.7289L86.3934 9.32453L87.3295 7.31777L88.1222 6.08356L88.493 5.61886L89.4083 4.96704L90.485 4.80109L91.517 4.85837L92.3815 5.14505L93.171 5.47704L94.0444 5.48008L94.9388 5.16016L96.2667 4.57178L97.6665 4.1885L98.8689 3.76598L100.849 3.02668L101.624 2.68575L102.608 2.55296L105.366 3.22891L107.151 2.78226L107.881 2.91202L109.427 2.43223L109.708 2.10935L110.692 0.476757L111.739 0L113.325 0.241372L114.216 0.494899L117.183 1.19194L121.036 1.91918L122.169 2.03089L122.63 2.11239L123.031 1.99765L124.296 1.08032L124.724 0.950567L125.085 0.96567L127.505 1.714Z" fill="url(#paint0_linear_2_301)"/>
<defs>
<linearGradient id="paint0_linear_2_301" x1="68" y1="13.3613" x2="156.271" y2="158.836" gradientUnits="userSpaceOnUse">
<stop stop-color="#8FFFF4"/>
<stop offset="1" stop-color="#3064FF"/>
</linearGradient>
</defs>
</svg>
