<svg width="136" height="121" viewBox="0 0 136 121" fill="none" xmlns="http://www.w3.org/2000/svg">
<path d="M106.12 4.35277L106.283 4.74846L106.65 5.84358L107.577 8.62552L108.39 10.7998L109.381 13.8055L109.692 14.9566L109.824 15.7521L111.265 19.0456L112.121 21.7435L112.747 23.9338L113.631 27.1234L114.013 28.2345L113.388 28.8141L112.137 30.8806L110.803 37.4236L108.895 42.5117L108.681 45.6892L108.374 46.8324L107.466 48.4392L106.367 50.0101L104.411 49.1987L101.225 46.4327L99.3696 43.8027L97.3784 42.1001L95.4988 39.8418L94.9849 38.215L95.0049 37.1678L94.1845 34.6137L93.5751 33.4027L91.2813 30.6808L90.6243 29.2258L90.1224 28.5823L89.6165 27.663L88.7843 24.1097L87.8764 21.8474L86.8409 22.475L87.024 23.4263L86.12 24.7412L85.5746 26.2641L85.9926 27.5072L87.8684 29.3977L88.2466 30.2251L88.6849 32.0117L88.6131 34.4378L88.9158 35.2572L90.3214 37.0558L90.8234 38.1231L91.126 39.0423L91.5919 39.8737L92.9857 41.4325L94.9888 44.3982L96.8886 46.3967L98.2625 47.36L98.8439 48.3232L98.9754 50.8053L98.8718 51.9885L100.078 54.2147L100.524 55.3379L101.687 56.2532L102.221 57.2965L102.711 58.9952L103.448 64.0033L104.459 65.2304L107.585 71.7815L110.222 75.9103L111.496 78.988L113.444 82.7211L117.255 90.8909L119.521 93.401L120.425 94.8119L122.065 95.8951L123.842 97.4619L122.149 97.31L121.719 97.402L121.126 97.6697L120.843 98.621L120.719 99.3964L120.926 103.493L121.392 105.58L122.882 109.517L123.993 110.696L124.534 111.459L125.291 112.015L128.824 113.358L130.89 116.188L135.534 119.761L135.988 120.748L136 120.976L132.332 120.98H128.664H124.997H121.329H117.665L113.993 120.984H110.329H106.661H102.994H99.3259H95.658H91.9942L88.3263 120.988H84.6584H80.9908H77.3229H75.232L75.5905 119.917L75.8095 119.161L75.5626 118.634L74.8499 118.502L74.3839 118.67L73.2887 120.912L72.7153 121H71.4129H67.1439H62.8708H58.6015L54.3323 120.996H50.0633H45.794H41.5248H37.2558L32.9865 120.992H28.7134H24.4441H20.1751H15.9059H11.6366L7.3635 120.988H3.0945V118.286V115.576V112.862V110.148V107.426V104.7V101.971V99.2365V96.4946V93.7528V91.0028V88.2449V85.487V82.7211V79.9513V77.1774V74.3954V71.6096V68.8197V66.0258V63.22V60.4141V57.6002V54.7824V51.9566V49.1267V46.2889V43.4469V40.5972V37.7434V34.8815V32.0157L2.99873 31.4801L2.37769 29.5256L1.81596 27.0395L1.2027 23.9779L1.12322 22.9825L0.0957688 19.817L0 18.9176L0.258868 18.2781L1.94746 15.6042L2.45718 14.3011L2.88327 12.7384L3.02668 11.4674L2.52888 9.51681L1.94746 7.76216L1.75228 5.96348L1.66866 4.19286L2.53301 2.98174L3.56824 1.84662L3.95472 1.15122L4.56798 0.367762L4.99797 0L5.83825 1.59083L7.59053 1.8626L13.3014 0.447658L19.6056 1.87467L23.0822 2.4182L28.4426 3.62932L31.7041 5.78759L32.6003 6.05948L34.9459 6.01544L36.4831 7.29047L42.6001 7.90207L45.8657 9.30493L47.7174 10.4241L48.8287 10.7678L49.8122 10.7119L51.1384 10.2922L52.8151 9.50486L54.6349 8.40962L58.4144 5.59182L59.7525 5.09622L60.6246 5.22808L61.6878 5.18807L62.1299 4.42473L62.6914 3.90109L63.0419 3.30547L63.6153 2.58605L65.5827 2.38625L69.5214 1.15513L69.0792 1.73867L65.4911 3.11762L67.0282 3.28949L68.6014 2.81792L70.3974 2.5181L70.7241 1.93054L70.9589 0.831399L71.3014 0.675512L72.5439 0.883361L76.2356 2.57812L77.1556 2.61008L79.7562 1.68671L80.3097 1.49093L81.1539 2.00251L83.0736 4.10894L82.4045 4.0649L80.3496 2.25829L80.1663 3.16166L78.9954 4.74444L80.457 5.42788L81.6478 5.68366L82.2851 6.56703L82.6871 7.35049L83.8621 7.00676L84.7024 5.93957L84.2642 5.34396L83.9696 4.72846L84.3519 4.71248L85.1684 5.22003L87.506 7.24656L88.2945 7.66617L89.2026 7.59432L91.1022 7.02664L91.6318 7.11458L94.1806 6.36723L94.4791 6.91478L94.9013 7.45832L96.9562 6.85087L100.178 6.8588L102.818 6.19939L105.877 4.59258L106.12 4.35277Z" fill="url(#paint0_linear_2_291)"/>
<defs>
<linearGradient id="paint0_linear_2_291" x1="19" y1="15" x2="147" y2="169" gradientUnits="userSpaceOnUse">
<stop stop-color="#8FFFF4"/>
<stop offset="1" stop-color="#3064FF"/>
</linearGradient>
</defs>
</svg>
