<svg width="254" height="250" viewBox="0 0 254 250" fill="none" xmlns="http://www.w3.org/2000/svg">
<path d="M135.263 10.6781L136.319 10.3673L138.108 9.25137L139.599 8.89628L140.452 9.75236L140.933 10.2406L141.868 12.1681L142.133 14.1719L142.551 15.8395L143.309 16.5116L146.159 16.7335L148.264 17.3487L148.82 17.9065L149.541 21.5969L149.933 22.1169L150.457 21.6857L150.975 21.077L151.696 20.9819L152.928 21.2165L154.553 21.2925L156.227 21.6983L158.541 23.7781L158.452 24.4629L158.003 25.6613L157.845 26.6188L158.244 27.0056L158.857 27.9948L158.711 29.1361L158.117 29.9351L157.877 30.5946V31.0193L158.098 31.3744L158.572 31.6852L161.991 32.1038L165.12 31.6852L167.092 30.5185L167.427 29.2884L167.983 27.906L169.158 26.7394L169.967 26.3462L170.713 26.8218L169.462 31.698L170.378 32.9407L170.511 34.7921L170.839 36.4155L171.958 36.3837L173.311 36.6817L174.271 37.2777L175.39 38.2416L177.002 39.1294L178.133 39.44L178.544 40.1755L179.46 41.0316L180.901 42.8198L182.191 44.0118H182.816L184.017 43.5425L185.799 43.2445L187.202 43.2699L187.803 44.1766L189.187 44.5952L189.674 44.9311L190.217 45.5589L191.14 45.8126L192.252 45.5589L193.061 44.7283L194.142 44.3479L195.229 44.4746L195.855 44.9311L197.043 45.6098L197.713 45.4639L199.059 45.8824L200.412 47.2012L200.98 48.5201L201.126 49.243L201.707 50.0293L203.976 53.5673L204.697 53.7386L205.487 53.2061L205.999 52.4452L206.738 52.2929L207.926 52.648L208.691 53.0474L209.057 54.5757L209.317 54.8673L209.828 54.5376L210.745 54.4677L212.211 54.842L214.221 54.4108L215.833 53.7703L216.654 53.7957L217.981 55.5775L219.498 56.2433L222.835 56.7823L226.419 57.6192L227.828 58.2976L228.789 58.6337L228.89 60.9862L228.599 61.3413L225.028 66.0462L223.524 67.7264L222.759 70.117L222.235 73.782L221.179 77.2504L219.599 80.535L219.024 82.9953L219.454 84.6312L219.182 87.1992L218.215 90.693L218.051 93.3245L218.696 95.0999L219.587 95.4614L217.444 96.6534L216.958 97.6997L216.117 99.0755L214.752 99.6525L213.38 99.8428L212.268 99.6653L211.636 99.1136L211.668 98.6001L211.08 98.1625L209.62 98.1751L208.109 99.12L206.902 100.667L207.275 101.53L208.387 101.758L208.678 102.1V102.544L208.286 103.077L207.819 103.99L205.487 106.704L203.135 109.436L202.756 110.261L202.01 110.838L199.021 112.296L198.711 112.88L198.541 115.308L198.206 117.299L195.987 119.17L193.782 121.028L193.232 122.163L192.834 123.475L192.145 124.959L192.006 125.745L193.124 127.02L192.992 128.072L192.638 129.569L191.582 130.628L190.407 131.23L190.432 132.853L191.058 133.081L192.473 132.961L194.477 131.782L195.785 130.26L195.014 128.82L194.919 128.541L195.109 128.199L196.657 126.626L198.553 125.682L201.202 125.504L204.393 126.062L204.709 126.297L204.558 127.261L204.855 128.681L205.43 129.676L204.64 132.498L205.24 133.379L206.169 134.438L206.864 135.402L207.863 136.284L208.754 137.774L209.057 138.617L207.629 140.075L205.215 141.445L204.943 142.326L204.975 143.322L205.246 144.108L206.58 145.116L208.015 147.393L208.925 149.422L210.916 151.362L211.402 151.939L211.276 152.421L210.751 153.245L210.069 155.997L209.253 156.428L208.343 156.606L205.878 158.616L204.779 158.369L203.218 158.394L202.074 159.054L202.2 160.303L203.205 161.444L203.793 162.687L204.033 163.98L205.145 164.938L206.713 165.509L207.61 165.546L208.192 165.889L208.545 166.333L209.222 169.097L208.817 169.789L207.97 170.08L207.465 171.215L206.46 172.883L205.891 174.221L206.523 175.4L206.789 176.275L206.454 177.176L206.902 178.571L208.09 179.953L211.32 181.893L214.322 183.472L215.251 183.732L219.309 182.717L219.979 182.806L220.472 184.011L220.687 184.823L220.231 186.04L219.113 187.759L217.925 189.096L217.204 190.231L217.356 191.265L217.4 192.635L216.433 193.04L216.401 192.774L216.003 192.54L215.662 192.673L215.397 192.971L215.359 193.497L213.298 194.372L211.876 195.279L206.258 200.681L203.628 202.26L203.11 203.211L202.573 204.986L201.031 206.508L199.678 207.231L196.335 207.973L192.973 209.584L191.456 208.886L187.537 208.962L185.091 207.022L180.389 205.792L178.86 202.958L176.717 202.773L175.314 202.862L174.474 202.431L174.259 201.461L174.24 200.529L172.755 200.96H171.617L170.941 201.334L170.41 201.765L169.778 201.493L169.411 201.588L169.443 202.133L168.078 202.273L166.592 201.937L162.706 200.472L162.112 200.244L159.413 199.679L158.326 199.09L157.441 197.637L156.771 197.181L156.373 196.908L153.857 197.644L152.985 198.785L151.626 200.123L142.298 206.667L140.591 209.4L138.619 213.413L138.468 215.284L139.315 221.244L141.211 224.364L141.451 225.087L140.395 225.093L138.632 224.7L137.172 224.218L135.775 224.485L134.436 225.131L133.26 225.524L132.413 225.632L131.851 226.006L131.579 226.748L131.528 227.268L130.043 227.141L126.611 226.076L123.527 225.341L121.713 226.178L120.55 226.957L119.735 226.837L119.109 226.013L118.692 225.207L117.485 224.466L114.755 223.356L114.894 222.823L115.361 222.075L115.349 221.612L114.824 220.927L112.309 220.192L111.121 220.008L110.368 220.515L109.825 221.137L108.428 218.854L107.43 218.385L105.925 218.309L104.2 217.611L102.405 216.717L98.0505 215.29L96.856 215.119L96.3757 215.347L96.0534 216.203L95.8827 218.613L95.6995 218.879L93.677 218.962L91.1868 218.626L90.0429 218.79L89.0255 218.797L88.0647 218.156L83.7607 218.886L83.0465 218.531L82.01 217.446L80.8472 216.565L79.9497 216.115L79.1786 215.595L78.4835 215.512L77.4217 216.013L75.9553 216.229L74.7419 216.165L74.0909 216.235L71.3606 213.559L70.9625 212.83L69.6037 212.627L67.9224 212.596L63.6375 210.858L61.6844 209.926L61.4001 209.368L61.4254 208.918L61.0904 209.019L60.4899 209.812L60.174 210.459L59.7568 210.579L59.1437 210.478L58.5749 210.11L58.2273 209.641L58.6001 208.823L59.2575 207.751L59.5292 206.584L59.4662 205.538L58.3853 204.866L56.7927 204.587L55.6235 204.505L54.1065 203.909L53.3861 203.477L52.6908 202.311L52.6656 201.461L55.5539 200.713L58.1515 197.637L60.6163 186.427L62.3986 173.054L63.7196 170.518L65.388 169.82L64.0419 167.969L63.2014 168.907L62.8475 169.903L62.405 170.404L63.3971 158.007L64.105 153.442L65.3122 148.648L67.7833 150.55L69.8311 152.484L70.8865 154.158L72.2264 159.713L73.244 160.88L74.7608 162.046L74.1604 160.772L73.1177 159.795L71.4869 152.383L70.4631 150.271L68.8704 148.496L63.7385 144.749L63.2772 144.019L63.0243 142.586L64.7245 142.65L66.1908 143.347L66.0201 142.548L65.584 141.711L64.9014 138.661L64.3326 131.515L64.4084 130.291L64.1557 128.782L62.5124 128.446L61.1978 128.389L59.7821 127.793L52.7921 123.558L50.4029 119.17L47.9571 115.923L47.3694 114.503L47.4072 113.064L48.6777 110.02L47.559 108.092L46.4656 107.712L45.5176 106.754L46.3771 105.163L47.0913 104.142L48.5259 103.869L50.4029 104.205L52.1853 105.131L53.5821 105.378L49.455 102.899L42.7556 103.736L41.3083 103.419L40.0949 102.867L39.6145 101.041L40.5688 100.223L41.4285 98.7015L40.4552 97.6362L39.1911 97.2304L37.2066 97.2494L35.3548 97.5727L34.8871 96.9578L36.0183 95.2584L35.0578 94.637L33.7748 94.9287L31.9166 95.2774L30.1406 94.7448L28.4595 92.8109L27.3472 92.8235L26.5825 93.0644L25.4511 92.3163L24.2566 92.1323L23.4033 92.3796L22.2721 91.27L15.2946 89.0381L12.2863 88.7655L9.52438 89.7736L8.00124 89.4247L6.88256 87.979L5.94712 85.5569L1.49787 83.6863L2.37622 82.4562L4.44925 82.1646L6.83203 81.3149L7.69148 80.2179L5.82715 78.9434L4.44925 78.6265L3.88046 78.1698L3.29894 77.0221L4.12059 76.496L4.70211 76.7748L6.38321 76.9397L9.25261 76.6606L8.18447 75.5004L7.07216 75.2403L6.56027 74.9487L4.22185 74.8219L3.16007 75.2213L0.770923 75.0692L0.252667 73.82L0 72.7421L0.739291 70.3453L4.10169 68.1957L12.4821 65.8432L16.0846 66.1857L18.581 65.7608L21.5768 64.2772L22.8978 63.0025L27.1576 62.2544L31.2024 63.6049L34.9313 68.7031L36.7136 70.4278L41.0809 67.4348L47.5843 67.5236L48.9242 69.2102L49.4677 67.7899L50.6622 66.1223L51.6165 66.8831L52.1031 67.9166L58.9668 67.625L60.0475 67.327L58.2021 66.1159L56.6978 63.2119L56.3819 52.4767L54.4796 49.465L52.2991 44.6395L51.2942 41.7671L51.1993 40.7717L51.5344 39.3322L54.214 39.4082L56.287 39.7761L60.2371 38.6919L62.1332 39.4338L62.0194 41.6783L62.601 44.5064L63.2581 45.876L64.2632 47.4295L67.4421 47.29L70.874 48.2031L75.216 48.3427L81.555 49.9151L84.2537 49.0019L86.8703 47.0554L91.8505 45.7746L92.2486 45.1024L89.3794 45.3686L86.7501 44.1323L86.3962 42.7944L86.6996 41.5897L87.7677 38.8122L95.3898 34.4181L100.85 33.1183L106.551 30.6896L109.42 28.1978L111.316 24.9703L111.93 24.2601L112.72 23.6641L111.986 22.5037L112.479 10.0757L113.01 7.82464L114.123 5.97955L115.816 4.55283L118.382 3.00555L127.844 0.868846L129.247 0L129.443 1.34429L130.132 3.06263L130.606 4.00114L130.207 5.22488L130.517 6.23305L131.8 8.0466L133.399 9.75236L134.827 10.843L135.263 10.6781ZM63.5931 139.181L62.9674 141.413L61.7793 139.359L60.2118 137.558L59.8517 135.89V135.447L61.6908 136.664L63.5931 139.181ZM252.647 216.064L252.186 219.608L252.521 220.642L253.166 221.365L253.463 222.157L254 231.555L253.899 232.303L251.731 236.063L251.244 237.16L251.137 241.801L250.77 243.044L249.999 244.268L248.628 248.225L247.44 250L244.191 247.832L242.276 246.893L241.341 245.885L240.728 245.187L241.126 244.255L241.998 243.285L242.137 242.518L240.083 241.656L239.141 241.079L239.154 240.064L239.862 238.485L239.54 237.179L238.351 237.242L237.429 237.046L237.308 236.367L237.985 235.499L238.857 234.363L238.832 233.108L237.776 232.569L236.822 231.548L236.436 230.16L237.176 229.208L238.377 228.6L237.492 227.173L236.898 227.141L236.424 226.831L236.816 226.171L237.744 225.182L239.04 222.221L240.841 220.82L244.039 219.919L244.905 219.52L245.695 218.473L246.574 217.801L247.642 217.89L248.628 218.29L249.235 218.721L249.69 218.27L250.132 216.971L249.86 215.829L249.999 212.691L250.568 210.909L251.491 210.807L252.338 211.79L252.3 212.659L252.616 214.713L252.647 216.064Z" fill="url(#paint0_linear_1_259)"/>
<defs>
<linearGradient id="paint0_linear_1_259" x1="72.5" y1="-1.76057e-06" x2="222.5" y2="235" gradientUnits="userSpaceOnUse">
<stop stop-color="#8FFFF4"/>
<stop offset="1" stop-color="#3064FF"/>
</linearGradient>
</defs>
</svg>
