<svg width="268" height="135" viewBox="0 0 268 135" fill="none" xmlns="http://www.w3.org/2000/svg">
<path d="M258.272 91.2755L257.302 93.189L255.005 96.6592L253.179 98.4297L251.153 98.7152L249.142 99.5292L248.443 101.386L248.358 103.785L248.7 105.512L249.214 106.155L251.267 106.726L253.293 111.767L256.474 114.309L261.438 117.193L265.846 120.492L268 123.519L267.586 125.718L266.146 130.259L262.465 134.043L259.398 135L258.314 134.643L256.317 133.472L252.28 130.545L247.902 128.231L244.535 128.988L242.323 129.859L237.945 128.831L232.766 126.832L230.071 124.862L228.887 123.405L229.685 120.82L217.946 116.151L212.283 114.851L209.73 116.265L201.1 123.291L200.073 124.005L193.483 124.976L193.468 125.547L194.966 127.061L194.681 127.532L183.625 127.689L179.945 128.603L170.103 127.417L166.865 127.946L164.098 129.045L157.365 130.302L152.715 131.773L146.78 132.544L140.662 132.615L138.564 133.058L138.65 132.044L138.322 130.487L137.081 129.36L135.34 128.645L132.145 128.917L129.193 128.16L127.095 126.189L126.611 124.676L127.823 123.448L126.939 122.434L123.259 120.006L117.239 113.937L113.83 112.581L112.475 108.768L111.119 107.954L108.252 107.597L105.229 107.969L104.572 108.397L103.645 109.011L101.277 113.766L99.6079 115.38L95.529 114.623L92.1484 113.509L89.3954 112.881L84.0463 112.481L77.9693 112.395L73.8756 115.779L72.1065 115.337L68.9966 113.68L63.9756 112.31L61.3228 111.239L68.9966 101.2L71.2794 95.2167L71.3508 91.5897L71.45 87.0201L67.4564 77.5101L64.0331 63.973L60.467 49.8075L57.6853 45.5521L46.0598 40.6256L43.3635 35.028L34.3629 27.7884L21.8528 24.6325L19.3707 23.2903L8.5017 14.1511L0 8.25368L1.82571 4.68377L4.25042 0.913832L6.87537 0L14.5639 1.48514L21.6534 3.18425L26.8172 1.9706L32.9647 4.94088L38.5855 8.33953L44.2341 10.7385L55.2458 13.0089L59.3543 16.1361L64.1472 19.2632L82.9336 20.8482L84.445 20.3627L85.8293 19.906L92.1336 18.7778L97.7108 18.9778L103.602 22.7761L107.368 22.5477L111.391 21.9764L116.569 24.0041L120.634 26.2606L120.977 28.531L124.543 31.8438L134.898 36.8845L143.301 39.7406L145.911 41.7395L152.301 45.0379L152.943 46.0807L152.815 47.4369L150.989 49.9073L150.532 52.0923L151.388 53.3631L154.041 54.5628L159.291 54.8338L161.188 53.2633L165.111 52.135L169.005 50.1073L174.197 47.4086L181.257 44.9525H184.083L186.792 45.7094L188.69 47.066L191.87 52.1067L195.052 45.0523L195.865 44.5241L198.774 45.9522L203.895 47.9084L207.448 48.9508L209.373 50.4072L214.793 56.8332L223.566 56.5046L227.275 57.4899L229.272 58.5467L230.156 59.7891L228.587 66.1576L226.419 72.7836L226.604 74.3686L230.114 76.8673L234.906 79.4951L237.474 81.6082L239.228 83.5073L243.009 84.9497L247.473 85.8352L249.584 85.9494L251.795 87.5487L257.544 90.533L258.272 91.2755Z" fill="url(#paint0_linear_2_321)"/>
<defs>
<linearGradient id="paint0_linear_2_321" x1="44.5" y1="-1.11019e-05" x2="242.5" y2="192" gradientUnits="userSpaceOnUse">
<stop stop-color="#8FFFF4"/>
<stop offset="1" stop-color="#3064FF"/>
</linearGradient>
</defs>
</svg>
