<svg width="206" height="220" viewBox="0 0 206 220" fill="none" xmlns="http://www.w3.org/2000/svg">
<path d="M181.616 219.417L181.184 220L180.338 218.214L179.976 218.105L179.964 217.255L180.16 216.92L181.138 216.544L181.395 216.753L181.893 218.408L181.616 219.417ZM180.512 215.691L179.84 216.362L179.548 215.958L179.669 215.678L179.954 215.524L180.22 215.307L180.512 215.691ZM178.457 211.992L177.908 212L177.747 211.695L177.516 211.379L177.692 211.074L177.981 210.996L178.391 211.49L178.487 211.841L178.457 211.992ZM179.123 210.723L178.791 210.986L178.708 210.95L178.66 210.748L178.648 210.607L178.587 210.352L178.555 209.903L178.819 209.527L179.083 209.606L178.94 209.989L179.123 210.723ZM34.5953 209.212L34.4948 209.3L34.3916 209.333L34.3211 209.323L34.2835 209.235L34.3036 209.169L34.394 209.245L34.5149 209.174L34.6508 208.95L34.6835 208.876L34.7111 208.917L34.6835 209.045L34.5953 209.212ZM176.326 209.351L176.537 209.616L176.147 209.57L175.785 209.169L175.88 208.793L176.016 208.639L176.326 209.351ZM173.83 203.038L173.52 203.079L173.329 202.837L173.307 202.554L173.483 202.37L173.649 202.274L173.815 202.299L173.981 202.776L173.83 203.038ZM171.822 192.914L171.608 193.159L170.881 192.967L170.934 192.23L170.763 191.508L170.889 191.206L171.435 190.689L171.878 190.462L172.185 191.16L172.328 191.844L171.822 192.914ZM32.5677 188.274L32.5148 188.319L32.5098 188.188L32.5752 187.979L32.6506 187.84L32.6733 187.855L32.6532 187.992L32.6154 188.176L32.5677 188.274ZM173.166 186.99L172.821 187.134L172.476 186.955L172.745 186.664L172.791 186.074L173.143 186.402L173.123 186.775L173.166 186.99ZM175.455 182.28L175.77 183.269L175.201 182.837L175.017 182.527L175.302 182.317L175.455 182.28ZM173.337 176.315L173.113 176.785L173.068 175.781L173.173 175.654L173.286 175.619L173.43 175.712L173.337 176.315ZM173.374 185.88L173.219 186.049L172.99 185.86L172.333 184.57L172.22 183.743L172.039 183.455L172.27 183.044L172.559 182.908L172.73 182.444L172.791 181.737L173.045 181.159L173.173 180.998L173.702 180.993L173.835 180.92L173.762 180.367L173.455 180.128L173.347 179.974L173.359 178.649L173.44 178.114L173.631 177.728L173.495 176.931L173.586 176.633L173.966 176.214L174.134 175.321L173.978 175.054L174.341 173.676L174.321 172.753L174.793 171.83L175.533 171.408L175.767 171.398L175.797 172.188L175.868 172.448L175.44 172.914L175.848 173.522L175.795 173.742L175.631 174.224L175.362 174.698L174.987 174.892L174.695 175.523L174.529 175.76L175.085 176.424L175.264 178.674L174.856 179.29L174.371 179.414L174.484 180.912L174.396 181.248L173.915 181.982L173.825 182.302L173.556 182.605L173.669 182.981L173.903 183.145L173.908 183.453L173.692 184.242L173.674 185.143L173.374 185.88ZM74.5017 30.5805L74.4841 30.5527L74.069 29.9346L74.5017 30.5805L74.2703 31.2617L74.3181 31.8016L74.7457 32.397L75.0929 32.8133L74.7534 33.3734L74.5521 34.0218L74.7784 34.3119L74.6728 35.2429L74.7735 35.417L75.0124 35.4901L75.3848 35.4271L75.669 35.8812L75.4124 35.4725L75.3848 35.4271L75.7698 35.1798L76.0993 35.1319L76.2955 35.2025L76.5572 34.4986L76.7886 34.3977L77.2365 34.592L78.1221 35.919L78.8717 37.0392L79.0302 37.1931L79.0881 37.2511L79.2215 37.3798L79.9611 37.9601L80.4718 38.3259L81.1688 38.1947L82.0895 38.1695L82.6355 38.5278L82.95 38.7775L82.9651 38.8129L83.0077 38.8204L84.1147 39.6984L84.5927 39.6328L84.9098 39.8851L85.0004 40.5032L84.8519 41.1465L84.8871 41.4493L85.3803 41.5073L86.4294 41.9312L87.3552 42.3071L87.8357 42.4256L88.3515 42.7032L88.8094 43.1472L89.7024 43.7174L90.4925 44.1538L90.666 44.7442L90.3541 44.6181L89.9415 44.6837L89.5214 44.9461L89.3225 45.1126L88.364 46.1294L87.8608 46.4422L87.4105 46.8988L86.3715 48.2739L85.7702 49.5555L85.3324 50.7589L85.3399 51.6092L85.179 52.6057L84.7312 53.1734L84.457 53.3651L84.1324 54.2204L83.8984 55.217L84.0343 55.5399L84.5927 55.9739L85.1362 56.3977L85.8281 56.8568L86.4922 57.2933L86.92 57.3488L87.0383 57.1016L87.1941 56.8645L87.6823 56.9906L88.2761 57.417L88.6635 57.7575L88.8345 57.8711L89.8609 58.4438L90.7113 58.9156L91.7882 59.5135L92.0498 59.8793L92.2812 60.2679L92.7894 60.7825L94.0247 61.6934L95.0813 62.3467L95.9418 62.8766L96.6161 63.2475L96.928 63.1894L97.2701 62.9901L97.5695 62.8766L97.9192 62.9826L98.4476 63.2651L99.6878 64.128L100.845 64.8016L102.106 64.6805L102.44 64.789L102.677 65.3995L102.835 66.0177L104.244 66.4263L105.17 66.6105L106.229 66.9461L106.765 67.1959L107.329 66.883L107.432 66.608L107.877 66.4465L108.617 66.5172L109.995 66.9966L110.571 67.1404L111.054 66.6862L111.953 66.4768L112.423 66.2396L113.404 66.7442L115.175 67.375L116.089 67.7686L116.305 68.1545L116.403 68.5204L116.396 69.4085L116.62 69.8096L118.396 70.7103L118.982 71.0912L119.455 71.2149L119.722 71.2301L119.905 71.3436L120.064 71.8557L120.19 71.9743L120.532 72.1005L120.904 72.1736L122.059 71.7296L122.849 71.3941L123.412 71.4798L123.777 71.8532L123.83 72.3981L124.041 72.9734L124.444 73.2535L124.877 73.2837L125.948 72.8951L126.811 73.1929L127.601 73.3014L128.482 73.4881L128.824 73.6294L129.735 74.1036L130.849 74.583L131.279 74.53L133.073 73.6369L133.227 73.7454L133.591 74.5982L134.137 74.9034L134.99 75.1708L135.881 74.6789L136.583 74.8201L137.433 74.8656L138.248 74.6284L138.955 74.5679L139.984 74.9968L140.211 74.8984L140.407 74.6234L140.807 73.3922L141.162 72.3023L141.129 71.6514L140.804 70.6952L139.972 69.4488L139.911 69.0704L140.19 66.8931L140.5 65.6341L140.764 65.0388L141.056 64.1885L141.109 63.7949L141.079 63.4392L140.794 63.2222L140.719 62.9523L140.789 62.7252L141.016 62.599L141.962 62.4401L143.028 62.0995L143.453 61.9179L143.773 61.7363L144.1 61.4486L144.405 61.4612L145.361 61.8775L145.695 62.1399L145.871 62.9346L146.015 63.2424L145.889 64.0498L145.315 66.0025L145.429 66.7316L145.904 67.264L146.319 67.6348L146.251 67.7837L145.396 68.4119L145.242 68.7475L145.431 69.0755L145.771 69.353L145.924 69.6179L146.083 70.4403L146.518 70.6725L147.378 71.2023L148.136 71.5883L149.436 71.3309L149.804 71.505L150.443 71.6867L150.941 71.7422L151.23 71.8784L151.391 72.0096L151.368 72.1762L151.396 72.3477L152.108 72.3931L152.483 72.4915L153.748 72.3149L155.019 72.0727L155.603 71.3386L155.862 71.2855L156.591 71.0005L157.311 71.3133L158.101 71.7397L158.528 71.8683L159.371 71.9365L160.191 71.8885L162.154 71.6842L163.233 71.7901L164.224 71.1796L164.428 71.1821L164.863 71.6539L165.953 71.6968L166.531 71.4697L167.155 71.2957L167.553 71.2402L167.872 71.2351L168.257 71.2805L168.622 71.124L168.788 70.8087L168.75 70.3319L168.489 69.8121L168.26 69.5069L168.215 69.3454L168.285 68.9694L168.486 68.4397L168.856 67.8342L168.584 67.2463L168.204 66.5727L167.925 66.5071L167.221 66.6636L166.458 66.6332L165.857 66.2271L165.409 65.7175L165.301 65.2911L165.432 64.7688L165.631 64.2895L165.674 64.1103H166.245L167.035 64.2163L167.633 64.35L168.114 64.345L168.987 63.7293L169.384 63.6915L169.842 63.5754L170.041 63.4594L170.179 63.5502L170.68 63.6259L171.201 63.5957L171.666 63.4266L172.134 63.1617L172.964 62.6067L173.128 62.2888V61.9961L172.972 61.8019L172.814 61.7085L172.876 61.4537L173.226 61.0248L174.497 60.3789L175.578 59.5817L176.172 58.9837L176.444 58.2596L176.788 57.4725L177.111 57.1621L177.878 56.9653L180.026 56.6752L180.703 56.3573L181.702 55.767L182.205 55.3027L182.484 54.9268L182.515 54.508L183.179 54.3768L183.757 53.6982L184.459 53.0145L185.695 52.4367L186.789 51.6596L187.169 51.7833L187.566 52.1516L187.778 52.5578L187.823 52.7647L189.222 53.022L189.443 52.9817L190.472 53.3449L191.421 53.7839L191.944 53.8924L192.201 53.8798L192.419 53.7436L192.676 53.3575L192.938 53.0775L193.101 52.964L193.094 52.5199L194.467 51.6521L195.7 51.0289L196.762 50.5748L197.074 50.7615L197.418 51.1071L197.889 51.9876L198.173 52.202L198.893 52.0784L199.026 52.1768L198.913 52.4922L198.425 52.8833L197.791 53.2339L197.378 53.5215L197.514 54.4777L197.481 54.8057L197.66 54.9091L198.963 53.9606L199.59 53.7739L199.814 54.0034L199.881 54.5105L200.397 55.555L200.616 56.0848L199.305 57.3463L198.825 57.9972L198.842 58.2268L198.817 58.4539L198.483 58.7768L198.5 58.9055L198.769 59.1098L199.099 59.2638L199.258 59.2587L199.529 58.9535L200.765 58.522L201.119 58.6028L201.99 59.2638L202.392 59.3016L203.436 59.4984L204.106 59.2486L204.596 59.4782L205.615 60.3057L205.849 60.4571L205.764 60.9592L205.711 61.5117L205.97 61.9507L206 62.3392L205.942 62.6949L205.738 62.9397L205.172 63.0759L204.692 63.4997L203.927 64.1128L203.313 64.6023L202.868 65.0362L202.707 65.4903L202.757 66.0631L202.885 66.661L204.309 68.8509L204.297 69.2294L203.846 69.3353L203.248 69.0881L202.732 68.7348L202.151 67.7963L201.683 67.5163L201.217 67.4557L198.45 67.9376L197.864 68.0739L196.951 68.4246L196.311 69.1284L195.846 69.7718L195.368 70.0317L194.669 70.5312L192.729 72.0651L191.609 72.7261L190.877 72.9684L190.364 73.3165L190.087 73.8817L189.878 74.2878L189.818 75.2844L189.946 76.5105L190.223 77.2926L190.372 77.4566L190.394 77.6862L190.115 78.1075L189.748 78.4683L189.569 78.6904L189.405 79.8055L189.081 80.353L188.482 81.1578L187.951 81.7658L187.119 82.2376L186.802 82.6185L186.497 83.3225L186.319 83.9179L186.309 84.1323L186.404 84.3216L186.751 84.5309L187.171 84.7328L187.373 85.0482L187.4 85.4291L187.088 86.345L186.527 87.614L185.886 88.6181L185.224 89.5743L185.066 89.8872L184.472 91.0603L183.954 92.6725L183.604 93.7548L183.302 94.4965L182.93 94.5293L182.479 94.2922L181.38 93.9768L180.678 93.722L180.167 93.4924L179.813 93.5026L179.325 93.6514L178.829 93.7548L178.535 93.6438L177.853 92.9752L177.644 93.0509L177.511 93.3764L177.971 95.2837L178.27 95.9927L178.22 97.1759L178.102 98.6266L177.926 100.208L177.807 100.574L177.516 100.993L177.131 101.107L176.781 100.943L176.502 100.981L176.409 101.245L176.489 101.929L176.147 102.711L175.895 103.38L175.961 104.028L176.082 104.687L176.482 106.11L176.484 106.629L176.406 107.096L176.197 107.29L175.837 107.258L175.641 107.449L175.493 107.742L175.088 108.819L174.7 108.933L174.31 108.771L173.727 108.052L173.37 107.843L173.143 107.856L173.042 108.045L172.884 108.474L172.725 108.761L172.336 109.014L172.24 108.484L172.031 105.729L171.873 104.851L171.744 103.632L171.556 103.259L171.314 102.59L171.047 102.012L170.823 101.768L170.68 100.69L170.627 99.3709L170.63 98.7451L170.315 97.4509L170.008 95.9825L169.593 96.0431L169.347 95.6874L169.168 95.695L168.584 96.0255L168.119 95.9169L167.774 95.9624L167.772 96.6385L167.83 97.3576L167.699 97.6174L166.788 98.4601L166.534 99.0253L166.559 99.6181L166.672 100.41L166.511 100.814L166.116 101.185L165.586 101.379L165.117 101.288L164.818 100.965L164.539 100.143L164.29 99.6938L164.028 99.5878L163.824 99.709L163.797 100.226L163.812 100.653L163.746 100.7L163.601 100.635L163.434 100.425L162.999 98.3617L162.378 96.7697L162.34 96.1592L162.566 95.372L162.846 94.1585L163.583 93.4016L163.678 93.0812L163.799 92.8264L163.978 92.7759L164.924 92.8466L165.241 92.7255L165.52 92.3672L165.928 92.0796L166.335 91.9635L166.66 91.9206L167.181 92.1931L167.397 92.0367L167.555 91.5321L167.782 91.0326L167.928 90.7904L168.277 90.6819L168.723 90.6566L168.871 90.5633L168.992 90.3942L169.103 89.7307L169.671 88.2447L169.872 87.5837L169.903 87.4676L169.885 86.7309L170.046 86.625L170.989 86.9858L171.402 86.9807L171.626 86.8319L171.699 86.5619L171.578 86.2466L170.907 85.6941L169.714 84.9498L168.62 84.4931L166.597 84.5613L164.594 84.705L164.008 84.6319L163.276 84.425L161.477 84.4552L159.303 84.5688L158.476 84.5057L158.068 84.5133L157.25 84.5814L155.917 84.3695L154.994 84.097L154.176 83.7968L153.205 83.5268L152.971 83.5294L152.835 83.431L152.742 83.1913L152.709 82.8809L152.911 81.4428L152.732 79.258L152.896 78.4608L152.1 76.6645L151.829 76.3314L151.462 76.3163L151.228 76.5484L151.134 76.9697L151.268 77.4415L150.976 77.9663L150.39 78.1353L149.705 77.9587L149.137 77.7115L148.405 77.1766L147.854 76.4222L147.806 75.5872L147.557 75.0497L147.217 74.7873L146.968 74.7142L146.744 74.7722L146.548 75.0649L146.719 75.355L146.953 75.7638L146.875 76.0413L146.666 76.0841L146.354 75.9656L145.871 76.0286L145.403 75.8167L145.124 75.799L144.847 75.7209L144.83 75.239L144.405 74.6284L143.685 73.9447L142.978 73.5209L142.638 73.5789L142.467 74.0457L142.508 74.2197L142.757 74.3055L143.114 74.5755L143.189 74.858L143.137 75.1052L142.696 75.5569L142.384 75.9857L141.687 76.6089L141.094 77.3229L140.938 77.8629L140.714 78.3472L140.626 78.8796L140.782 79.2479L141.068 79.48L141.813 79.649L142.593 80.3656L143.222 81.3319L143.577 81.6246L144.221 81.95L145.461 81.9878L145.645 82.2527L145.821 82.9617L146.065 83.2115L146.696 83.5445L146.749 83.7892L146.596 84.0718L146.317 84.2938L145.801 84.4351L145.31 84.4906L144.817 84.3998L144.085 84.3443L143.255 84.3392L142.666 86.1027L142.246 86.7209H142.007L141.365 86.4207L141.091 86.4685L140.352 88.0328L140.248 88.4087L140.198 88.6913L140.59 89.2942L141.061 89.7913L141.622 89.9856L142.062 89.8367L142.42 90.036L142.837 90.5355L143.554 90.8661L144.568 91.025L145.144 91.4186L145.215 91.7592L145.164 92.1048L145.074 93.0029L144.976 93.5202L144.43 94.8775L144.04 96.0457L144.241 96.6007L144.387 96.8278L144.525 97.0019L144.963 97.4383L145.267 97.8697L145.006 98.9723L145.149 99.2624L145.735 99.4566L146.367 99.6055L146.588 99.7872L146.04 100.905L146.156 101.682L146.387 102.411L146.553 103.602L146.578 103.728L146.533 104.026L146.893 104.949L147.449 106.748L147.492 107.419L147.459 108.128L147.295 109.311L146.739 109.306L147.235 110.096L147.393 110.663L147.461 111.456L146.865 111.554L146.442 111.466L146.09 110.772L145.927 111.403L145.298 111.986L145.071 111.7L144.94 111.395L144.915 110.855L145.263 108.794L145.192 108.562L145.036 108.408L144.691 108.325L144.563 107.906L144.037 110.106L144.269 111.004L144.163 111.413L143.182 111.756L142.188 110.931L142.062 110.666L142.004 111.13L141.826 111.695L140.895 111.592L140.435 111.15L140.734 110.399L141.31 108.582L141.418 107.772L140.646 107.177L139.992 106.811L139.617 105.983L139.76 106.892L140.11 107.215L140.618 107.442L141.157 107.906L140.769 108.471L140.392 108.822L139.67 110.154L138.789 110.898L137.763 111.458L134.391 112.281L133.684 112.614L132.651 113.638L131.981 114.609L131.858 115.593L132.235 116.655L132.542 118.316L132.799 118.654L132.439 119.259L131.813 119.903L131.295 120.768L131.342 121.242L131.209 121.563L129.433 122.625L129.06 123.245L128.572 123.861L127.989 123.508L127.647 123.513L128.117 124.002L128.057 124.325L127.891 124.514L127.443 124.691L124.877 125.471L122.914 126.21L122.363 126.18L122.464 125.955L122.808 125.756L122.773 124.908L122.414 124.752L122.101 124.691L120.607 125.725L120.003 126.747L120.129 126.942L120.469 126.894L121.473 126.316L121.941 126.48L121.973 126.707L120.449 127.59L117.241 130.446L117.09 131.009L116.672 131.644L116.096 132.242L115.062 133.688L113.08 135.835L112.529 136.635L109.354 138.285L108.775 138.774L107.472 140.379L106.133 141.691L104.571 142.778L101.862 144.163L100.214 145.473L99.698 146.343L99.6652 146.653L99.8414 147.075L100.143 147.468L100.211 147.781L100.063 148.341L99.9822 148.651L99.4993 149.418L98.6714 149.966L95.9921 151.109L95.6373 151.073L93.451 150.846L92.6335 151.053L92.2963 151.588L91.544 153.801L90.8246 154.389L90.5654 154.921L90.4622 155.289L90.0295 155.279L89.6571 155.115L89.3855 155.234L89.0735 154.492L88.5502 154.341L88.1174 154.288L86.2709 155.034L85.6243 155.635L84.2657 158.463L83.9286 160.285L84.2482 162.293L84.7211 163.895L84.8142 164.619L84.7563 165.558L84.5147 166.014L84.3437 166.554L84.5702 167.667L85.1412 169.123L85.2796 169.738L85.2922 170.371L85.7224 171.825L85.4331 171.562L85.2042 170.949L84.6608 170.167L83.994 170.947L84.3613 171.507L85.6042 172.173L85.9715 172.718L85.1715 177.564L84.5651 179.282L83.8205 180.408L83.4254 180.842L82.5423 182.628L81.9286 184.775L81.8053 185.6L82.082 186.523L81.7675 187.068L81.375 187.484L82.1222 187.298L82.3788 187.797L82.4744 188.314L82.4846 191.382L82.4015 194.576L81.8254 194.708L81.1939 194.74L80.6353 194.65L80.2353 194.526L79.239 194.695L78.7031 195.048L78.273 195.634L78.3031 196.633L76.4566 199.145L76.0591 199.983L75.9132 200.788L76.1521 201.209L76.6251 201.641L77.2414 201.815L78.4315 201.989L79.0026 202.218L79.39 202.645L77.9886 202.191L76.3408 202.1L72.4011 203.265L71.3644 204.083L70.7858 204.792L70.3883 206.412L70.3204 207.494L69.8525 208.394L67.807 209.777L66.5139 210.203L66.0233 210.572L64.4987 210.095L62.8358 208.884L62.1364 208.233L59.6683 205.105L59.2179 204.708L58.7198 203.369L58.6418 202.869L58.5034 202.67L58.2696 202.534L58.1562 202.327L57.6002 200.793L57.3739 199.193L57.0192 197.405L57.316 197.528L57.7286 198.116L57.935 198.971L57.96 200.167L58.2696 200.306L58.5463 200.192L57.7538 197.437L57.0645 196.754L56.8833 196.708L56.6895 196.267L56.6694 195.712L56.7299 195.449L56.1787 194.546L55.9851 194.009L54.7624 191.276L54.2114 189.316L53.3586 187.134L52.8076 186.369L51.9497 184.684L51.2301 183.899L50.4679 182.847L49.869 182.381L49.6351 182.136L47.8614 178.485L47.3155 176.464L46.8526 175.511L46.6236 174.784L46.0022 171.678L45.9971 171.123L45.9217 170.515L45.4789 169.198L44.7016 167.773L44.4777 166.885L44.4802 166.539L43.9871 165.151L43.8814 164.518L43.5493 163.933L43.1619 163.395L42.7593 162.964L41.8107 161.556L41.4712 161.213L40.8246 160.3L40.3643 158.612L39.7755 157.951H40.7013L40.1353 157.325L39.8686 156.917L39.5718 156.664L40.0019 156.033L39.2975 156.051L38.9251 155.673L38.4144 154.487L37.486 153.145L37.3276 152.428L36.5074 150.17L35.813 144.738L35.1766 142.314L35.2269 141.617L34.457 139.513L34.0822 138.1L33.9286 136.902L33.7248 136.115L33.5412 134.551L33.2468 134.056L33.2141 133.759L33.4104 133.044L33.9613 131.942L34.1651 131.243L33.9262 130.259L33.4256 131.294L32.9575 131.584L32.7336 130.812L32.7312 129.772L32.6733 129.522L32.7966 129.174L34.0344 129.333L32.6254 128.695L32.4594 128.322L32.4066 128.041L32.7085 127.524L32.1953 127.088L31.9889 125.751L31.838 125.445L31.7801 125.198L32.072 123.349L33.2846 119.708L33.3752 118.883L33.2696 117.71L33.0004 116.777L32.8846 115.788L32.8117 115.533L32.3714 115.442L31.9537 115.076L31.4707 113.608L31.9135 113.126L32.2556 112.861L31.7851 112.972L31.3977 112.927L32.1323 112.248L32.7889 111.728L34.2859 111.125L34.9224 110.739L33.9814 111.087L32.9953 111.219L30.902 111.148L31.2518 109.775L31.6167 109.316L32.0116 109.059L31.4304 109.137L30.7562 109.029L30.9725 107.633L31.5034 107.331L32.0744 107.273L32.784 107.073L32.0242 106.844L31.2368 106.733L30.2883 106.962L29.4178 106.793L28.3586 106.796L28.7813 106.983L29.2341 107.406L29.0076 108.163L28.7939 108.635L28.2127 108.961L27.7371 109.453L27.6038 109.884L27.3347 110.187L27.8001 110.401L28.2781 110.555L28.5548 110.906L28.8819 111.413L28.8642 112.399L27.6114 114.718L27.1786 115.235L24.0414 116.633L22.8112 117.392L20.1847 118.379L19.1632 118.563L18.0311 118.366L16.3756 117.617L13.8497 115.697L13.193 115.064L11.1728 112.594L9.7162 111.284L8.61168 110.066L7.24304 108.91L5.95241 107.351L5.67816 106.639L5.77383 105.915L6.2543 105.522L6.81785 105.681L7.26316 106.291L7.57764 106.564L7.84191 106.675L9.76902 105.739L10.5162 105.777L11.0269 105.307L11.6736 105.411L12.9918 104.679L13.5452 104.634L14.2045 104.487L15.2661 102.633L16.0611 101.452L16.5769 101.205L16.5466 100.917L16.4032 100.541L16.0184 100.637L15.7492 100.996L15.5504 101.43L15.3492 101.689L14.7252 101.45L14.305 101.49L13.7868 101.631L11.8924 102.323L11.1125 102.943L10.5841 103.067L7.55752 102.383L4.59898 100.814L3.35364 99.7695L2.56606 98.4349L1.77863 96.8429L2.03783 96.3963L3.26044 95.4376L4.3172 94.6833L3.36869 95.0188L2.34218 95.4855L1.83406 95.811L1.25792 96.4947L0.493065 96.6486L0.191176 95.6344L0 94.6454L0.487998 94.3124L0.830119 94.103L1.5245 93.9264L2.28429 93.8002L2.97375 93.8053L3.94729 93.8204L3.97493 91.4993L4.05554 91.295L4.1939 91.1763L4.35237 91.1259L4.48565 91.1612L4.68451 91.5094L4.93357 91.4892L5.19769 91.2874L5.78642 91.4387L6.25937 91.3353L6.73738 91.4715L7.55261 91.4741L9.02428 91.4186L9.84196 91.4363L10.3703 91.8046L10.9489 92.2108L11.5754 92.2688L12.4836 92.2208L13.0999 92.0645L13.412 91.686L13.646 91.3227L14.9919 90.7929L16.4058 90.3614L16.8134 90.3135L16.9417 90.5659L16.8788 90.9872L17.0423 91.3883L17.6109 91.6431L18.0109 91.7062L18.3707 91.6482L18.6373 91.5195L19.211 90.8888L19.5078 90.7449L19.8928 90.755L20.3255 90.4523L20.333 90.2202L20.0587 90.1092L19.8249 89.7761L19.8702 89.5062L19.8022 89.1227L19.8501 88.7594L20.0337 88.4869L20.3557 88.2245L20.1645 87.6821L19.6713 86.6426L19.1557 85.3106L18.6096 84.2005L17.9179 83.2266L17.5606 82.5101L17.5983 80.9282L17.538 80.6078L17.2989 80.411L16.9794 80.3025L16.5291 80.4639L16.1241 80.4943L15.2535 80.4589L14.8259 80.2975L13.6635 78.7055L13.5101 78.0798L13.505 77.4365L13.89 76.3163L14.0082 75.2718L14.061 74.2979L13.9981 74.0229L13.7642 73.6949L13.3742 73.4527L12.3302 73.3947L11.0897 73.0718L10.1363 72.5041L9.4722 72.161L9.29346 71.9365L9.213 71.6741L9.38652 70.4908L9.68595 69.1562L9.90492 68.7475L10.2822 68.3236L10.5615 68.036L11.0093 67.655L12.2195 66.3784L13.3037 64.6199L13.9755 63.3912L14.3252 63.0254L14.6825 62.7126L15.2032 62.3342L15.807 61.9885L16.4058 62.0037L16.9744 62.319L17.397 62.6874L17.5404 63.5023L17.8399 64.0296L18.1619 64.3474L18.5895 64.5013L19.1354 64.4635L21.3217 63.5301L22.0665 63.3408L23.8526 63.2248L25.0779 62.864L26.1623 62.4856L26.2955 61.8069L26.7132 60.7699L27.9862 59.4177L28.346 58.8146L28.7309 57.6592L29.1411 56.6046L29.4958 56.1656L31.4983 55.0051L33.4583 53.9379L33.7803 53.4534L35.0482 51.2332L35.7728 49.722L35.9615 49.2351L36.3817 47.9206L36.8369 46.6087L37.4407 46.3034L38.7868 45.8039L39.8535 45.3145L40.4019 44.7543L40.7316 44.2649L40.6712 43.7805L40.3769 43.2053L40.4372 42.8621L40.49 42.524L41.2675 41.8353L42.7241 39.7942L43.5995 38.7724H43.889L44.8022 38.2275L45.6702 37.6119L45.6198 37.3319L45.5116 36.9685L45.0134 36.8071L44.855 36.3706L44.9783 35.745L45.396 34.0621L45.3104 33.5777L44.8022 32.0135L44.9153 31.5821L45.1242 31.138L45.6928 30.5477L46.4249 30.0557L48.7697 28.8901L49.2451 28.7615L50.0577 28.4663L50.5559 27.8431L50.6162 27.3107L50.3974 26.9803L49.9119 26.5362L48.9987 26.135L48.1735 25.7844L46.7721 25.8222L46.045 25.522L45.8462 25.3126L45.7456 24.5708L45.8866 23.3144L45.6676 23.2034L45.3557 23.3523L44.616 23.2034L43.7078 23.2211L43.3606 22.8704L43.5316 22.449L43.4788 21.8864L43.3429 21.3516L43.2021 21.2405L42.7668 21.1119L42.0901 20.6477L41.5442 20.075L41.2246 19.6864L41.1265 19.419L41.1568 19.2424L41.5542 18.7454L42.0271 18.0465L42.2008 17.446L42.2536 17.0096L42.1203 16.6892L41.685 16.2956L41.2196 15.95L41.0335 15.6498L41.0259 15.1956L41.1994 14.628L41.7453 14.1991L42.714 13.7928L42.9656 13.2883L42.9329 12.9149L42.6687 12.8039L41.9869 12.8013L40.8397 12.6727L40.646 12.4658L40.5152 12.1883L40.5126 11.9133L40.7567 11.6004L41.0485 11.2043L40.9957 10.8183L40.6586 10.3819L39.8509 10.064L39.7402 9.61238L39.8661 9.23642L40.1327 8.69908L40.3667 8.32566L40.9177 7.26099L41.5869 7.02885L42.407 6.68323L43.3128 6.30226L44.7091 6.58737L45.3884 6.72865L46.762 7.0541L47.9143 7.32659L49.0917 7.40481L49.5797 7.38464L50.1181 7.70755L51.4491 8.26006L52.5309 8.55017L53.2629 8.54771L54.3422 8.05826L54.8806 7.60915L55.6052 7.11716L56.5336 7.13734L58.5412 6.37794L58.916 6.50914L59.5123 6.55203L60.2318 6.11309L60.6017 5.5933L60.6595 5.3309L60.8382 5.13919L61.608 4.80865L62.3804 4.34954L62.5892 3.74398L62.7176 3.33276L63.5629 2.80296L64.4434 2.25045L65.3641 1.67269L66.4107 1.01416L67.2963 0.456651L68.0209 0L68.1014 0.0983982L68.3858 0.305281L68.6927 0.406143L69.0523 0.211887L69.5027 0.050431L69.7392 0.141284L69.7719 0.403679L69.5027 1.63481L69.5254 2.11672L69.9757 3.11833L70.5593 4.74059L71.1078 6.25937L71.4298 7.25344L71.7494 7.65958L73.0802 8.07589L74.1772 8.41651L74.8288 8.97402L75.5483 9.5089L76.0515 9.8369L76.2905 10.2582L76.3408 10.6367L76.2955 10.8915L76.0213 11.227L74.7583 12.0899L74.6074 12.3624L74.5697 12.7206L74.8188 13.7878L74.9747 14.4564L75.02 15.7986L75.103 17.0727L75.5508 17.6529L75.9181 18.0264L76.1421 18.3644L76.595 18.8312L76.9749 19.1768L77.2993 19.3811L77.4578 19.8378L77.3647 20.3752L77.2288 20.8419L77.2717 21.0943L77.5333 21.2733L77.9334 21.7402L77.9862 22.4213L77.9585 22.8906L78.117 23.3119L78.1599 23.7786L78.0365 24.9417L78.0567 25.4665L77.7069 25.4993L77.4076 25.6784L76.9824 26.4101L76.4918 26.6018L75.9358 26.6598L75.3621 26.2107L74.8917 25.7415L74.7634 25.4816L74.6451 24.9871L74.391 24.6642L73.903 24.8156L73.1607 24.8837L72.3582 24.9921L72.2097 25.1006L72.1947 25.3101L72.3909 25.7541L72.5569 26.3318L72.6577 27.1392L72.874 27.6741L72.9419 27.8431L74.2275 29.4477L74.5647 29.7732L74.6351 29.9876L74.5017 30.5805Z" fill="url(#paint0_linear_2_279)"/>
<defs>
<linearGradient id="paint0_linear_2_279" x1="37" y1="22.5" x2="188" y2="229" gradientUnits="userSpaceOnUse">
<stop stop-color="#8FFFF4"/>
<stop offset="1" stop-color="#3064FF"/>
</linearGradient>
</defs>
</svg>
