<svg width="378" height="139" viewBox="0 0 378 139" fill="none" xmlns="http://www.w3.org/2000/svg">
<path d="M229.116 138.997L228.348 139L228.101 138.911L228.039 138.174L228.266 137.76L230.046 137.229L230.74 136.739L231.729 135.721L232.341 135.456L232.497 135.34L232.603 135.361L232.7 136.137L232.948 136.598L232.992 136.84L232.103 137.232L231.308 138.135L229.578 138.726L229.116 138.997ZM220.314 136.326L219.902 136.426L219.016 136.184L218.837 136.037L219.596 135.633L220.179 135.06L220.859 135.01L221.262 135.128L221.123 135.81L220.314 136.326ZM232.974 133.918L232.229 134.21L232.227 133.596L232.8 132.82L233.324 132.557L233.616 132.867L233.642 133.009L232.883 133.286L232.974 133.918ZM204.865 126.168L205.238 126.543L206.589 127.266L206.81 127.57L206.895 128.071L207.166 128.443L207.775 128.502L208.425 128.425L208.923 128.665L209.352 129.039L209.988 129.768L210.547 130.574L211.241 131.026L211.639 131.698L211.406 132.292L210.526 133.112L210.053 133.289L209.402 133.354L208.39 133.844L208.019 133.59L206.872 133.413L205.956 133.059L205.188 132.413L204.747 131.719L204.188 131.105L203.214 130.695L201.466 129.491L200.386 129.382L199.944 129.47L199.5 129.476L197.21 128.936L196.854 128.62L196.575 128.216L196.319 127.818L196.163 127.372L196.457 126.976L196.763 126.711L198.037 126.245L198.949 126.103L200.006 126.123L201.58 125.979L203.072 126.212L203.531 126.038L204.285 125.554L204.547 125.722L204.865 126.168ZM245.534 123.491L245.837 123.582L246.884 123.081L247.082 123.175L247.285 123.402L247.288 124.072L246.884 124.63L245.866 124.674L245.722 124.831L245.71 125.17L245.79 125.501L246.025 125.766L246.328 126.233L246.614 127.319L246.037 127.764L245.746 128.603L244.745 129.391L243.645 130.68L242.762 131.338L241.988 132.118L241.323 132.64L240.49 132.817L239.245 132.929L237.553 133.862L236.617 134.269L235.705 134.299L234.851 133.995L234.528 133.652L234.604 133.192L234.887 132.796L235.231 132.472L235.449 132.053L234.484 131.521L234.401 131.117L234.784 130.04L235.034 128.933L235.393 128.178L236.776 126.829L237.603 126.159L238.091 125.899L238.227 126.183L238.536 126.525L238.745 126.581L238.904 126.504L240.122 126.622L240.428 126.504L240.893 125.97L241.199 125.672L241.405 125.04L241.458 124.639L242.541 124.347L243.121 124.025L243.636 123.568L245.136 122.789L245.404 122.573L245.345 123.314L245.534 123.491ZM168.503 121.127L168.274 121.413L167.603 120.903L167.432 120.672L167.93 120.342L168.103 120.295L168.533 120.655L168.503 121.127ZM229.351 119.259L229.087 119.749L228.613 119.61L228.742 119.138L228.983 118.857L229.625 118.45L230.278 118.379L230.679 118.521L230.805 118.677L229.787 118.837L229.351 119.259ZM200.336 120.888L200.015 120.968L199.691 120.847L199.823 120.106L199.638 119.601L199.974 119.206L200.059 118.506L200.194 118.294L200.391 118.515L200.483 118.66L200.653 118.728L201.024 118.739L201.107 119.043L201.092 119.33L200.933 119.631L200.492 119.952L200.174 120.315L200.336 120.888ZM232.159 117.674L231.991 118.04L229.743 118.016L229.805 117.535L230.428 117.01L230.637 116.836L231.326 116.682L232.309 116.96L232.159 117.674ZM177.02 119.828L175.975 121.552L176.349 121.829L176.573 122.092L174.842 122.449L174.121 122.26L173.703 122.31L171.947 121.986L170.69 121.59L170.546 121.277L170.646 120.903L171.017 121.03L171.985 121.089L172.356 120.92L172.364 119.811L172.229 118.362L173.539 117.181L174.236 116.703L175.037 116.423L177.061 117.075L177.397 117.252L177.656 117.518L177.782 117.942L177.02 119.828ZM240.166 117.464L239.663 117.978L239.321 118.872L239.01 119.144L238.342 119.312L237.938 118.415L237.2 118.456L237.562 117.665L237.909 117.37L238.362 117.364L238.586 117.683L238.706 117.751L239.772 116.414L239.987 116.399L240.166 116.458L240.31 116.626L240.166 117.464ZM237.176 116.989L236.011 117.216L235.299 118.255L234.734 118.241L234.425 118.701L234.354 118.899L234.395 119.085L234.334 119.262L234.11 119.445L233.58 119.158L233.127 119.524L232.936 119.613L232.268 119.188L231.635 119.214L231.444 119.15L232.229 118.388L233.301 117.677L233.477 117.414L233.056 117.343L232.806 117.237L232.774 117.069L233.451 116.957L233.919 116.942L234.275 117.16H234.501L235.949 116.322L236.523 116.511L236.941 116.727L237.176 116.989ZM360.814 117.957L360.405 118.067L358.328 117.816L358.107 117.473L358.074 117.296L358.548 116.957L359.007 116.381L359.72 116.166H359.996L360.832 117.529L360.814 117.957ZM184.58 117.78L184.395 117.786L184.036 117.624L184.165 117.279L183.971 116.715L184.039 116.251L184.497 115.989L185.477 115.959L185.513 116.299L184.58 117.78ZM197.113 116.709L196.751 116.718L196.678 116.384L196.807 116.036L197.154 115.888L197.313 115.88L197.563 116.195L197.619 116.361L197.387 116.579L197.113 116.709ZM242.55 115.894L242.747 116.399L243.386 116.119L244.009 116.048L245.428 116.101L246.47 116.213L247.085 116.423L247.143 117.435L246.855 117.653L241.467 118.418L240.94 118.173L240.734 117.931L241.314 117.181L241.046 116.824L241.352 116.243L241.996 115.847L242.55 115.894ZM269.376 115.546L270.821 115.88L271.648 115.844L271.819 116.142L271.027 116.848L269.353 116.305L269.067 115.723L269.376 115.546ZM227.745 119.814L226.579 120.109L225.855 120.389L225.164 120.761L224.728 120.838L223.937 120.867L222.816 120.799L222.059 120.92L219.949 121.883L219.119 121.965L218.401 122.201L218.154 121.826L217.848 121.549L217.148 121.481L216.447 121.502L215.735 122.352L214.599 122.172L214.161 122.245L213.734 122.426L213.313 122.505L212.872 122.446L211.215 121.785L209.314 121.393L207.407 121.546L205.765 121.183L204.865 121.46L204.017 121.856L203.767 121.44L203.458 121.074L203.181 120.525L203.172 119.902L203.264 119.468L203.508 119.07L203.661 118.657L203.732 118.214L204.091 118.424L204.464 118.344L205.583 117.863L206.674 117.134L207.69 116.868L208.275 116.795L208.775 116.939L209.285 116.886L209.805 116.724L210.626 117.281L210.971 117.397L212.083 117.441L213.095 117.762L214.002 118.246L215.308 118.698L216.097 119.306L216.697 119.53L217.142 119.592L217.551 119.51L218.069 119.102L218.672 118.934L219.196 118.94L220.152 118.834L220.558 118.736L221.009 118.512L221.45 118.651L221.838 118.857L223.457 119.923L223.954 119.952L224.867 119.722L225.14 119.436L225.281 118.996L225.532 118.63L225.879 118.314L226.273 118.072L227.483 117.662L228.31 117.258L228.878 116.573L227.55 116.272L227.83 115.779L228.271 115.502L228.857 115.605L229.366 115.989L229.593 117.461L229.175 117.668L228.91 117.892L228.733 118.187L227.98 118.728L228.277 119.403L228.057 119.684L227.745 119.814ZM294.472 117.373L293.754 117.633L294.234 116.974L295.776 115.481L296.329 115.759L297.065 115.812L295.967 116.488L294.849 116.768L294.472 117.373ZM190.245 117.367L190.66 117.695L191.036 117.665L191.825 117.163L192.299 116.98L192.808 116.974L193.299 117.057L193.785 117.414L193.961 117.996L194.144 118.176L194.429 117.479L194.809 117.27L195.236 117.163L195.904 117.202L196.413 117.535L196.875 118.524L196.86 119.389L197.028 119.713L197.346 119.949L197.581 120.283L197.372 120.631L197.163 120.799L196.566 120.959L196.278 120.891L196.01 120.655L195.713 120.569L195.036 120.649L194.412 120.844L194.497 121.159L195.009 121.301L195.162 121.452L195.13 121.655L194.93 121.697L194.265 121.422L193.817 121.478L192.205 121.85L191.778 121.841L191.537 121.49L191.554 120.575L191.381 120.333L190.183 121.443L189.821 121.714L189.338 121.841L188.835 121.797L187.105 122.47L186.561 122.375H186.034L184.186 123.104L183.194 123.308L182.685 123.323L182.179 123.261L181.725 123.326L181.319 123.621L180.495 123.869L179.645 123.68L178.927 123.429L178.244 123.098L178.073 122.673L178.109 122.166L178.397 121.472L178.203 120.253L178.353 119.699L178.633 119.153L179.056 118.952L179.61 118.911L180.525 118.421L181.361 117.777L181.843 117.839L182.944 118.288L183.588 118.341L184.683 118.27L185.133 118.545L185.313 119.176L185.557 119.406L185.878 119.569L186.655 120.637L187.376 120.581L188.005 120.776L189.118 120.129L189.959 120.147L190.198 119.645L189.695 119.108L189.088 118.674L188.762 118.583L188.405 118.61L188.088 118.542L186.731 117.568L186.328 117.042L186.098 116.426L186.237 115.968L187.17 115.564L187.605 115.466L189.227 115.744L189.503 115.974L189.933 116.948L190.245 117.367ZM167.165 116.015L168.003 116.455L169.172 117.748L169.28 118.111L168.927 118.453L168.092 119.002L166.223 119.849L165.902 120.247L165.508 121.03L165.417 121.363L165.284 121.546L165.069 121.679L164.663 121.794L164.222 121.629L164.622 121.127L164.637 120.528L164.339 119.967L163.919 119.498L163.071 118.86L162.162 118.297L161.244 118.007L160.27 117.878L159.919 117.603L159.349 116.901L159.163 116.517L159.069 116.116L159.131 115.726L159.372 115.702L160.325 115.794L162.085 116.251L162.956 116.29L163.451 116.184L164.74 115.28L165.046 115.295L166.279 115.694L167.165 116.015ZM286.021 114.348L285.532 115.112L284.982 115.062L283.978 114.038L284.037 113.324L284.119 113.091L284.505 113.02L285.803 113.226L286.056 113.805L286.021 114.348ZM260.927 111.966L261.039 112.37L261.024 112.548L260.036 112.677L259.082 113.126L258.594 113.642L258.211 114.312L256.899 114.041L255.728 113.997L255.21 113.761L254.648 113.775L253.918 113.982L252.879 114.549L252.649 114.593L252.732 113.731L253.02 113.2L254.112 111.928L255.021 112.208L256.078 112.288L257.281 112.04L258.138 111.467L259.347 111.166L260.312 111.916L260.927 111.966ZM266.039 111.594L265.506 111.789L265.671 111.175L265.636 110.679L266.498 110.83L266.489 111.225L266.407 111.379L266.039 111.594ZM357.842 116.998L355.867 118.093L353.278 117.901L352.36 117.883L350.838 118.149L350.532 117.937L350.821 116.907L352.036 114.165L353.481 111.751L354.096 111.125L354.952 110.538L355.862 110.066L357.913 109.576L359.778 109.664L360.046 109.865L360.849 110.668L361.37 111.302L361.588 112.199L360.794 113.743L359.908 115.216L358.472 116.372L357.842 116.998ZM298.298 114.72L298.162 114.814L297.135 114.708L296.55 114.705L296.626 114.076L296.323 113.604L296.738 112.911L296.747 112.108L297.177 111.999L297.238 111.541L297.756 110.328L298.062 110.06L298.492 109.953L299.004 109.245L299.295 109.038L299.599 108.501L300.031 108.253L299.996 107.793L300.24 107.551L300.923 107.362L301.397 107.589L301.688 108.059L300.926 108.637L301.317 110.063L300.764 111.618L300.402 112.084L299.725 112.486L299.522 112.866L298.725 113.634L298.483 114.289L298.448 114.566L298.298 114.72ZM303.718 108.1L303.615 108.51L303.262 108.292L302.915 107.814L302.406 107.746L302.029 107.619L301.809 107.395L303.224 107.291L303.718 108.1ZM158.616 107.53L158.492 107.861L158.071 107.778L157.674 107.232L157.865 107.091L158.086 107.032L158.375 107.094L158.616 107.53ZM276.368 107.946L275.997 108.156L275.38 107.722L275.209 107.542L275.6 107.117L276.018 106.996L276.271 107.182L276.395 107.368L276.342 107.572L276.368 107.946ZM211.156 107.412L210.315 107.459L210.053 107.386L209.991 106.577L210.915 106.925L211.215 106.949L211.156 107.412ZM153.925 107.3L153.766 107.421L152.362 107.353L151.459 108.029L150.832 108.236H148.584L148.316 108.144H148.116L147.995 108.28L147.28 108.177L144.997 107.578L144.685 107.023L145.038 106.429L145.859 105.588L147.504 105.423L154.999 105.364L155.814 106.087L155.891 106.332L154.258 106.825L153.925 107.3ZM166.582 106.182L165.908 106.323L165.284 106.031L165.302 105.639L165.455 105.273L166.388 105.084L166.888 105.096L167.424 105.346L167.797 105.609L167.98 105.916L166.97 105.931L166.582 106.182ZM325.954 104.352L325.816 104.479L325.601 104.21L325.58 104.042L325.866 103.584L326.148 103.319L326.463 103.298L326.384 103.673L325.954 104.352ZM82.9658 103.446L82.4508 103.629L82.0564 103.466L81.8798 103.233L82.4625 102.661L82.7391 102.525L83.0305 102.481L83.1688 102.791L82.9658 103.446ZM326.298 102.693L325.842 102.77L325.619 102.094L325.995 101.92L326.404 102.333L326.298 102.693ZM327.152 101.737L326.952 101.805L326.955 101.398L327.181 101.037L327.42 100.831L327.702 100.822L327.152 101.737ZM324.818 101.805L324.683 102.389L324.547 103.041L323.791 103.773L323.323 104.892L323.05 105.172L322.034 105.671L321.131 105.048L320.869 104.514L321.266 102.047L321.655 102.129L321.908 102.112L321.99 101.95L321.41 101.672L321.302 100.255L321.331 99.7213L321.769 99.6002L322.317 100.016L323.005 100.757L323.809 101.341L324.818 101.805ZM100.484 98.2072L101.317 99.1516L102.044 99.6563L102.903 99.9308L103.806 99.9573L104.695 100.078L105.731 100.438L106.793 100.604L107.288 100.542L107.759 100.356L108.091 100.344L108.382 100.518L109.118 101.318L109.916 102.05L110.101 102.422L110.643 104.187L111.255 104.694L112.096 104.842H113.085L114.068 104.915L116.346 105.329L117.249 105.27L118.05 104.856L118.762 105.125L120.695 105.621L121.646 105.733L122.726 105.591L123.809 105.562L124.327 105.706L124.824 105.922L125.25 105.999L125.692 105.996L126.475 105.583L126.993 104.824L127.414 103.868L127.74 102.87L127.961 102.442L128.261 102.065L128.652 101.82L129.07 101.666L130.206 101.761L130.442 102.003L131.713 103.694L131.937 103.841L133.261 103.947L133.629 103.891L134.435 103.552L134.897 103.523L135.747 103.942L136.115 104.299L136.527 104.561L138.611 104.83L139.414 105.556L139.823 105.653L141.271 105.565L142.275 105.636L143.146 105.83L143.543 106.86L143.864 107.917L144.049 108.277L144.902 108.64L145.25 108.968L145.158 110.021L145.253 111.025L147.063 111.898L148.999 112.4L151.059 112.447L153.122 112.273L154.184 112.058L155.514 111.686L155.791 111.692L158.366 112.84L158.586 113.017L158.875 113.876L158.866 114.782L158.386 116.933L158.354 117.523L158.401 118.114L158.913 119.398L159.187 119.766L160.119 120.442L160.158 120.796L160.028 121.151L158.998 120.909L158.371 120.616L158.01 120.132L157.492 119.858L156.523 119.958L154.714 119.474L152.668 118.725L149.043 117.134L148.054 117.146L147.107 117.349L146.106 117.754L145.064 118.043L144.299 118.152L143.531 118.072L141.595 117.692L139.644 117.444L134.644 117.287L133.231 116.924L130.892 116.741L129.032 116.428L127.19 115.992L122.493 113.84L120.957 113.3L116.24 112.273L115.513 112.19L113.803 112.267L112.726 111.966L111.778 111.96L110.369 112.294L109.936 112.533L109.389 113.037L108.43 113.014L107.479 112.916L104.975 112.432L104.042 112.134L103.144 111.695L102.338 111.122L101.914 110.918L99.7513 110.334L97.9858 110.133L94.3543 109.868L93.5597 109.691L92.8977 109.478L92.5356 109.006L92.5828 108.404L92.8416 107.885L93.1978 107.362L93.4302 106.863L90.7759 105.819L88.6805 105.249L87.7742 105.14H86.865L85.8409 105.258L84.8286 105.202L84.3519 105.031L83.8662 104.972L83.3776 105.096L82.9863 105.048L82.8862 104.573L83.1364 104.169L83.6485 103.711L83.9427 103.632L84.0751 104.349L84.2224 104.491L84.6755 104.647L84.8727 104.603L85.6731 103.688L85.8967 103.236L86.2852 102.017L86.7089 102.253L87.1326 102.109L87.3769 101.914L88.0508 99.0956L88.61 98.2722L89.3751 97.5904L89.7577 97.4221L90.5081 97.8412L92.0294 98.0006L92.9329 98.278L93.8394 98.3134L94.7251 98.4493L95.9581 98.9451L96.3937 98.8919L96.8352 98.7385L97.4972 98.1983L97.7857 97.3366L98.7391 97.7734L100.143 97.9475L100.484 98.2072ZM238.221 97.9269L238.147 98.3223L237.844 97.8678L237.568 97.6435L237.597 97.1536L237.988 97.3366L238.221 97.9269ZM209.126 100.615L208.787 101.994L208.628 101.507L208.567 100.247L208.358 99.6327L208.49 98.9273L208.446 97.1182L208.702 96.283L209.173 97.3454L209.296 97.8855L209.126 100.615ZM144.632 96.5811L144.455 96.8762L143.661 96.8526L143.528 96.522L144.046 95.92L144.388 95.8816L144.694 96.1029L144.632 96.5811ZM310.534 96.9087L310.031 97.7055L309.689 97.4251L309.498 97.4221L309.38 96.9529L309.498 95.9849L309.074 94.8959L309.63 94.9106L309.786 95.2352L309.963 95.3445L310.513 96.3951L310.534 96.9087ZM326.554 95.7193L326.49 96.038L326.484 96.6253L326.622 97.1713L326.269 97.7262L326.599 98.5554L326.649 98.9687L326.628 99.553L326.537 99.8156L326.287 100.583L326.037 100.857L325.848 100.934L325.657 101.167L324.032 100.917L323.332 100.382L322.705 99.8068L322.573 99.5648L321.837 98.8919L321.667 98.6647L321.652 98.3046L322.246 98.2131L322.882 98.2249L322.852 97.9033L323.22 96.764L322.255 96.0321L322.084 95.7252L322.429 95.5186L323.205 95.7724L324.156 94.4886L324.436 94.22L324.571 93.5058L325.104 93.4143L325.48 93.5058L325.725 93.9514L325.822 94.3381L325.719 94.6863L326.175 94.8663L326.554 95.7193ZM311.52 97.3336L310.846 98.0449L311.479 96.3685L311.611 95.5186L312.199 95.0139L313.073 92.4463L313.268 92.5053L313.553 92.7562L313.115 94.6391L311.887 95.9613L311.52 97.3336ZM59.1351 93.8334L58.4612 93.8747L57.2193 92.8595L57.0164 92.5467L57.3664 92.2456L57.7402 92.2663L59.1705 92.9067L59.4499 93.2225L59.1351 93.8334ZM234.713 92.1216L234.681 92.9598L234.351 92.9126L234.081 92.6175L234.007 92.3401L234.022 92.1158L234.169 91.9386L234.713 92.1216ZM221.636 93.497L221.109 93.7183L220.117 92.7739L219.696 91.9947L219.796 91.555L220.093 91.1714L220.235 91.0739L220.173 90.6726L220.564 90.4778L220.994 90.5043L221.276 91.0444L221.615 91.192L221.789 91.7085L221.636 93.497ZM226.606 92.1039L226.394 92.6529L225.938 93.0808L225.573 93.1133L225.19 93.0247L224.517 92.6529L224.343 93.0454L223.81 93.0277L223.616 92.5201L223.996 91.0179L224.549 90.4571L224.496 89.8668L224.037 88.6126L224.322 87.9573L225.608 87.4615L226.729 86.8565L227.074 86.7326L227.386 87.1989L227.553 89.3356L226.35 91.0267L226.606 92.1039ZM231.023 86.1719L231.214 87.9485L231.152 88.4148L230.687 87.7331L230.52 87.5973L230.39 87.7331L230.225 87.8068L229.99 87.801L229.684 88.4886L229.655 89.1379L229.422 89.5718L229.301 91.0209L229.378 91.4104L229.737 91.2185L229.958 91.1684L230.77 91.7262L231.2 92.1334L231.079 92.6263L230.529 93.1221L229.89 93.3376L229.413 93.1251L229.272 93.2254L228.989 93.4792L228.778 93.8157L228.839 94.161L228.295 95.1438L227.98 95.4212L227.327 95.1201L226.924 95.3769L226.6 95.3533L226.102 94.3705L226.117 93.9101L226.576 93.3936L226.579 93.0218L226.806 92.6057L227.312 92.0361L227.603 91.6052L227.612 91.3337L227.827 90.3007L227.909 89.8698L228.057 89.4124L228.286 88.4768L228.319 86.7178L229.093 85.2688L229.849 84.8733L230.149 84.8083L230.102 85.195L231.023 86.1719ZM316.84 83.6544L317.264 84.0941L316.281 83.7488L314.874 83.0258L314.777 82.5417L315.96 83.2737L316.84 83.6544ZM231.538 82.5565L230.732 83.5481L230.169 83.498L229.496 82.8457L229.301 82.1315L229.284 81.8718L229.743 81.4675L231.288 81.6032L231.579 81.9633L231.538 82.5565ZM275.48 78.2063L274.07 78.6372L274.373 77.8344L274.564 77.622L275.262 77.8404L275.48 78.2063ZM273.108 78.9412L272.896 79.2422L272.416 79.4399L272.016 79.4193L272.145 79.13L272.045 78.9619L271.748 79.0356L271.262 79.2687L270.65 79.7351L270.291 79.5049L270.215 79.1448L270.235 78.9795L270.968 78.3332L271.819 78.2211L273.016 77.6013L273.552 77.6308L273.426 78.0233L273.24 78.3037L273.128 78.5988L273.108 78.9412ZM276.798 77.8876L276.78 78.2358L276.721 78.345L276.271 78.224L275.95 78.2299L275.665 77.6013L275.744 77.4567L276.336 77.6397L276.557 77.7017L276.798 77.8876ZM175.228 77.2087L174.925 78.6284L174.422 77.8226L174.986 76.8694L175.248 76.6775L175.228 77.2087ZM267.581 75.9781L267.769 76.344L266.96 76.1138L266.601 75.7597L266.954 75.5384L267.151 75.4793L267.581 75.9781ZM174.233 80.5379L172.5 82.0725L172.211 81.683L172.362 80.1217L171.879 79.1507L171.911 78.4306L172.253 77.1557L172.697 76.1787L173.703 75.5266L173.954 75.4498L173.892 76.6333L174.092 77.0789L174.163 77.4597L174.057 77.7872L174.245 79.3042L174.357 79.6731L174.112 80.1512L174.233 80.5379ZM261.425 74.1069L262.784 74.7504L263.09 75.1694L263.335 75.6681L263.602 75.9427L263.92 76.1669L264.45 76.6008L264.588 77.2619L264.468 78.5958L263.852 78.7139L263.276 78.9087L262.087 79.682L261.501 79.8325L260.875 79.8856L260.43 80.0892L259.986 80.1689L258.829 79.7409L257.711 79.2393L256.087 78.3686L255.786 78.1561L255.525 77.6899L254.78 76.8516L254.595 76.3146L254.533 74.7858L254.727 74.4345L255.039 74.2486L256.125 74.6028L256.84 74.2338L258.894 73.921L260.986 73.9535L261.425 74.1069ZM270.733 72.8585L270.318 73.5462L269.591 73.5167L269.465 73.4193L270.324 72.9884L270.733 72.8585ZM96.4583 73.4252L96.32 73.5905L95.864 73.502L95.5313 73.2718L95.3255 73.0533L95.2725 72.8261L95.7169 72.5457L96.6555 72.8349L96.4583 73.4252ZM101.305 72.5546L100.973 72.7671L100.778 72.5635L100.719 72.3361L100.861 72.0499L101.314 72.0233L101.523 72.1089L101.305 72.5546ZM285.323 72.2771L287.221 73.1891L288.204 73.3219L289.858 73.2038L290.482 73.2924L292.059 74.4582L292.518 75.258L292.651 75.9485L292.895 76.6038L293.283 76.769L293.739 76.831L294.334 77.7754L294.452 78.0824L294.001 80.4522L292.144 79.555L290.352 78.5368L289.578 78.1591L287.513 77.2973L287.198 77.0022L286.965 76.6126L286.065 76.0814L284.27 75.9988L283.596 76.0135L283.322 76.0932L283.393 76.3795L283.401 76.9609L282.957 77.1202L281.842 76.7543L280.847 76.6215L279.982 76.2614L278.825 76.0725L278.696 75.8925L278.796 75.6239L278.743 75.3731L278.475 75.2756L277.954 75.3229L277.451 75.5767L277.033 75.863L276.421 76.6539L276.109 76.9579L275.097 77.0878L274.676 77.011L274.291 76.8162L273.14 75.3701L272.752 75.0573L272.319 74.8034L271.919 74.6854L271.504 74.9067L271.289 75.3553L271.192 75.8895L271.077 76.1965L270.58 77.0524L270.168 77.56L270.021 77.4803L270.23 76.6657V76.2053L269.977 75.7184L269.815 75.2226L271.76 72.8527L272.463 72.2889L275.529 72.0941L277.351 72.2152L278.346 72.1562L279.011 71.982L279.561 72.0647L279.699 72.531L280.044 72.8763L280.523 72.8467L281.394 72.4808L282.151 71.9171L282.613 71.6722L283.084 71.6308L283.569 71.6692L284.043 71.7991L285.323 72.2771ZM43.094 74.8891L43.4236 76.0902L42.4408 75.2728L42.4612 74.6943L42.326 74.3165L41.7315 73.8531L41.2724 73.2718L41.0664 71.8994L41.2253 71.6131L41.6138 71.5954L43.3412 73.3957L43.459 73.6997L43.4207 74.3431L43.1705 74.5438L43.094 74.8891ZM107.367 73.3633L107.238 74.2309L107.038 74.5585L106.349 74.9894L106.114 75.252L105.469 75.2107L105.387 74.7562L105.172 74.4493L104.489 74.0951L104.31 74.1807L104.186 74.709L102.847 75.0779L102.473 75.1104L102.659 74.4139L102.312 73.8649L102.285 73.192L102.22 72.8969L102.053 72.7258L102.394 72.2565L102.335 71.7341L102.697 71.1734L102.897 69.8128L104.313 69.5147L104.619 69.7597L106.27 70.0667L107.435 70.89L108.056 71.985L107.367 73.3633ZM41.2695 71.2471L40.6809 71.9112L39.7098 71.8964L39.5185 71.4862L39.5627 70.4946L39.3243 70.17L39.3331 70.0401L39.4892 69.4764L39.6862 69.3524L41.2548 70.7484L41.2695 71.2471ZM323.476 66.1651L323.235 66.289L323.152 65.9319L323.282 65.4508L323.438 65.3741L323.617 65.3977L323.85 65.5718L323.476 66.1651ZM38.2885 67.9713L38.3296 68.1896L36.9848 67.4665L36.3373 67.2659L35.7635 66.4749L35.9431 66.0972L35.9666 65.5659L36.0519 65.3564L36.464 65.2796L36.9996 65.6663L37.3998 66.6077L38.0677 67.4843L38.2885 67.9713ZM254.771 68.8625L254.63 69.0131L254.133 68.5674L253.8 67.3102L253.515 66.9767L253.182 65.7814L253.267 65.4419L253.679 64.9403L254.009 64.9461L254.253 65.2442L254.118 66.531L254.857 68.1601L254.771 68.8625ZM236.544 64.7808L236.691 65.1114L236.173 65.1026L235.958 64.4798L236.011 64.1463L236.544 64.7808ZM254.515 63.4144L257.055 63.6889L256.696 63.987L253.956 64.4621L252.985 64.3765L250.013 64.6569L249.627 64.6392L249.571 64.1788L249.253 63.8571L249.727 63.5767L250.357 63.5118L252.005 63.6181L254.515 63.4144ZM230.796 63.6357L230.19 64.3146L230.125 63.9516L230.249 63.6211L230.42 63.3879L230.676 63.2728L230.796 63.6357ZM290.267 62.5999L290.367 63.0898L290.858 63.5413L290.688 64.2438L290.494 64.35L290.597 64.6687L290.808 64.9137L290.426 65.0819L290.146 64.9992L289.696 65.2265L289.396 65.5423L288.451 65.6751L288.119 65.3829L286.412 65.0376L285.32 64.2821L285.182 64.0548L287.298 63.1665L288.222 62.9304L288.999 62.9452L289.976 62.6147L290.267 62.5999ZM245.804 62.7208L246.578 63.013H246.849L247.105 62.6707L247.264 62.6147L247.611 62.7828L247.691 63.3377L248.191 63.261L248.579 63.4498L248.703 63.5827L248.65 64.1345L247.17 64.2319L246.114 64.6775L244.692 64.2762L243.08 64.9639L242.1 65.2029L241.249 65.1881L240.522 63.984L240.946 62.5733L241.252 62.3401L241.793 62.2162L243.288 62.1483L245.804 62.7208ZM332.561 61.7853L335.821 62.1985L336.704 62.1454L338.567 62.3047L340.121 62.8537L342.837 62.954L343.646 63.1193L344.273 63.497L342.751 63.807L342.036 64.0991L340.706 64.2438L339.594 64.0962L338.785 64.2703L338.49 63.987L337.307 63.6977L335.792 63.1045L332.667 62.4169L332.519 61.986L332.561 61.7853ZM113.527 62.0155L112.579 62.3608L112.294 61.5875L112.9 61.3573L113.559 61.5581L113.527 62.0155ZM89.5134 62.4257L89.7988 62.9924L90.1873 63.503L90.4727 64.0548L90.8641 66.7021L92.1589 68.9776L95.8992 69.8718L95.2872 70.2407L94.9753 70.5713L94.7457 70.949L94.1954 72.528L94.2484 72.8645L94.572 73.3987L94.6485 73.98L94.1807 73.9771L93.6538 73.8473L93.2332 73.6289L92.8416 73.3425L92.4179 73.1153L91.9588 72.9678L91.1996 72.5162L90.1726 72.1974L89.1249 71.9466L88.6159 71.2767L88.3747 70.4503L88.6335 69.2167L88.3716 68.8744L87.9978 68.5733L87.5387 67.6849L87.3652 66.6461L86.7001 66.2447L85.8233 65.9998L85.4376 65.802L83.7044 66.1827L83.2866 66.0942L82.9187 65.805L81.974 65.501L82.0122 64.9255L82.4508 64.4651L83.4836 64.0018L83.9693 63.6121L84.0634 63.0987L83.8809 62.7238L83.9515 62.3313L84.2782 61.9506L84.6637 61.6525L85.7054 61.257L86.1586 61.9446L86.3824 62.5202L86.659 62.9363L87.1003 62.3401L86.8178 61.3131L87.6095 61.0829L88.3863 61.0741L88.9719 61.3573L89.3544 61.8001L89.5134 62.4257ZM234.472 62.712L233.904 62.7652L233.524 62.5231L233.56 61.3161L233.904 61.0534L234.072 61.0977L234.175 61.4578L234.348 61.7794L234.631 62.0805L234.472 62.712ZM272.095 62.3519L271.589 62.6854L271.336 62.777L270.118 62.5526L268.693 62.5999L267.21 62.9097L266.354 62.6471L265.81 62.2192L265.836 61.7676L266.345 60.649L267.46 59.8021L267.914 59.6486L268.711 59.8788L270.05 60.5281L271.104 61.2895L272.06 61.8827L272.095 62.3519ZM231.291 58.3264L231.473 58.8399L231.173 59.2855L231.5 60.1208L232.332 59.0081L233.127 58.8665L233.577 59.0524L233.886 59.2737L234.057 59.6958L233.763 60.6018L233.242 61.0268L232.568 61.0947L232.25 60.5665L231.809 60.5163L231.5 61.6672L231.361 61.8443L230.967 61.989L230.617 61.6732L230.555 61.4961L231.052 60.9737L230.782 59.4242L230.408 59.7164L229.41 61.1242L228.633 61.7528L228.368 61.4341L227.974 60.4779L228.154 59.2501L228.781 58.4208L229.313 58.4769L230.846 58.2172L231.291 58.3264ZM119.78 58.4032L118.132 59.2443L117.744 59.2L117.449 58.9018L117.632 57.2787L117.844 56.7947L118.991 56.7415L119.689 56.9747L120.054 57.2373L120.195 57.7804L120.115 58.108L119.78 58.4032ZM328.361 57.8718L327.964 58.0224L327.505 57.8572L327.069 57.2255L327.225 56.7415L327.734 56.4081L328.161 56.7415L328.294 57.1665L328.617 57.1961L328.361 57.8718ZM32.6795 63.32L31.9172 63.3643L30.2871 62.3785L29.9014 61.9358L29.8073 61.3455L28.2447 59.0671L28.0358 58.5448L28.6508 56.6737L30.2429 56.2221L30.7697 56.5379L30.9551 57.379L31.8673 58.896L32.1674 59.7135L32.3941 60.0765L32.4882 60.3598L32.4088 60.5547L33.068 61.5167L33.5388 62.0805L33.5742 62.9924L32.6795 63.32ZM295.623 59.5128L295.331 59.743L294.328 59.5275L293.807 59.0199L293.454 58.3382L293.227 57.7775L293.166 57.3318L292.865 56.7858L292.907 56.588L294.758 56.0126L295.108 56.2221L295.882 56.2398L296.217 56.656L295.988 58.4651L295.623 59.5128ZM294.828 55.0858L294.616 55.505L294.225 55.7883L290.673 56.29L290.979 55.9889L291.129 55.6909L291.353 55.5374L291.703 55.5788L291.88 55.4873L292.059 55.4519L292.256 55.4902L292.601 55.3662L293.324 55.4547L294.072 55.3839L294.016 54.9826L294.828 55.0858ZM331.807 54.047L333.564 54.3687L334.206 54.351L334.833 54.714L335.595 54.5428L336.024 54.6609L337.469 55.9093L338.181 56.7357L339.235 57.4469L340 57.6889L339.426 58.3382L338.261 58.6806L337.814 58.6982L336.922 58.3116L336.201 58.3824L335.571 57.8984L335.462 57.1488L334.812 55.4607L333.976 55.9447L332.97 55.1655L332.696 55.1479L332.634 55.2777L332.207 55.015L331.843 54.4897L331.807 54.047ZM265.056 55.1154L264.962 55.2836L264.1 55.0682L263.867 54.9501L264.3 53.7844L264.706 53.8198L265.062 54.9295L265.056 55.1154ZM292.527 53.0406L292.053 53.0495L291.197 52.6924L291.694 52.3825L292.009 52.3175L292.286 52.1317L292.439 52.1227L292.777 52.2822L293.001 52.5507L292.527 53.0406ZM220.158 52.0372L220.508 52.4031L220.299 52.8252L220.014 52.719L219.264 52.7248L218.981 52.7573L218.643 53.0052L218.431 53.014L218.575 52.6245L219.211 52.0342L219.608 52.1227L220.158 52.0372ZM316.031 54.6639L318.103 54.7878L319.147 54.7051L320.174 54.8114L320.592 55.021L321.307 55.6555L321.104 56.0716L320.981 56.9334L321.346 57.7597L321.94 58.589L322.429 59.4744L322.529 59.9054L322.343 60.8203L322.176 61.2718L321.584 62.0273L321.26 62.8507L321.469 63.8659L321.584 64.8901L321.563 65.8286L321.669 66.7523L321.99 67.6909L323.373 70.2585L324.179 71.9997L324.438 71.0258L324.374 69.9456L324.662 69.5561L325.065 69.3495L325.569 69.5649L325.71 70.0017L325.748 70.9579L326.184 72.8349L326.743 72.9205L327.349 72.6343L327.449 73.2068L327.425 74.2692L327.708 75.1133L327.958 75.4439L328.953 76.1286L329.403 76.2555L330.718 76.4207L331.71 76.4739L332.661 76.2289L333.273 75.6003L333.826 74.9185L335.736 73.3485L336.289 72.5959L336.822 71.4448L337.007 71.2L338.908 69.9545L339.126 69.5118L339.397 68.6559L339.812 67.8296L340.121 67.4016L341.957 66.9973L343.861 66.7789L345.753 66.0174L346.568 65.3623L346.609 64.9314L346.194 64.1759L346.177 63.8423L346.612 63.5236L348.299 62.5645L350.247 61.5787L351.812 60.8999L352.677 60.9058L353.475 61.5049L354.325 61.9948L358.778 63.4351L359.49 63.8837L360.111 64.4798L361.003 64.8931L361.997 65.0908L362.901 65.4774L363.757 65.9732L365.652 66.8999L368.195 68.0243L368.845 68.0892L371.211 68.0361L371.62 68.2487L372.009 68.5497L372.368 68.6176L375.078 68.8271L375.493 69.0425L375.887 69.3406L376.108 70.1552L377.976 70.1758V71.7725V73.4458L377.98 75.1193V76.7956V78.4719L377.982 80.1482V81.8246V83.5009V85.1773V86.8536L377.985 88.5329V90.2121V91.8914V93.5707V95.25L377.988 96.9323V98.6145V100.297V101.014L377.732 101.893L377.161 103.21L377.061 104.275L377.532 105.104L377.991 105.644V107.032V108.717L377.994 110.405V112.093V113.781V115.469V117.16L377.997 118.852V120.543V122.234V123.928L378 124.037L377.57 123.757L376.432 122.83L375.399 121.773L374.731 120.788L373.977 119.89L370.77 117.231L369.957 116.358L369.793 116.116L369.869 115.888L370.24 115.428L370.896 114.097L370.211 114.92L369.395 115.573L368.206 115.614L367.041 115.773L365.961 116.166L364.863 116.302L364.313 116.11L363.984 115.62L363.81 115.118L363.734 114.584L363.271 115.446L362.365 115.918L361.126 116.912L360.773 116.706L360.561 116.328L360.491 115.936L360.729 115.517L360.9 115.074L361.15 114.008L361.703 113.38L362.056 112.167L362.286 111.736L362.403 111.305L362.083 110.815L361.538 110.65L361.165 110.352L360.735 109.528L360.464 109.251L359.973 108.912L359.596 108.519L360.014 108.221L360.564 108.1L361.014 108.118L361.827 108.304L362.194 108.312L363.139 108.008L362.606 108.103L362.08 108.091L360.402 107.56L359.364 107.008L358.384 105.901L358.372 105.689L359.063 105.488L360.555 105.255L360.093 104.691L359.419 104.198L359.184 103.325L358.725 102.785L357.73 101.902L357.045 100.987L356.465 99.128L355.87 97.7232L356.018 97.2156L356.518 96.8526L355.759 96.8112L355.073 96.5516L355.438 95.8698L356.232 95.4654L355.509 95.5688L354.802 95.7665L354.481 95.8049L354.149 95.7428L353.972 95.4684L353.949 95.0789L354.052 94.3912L353.931 93.7242L353.304 93.4143L352.783 92.9392L352.489 92.7621L352.107 92.7739L351.733 92.4552L351.433 91.9947L347.695 89.9967L347.475 89.4271L347.127 89.675L346.783 89.799L346.353 89.4714L345.903 89.253L345.412 89.2884L344.959 89.1114L344.482 89.011L343.985 88.9963L342.022 88.3824L340.162 87.4114L338.646 86.9923L337.713 86.4463L336.742 86.0036L334.57 85.5727L332.369 85.2806L331.572 85.2717L330.904 85.3661L330.262 85.3455L326.619 83.2382L326.004 82.2791L326.063 81.7184L326.228 81.255L327.714 81.1222L326.669 80.9864L326.239 81.0484L325.377 81.4291L324.912 81.4557L324.253 81.2018L323.623 80.8832L322.59 81.1782L322.064 80.6942L321.881 80.1837L321.605 79.9505L321.216 79.9741L320.692 80.16L320.171 80.1276L319.836 79.7764L319.595 79.319L319.239 78.9913L318.809 78.7405L318.103 78.1473L317.735 77.3356L317.779 75.9338L317.891 75.4321L318.588 74.6145L319.083 73.8384L318.47 73.7528L317.917 74.1099L317.685 74.4758L317.591 74.9185L317.529 76.3913L317.085 76.8192L316.414 76.7838L316.611 77.6456L316.337 78.4631L315.557 79.4252L315.495 79.862L315.619 80.3371L315.442 80.8035L314.183 82.1492L313.762 82.2142L312.832 82.2053L311.87 82.4178L311.423 82.1049L311.058 81.6977L310.784 81.2137L310.402 80.2191L310.095 79.192L311.052 77.9348L310.722 76.7986L310.075 75.8216L308.439 74.47L306.744 73.1862L305.973 72.9264L304.71 72.8113L304.31 72.6874L303.919 72.2064L303.627 71.6515L304.419 71.4124L305.77 70.7602L306.538 70.7927L308.621 71.1468L309.26 71.4685L309.854 71.6574L311.276 70.5801L312.403 69.1724L313.106 68.8654L313.703 68.7621L314.312 68.8979L315.522 69.3878L316.472 69.618L317.149 69.6623L317.502 70.102L317.903 70.2997L317.994 69.6358L318.341 68.8684L319.015 68.6294L319.371 68.5733L319.595 68.3756L319.545 67.6643L318.653 67.5758L319.139 66.9649L319.571 66.6667L319.721 66.3687L319.73 65.9968L317.985 66.7139L316.146 67.015L315.06 66.9323L313.977 66.9235L311.811 67.4016L310.99 67.3839L309.074 67.1891L308.015 66.9559L307.197 67.136L306.405 67.1508L305.578 66.6018L304.875 65.9171L304.525 65.4301L304.06 65.076L303.854 64.6008L303.339 62.8123L303.292 61.5315L302.459 61.5079L301.65 61.381L298.033 60.165L297.597 60.4631L297.088 60.6166L296.579 60.6726L296.076 60.6107L295.573 60.4218L295.617 60.0853L295.988 59.2649L296.356 58.9609L296.862 58.7248L297.183 58.288L297.706 56.9806L297.747 56.535L297.689 56.0804L297.733 55.7351L298.057 55.5552L299.419 55.1301L302.25 54.4868L302.965 54.1031L303.557 53.4892L304.245 53.1173L304.56 52.7396L304.925 52.4356L307.114 51.624L308.059 51.5591L309.024 51.6535L310.934 52.1345L312.756 52.9107L314.336 53.9319L316.031 54.6639ZM76.5358 51.444L77.3098 52.2438L77.4951 52.53L77.1126 52.9728L76.8065 53.5984L76.6299 53.7312L76.0385 53.4922L75.6205 54.106L75.3439 53.1233L74.7436 52.5006L75.1174 51.8631L75.2527 51.8159L75.4352 51.8365L75.6236 52.0047L76.5358 51.444ZM267.257 51.3141L268.211 52.5448L267.569 53.7106L268.011 54.3628L269.214 54.4041L269.491 54.6491L269.703 54.9442L269.841 55.3456L269.529 55.6673L268.858 55.9624L268.084 55.5374L267.881 55.1419L267.722 54.9944L266.681 55.2954L266.389 55.325L266.189 54.773L266.439 53.9821L265.712 53.625L265.044 52.8075L265.021 52.4798L265.289 51.9103L265.253 51.4558L265.633 51.4204L266.327 52.0342L266.628 51.4558L266.925 51.2138L267.257 51.3141ZM264.638 52.7632L264.12 52.9757L263.558 52.9728L263.435 52.0962L263.62 50.9836L264.144 50.7947L264.971 51.0308L264.665 51.3111L264.891 51.9073L264.638 52.7632ZM70.4442 51.5532L69.3702 51.8395L68.1723 51.6329L68.3196 51.14L68.8963 50.5645L69.4084 50.5881L70.3411 50.9658L70.6707 51.3053L70.4442 51.5532ZM294.066 48.7229L295.496 49.0741L295.82 49.018L297.895 49.9211L298.221 50.3697L298.107 50.6737L298.413 51.0809L297.736 51.7008L297.409 51.7686L297.079 51.5355L296.417 51.4056L295.652 51.6594L295.167 51.4676L294.755 50.9009L294.025 50.5557L292.992 49.3574L292.486 49.4017L292.618 49.8709L293.057 50.1808L293.634 51.0927L293.966 51.1813L294.307 51.1488L294.769 51.5296L294.746 52.1169L293.539 52.3471L293.122 51.9162L293.03 51.1341L292.353 51.3967L292.091 51.6683L291.894 51.7066L291.444 50.8921L290.155 50.8478L289.299 50.4169L289.723 49.9654L289.784 49.5286L290.341 49.2925L290.903 49.502L291.471 49.1862L291.874 49.2659L292.171 49.0653L293.313 48.9384L294.066 48.7229ZM26.8586 53.0524L26.3672 53.4331L25.6227 53.0642L25.8729 52.536L25.9934 51.807L26.4408 51.2286L26.5908 50.5497L25.7315 48.6934L26.1583 48.6314L26.4967 48.8321L27.0646 50.0657L27.5591 50.8065L27.3619 51.8099L26.8586 53.0524ZM79.0518 50.1366L79.2902 50.2723L79.5846 49.8443L80.129 50.4288L80.4643 50.7209L80.9234 51.0131L80.4731 51.0249L80.2878 51.2935L80.1701 51.3465L78.4191 50.4051L77.2979 50.7091L76.5299 50.4346L76.3122 50.2458L76.7241 49.7293L77.1038 48.5458L77.8718 48.8439L78.0571 49.2098L78.0101 49.3191L78.5134 49.5404L79.0518 50.1366ZM283.625 50.228L283.266 50.2516L282.966 49.7706L282.148 49.2364L281.642 48.3156L283.566 49.8355L283.625 50.228ZM266.319 48.7376L266.277 48.9915L266.021 48.6373L265.848 48.5517L266.033 47.6663L266.13 47.5158L266.28 48.1208L266.319 48.7376ZM78.3133 48.1976L78.3839 48.4012L77.9954 48.171L77.7599 48.0323L77.6011 47.9054L76.7418 46.7809L77.1097 46.8518L78.0659 47.8404L78.3133 48.1976ZM66.7099 44.231L65.7829 44.2782L65.5121 44.172L65.6268 43.3987L65.9094 42.9325L66.3302 42.9413L66.7981 43.6378L66.7099 44.231ZM266.042 43.4047L265.745 43.4962L265.659 43.4637L265.571 43.1331L265.736 42.5724L266.083 42.5665L266.23 42.6579L266.26 43.0712L266.042 43.4047ZM265.651 42.1769L265.368 42.4484L265.1 42.3569L264.938 42.0086L264.991 41.7578L265.215 41.5955L265.495 41.7165L265.651 42.1769ZM68.0782 43.2217L67.9076 43.3338L67.2042 42.289L67.3808 41.687L67.5514 41.5335L67.9399 41.9025L68.246 42.2861L68.4696 42.7436L68.0782 43.2217ZM71.2063 42.1002L71.2505 42.3363L70.4942 41.8611L70.4737 41.5158L70.5707 41.3565L71.021 41.7254L71.2063 42.1002ZM74.5965 41.8257L74.0785 42.0677L73.4282 41.3151L73.4517 41.141L73.5135 41.0082L73.6342 40.9226L74.0286 41.3122L74.4965 41.4509L74.5965 41.8257ZM64.5881 42.5458L64.4321 42.8616L64.126 42.6285L62.5134 42.2743L61.969 42.236L60.5741 41.8463L60.1504 41.6397L59.8473 41.3683L59.9502 40.8695L60.1562 40.5685L60.2798 39.7303L60.6331 39.3879L61.3246 40.0107L62.0926 40.5478L62.537 40.7928L63.8936 41.3417L64.3733 41.6161L64.5881 42.5458ZM67.8605 40.0638L67.9104 40.5153L67.3601 40.4061L66.963 39.8749L67.2895 39.4971L67.4955 39.3614L67.7016 39.8631L67.8605 40.0638ZM65.7328 41.5306L65.4916 41.7666L65.0736 41.7106L64.6352 41.4332L64.0642 40.9344L63.4228 40.4888L62.6106 40.2084L62.1014 40.1228L61.8984 40.0195L62.0926 39.1548L62.6282 39.1017L64.3586 39.9044L64.9177 40.3412L65.7328 41.5306ZM72.8248 38.9748L73.3488 39.3348L73.7784 39.0987L73.7608 39.4056L73.6753 39.7008L73.1692 40.5478L72.3217 40.353L72.1274 40.0785L72.0656 39.8749L72.1894 39.748L72.2569 39.3319H72.6219L72.8248 38.9748ZM77.4538 38.6826L77.5039 39.2994L77.9747 39.6005L78.0954 40.0549L78.013 40.7839L77.5717 41.6251L77.3744 41.8463L76.7889 41.6752L76.5946 41.3948L76.518 41.1764L76.6005 41.02L76.168 40.8223L76.4475 40.5006L76.2562 40.049L75.0585 40.3323L74.7113 40.3412L74.6495 39.8277L74.6995 39.6211L75.6205 38.9718L76.1708 38.8508L76.7623 38.9806L77.4538 38.6826ZM59.6296 40.5419L59.247 40.7898L58.7879 40.4002L58.4112 39.8365L58.214 39.2492L58.0344 38.2871L57.9874 37.5965L58.2169 37.1922L58.3847 37.2069L59.0614 37.6172L59.5089 38.3137L59.756 38.5321L59.8061 39.1725L59.6412 39.9044L59.6296 40.5419ZM18.7838 36.6344L20.5729 38.9482L21.2998 39.2581L22.265 40.3087L22.5005 40.6747L22.2562 41.4125L22.0443 43.5198L21.5823 44.045L20.4552 43.7854L20.4434 43.4165L19.793 41.8287L18.616 40.9433L18.154 40.8961L17.8508 39.99L17.2563 38.9187L15.4613 36.959L16.8238 36.9738L17.4859 36.4957L17.6389 36.115L17.7479 36.0175L18.7838 36.6344ZM60.165 36.6816L60.227 37.7382L59.6118 37.4607L59.1322 37.0417L58.364 36.7318L57.4342 36.6314L56.7514 36.357L56.2747 35.867L56.2541 35.6398L56.3012 35.4568L56.4542 35.3122L59.9827 36.2625L60.165 36.6816ZM245.136 40.5006L243.562 41.8965L243.082 42.5724L242.662 43.2984L242.041 44.1041L241.328 44.8154L240.972 45.0249L240.093 45.4086L239.586 45.5562L238.633 45.6063L235.761 46.173L234.819 46.2379L233.88 46.2143L232.103 46.0726L231.732 45.9989L231.023 45.2669L230.222 44.6885L229.516 44.6265L228.795 44.6885L223.601 44.7298L221.785 44.839L219.979 45.0958L218.993 44.9777L218.019 44.6885L217.283 44.5852L216.542 44.6147L213.134 45.0514L212.274 45.0102L210.55 44.4523L209.549 44.3402L208.564 44.4907L207.648 44.9925L207.301 45.3289L206.354 46.4799L205.818 47.3181L205.409 48.3628L205.062 49.4282L204.876 50.3019L204.865 51.2168L205.029 52.2438L205.285 53.259L205.571 54.0352L206.754 55.8296L206.995 56.0834L208.281 56.588L209.043 57.2373L209.764 59.0377L210.282 59.9584L210.785 59.9702L211.35 59.9054L212.333 60.0234L213.304 60.2595L214.252 59.7076L214.782 58.6628L215.314 57.8866L216.591 56.411L217.318 55.7293L217.78 55.505L218.254 55.6024L218.654 55.9919L219.119 56.3018L220.073 56.4701L221.035 56.3668L222.059 55.8857L222.427 55.5906L222.733 55.2187L223.601 54.9147L225.664 54.9117L226.726 55.021L228.627 54.8999L228.601 54.6284L228.233 54.3392L228.139 54.106L228.492 53.9555L229.716 53.6191L230.964 53.3801L231.873 53.5512L232.683 54.0204L232.995 54.5044L233.133 55.0858L232.821 56.594L232.668 56.9452L232.021 57.1252L231.411 56.9245L230.808 56.1454L229.955 55.8591L228.745 56.0952L228.327 56.3195L227.956 56.6294L227.274 57.4381L226.706 58.35L225.473 59.7695L224.051 61.0032L223.363 61.4754L222.592 61.7912L220.123 62.6087L219.472 63.2167L218.966 64.0046L218.407 64.2732L217.76 64.3589L217.274 64.2113L216.291 63.7656L215.968 64.1315L215.912 64.6894L216.394 64.8871L217.177 65.5039L217.78 66.3746L218.166 66.5605L219.028 66.8438L219.39 67.1154L220.038 67.862L221.059 69.5974L221.406 70.5359L221.974 71.3033L223.698 72.6047L223.795 72.9736L223.69 73.4045L223.822 73.7941L224.44 74.5408L224.587 75.0248L223.913 75.6387L223.875 76.524L223.46 77.7163L223.369 78.1178L223.38 78.4837L223.672 78.8231L224.01 79.0917L224.475 79.2333L224.881 79.4665L225.664 80.3962L226.073 80.6412L226.332 80.9805L226.306 81.4852L226.662 81.7803L226.988 82.3086L227.492 82.4355L227.724 82.285L227.886 82.0577L228.298 82.1433L228.539 82.5122L228.68 82.9844L228.728 83.5039L228.707 84.4896L228.501 84.8437L228.051 84.8261L227.241 84.4188L227.203 84.7139L227.259 84.9972L226.847 85.0917L226.376 85.0504L225.193 85.0887L223.01 85.7026L222.245 86.0656L221.747 86.7237L221.712 87.1811L221.903 88.1404L221.612 88.4768L220.611 88.6037L219.214 88.347L218.369 88.0902L217.898 87.8747L217.286 87.2284L217.054 86.4021L217.507 83.9436L217.633 83.6278L217.854 83.3475L218.086 82.9018L218.142 82.3765L217.474 81.736L216.468 81.4822L215.617 80.948L212.327 77.9495L212.142 77.6603L212.136 77.1645L212.269 76.7011L213.349 75.0632L213.487 74.7504L213.619 73.4576L213.587 72.3923L213.466 71.3269L212.954 70.6569L212.039 70.4532L211.094 70.4208L210.173 70.6333L209.267 71.1704L207.596 72.2978L206.93 72.956L206.872 73.8089L207.254 74.6441L207.748 75.4055L208.013 76.2407L208.378 79.2009L208.366 79.5344L207.937 80.3962L207.766 82.3204L207.952 85.0386L208.246 86.706L208.119 87.6121L207.337 89.5599L207.098 90.6283L207.08 91.068L208.002 93.1044L208.213 93.9101L208.325 94.7454L207.345 94.3351L206.892 94.3557L206.43 94.4798L205.409 94.6125L204.37 94.6303L204.008 94.7837L203.272 95.3267L202.825 95.5452L202.437 95.5865L201.118 94.9077L200.339 94.1698L199.621 93.3701L199.488 92.4552L199.738 91.5167L200.094 90.5132L200.803 88.8458L200.768 87.7272L201.013 86.8094L201.418 85.921L201.566 85.1005L201.663 81.8895L201.563 81.6032L200.589 79.6967L200.477 79.378L200.471 78.8644L200.577 78.3716L200.597 77.9319L200.374 77.5924L199.98 77.2826L199.503 77.1468L198.493 77.2796L196.469 77.7931L195.871 77.3416L195.424 76.6451L195.133 75.6711L194.965 74.6529L195.041 73.6967L195.342 72.773L195.1 72.1266L194.727 71.4242L194.724 71.0613L194.936 70.7454L195.3 70.4798L195.748 70.3263L196.166 70.0459L197.275 69.1045L197.628 68.2752L197.655 67.2541L197.937 66.2801L198.502 65.38L199.173 64.5477L199.388 63.6889L199.061 62.3254L199.191 61.7056L199.079 60.9766L199.067 60.2565L199.482 58.9018L200.712 56.1306L201.913 54.6579L202.39 54.2713L203.014 54.956L203.487 55.7617L203.496 55.0328L203.355 54.3333L202.878 52.6658L202.463 49.4135L202.578 49.1065L202.999 49.1568L203.429 48.8704L203.652 48.3599L203.208 47.1528L203.187 46.7249L204.046 45.0279L204.747 44.4111L205.053 44.0304L205.229 42.9944L205.594 42.6049L206.053 42.3245L206.66 41.6073L206.986 40.7042L207.186 40.6363L207.422 40.6039L207.787 41.3919L208.196 41.7106L209.026 41.9674L209.735 41.6634L209.932 41.2679L210.2 40.9285L210.629 40.5743L210.991 40.17L211.395 39.2345L211.927 38.3816L212.292 38.0835L212.731 37.8976L213.219 37.7825L213.69 37.7677L214.735 38.3019L215.341 38.4081L215.962 38.3698L216.353 38.4583L216.65 38.7003L216.921 39.1843L217.254 39.6034L217.563 39.8099L217.901 39.9074L220.176 39.7362L222.165 40.2084L224.878 40.3147L225.808 40.5921L226.703 40.9551L227.795 41.5925L228.195 41.7342L228.642 41.6988L229.198 41.0967L229.634 40.9668L230.075 40.9433L231.823 41.0554L236.52 41.7932L237.214 41.6929L240.046 40.2792L241.181 38.9394L242.197 38.5675L242.538 37.9595L242.744 37.2335L243.103 37.0387L243.954 36.8321L244.289 36.6166L244.892 35.7225L245.604 34.9315L245.955 34.6925L246.961 34.8194L247.405 35.1646L247.97 36.3274L247.873 36.5223L247.205 37.1007L247.011 37.3456L246.272 38.9806L245.766 39.7834L245.136 40.5006ZM53.6939 31.5847L54.1383 32.2606L54.2324 32.6973L53.9058 33.1991L53.7851 33.9693L52.8228 34.5744L51.9813 34.4297L51.7075 34.2143L51.1748 33.0456L51.2278 32.054L51.5604 31.6762L52.3432 31.7352L53.1378 31.1922L53.6939 31.5847ZM268.626 41.7106L269.226 41.8935L269.85 41.8434L270.159 41.4745L270.244 40.9964L270.559 40.1081L271.286 39.506L271.795 39.4116L272.157 39.1578L272.095 38.4996L272.134 37.8533L272.672 37.1626L274.335 36.2005L275.285 35.8582L276.518 35.749L276.657 36.1179L276.515 36.6432L276.754 37.4372L276.636 39.5857L276.354 39.8897L275.079 40.6305L273.687 41.2236L273.296 41.4716L272.952 42.0618L272.981 42.6491L274.117 43.4312L275.88 44.1631L276.242 44.5055L276.477 45.081L276.542 45.7243L276.969 46.0313L277.566 46.1789L277.96 46.4829L278.261 46.9108L275.294 45.9103L274.517 45.4705L273.581 45.4174L272.654 45.2846L271.71 44.9009L270.694 44.8094L270.209 45.0868L270.021 45.6299L269.906 46.2379L270.13 46.9935L270.109 47.4538L269.918 48.2831L270.653 50.7356L271.574 52.6835L272.931 54.7111L273.602 55.4075L274.352 56.0362L273.134 55.8502L272.766 55.1744L271.224 54.5015L270.927 54.1001L269.921 52.1759L269.626 51.8159L268.699 51.1606L268.29 50.6796L268.152 50.0303L268.255 49.3485L268.202 48.4042L268.237 47.4656L268.429 46.3205L268.096 45.9162L267.664 45.5384L267.16 44.6619L267.01 43.6643L267.051 43.0918L267.257 42.5842L267.537 42.1445L267.599 41.7136L266.875 41.0909L266.116 39.3141L266.048 38.3934L267.013 36.6196L266.992 35.7579L267.184 35.2473L267.287 34.7043L267.793 33.5237L268.614 32.5174L270.009 31.1066L270.539 30.7997L271.136 30.599L271.189 30.9443L271.095 31.2512L270.065 32.6855L269.926 33.0102L269.9 33.6122L270.391 33.9693L270.927 34.6983L271.03 35.6664L271.051 36.6993L270.933 37.7382L270.736 38.0864L269.891 39.1312L267.97 40.3559L267.805 40.6599L267.819 40.9964L268.173 41.4037L268.626 41.7106ZM17.5654 31.6083L17.5184 31.7942L16.6649 30.9295L15.6996 30.4485L16.0998 30.3245L16.8975 30.4573L17.2152 30.5813L17.5213 31.0122L17.5654 31.6083ZM274.582 31.8031L273.275 31.9448L272.978 31.5522L272.634 29.7815L273.561 28.3649L274.729 27.5326L275.527 27.3231L275.806 27.3113L276.518 28.3324L275.977 30.3835L275.353 31.4313L274.582 31.8031ZM249.421 26.8656L249.336 27.0485L249.03 26.0835L249.286 25.5995L249.654 25.7765L249.745 25.9477L249.395 26.4082L249.421 26.8656ZM10.3791 29.265L9.86112 29.3417L9.36089 29.1646L8.94599 28.6924L6.72705 27.3231L6.03859 27.3024L5.55597 26.9512L4.96738 26.8302L4.3434 25.9153L4.21103 25.4254L4.66419 25.1863L4.94978 24.6846L5.68835 24.906L6.53001 25.7913L7.38623 26.1218L7.61883 26.2901L8.03661 26.7801L9.99367 27.9841L10.2054 28.3944L10.3409 28.8046L10.3791 29.265ZM112.985 24.7731L112.582 25.204L112.152 24.9355L112.817 24.0619L112.973 24.0029L112.985 24.7731ZM87.1592 25.1244L86.8149 25.1568L86.712 24.9118L86.7265 24.4898L86.6973 24.1534L86.5972 23.9025V23.4805L86.9149 23.69L87.1592 23.8878L87.4417 24.0294L87.6713 24.1238L87.7918 24.1888L87.5653 24.7849L87.1592 25.1244ZM91.4909 22.7013L91.4793 23.268L90.9083 22.9345L90.7966 22.3058L90.9848 22.1022L91.3762 22.2114L91.4909 22.7013ZM185.422 21.6831L185.319 21.9547L184.612 21.2906L184.427 20.8096L184.512 20.4347L185.245 20.4023L185.61 20.6383L185.422 21.6831ZM251.49 20.4023L251.284 20.6531L250.28 20.1927L250.331 19.4638L250.195 19.1037L249.924 18.726L249.816 18.357L249.927 17.9527L250.545 18.4692L250.893 19.2896L251.369 20.0688L251.49 20.4023ZM261.351 17.6605L261.216 17.755L260.919 17.5336L260.733 17.2887L260.745 17.0437L260.957 16.9198L261.387 17.2945L261.395 17.5011L261.351 17.6605ZM260.256 16.7869L260.277 17.1352L259.777 16.3442L259.583 15.4086L259.98 15.7422L260.424 16.4328L260.256 16.7869ZM187.29 14.2163L187.567 15.0043L187.608 15.3054L186.075 15.7186L185.151 14.7505L185.348 14.358L186.146 14.3758L187.29 14.2163ZM108.268 18.3098L107.138 18.6138L106.485 18.1888L107.191 17.6664L107.441 17.631L107.606 17.5277L107.665 17.3153L106.387 16.9699L106.022 16.666L105.675 15.8927L105.684 15.3998L107.326 14.0983L107.709 13.9596L107.77 14.4997L108.903 15.8632L108.953 16.7722L108.909 17.0998L108.268 18.3098ZM176.296 12.782L176.593 12.9591L177.005 12.9532L177.494 12.8234L178.694 12.9473L180.819 12.9739L182.282 13.2838L183.712 14.1603L184.424 14.3374L184.73 14.3432L184.662 14.4112L184.097 14.6502L183.829 15.1224L184.609 15.8455L184.662 16.3265L185.266 16.7574L186.004 17.4274L186.034 17.6458L186.284 17.9468L186.41 18.3157L185.889 18.6816L185.192 18.7496L184.674 18.4042L184.2 17.9734L184.077 18.5075L183.709 18.8145L182.367 18.726L181.408 18.7288L180.454 18.8617L180.931 18.9444L181.364 19.1155L182.85 20.479L183.167 20.9837L182.647 21.9871L182.9 22.3973L183.473 22.6335L184.174 23.1322L184.671 23.1824L185.03 23.4657L185.045 23.9557L185.254 24.3983L184.689 24.5784L185.248 24.6964L185.748 24.9236L185.475 25.1538L185.263 25.4342L185.492 25.5848L186.178 25.8415L186.478 26.0806L186.634 26.721L187.305 27.7687L188.529 29.1204L188.797 29.6133L188.794 30.0677L188.591 30.4573L187.894 30.9118L187.337 31.5138L187.27 31.7323L186.51 32.0097L186.858 32.2133L187.134 32.4908L187.661 33.326L188.918 34.6836L189.55 35.1912L192.149 37.0328L193.532 37.8355L195.298 39.6712L196.213 40.0963L196.392 40.6069L195.627 41.3919L194.515 41.7844L192.676 41.994L190.83 41.7194L189.877 41.4952L189.047 41.0436L188.394 40.1376L187.529 39.6476L187.861 40.1966L188.07 40.7574L187.961 41.3683L187.623 41.8463L187.04 42.1976L186.416 42.4838L186.151 42.6845L184.568 45.8808L184.312 46.7455L183.829 50.3343L183.821 51.3495L184.533 53.2472L184.595 54.2418L184.736 54.6727L184.642 55.0298L184.306 55.2423L182.947 55.8208L181.987 56.3018L181.207 56.9865L180.578 57.8394L180.025 58.4563L179.289 58.7513L178.753 58.7071L178.324 58.4238L178.02 57.8748L177.847 57.2757L177.735 57.7185L177.756 58.1522L178.009 58.6156L178.106 59.1055L177.959 59.6043L177.644 60.0027L176.79 60.4366L176.32 60.8085L176.228 61.4666L176.002 61.8355L175.675 62.1217L174.471 62.777L174.201 63.0396L174.004 63.3731L174.645 63.32L175.234 63.3731L175.278 64.0254L175.463 64.5123L175.228 65.5777L174.321 66.2978L174.775 66.4483L175.184 66.6845L176.093 66.8586L176.399 67.6141L176.264 68.529L176.099 69.3495L175.446 69.5767L175.039 69.4262L174.636 69.441L174.339 69.6889L174.263 70.1138L174.825 69.9044L174.792 70.9668L174.639 72.0027L174.454 72.5753L174.11 73.0415L173.589 73.192L173.097 72.8409L172.997 73.2482L173.147 73.5905L173.848 74.4227L173.418 74.6057L173.106 74.8891L172.965 75.3022L172.203 76.2496L171.864 76.9461L171.72 77.6899L171.364 78.2801L165.599 80.8536L160.935 83.0199L160.599 82.8723L160.373 82.5417L160.214 79.1743L159.637 77.4537L159.552 76.4827L158.892 77.3474L158.489 77.2589L158.054 77.0376L157.727 76.7543L157.701 76.3824L158.054 75.314L157.627 75.9013L157.162 76.3529L156.68 76.2968L156.262 76.0725L156.109 75.7243L155.888 75.6711L154.867 76.6215L153.522 77.132L152.772 77.1232L152.183 76.831L152.212 76.105L152.151 75.3967L151.986 74.9806L151.624 74.83L151.291 74.8831L150.326 75.252L149.982 75.2078L149.785 75.3937L147.23 72.8143L146.715 74.9038L144.95 76.0135L143.649 76.6599L142.357 76.4179L141.047 76.0046L139.741 76.5034L138.322 77.7253L137.931 77.9112L137.522 77.9082L137.222 77.7489L137.325 76.8222L137.337 75.8955L137.231 73.8325L137.119 73.4252L136.71 72.8585L136.168 72.4484L135.868 72.7464L135.594 73.1566L134.517 73.1389L133.467 72.8113L132.572 72.9972L130.795 73.8148L129.853 73.9417L129.347 73.7558L129.023 73.316L129.209 72.9117L129.6 72.6018L128.87 72.8467L128.249 73.26L127.978 73.5256L127.687 73.3927L126.91 72.4602L125.286 72.8084L125.068 72.9146L124.668 73.2334L124.282 73.074L124.091 72.7346L124.023 70.7867L123.196 67.0416L122.97 65.1291L122.787 64.6775L121.84 63.99L121.872 63.0042L122.367 62.1778L122.47 61.2157L122.328 60.171L122.031 59.1498L121.657 58.3796L121.122 57.7213L120.413 56.9835L119.539 56.4317L117.655 55.8119L116.664 55.868L116.293 55.623L116.045 55.3072L116.146 54.6875L116.481 54.2624L116.931 54.1563L116.987 53.9142L116.031 53.4155L115.233 52.7366L114.983 52.3293L114.907 51.8807L114.912 50.8449L115.142 50.1896L115.269 49.8355L115.513 48.7406L116.034 48.407L115.951 48.2064L115.728 48.0559L115.404 47.6958L115.136 47.2827L114.527 46.5802L113.453 45.7361L113.27 44.2782L113.132 42.1297L113.221 41.1528L113.565 39.3259L114.162 38.7505L114.636 38.5911L114.992 38.3461L114.698 38.3107L114.445 38.4022L113.991 38.4642L114.365 36.8292L114.533 36.357L115.283 35.4421L116.163 34.6334L116.534 33.6801L117.034 32.8449L119.103 31.9832L118.359 33.0633L118.441 33.4559L118.623 33.8041L119.159 34.049L119.312 35.3801L119.986 36.1356L120.663 36.8262L121.163 37.1656L121.713 37.6584L122.099 38.1159L122.505 38.4996L123.117 38.8744L124.774 40.471L125.465 40.9403L125.98 41.4096L126.345 41.5749L127.249 41.442L129.918 40.2969L130.397 40.2232L131.266 40.0254L132.799 40.0874L134.42 40.477L134.947 40.4888L135.447 40.2556L136.142 40.3235L136.789 40.4445L137.113 40.3441L138.055 39.5089L139.338 39.261L139.753 38.4346L140.073 37.6556L140.226 36.8262L140.762 36.4927L141.512 36.2035L142.625 35.8376L146.483 35.7726L146.856 35.932L146.936 36.357L146.856 36.6786L147.01 36.8705L147.522 36.8882L147.995 37.083L149.917 37.75L150.735 37.9566L151.191 37.9034L152.092 38.4996L152.583 38.2959L153.233 37.8769L153.852 37.3132L154.405 36.8676L155.208 36.6934L156.25 36.717L157.48 36.5635L158.407 36.3245L159.443 36.72L159.719 36.596L159.899 36.2094L160.435 35.3624L160.673 34.7928L160.879 33.7008L161.023 33.4411L161.417 33.2906L161.82 33.084L161.926 32.7564L162.073 32.3757L161.953 32.0569L161.723 31.7884L161.482 30.8764L161.559 30.4603L161.709 30.1504L162.124 29.994L163.218 29.3241L164.19 28.539L164.722 28.1553L164.954 27.9074L164.969 27.5473L164.546 27.1726L164.139 26.9925L164.11 26.5587L164.125 26.2577L164.248 25.9743L164.186 25.6998L164.184 25.2896L164.443 24.847L165.04 24.1917L165.511 23.7667L166.034 24.0294L166.644 23.9084L167.223 23.6959L167.544 22.9227L167.594 22.5538L167.518 22.2586L167.718 21.1578L167.768 20.9984L168.147 20.3049L168.186 19.8386L167.971 18.7554L168.106 17.935L168.168 16.238L168.395 15.934L168.656 15.0545L169.08 14.1366L169.937 13.6379L170.384 12.9827L170.581 12.8588L170.875 12.8528L171.911 13.331L172.841 12.7998L173.683 12.7377L174.377 12.8086L174.769 13.027L175.154 13.1834L175.984 12.6669L176.296 12.782ZM261.057 15.4765L260.724 15.6478L260.189 15.5858L260.13 15.1666L260.674 14.4141L261.033 13.6202L260.651 13.4225L260.277 12.9149L260.262 12.3246L260.568 11.2326L261.022 11.3212L261.457 11.7934L261.637 12.6787L261.922 13.3516L261.316 14.2665L261.057 15.4765ZM10.6175 5.60447L11.6298 5.67823L13.5103 5.2297L14.5431 5.27392L15.5171 5.59861L16.3823 5.78451L18.5364 5.54547L18.9425 5.60744L19.331 5.79334L19.6606 6.08848L20.6465 7.1628L22.3121 8.48497L22.7918 9.33195L23.0654 10.2852L23.2391 10.5066L25.1225 12.3276L25.3254 13.089L25.0607 14.1426L25.608 14.9807L27.4325 15.7687L28.5096 16.3413L28.7392 16.6925L28.8979 17.1116L29.4953 17.7314L30.2429 18.1357L32.5764 19.2011L35.637 21.4263L37.3762 22.4829L38.8153 24.0884L39.3362 24.8558L39.7658 25.6851L40.6398 26.8922L42.1259 28.3826L42.5026 28.8371L42.9027 29.4952L43.3647 30.1061L43.9179 30.6669L44.5771 31.0977L45.251 31.2364L46.3369 32.3137L46.9225 32.6501L46.8314 31.806L46.3369 31.0682L46.3457 30.6255L46.4311 30.2272L46.8343 29.8936L47.3198 29.7992L48.232 30.1061L49.7124 31.3841L50.3362 32.1277L50.8041 33.1548L51.1983 34.2203L51.7869 34.7515L52.5991 34.9374L53.5026 35.0141L54.3324 35.3418L56.2747 36.8174L56.9192 37.5109L57.4077 38.3255L57.7431 39.2905L57.9522 40.3029L58.0817 40.536L59.3292 41.7578L59.9856 42.2743L60.7861 42.5252L63.1256 42.7996L63.9466 43.2217L64.6293 43.9241L64.9147 44.6383L64.4292 45.2699L62.6016 46.2379L60.6507 46.9078L62.5488 46.6776L63.5081 46.3972L64.3909 45.9605L65.2649 45.4027L66.6539 44.6235L67.1688 44.4641L67.7752 44.5202L68.3253 44.7416L69.1494 45.506L69.9262 46.3146L70.506 47.2561L70.868 48.3038L70.2028 48.8527L69.2376 49.2571L67.9104 50.2694L67.7693 50.6708L68.0428 50.9275L67.7192 51.6712L68.4637 52.1317L68.5756 52.5212L67.9311 53.079L67.9929 53.4243L68.7697 54.8999L69.1406 55.2364L70.3264 55.986L72.1333 56.7445L73.134 57.0928L74.2698 57.3614L74.7553 57.3554L75.6058 57.2315L75.7795 57.5266L76.1444 58.9786L76.321 59.8994L76.5829 61.8561L76.9125 62.6677L76.8918 63.6593L77.3245 64.5034L78.2161 65.0436L79.1607 65.4833L79.6081 65.9141L79.6022 66.5634L79.4491 67.077L79.1312 67.4754L78.1484 68.3224L77.9718 68.6884L77.8335 69.621L78.0013 70.0489L78.3955 70.0725L78.7016 69.8482L79.8788 68.5969L80.1965 68.3785L80.6409 68.2014L81.0942 68.0892L83.2453 68.0804L84.1606 68.2781L84.9697 68.6854L85.685 69.196L88.3069 72.4572L89.5046 74.2574L89.5987 74.7061L89.6194 75.1723L89.4162 75.5324L88.3274 76.7631L88.1891 77.1025L87.8507 78.4424L87.9125 79.4075L88.2744 79.8118L88.5658 80.2515L88.5422 80.65L87.8243 82.6332L87.7507 82.9726L88.2038 86.1984L88.2362 87.072L88.1451 88.1787L88.2098 89.9613L87.6212 95.4744L87.5123 95.8019L87.062 96.6459L86.4706 96.6401L85.9908 96.4925L85.6584 96.1708L85.473 95.7724L85.2023 95.4448L83.7721 94.4266L83.3983 94.5949L81.9445 95.858L81.5591 96.0439L81.0736 95.8905L80.3084 95.5127L77.91 94.1846L77.7629 94.6096L77.7306 95.1851L78.2073 96.6313L78.275 97.2628L77.8395 97.3867L77.5952 97.3602L76.5976 96.522L75.6766 95.5923L74.6317 94.3351L73.8666 93.739L73.1781 93.0719L71.2358 90.5397L70.7297 90.1532L67.7192 88.3676L67.113 87.9427L66.3421 87.2048L65.5151 86.5466L63.6994 85.5108L60.5506 82.8841L59.1821 81.376L57.6608 78.9441L57.1635 78.3244L54.6061 76.5004L53.2113 75.3967L52.6286 74.7622L51.272 72.5516L50.8747 71.8079L50.3745 71.1498L49.5534 70.6156L48.8294 69.9899L47.3934 67.9919L46.9403 67.1951L46.5988 66.3332L46.6606 64.6067L43.6149 59.38L42.8498 57.7509L42.1405 55.4902L41.9846 55.263L40.3219 53.2384L39.7363 52.5891L39.0242 51.9812L38.4444 51.2698L37.2967 48.959L36.8701 48.3185L36.2727 47.8464L34.1008 46.9727L33.2916 46.4858L32.6529 45.7952L32.2616 44.9127L31.8319 43.0416L30.8049 40.1996L29.6574 36.3924L28.8803 34.6865L27.9947 33.3466L27.7357 33.0368L23.7923 30.6255L23.1184 30.2684L22.4033 30.0559L21.3822 29.9025L20.6023 29.2798L20.2846 28.1612L20.105 26.662L19.9108 25.7677L19.696 25.2601L18.0481 24.2006L17.4006 23.3624L16.8621 22.4387L16.3707 21.7244L14.5578 19.2572L13.9369 18.6109L13.1689 18.1593L10.8941 17.6812L10.2261 17.2709L9.12255 15.8691L8.45457 15.1548L6.4535 13.5818L3.07228 10.2912L2.38059 9.47065L1.86277 8.61484L1.44193 7.69698L0 5.15296L0.117647 4.63941L0.332464 4.10522L0.300133 3.66255L0.141176 3.22573L0.173506 2.83322L0.603141 2.60003L1.56551 2.30201L2.56308 2.3374L3.48719 2.4643L4.38166 2.70929L5.24111 3.24347L6.77716 4.59518L7.65116 5.06443L8.62233 5.29167L10.6175 5.60447ZM1.2801 0.785018L1.11827 1.0182L0.62667 0.897151L0.0853162 0.144556L0.285405 0L0.617869 0.0767365L1.25352 0.250835L1.30938 0.531211L1.2801 0.785018Z" fill="url(#paint0_linear_2_275)"/>
<defs>
<linearGradient id="paint0_linear_2_275" x1="80.136" y1="-13.5978" x2="337.055" y2="160.331" gradientUnits="userSpaceOnUse">
<stop stop-color="#8FFFF4"/>
<stop offset="1" stop-color="#3064FF"/>
</linearGradient>
</defs>
</svg>
