<svg width="152" height="138" viewBox="0 0 152 138" fill="none" xmlns="http://www.w3.org/2000/svg">
<path d="M6.22828 1.23606L6.39409 1.4567L7.67222 3.56401L8.23413 4.18354L8.56283 4.7096L8.78489 5.29512L9.17532 5.69117L9.6923 5.90611L10.3187 6.47187L10.7429 6.91316L11.4536 7.8268L12.2066 8.16622L14.9401 8.82529L16.46 9.13079L16.8983 9.21849L18.0614 8.77721L19.4239 8.8366L19.9295 8.85921L21.7303 6.99801L22.2781 6.37571L23.3514 6.05321L23.9553 5.30928L24.9246 4.4098L26.1072 3.56124L27.1945 2.79746L28.0261 2.33641L29.5318 1.25591L30.473 0.882477L31.2906 0.893785L32.5154 2.16109L33.5464 3.31229L33.864 3.81581L33.3527 4.2684L32.3974 4.70398L32.2148 5.02364L32.1502 5.43376L32.1867 5.82411L32.316 6.14376L33.4874 6.88199L33.6195 7.28935L33.6279 7.70232L33.4958 7.95973L33.2345 8.10967L32.4199 8.31616L31.7204 8.55657L31.4787 8.79137L31.2681 9.0714L31.299 9.3825L31.5097 9.73608L32.9396 10.6978L33.1025 11.0514L33.3863 11.5266L33.7374 11.8179L34.3331 11.8972L34.6197 12.0923L36.0019 13.8631L36.339 13.9876L37.9544 13.5972L38.179 13.6141L38.1931 14.047L38.4347 16.5531L38.6202 17.8458L38.8983 19.0988L39.3337 20.2416L39.8507 21.325L40.5642 21.9925L42.1487 22.7958L42.9184 23.0278L44.944 23.189L46.9442 23.5426L48.1242 23.9188L48.4865 24.1847L48.7844 24.592L49.7621 26.4816L51.3016 27.8252L54.4088 29.8363L55.9146 30.5039L60.9882 31.7654L64.3651 31.6947L73.6977 29.2593L76.7992 28.6511H77.9652L77.2713 29.1348L76.1053 29.412L76.8076 29.7542L77.8949 29.8109L78.3978 29.7542L78.7631 29.446L78.822 28.934L78.7685 28.4276L78.2545 26.1562L77.9566 24.5496L80.1453 24.6599L80.9964 24.4506L82.2494 23.9131L83.199 23.5879L83.6765 23.5426L84.1486 23.2908L84.5109 22.974L85.3257 20.7705L85.7329 20.2162L87.1152 18.9716L88.2895 18.1823L89.52 17.4809L91.0792 16.9915L93.1497 17.0424L94.7987 17.215L95.7539 17.2065L96.2063 17.2574L96.5461 17.1867L96.7428 17.0424L96.9563 16.075L97.2934 15.7582L97.875 15.4867H98.6897L99.6842 15.4159L100.51 15.481L101.55 15.8516L102.907 15.8827L103.811 15.8176L104.337 16.1882L104.716 16.6832L104.898 17.0962L104.941 17.6619L104.932 18.0919L105.075 18.2587L105.626 18.5161L106.393 18.7085L107.885 18.9404L109.287 19.3874L110.014 19.69L111.026 20.1624L112.231 21.3363L112.677 21.5202L113.217 21.6389L113.602 21.6079L114.506 21.1128L115.293 21.4777L115.692 21.4296L116.597 21.158L117.557 21.4976L119.951 22.7817L120.215 22.7535L120.431 22.8836L120.631 23.1777L120.771 23.5398L120.948 24.643L121.639 25.4491L122.485 26.1817L123.471 26.5833L125.53 27.5423L126.429 28.3202L127.339 29.6383L128.463 31.3723L128.626 31.5307L131.514 31.4769L134.762 31.4797L135.158 32.1727L135.085 33.5446L135.2 34.9504L135.492 35.9207L135.495 36.8145L135.262 37.2671L135.079 37.7848L135.026 38.011L135.442 38.3335L135.807 39.0746L135.86 40.107L135.68 40.6529L135.706 41.1055L135.888 41.4902L136.046 42.1323L136.018 42.5198L135.756 42.9046L135.599 43.3854L135.391 43.9935L135.315 44.4744L134.922 44.6979L134.61 44.8591L134.663 45.4673L134.821 45.9793L135.003 46.5846L134.795 47.0004L134.663 47.4784L134.374 48.245L134.453 48.8815L134.141 49.4217L133.748 49.8997L133.486 50.2816L133.433 50.8218L133.146 51.0114L132.599 51.4554L132.261 51.7722L131.764 51.8685L131.66 52.123L131.739 52.3748L131.947 52.5332L132.27 53.0819L132.944 54.0267L131 54.1455L130.43 54.9799L129.764 56.1736L130.09 58.5836L129.764 59.8197L129.961 60.5127L130.458 60.9907L131.096 61.2567L132.292 61.2736L133.085 61.4603L133.163 61.78L132.708 62.2466L131.981 63.1207L131.593 63.5025L130.354 65.2564L130.365 66.003L130.48 66.6056L131.014 68.4922L131.537 70.3167L132.472 73.5979L132.455 74.3588L132.163 76.0447L132.144 77.0687L132.276 78.3953L132.177 79.0798L132.408 80.6129L132.669 80.7232L134.694 81.0203L136.551 81.2946L139.026 81.6566L139.776 82.5534L140.243 84.5193L140.215 85.9873L140.004 86.7369L138.234 88.8725L136.436 91.0335L134.641 93.1862L132.781 95.4122L132.587 95.647L134.09 97.4234L135.02 98.5209L136.332 100.063L136.498 100.433L136.487 101.038L137.833 103.381L138.307 104.6L138.734 105.315L139.799 106.433L140.838 107.522L141.965 108.019L142.735 108.13L144.488 108.704L145.128 109.162L146.156 110.316L147.364 110.158H147.615L147.682 110.24L147.719 110.61L147.542 112.401L147.876 114.203L148.109 116.91L148.022 117.377L147.733 118.157L147.719 118.658L147.643 118.966L147.721 119.102L148.106 119.286L148.927 119.385L150.907 119.082L151.138 119.159L151.612 119.478L151.969 119.979L152 120.216L151.5 120.632L151.419 121.337L151.567 122.392L151.5 122.519L151.062 122.757L150.918 124.278L150.84 124.417L150.329 124.572L147.912 124.468L147.637 124.51L146.73 124.912L145.173 125.2L144.746 125.365L144.173 125.823L143.76 126.38L143.682 126.895L143.6 127.002L142.709 126.898L142.417 127.345L140.69 128.012L140.476 128.156L140.22 128.688L139.99 130.179L139.782 131.517L139.65 131.712L139.105 132.17L139.052 132.326L139.125 132.843L138.877 133.785L138.684 136.396L138.467 137.126L138.038 137.185L137.7 137.55L137.082 138L135.748 137.652L134.689 137.287L131.183 136.43L130.798 136.014L130.579 135.282L129.972 135.075L129.101 136.173L126.14 135.539L125.134 135.734L124.513 135.392L122.918 135.372L121.659 134.688L119.853 135.157L118.425 135.248L116.467 134.048L114.363 133.717L112.655 133.819L111.776 133.726L110.351 133.296L109.677 132.852L108.567 133.191L108.067 132.561L104.929 131.975L104.348 130.858L103.912 129.82L103.879 128.75L103.114 126.878L102.859 124.154L102.575 123.087L102.151 122.16L101.586 121.371L100.819 120.525L100.151 120.188L97.2176 119.543L96.653 119.628L95.341 120.05L93.9448 120.986L91.6522 121.518L91.1915 121.919L90.6157 122.824L89.8684 123.351L88.8458 123.215L87.7444 123.749L85.7021 125.24L84.6261 125.695L83.7243 125.662L82.755 124.954L80.589 124.004L79.1873 123.687L77.2432 123.905L76.3217 123.747L74.7568 122.629L74.3467 121.817L73.4533 121.274L70.6215 120.055L68.329 118.443L67.9077 117.832L67.6266 116.93L66.6294 115.832L64.3903 114.935L63.1204 113.979L61.6316 113.764L60.2466 113.795L59.6369 113.623L59.0835 113.213L57.1927 111.233L57.1703 110.449L56.0044 108.509L55.732 107.816L55.4818 105.889L55.1588 105.386L53.9424 104.591L53.7541 104.071L54.0127 103.378V102.852L53.3805 102.357L52.4309 102.093L52.2006 101.499L52.3748 100.343L52.2314 99.6156L51.3943 98.4531L50.1582 97.2621L48.9248 95.4971L48.4416 95.0558L48.127 93.8989L47.6746 92.5242L46.978 92.4252L43.601 94.0743L42.6151 93.1465L39.654 91.5342L39.4489 91.2909L39.2409 90.9204L39.6147 90.7054L39.9854 90.6177L40.73 90.9063L41.1766 90.5669L40.9997 90.0181L40.2552 89.6786L39.2438 89.7041L39.522 90.2189L38.5751 90.7054L38.3729 91.3419L38.5106 92.131L38.5921 93.2342L38.2071 93.766L37.9093 94.0121L36.6368 94.0772L36.0411 94.5637L35.6564 94.6796L35.1197 94.3006L34.7741 93.9923L34.4904 93.336L34.4033 92.8778L34.5128 92.6176L34.364 92.2357L33.9566 91.7294L33.5464 91.4522L33.1306 91.4013L32.7851 91.0929L32.5097 90.5272L31.8664 90.1538L31.4619 90.0803L31.4507 88.3294L31.4394 86.7934L31.4283 85.2632L30.0545 85.201L28.8183 85.1472V83.863V81.4672L29.4054 79.606L30.0039 77.8126L29.0935 76.4916L28.1244 75.0801L27.4951 74.4918L26.7562 72.7239L26.3883 71.9403L26.0623 71.6434L25.7111 71.4708L24.4217 71.5387L23.2164 70.5854L21.8034 69.4653L20.0756 68.0934L18.553 67.1967L17.9321 66.9988L16.4684 66.9308L16.3139 66.7583L16.2128 66.2662L16.2155 65.7174L16.6903 64.8886L16.7268 64.3653L15.7352 62.6059L15.429 62.0911L14.5805 61.8846L14.7491 61.3755V61.036L14.6282 60.7673L14.4315 60.64L14.1815 60.6258L13.5157 60.8352L13.0073 60.0375L11.4257 57.7661L10.9171 57.4889L10.8243 57.3333L11.2093 56.6347L11.861 55.5994L11.9734 54.9997L11.8497 54.3378L11.1474 53.0904L11.3189 52.5615L11.6194 51.9533L11.6447 51.495L12.1167 51.563L12.7208 51.5686L12.9118 51.1952L12.9005 49.8884L13.0438 49.4104L14.9598 47.1927L15.9122 46.6949L16.637 46.2366L16.8026 45.5691L16.6538 45.224L16.5106 44.7205L16.4655 44.3585L15.6677 43.3571L15.3895 42.8536L15.3559 42.3926L15.544 41.5779L15.8784 40.9443L17.0106 40.5709L17.654 40.2541L17.7411 39.9685L16.9067 39.5073L15.1255 39.3631L13.822 39.496L13.4062 39.3518L12.7882 38.4579L12.1308 37.9827L11.5155 37.6773L10.9171 37.7338L10.5546 37.6122L10.4704 37.2275L9.6052 34.2772L9.33256 33.8728L8.92806 33.7738L8.58821 33.7539L8.36342 33.5503L8.12182 33.1429L7.9476 32.6083L7.93646 31.904L7.97298 31.2987L7.85484 30.9084L7.55717 30.5208L7.1357 30.2407L6.76481 29.9126L6.11597 27.2962L5.85465 26.5919V26.5183L5.86596 26.3797L5.80132 25.7773L6.10191 25.2539L6.08219 25.0474L5.45855 24.3856L4.582 23.7236L4.34606 23.6076L4.3404 22.9005L4.37127 22.3659L4.29273 21.8822L4.12401 21.605L4.11852 21.3872L4.46969 20.8667L4.24215 20.5244L2.95253 19.6787L2.46933 19.2545L1.57597 19.1696L1.48338 18.8895L1.62381 18.2983L1.93006 17.5799L2.41326 16.8727L2.56775 16.4994L2.75585 15.8629L2.8205 15.4103L3.36268 14.7739L3.3656 14.607L3.21385 14.3779L2.78123 14.2506L2.3373 14.1968L2.17166 14.0809L2.11267 13.7386L2.16874 12.3469L2.02831 11.5097L1.8457 10.9015L1.96092 9.5296L1.65194 9.25241L1.16582 8.5311L0.957999 7.92011L1.07031 7.69101L1.17422 7.28935L1.24178 6.76036L1.22206 6.38702L0.775384 6.02213L0.443763 5.63739L0.404496 5.21312L0.272465 4.69268L0.0841914 4.27971L0 4.01099L0.162896 3.85258L0.794932 3.72811L1.71366 3.81581L2.46384 3.82142L2.88806 3.55555L3.41327 1.04658L3.89373 0.384654L4.44997 0L5.53726 0.893785L5.98668 1.20783L6.22828 1.23606ZM95.8803 122.021L95.1444 123.082L94.0346 123.967L93.5627 123.693L93.1946 123.704L92.4024 124.044L91.8321 124.103L90.7954 124.706L89.8515 125.008L89.197 124.986L88.9694 124.923L88.8401 124.513L88.8515 124.349L89.2503 124.434L90.7083 123.885L92.526 122.986L92.7003 122.584L92.4081 121.931L92.4866 121.783L93.6667 122.117L94.9842 121.467L96.0854 121.289L96.6024 121.741L95.8803 122.021Z" fill="url(#paint0_linear_2_313)"/>
<defs>
<linearGradient id="paint0_linear_2_313" x1="33" y1="-14" x2="165.5" y2="176.5" gradientUnits="userSpaceOnUse">
<stop stop-color="#8FFFF4"/>
<stop offset="1" stop-color="#3064FF"/>
</linearGradient>
</defs>
</svg>
