<svg width="162" height="191" viewBox="0 0 162 191" fill="none" xmlns="http://www.w3.org/2000/svg">
<path d="M96.6041 11.1345L96.3266 12.2709L95.7472 12.5539L94.735 13.2171L93.5762 14.1243L92.4956 15.1435L92.2035 16.2508L92.5004 16.9725L92.7924 17.2213L93.1867 17.0018L93.7613 17.1384L94.4818 17.5335L95.6839 17.9187L95.7181 18.2991L95.465 18.7868L94.5302 19.6501L93.6882 20.6256L93.6053 21.2205L93.7078 21.6547L93.9999 21.918L95.246 21.801L95.4308 22.157L94.8223 24.659L95.0122 25.0834L96.1076 25.4833L96.906 26.0831L98.4005 27.6633L98.9944 28.9411L98.5853 29.3704L97.6458 29.5801L96.8816 29.4728L97.748 28.7021L95.6305 25.8929L94.6717 25.8978L93.4009 27.0878L89.8669 25.8832L89.1902 26.3708L88.6888 27.3219L87.4622 28.5022L85.7243 29.0191L83.7869 30.3166L81.7472 31.2334L80.1894 31.926L79.2937 31.8041L80.7151 30.3067L80.1116 30.2776L78.2228 31.3358L77.1373 32.2284L76.7867 33.7305L76.4704 36.1984L77.2979 36.852L78.7485 40.1001L80.5351 41.4852L80.1894 42.807L79.7173 43.8507L78.6365 44.753L77.7409 44.0848L77.1908 44.0994L76.777 46.2113L77.551 51.8249L78.7973 55.7461L80.0337 57.4532L82.823 60.1015L85.7729 61.4962L91.079 65.9394L93.9901 67.344L94.7543 68.1049L96.5165 71.514L98.0401 75.4401L99.6807 81.5756L100.849 84.5848L103.205 87.9794L108.092 92.8176L112.537 96.3438L116.675 98.5189L119.902 98.8994L127.54 98.4214L128.869 98.6262L130.281 99.2115L130.616 100.719L130.1 101.733L128.494 102.786L126.858 104.245L126.678 106.23L128.207 107.625L135.577 111.317L143.112 114.394L145.459 115.96L148.18 118.393L154.747 121.729L155.857 123.349L159.848 126.826L161.654 129.504L162 131.577L161.138 133.679L160.739 135.156L160.063 136.615L158.364 136.063L156.431 134.561L153.52 128.445L148.209 127.826L147.109 127.372L145.22 126.319L145.108 125.621L144.641 124.753L144.159 124.461L142.129 124.266L140.722 125.26L139.067 127.616L137.188 130.996L135.28 135.937L135.173 137.927L136.21 139.853L139.305 140.926L141.696 142.638L143.273 144.423L143.385 148.72L144.091 151.154L143.054 152.534L141.044 152.178L138.366 153.056L136.468 154.626L135.679 156.118L135.883 159.981L135.494 161.449L131.897 164.219L130.008 167.048L129.536 168.219L128.815 169.545L124.274 169.594L123.198 167.951L123.159 165.507L123.937 164L125.607 163.293L126.732 160.152L126.377 157.879L127.033 156.87L127.652 156.158L128.922 155.738L130.719 155.338L130.899 152.153L129.497 150.705L129.005 148.671L128.353 144.906L126.04 140.082L124.804 135.766L123.835 133.63L122.365 132.513L119.712 132.528L118.393 132.211L113.7 129.196L113.374 128.738L113.403 127.933L114.182 126.719L113.656 125.075L113.101 123.519L112.182 122.193L111.174 121.5L109.061 121.925L108.321 122.251L106.987 122.139L105.941 122.729L105.357 122.749L107.002 120.413L106.559 119.861L104.933 118.901L102.723 118.754L102.11 118.637L101.75 119.237L101.321 118.91L101.365 117.867L98.7995 113.175L97.0762 111.258L96.2051 110.917L94.6324 111.322L91.9991 110.483L90.4268 110.297L89.5603 110.502L88.2653 111.112L87.6131 110.707L87.3842 110.078L84.994 108.122L82.0101 107.015L76.2026 100.758L74.4209 98.4116L70.7554 95.8219L68.4382 92.0372L66.5398 90.6472L63.7796 89.5303L63.142 89.6717L62.3144 90.0912L61.662 90.1497L61.1461 89.6572L61.6719 89.1499L62.2609 88.9207L62.0321 87.4673L58.8874 83.6924L57.0473 82.4731L56.5264 81.7219L56.1418 80.6928L55.7475 80.015L54.8762 79.6248L54.1314 79.6931L53.1042 79.4345L53.1384 77.6105L53.3428 76.2108L53.187 75.0207L52.1842 71.8847L50.4513 69.2218L49.4289 62.8278L48.6404 61.0183L46.7224 59.6478L42.3949 58.1067L36.3635 53.9562L35.0881 53.8831L31.4615 52.2639L29.2125 51.9858L26.2917 53.4393L22.743 57.4287L19.866 61.5596L18.8194 62.3595L15.1052 63.7643L11.8243 64.4324L11.7901 63.3789L11.6733 62.584L12.2282 61.7109L13.1435 60.6818L13.9856 59.3845L14.3361 58.448L14.1706 57.8238L13.7909 56.8971L13.2748 56.8289L10.1496 57.6091L9.43399 57.4093L7.12185 56.1949L4.63425 54.7025L3.71914 53.6391L3.37344 52.5662L3.63149 51.8736L3.42707 51.2006L2.94025 50.2934L3.37835 49.2643L4.15233 47.9816L4.54185 47.1087L5.19402 46.8844L5.50569 46.3527L4.9847 44.2262L4.71209 43.8848L4.26434 43.6215L3.5731 43.5922L2.36578 43.1532L1.50905 42.4168L1.32409 41.4218L0.871438 40.4659L0.0973051 39.5881L0 38.6272L0.881094 38.1199L2.08352 38.1004L2.93044 38.2906L4.82901 36.7446L5.5299 36.608L6.158 36.2764L6.68375 34.1597L7.08768 33.5257L7.18513 33.1551L6.81017 32.7112L5.27691 31.2188L4.57587 29.6581L3.4709 27.9071L2.44377 27.1317L2.23445 26.527L2.21009 25.7612L2.41941 25.0834L4.2789 24.0299L5.37912 22.9081L5.85123 23.3373L6.854 23.7957L9.57527 23.1715L11.2644 22.5422L12.4522 21.879L13.1873 21.996L15.8548 22.9861L16.7359 22.4837L18.6588 21.1425L18.946 20.4354L20.4648 18.2894L20.4939 17.7676L19.8709 16.4166L20.0657 16.119L21.9252 14.7339L22.8355 13.5048L23.8237 12.6807L24.5344 12.6612L24.729 12.944L24.8119 13.5196L24.7486 15.8898L25.0212 16.6165L26.4816 18.3138L27.5232 19.2795L29.9427 19.9427L30.0547 20.2598L29.3876 21.5326L30.853 23.0544L31.1158 24.1664L31.7925 24.7907L32.7465 24.4834L33.0582 23.8932L32.6832 22.8642L32.4059 21.7863L32.4594 21.162L32.7223 20.4451L33.3892 19.4404L35.2 17.1384L35.8523 15.8069L35.9692 13.7439L35.9741 12.0856L36.5777 11.6808L37.8774 11.9783L38.2668 11.9442L38.4421 12.9635L38.9969 14.5876L39.6492 15.4265L40.3454 15.6264L41.1632 15.6313L43.1883 14.6412L44.5075 14.2121L45.2571 14.3291L45.7001 15.0021L46.6445 16.7726L47.1848 16.9725L47.8371 16.7677L48.0659 16.4654L47.8566 15.7825L47.5791 14.3047L47.1995 13.1586L46.7029 12.6221L46.6007 11.9247L46.9122 10.6663L47.2676 9.61296L47.9588 9.3251L48.7524 9.19338L49.799 10.3103L51.0403 10.6615L51.9651 10.6029L52.1258 9.95425L52.0675 9.2422L51.5174 8.32535L51.6245 6.93533L52.2621 4.34061L52.6272 4.54065L53.9999 4.56506L55.4944 4.71137L56.4582 5.76962L57.4026 6.13056L58.7462 6.24278L59.6467 6.09647L60.0848 5.69654L60.6058 4.45775L61.5696 2.92143L63.0787 2.13124L65.6587 1.98493L66.9486 1.69722L68.2874 1.71181L69.2951 1.95084L70.3368 1.92152L72.985 0.848535L75.7159 0L76.0954 0.141398L76.154 0.424342L75.6623 1.0779L75.1852 1.94593L75.5064 2.93601L77.0593 4.92109L77.9064 6.43791L78.7047 7.57415L79.9461 8.17413L81.5768 8.53997L82.9592 8.67155L84.405 9.1008L89.3655 10.1592L91.8627 10.4518L93.7563 10.4957L96.6041 11.1345ZM80.0093 61.8621L80.4134 60.8866L80.2625 60.1893L79.4058 60.3307L78.802 61.2379L79.2061 62.0035L80.0093 61.8621ZM79.3814 99.1628L79.3716 99.0165L79.2694 99.0311L79.2256 99.1189L79.2694 99.1774L79.3814 99.1628ZM51.459 81.4391L51.9116 82.161L51.9651 82.5804L51.6585 83.0583L51.7851 84.1313L50.6412 83.2387L48.913 83.6875L47.8517 83.59L47.5596 82.7901L47.8031 82.3219L49.4484 82.2195L49.9596 81.9903L50.9623 82.0976L51.459 81.4391ZM41.027 117.633L41.7133 118.784L43.2467 123.495L43.3927 124.509L43.0861 125.548L42.6966 126.285L41.173 128.645L41.3969 130.591L41.9615 131.796L42.0443 133.127L41.762 134.776L40.8177 144.867L40.3601 146.647L40.0728 148.183L39.0311 148.652L37.6875 148.159L35.9935 147.291L35.2098 147.344L34.4212 147.642L33.7737 147.388L33.1555 146.896L32.693 150.339L31.9287 151.734L30.7654 152.626L29.67 152.68L28.5407 152.383H27.5865L26.8613 151.724L26.2868 150.563L25.3717 149.154L24.4419 147.481L24.3397 145.964L24.1791 142.614L24.4468 141.882L24.8361 141.18L25.026 139.678L24.8947 138.366L25.1673 137.897L25.7076 138.366L26.1117 138.19L26.0873 137.512L26.209 136.278L25.4983 135.244L24.2958 134.893L24.1791 133.81L24.3056 132.752L24.9385 132.04L25.1526 131.094L25.1575 128.201L24.3104 127.133L23.9843 125.514L23.5462 124.48L22.7575 123.436L21.8619 122.588L21.3118 121.768L21.1901 119.623L21.5016 117.828L21.784 117.057L22.0712 117.169L22.9572 118.062L23.6824 118.262L25.1185 118.476L26.5303 118.189L28.2632 117.374L29.9328 116.389L32.3523 113.487L33.8418 112.897L34.6062 112.131L34.869 111.097L35.5018 110.829L36.2467 111.834L37.1715 111.941L38.5979 112.77L39.2112 113.56L39.7369 114.511L40.2432 114.931L40.7835 115.17L40.8615 115.394L40.433 115.618L39.9413 116.706L40.2188 117.018L41.027 117.633ZM22.6408 114.784L22.1881 115.609L21.5454 115.55L21.7986 114.94L22.3925 113.716L23.113 113.307L23.4342 113.672L23.0934 114.375L22.6408 114.784ZM99.8608 120.813L99.2523 120.969L98.8969 120.754L98.7023 120.481L98.9406 119.803L100.182 120.208L100.167 120.588L99.8608 120.813ZM25.2791 149.92L24.4906 151.656L23.6679 150.427L23.6339 149.373L23.7457 149.071L24.7583 149.515L25.2791 149.92ZM122.244 164.707L121.319 166.678L120.866 167.433L117.57 172.238L117.191 173.345L116.957 174.549L116.616 175.603L116.159 176.593L115.725 177.851L115.808 179.275L115.964 179.973L116.363 180.431L117.015 180.86L117.517 181.524L116.748 182.124L117.59 183.328L118.31 184.04L118.408 184.752L118.393 185.465L116.899 186.801L116.314 187.537L115.954 188.43L115.798 189.347L115.959 190.176L115.91 191L114.406 190.898L112.868 190.39L111.315 190.61L109.105 189.654L108.302 189.483L107.572 189.108L105.736 186.142L104.257 184.889L102.669 183.909L101.049 183.85L99.4276 183.962L97.9964 183.358L95.0805 181.333L91.9893 179.709L90.6799 178.656L90.0809 177.944L89.3801 177.471L87.6131 177.003L86.0212 175.9L85.3008 175.822L83.7479 175.954L82.9496 175.876L82.1463 175.486L80.5984 174.193L79.6053 172.398L79.3472 171.604L80.0483 169.55L80.8806 167.575L81.6157 167.024L82.4724 166.624L82.9885 166.039L83.4266 165.322L85.0184 167.39L85.7291 167.892L86.4496 167.78L87.725 167.038L87.8321 166.224L89.2438 165.195L91.0353 165.175L91.8627 165.366L92.2959 166.297L92.9775 166.585L93.7661 166.707L96.3655 168.477L97.0958 168.765L97.8309 168.814L99.851 168.072L101.399 167.79L104.646 168.199L106.398 167.755L107.625 167.702L109.412 167.019L110.785 165.883L111.5 165.6L112.269 165.517L114.129 165.59L115.998 165.848L116.782 165.58L117.439 164.834L118.198 164.497L119.031 164.722L121.187 163.444L122.141 163.356L123.047 163.849L122.244 164.707ZM74.0801 189.844L73.423 190.034L72.5663 189.449L72.5078 188.63L72.6636 188.386L73.7053 188.761L74.0315 189.522L74.0801 189.844Z" fill="url(#paint0_linear_2_265)"/>
<defs>
<linearGradient id="paint0_linear_2_265" x1="57.5" y1="11.5" x2="151" y2="191" gradientUnits="userSpaceOnUse">
<stop stop-color="#8FFFF4"/>
<stop offset="1" stop-color="#3064FF"/>
</linearGradient>
</defs>
</svg>
