<svg width="204" height="229" viewBox="0 0 204 229" fill="none" xmlns="http://www.w3.org/2000/svg">
<path d="M180.155 23.1034L181.644 23.1875L182.308 23.1117L183.446 23.3599L187.96 25.847L189.321 26.1627L190.73 26.2006L191.72 25.9986L192.591 25.3168L195.315 22.2995L198.184 19.5431L198.501 19.6483V20.41L198.289 21.2558L197.02 23.7766L195.612 27.1601L195.311 28.8686L195.768 30.5308L196.652 31.9027L197.35 33.7754L198.154 36.3719L199.288 36.7001L199.905 36.738L201.039 35.9595L202.109 34.9705L203.031 34.8485L204 35.0169L202.727 35.707L201.525 36.5486L200.493 38.1394L200.108 38.4381L198.92 38.3413L198.239 38.4002L196.847 39.0652L195.624 39.8184L194.457 40.74L193.184 41.2324L191.826 41.3503L189.732 42.1035L188.374 42.1582L185.823 41.5017L184.584 41.6784L181.881 43.1598L179.419 45.2976L177.266 47.6921L175.468 50.5621L174.745 52.0519L174.309 53.7183L174.25 54.8208L174.089 55.8771L173.675 56.6135L173.175 57.2111L171.691 56.8618L169.254 55.3384L164.529 53.1207L159.537 49.7162L156.729 48.0035L151.45 48.5168L146.454 51.7824L146.01 51.5048L144.102 49.2659L143.176 48.378L142.072 48.1255L141.251 48.1549L140.456 48.319L139.326 49.4722L138.912 50.3012L138.59 51.2438L138.493 51.9087L138.628 52.5611L139.699 54.0338L141.018 55.128L141.615 55.3343L142.879 55.2585L143.468 55.3722L145.587 57.5646L147.909 59.6182L148.421 60.2957L147.562 61.007L146.623 61.3604L145.528 61.272L144.444 61.0027L142.592 60.1316L141.797 60.8722L140.561 62.3915L139.88 64.0411L139.326 64.7944L137.964 65.7875L136.522 66.3009L135.764 66.1325L135.189 65.5098L134.864 64.7649L134.699 63.8979L135.003 62.0211L135.752 60.3251L136.039 58.5914L135.426 56.1464L135.037 55.633L133.506 54.198L132.795 52.7967L132.626 51.0503L132.715 50.0866L133.087 47.953L133.459 46.8757L134.161 46.5221L134.931 46.3075L136.111 45.5332L137.41 44.5316L138.654 43.387L139.884 41.9857L140.523 40.4454L139.47 38.5518L139.25 37.4239L139.407 36.3593L140.532 35.7911L141.687 36.2203L144.017 37.7858L144.47 37.9415L146.069 38.0132L148.26 38.354L149.529 38.2698L150.143 38.0341L151.065 36.7423L151.517 35.0926L151.352 32.9674L151.344 30.8549L151.928 29.1295L153.755 26.3479L154.279 24.7066L154.47 20.7004L155.13 18.9329L155.658 17.0939L155.912 13.2308L155.164 9.5022L154.411 7.66738L153.548 5.92105L153.675 4.25037L154.373 2.69745L154.389 2.23036L154.554 1.81375L155.862 1.51914L156.475 1.18678L157.063 0.437674L157.761 0L158.273 0.437674L158.696 1.2036L160.54 3.08465L163.446 6.43437L166.868 11.5222L169.013 13.9925L171.272 16.2271L173.806 18.5079L176.458 20.4647L178.15 21.3905L179.389 22.8635L180.155 23.1034ZM147.486 2.95841L147.029 4.01895L146.412 2.44085L146.289 0.73652L146.644 0.744868L147.296 1.00159L147.452 1.83058L147.486 2.95841ZM150.13 6.52697L149.309 6.64486L148.349 5.94623L148.231 5.07101L148.924 4.37237L149.614 4.62909L150.303 5.52961L150.532 6.00094L150.13 6.52697ZM128.595 55.9234L128.324 56.0075L128.045 55.8729L127.77 54.6735L128.006 54.0423L128.772 53.6004L129.517 53.4784L128.886 55.6835L128.595 55.9234ZM149.347 67.0879L149.813 67.3824L152.029 66.587L151.606 68.99L151.369 71.4097L151.53 75.416L151.729 77.2171L152.114 78.9593L153.061 80.2049L154.297 81.0887L156.086 83.9041L157.046 87.3547L157.723 89.0254L158.23 90.7761L158.387 91.5757L158.4 92.3753L158.247 93.4693L158.417 94.3531L158.222 97.1221L157.422 100.316L157.321 101.945L156.623 102.269L156.2 103.022L155.84 103.371L155.438 103.641L154.859 103.708L154.44 104.015L154.275 104.878L154.009 105.673L153.501 106.41L153.103 107.218L152.778 109.187L152.659 111.203L152.173 112.608L150.993 112.975L149.643 112.954L147.913 113.602L147.541 113.984L146.175 116.434L145.781 117.869L145.769 119.409L146.149 121.303L146.665 123.15L147.054 126.58L146.644 131.79L146.247 133.452L145.379 134.575L144.719 135.097L144.153 135.737L143.417 137.424L142.198 140.783L142.101 141.624L142.105 142.495L141.775 143.632L141.564 144.747L141.763 146.043L142.139 147.255L143.772 150.356L144.411 151.274L145.13 152.107L142.342 153.029L141.843 153.454L140.185 155.213L139.656 156.879L139.699 158.722L139.424 159.383L138.971 159.955L138.497 160.334L136.644 161.176L135.46 162.013L134.284 163.322L133.819 164.004L132.909 163.785L132.376 163.179L132.901 162.421L132.74 161.525L132.998 159.223L132.706 158.297L133.654 157.595L134.102 156.475L135.084 155.579L135.79 154.783L135.913 154.135L135.282 153.437L134.614 152.932H133.692L132.804 153.079L132.224 153.744L132.034 154.649L132.08 155.07L132.004 155.436L130.608 156.673L130.79 157.965L131.2 158.621L131.725 158.933L131.568 159.375L130.904 160.414L130.443 160.515L129.593 159.059L128.527 158.264L127.207 158.268L125.853 158.558L124.825 159.526L124.487 160.33L124.267 161.159L124.343 163.175L123.916 164.858L123.078 166.335L122.689 166.874L121.67 167.875L120.963 168.006L120.464 167.551L120.058 166.861L120.574 164.336L120.553 162.914L121.746 162.19L120.769 161.18L119.567 160.772L117.88 161.31L117.402 161.921L117.076 162.737L116.166 163.772L115.168 164.736L114.03 166.386L113.269 168.334L110.773 167.699L109.415 167.555L108.041 167.606L105.604 167.366L102.931 167.766L99.8848 168.532L100.067 167.98L102.571 166.806L102.66 166.461L102.419 165.818L101.797 165.788L100.299 166.011L99.5337 165.914L99.2249 165.224L98.7173 164.93L98.3791 165.211L98.4891 166.55L98.1209 166.727L97.626 166.381L97.7824 165.338L97.4483 163.81L97.406 162.859L97.9306 162.043L97.3934 161.698L96.8266 161.828L96.1073 162.219L95.473 162.775L94.132 165.565L93.6117 167.156L94.5931 168.431L97.2748 170.211L97.7318 170.648L97.7404 171.406L97.4145 172.21L96.687 172.559L93.747 173.152L91.1964 174.301L90.4603 175.463L88.1421 179.949L86.2853 183.008L83.6626 184.06L80.7862 183.122L80.0881 182.057L79.5255 180.74L78.4553 179.549L77.4866 178.249L76.924 176.704L77.0128 174.213L76.5941 172.711L76.9705 172.311L78.5568 171.393L79.077 170.88L79.974 169.685L80.2954 169.02L80.3419 168.014L79.6228 167.488L77.7616 167.505L75.9045 167.821L74.5805 167.383L72.8589 166.163L72.326 165.902L70.4731 165.826L69.1491 166.053L67.8504 166.495L66.4756 166.638L66.0189 166.87L64.4326 168.363L63.1677 169.302L62.0764 169.769L59.7202 169.891L58.5401 170.194L57.3049 170.686L56.9579 170.644L55.6551 171.326L54.1577 171.915L53.3624 172.504L51.8947 172.117L48.9927 173.173L47.5884 173.304L46.1418 172.719L44.7964 171.772L43.5063 172.18L42.6223 173.573L42.1908 176.342L41.6874 177.588L41.535 179.082L40.8669 178.846L36.9835 176.157L36.7171 176.06L33.5783 176.523L32.7705 176.746L31.7594 177.289L30.6893 177.533L29.7164 177.142L28.7815 176.506L27.8846 176.696L26.9668 177.142L26.6115 173.077L26.7933 172.542L27.3559 171.831L27.9778 171.221L29.4965 171.01L31.0319 171.208L32.1317 170.931L33.0622 170.122L34.0395 168.978L35.1434 168.044L36.6409 167.307L38.0875 166.461L39.3609 165.275L40.5663 163.974L41.6747 163.019L42.8804 162.219L44.7161 160.292L47.1485 158.125L48.0834 156.517L48.6627 156.075L50.7569 155.179L53.5359 154.489L54.8473 154.523L56.1415 155.932L56.8397 155.739L57.5502 155.373L58.98 155.171L60.4522 155.406L61.8902 155.41L63.3286 155.234L66.0865 154.771L67.5416 154.211L68.9629 153.487L74.0223 152.978L77.4866 151.762L78.0365 151.85L78.5694 152.128L78.6118 153.029L78.1718 154.009L78.5991 154.603L79.3014 154.969L82.5628 155.082L83.4933 155.293L84.8554 154.624L86.1414 153.795L87.4822 152.7L88.4215 151.467L87.5542 149.923L87.364 148.231L88.0915 146.392L89.1446 144.844L90.3968 143.905L91.5517 142.824L93.8867 139.752L95.5745 137.26L96.1835 134.188L95.8282 130.544L97.3045 127.825L98.7173 127.358L101.522 126.117L102.994 125.755L103.214 126.298L103.172 127.009L100.968 129.29L99.7031 130.228L98.9499 130.519L98.2562 130.931L97.973 131.735L99.0981 133.073L99.3816 134.062L99.3096 135.009L99.3605 135.863L100.629 136.789L102.089 137.096L102.698 137.088L103.231 136.844L104.897 134.575L105.27 134.18L110.007 132.513L112.338 131.238L113.628 130.906L114.838 130.241L117.554 127.674L118.552 126.487L119.462 125.174L120.189 123.647L120.765 121.993L121.551 120.962L125.853 118.5L127.237 117.158L127.677 116.505L128.21 114.616L128.578 112.651L129.098 111.106L129.804 109.658L130.748 108.181L131.809 106.805L132.435 105.396L133.349 102.016L133.747 100.139L134.06 99.4619L134.517 98.8937L134.914 98.1699L135.219 97.362L135.358 96.5624L135.553 94.1132L135.434 92.2026L134.724 90.5824L134.136 90.1238L133.497 90.0985L132.533 90.2374L131.716 89.5767L131.885 88.9918L132.719 88.8823L133.286 88.5794L133.696 88.0281L134.462 86.2564L134.919 84.3543L134.961 83.5126L134.36 81.9766L133.886 80.1292L133.874 79.1319L134.394 77.9788L135.139 77.0404L135.803 76.8215L136.522 76.7542L137.177 76.3923L137.786 75.8663L138.129 75.2855L138.662 73.7032L138.869 72.8027L138.531 70.3787L138.878 69.7138L139.369 69.3014L140.024 69.6127L140.701 69.6759L141.488 69.5791L142.241 69.8358L142.38 70.4587L142.854 74.549L143.125 75.1004L143.675 75.5296L144.292 75.4665L144.825 74.8311L145.185 73.9851L145.895 73.8084L148.066 74.7174L148.835 74.0694L149.334 73.0635L149.77 71.2834L149.559 69.6759L149.038 69.0784L148.501 69.1835L148.028 69.6255L147.494 69.8654L144.292 70.7112L144.309 68.9185L144.994 66.2251L145.371 65.3709L145.913 64.967L147.258 65.4383L147.913 65.7496L149.347 67.0879ZM115.092 121.311L113.963 121.349L113.683 121.202L114.365 120.831L114.428 120.213L114.838 119.11L114.83 118.795L113.933 118.736L113.98 117.486L114.648 116.249L116.488 114.3L116.991 113.934L117.067 114.788L116.509 116.804L116.399 117.532L117.846 117.684L116.915 120.095L115.092 121.311ZM56.0486 145.147L55.5072 145.689L54.492 145.513L53.9039 144.726L54.0985 143.838L55.1602 143.156L56.1754 144.524L56.0486 145.147ZM128.298 166.478L128.171 167.151L127.541 167.004L127.241 166.567L127.279 165.78L127.943 165.775L128.298 166.478ZM8.73926 171.797L8.49812 172.483L7.69439 171.999L7.32648 171.562L8.07521 169.403L7.98639 168.582L8.03287 168.182L9.51768 167.051L9.77561 167.265L9.86442 167.581L9.73352 168.065L9.80943 169.134L8.69278 170.901L8.73926 171.797ZM74.5975 172.727L73.3115 173.939L72.1949 173.855L71.6364 173.312L71.4503 172.643L72.5119 171.591L73.4256 170.102L74.2549 169.441L74.9231 169.07L75.4477 169.083L74.2717 171.162L74.5975 172.727ZM67.6981 169.946L67.4784 170.228L67.2667 170.152L66.5097 170.804L66.3488 170.177L65.7524 169.761L65.6804 169.432L67.3852 169.218L67.9351 169.39L67.6981 169.946ZM67.7616 173.182L69.4073 173.775L71.0865 173.607L71.0612 176.203L71.3023 177.075L71.7717 177.853L71.5306 178.985L72.292 179.372L70.0331 180.66L67.9986 182.368L67.1611 183.517L66.4038 184.75L65.9639 186.055L65.6804 187.456L64.9993 186.901L63.0366 184.624L61.7929 184.001L59.7923 183.669L59.1576 183.745L55.0461 185.87L54.5003 187.423L53.3795 189.758L52.8463 190.528L52.2541 190.751L51.8353 191.151L51.3786 193.137L50.1052 194.358L49.3226 194.396L47.9945 194.059L47.3938 194.248L48.189 192.292L46.92 192.052L45.6469 192.094L45.6172 190.819L44.8473 190.095L45.4184 189.152L45.4352 188.382L45.7695 187.957L45.8836 187.338L45.8372 186.808L45.0546 186.648L44.5767 186.274L44.6655 184.877L44.2171 184.826L43.1004 185.07L40.7822 186.148H40.152L41.1207 185.377L43.1807 184.325L44.1071 183.719L46.1289 182.019L47.4023 181.215L48.0622 179.789L48.2695 178.922L48.7009 178.156L49.0815 176.931L49.7332 176.523L50.871 175.471L51.5224 175.572L52.2499 176.864L53.2272 177.853L53.9294 177.769L55.1857 177.26L55.7948 177.146L57.2458 177.209L58.5527 176.582L59.0859 175.842L59.2847 174.916L58.7982 173.363L59.4241 173.519L60.029 173.455L61.4462 172.466L62.9054 171.877L64.4155 171.73L66.1162 172.29L67.7616 173.182ZM7.48294 175.071L6.7089 175.648L6.37894 174.768L6.71742 172.269L8.16816 172.782L8.14285 173.548L7.48294 175.071ZM46.645 175.189L46.3024 175.757L45.2493 175.585L45.6722 175.092L45.9936 174.495L46.2306 174.373L46.4294 175.021L46.645 175.189ZM42.9354 177.601L43.5148 178.122L44.8896 177.912L45.0587 178.059L44.657 178.531L44.048 178.998L42.9481 178.648L42.2543 178.632L42.157 177.853L42.2458 177.571L42.9354 177.601ZM29.9829 182.444L31.5774 182.865L32.2544 182.89L32.8761 182.701L33.8321 182.15L34.8261 181.741L35.5411 181.948L36.1715 182.44L36.5012 183.134L36.3406 183.858L35.2111 185.415L34.2806 187.073L36.4124 187.385L38.5445 187.351L38.0496 188.374L37.9649 189.266L38.6163 189.691L39.1706 190.263L39.0268 190.781L38.7095 191.29L39.8729 192.056L39.7967 192.569L39.4962 193.108L36.5903 196.618L35.7357 198.389L35.1434 200.338L34.5979 201.76L34.2003 203.237L33.8998 204.828L33.3584 206.469L33.5404 207.921L33.3584 209.411L31.8991 213.08L30.8584 213.013L29.5514 212.571L28.7348 212.638L28.3119 213.451L29.0606 215.121L26.7341 217.103L24.1621 218.433L24.1453 217.827L24.3906 217.352L24.7585 216.969L25.0252 216.506L25.4017 214.949L25.2155 213.379L24.4371 211.41L24.3821 210.703L24.9194 210.416L25.279 210.332L25.4734 210.059L25.482 209.407L25.2367 208.922L24.5006 208.767L23.7983 208.758L23.3034 209.491L22.6226 210.9L22.2926 212.327L22.4364 213.106L22.7367 213.804L23.6716 214.97L23.4007 215.66L23.0117 216.194L19.7121 214.978L18.9972 214.89L18.4051 214.633L17.7705 213.03L19.1157 212.643L19.5133 212.449L19.6615 211.936L19.8432 210.37L19.2171 209.057L18.6842 208.59L18.2528 208.056L18.5234 206.949L18.3458 205.552L18.329 203.599L18.5616 203.262L19.8094 202.867L20.7105 201.819L21.5057 200.624L22.669 198.52L23.6251 196.243L22.707 196.146L21.9288 195.717L22.7746 194.64L22.5126 193.276L21.2434 191.601L20.5455 189.623L19.4245 188.748L18.8324 188.428L18.109 188.891L17.5167 189.447L18.0667 190.734L17.999 191.875L18.0878 193.003L18.6463 193.066L19.3356 192.784L19.8856 192.982L20.207 193.575L20.2958 194.337L20.0506 195.09L19.5471 195.465L18.9295 195.435L18.3078 195.027L17.8214 194.446L16.658 194.126L15.4314 194.812L14.268 196.209L13.274 196.916L13.7392 195.881L13.9636 194.762L13.4813 193.975L12.3391 192.666L12.0727 191.909L12.005 190.991L12.208 190.082L13.3755 191.126L13.9763 192.426L14.8391 192.999L15.9178 193.003L15.0888 191.092L14.7926 190.608L13.6336 189.75L12.043 188.306L11.0363 187.608L11.3916 186.097L11.988 185.798L12.4873 185.87L14.1707 186.404L14.3274 185.651L14.0777 185.247L13.9507 184.78L15.0632 184.128L16.878 183.589L17.2503 183.336L17.5717 182.794L18.0158 182.512L19.285 182.52L20.3552 181.998L21.2392 180.588L21.4507 179.814L21.7639 179.166L23.9677 178.021L24.5133 177.845L25.9895 177.988L27.3347 178.636L27.999 179.999L28.5827 181.455L29.9829 182.444ZM13.6125 180.378L12.7917 180.963L12.1741 180.508L12.4744 179.246L12.6776 178.825L13.3799 179.242L13.6125 180.378ZM9.99997 187.793L9.16655 188.454H8.56163L9.11156 187.679L9.18772 187.313L9.64884 186.274L10.5499 185.903L10.9305 185.857L10.1944 186.935L9.99997 187.793ZM5.07615 193.154L4.78001 193.306L4.39919 192.043L4.13274 191.593L4.57682 191.353L5.46936 189.06L5.63021 189.969L5.97721 190.869L6.32395 191.012L5.98547 191.669L5.49054 191.913L5.07615 193.154ZM132.867 190.133L132.66 190.28L132.089 189.821L132.004 189.413L132.105 189.161L132.478 189.106L133.248 189.607L132.867 190.133ZM0.190281 193.945L0.651395 194.324L1.32397 194.11L1.86125 194.059L2.24619 194.24L2.73261 195.212L2.91024 195.789L2.04301 195.869L1.67509 196.003L1.20133 196.706L0.520239 196.445L0.0929444 196.113L0 195.645L0.190281 193.945ZM17.0133 201.667L16.0743 202.164L15.9558 201.689L15.5582 201.47L16.2392 200.801L16.2139 200.498L15.7825 200.047L16.2816 198.339L16.1463 197.602L18.0202 197.329L18.3628 198.023L18.3966 200.127L17.0133 201.667ZM20.5581 198.97L19.5091 199.033L19.0733 198.869L18.9001 198.427L20.372 197.531L21.5142 197.691L21.0066 198.499L20.5581 198.97ZM12.6902 209.6L12.3179 209.84L12.555 208.754L13.5108 207.803L13.5913 208.418L12.6902 209.6ZM27.4279 226.883L26.3871 227.026L26.366 226.235L27.1909 224.451L27.2797 223.138L28.0496 221.48L28.3754 221.118L28.6207 220.988L28.8871 221.505L28.591 223.534L27.817 225.07L27.4279 226.883ZM23.4304 228.706L22.0726 229L21.328 228.684L20.6428 227.005L21.9415 225.953L23.6757 226.997L24.031 227.296L23.4304 228.706Z" fill="url(#paint0_linear_1_263)"/>
<defs>
<linearGradient id="paint0_linear_1_263" x1="76" y1="55" x2="204" y2="196" gradientUnits="userSpaceOnUse">
<stop stop-color="#8FFFF4"/>
<stop offset="0.998007" stop-color="#3064FF"/>
</linearGradient>
</defs>
</svg>
