<svg width="74" height="146" viewBox="0 0 74 146" fill="none" xmlns="http://www.w3.org/2000/svg">
<path d="M64.3293 3.65084L64.8002 4.74579L65.3475 5.79671L67.0589 8.33807L67.7926 9.31579L68.4165 10.3558L68.7194 12.4321L69.8106 15.6619L70.8361 20.5249L71.1499 25.5235L71.4673 27.8194L72.2665 29.9836L73.5766 32.2321L74 34.7331L73.197 37.3148L72.0402 39.7499L71.741 40.2076L71.1973 40.8339L70.9528 40.8082L70.026 40.1783L69.2669 39.1493L68.3071 36.7289L67.9568 35.5021L67.5554 35.3081L66.4313 35.4142L65.6176 36.1759L65.468 36.6556L65.643 38.0215L65.9533 39.2482L66.0883 40.4969L66.1139 42.0678L66.4168 42.5439L66.862 42.9431L67.3253 43.9721L67.4057 46.4255L67.1211 47.667L66.3293 48.7362L66.3767 49.3258L66.6723 49.9336L66.3912 50.2999L65.3365 50.7613L64.9096 51.1714L64.3403 52.259L63.417 54.4781L63.293 55.6133L63.8696 59.0701L63.709 61.5235L62.5339 66.2291L61.8552 68.4664L60.8955 71.1433L59.4283 74.6772L57.9761 79.1263L56.7426 83.7146L55.8303 86.4793L54.7939 89.2074L53.3742 94.0376L52.1701 98.9556L50.3782 104.383L47.9041 110.458L47.6377 111.252L47.1231 114.368L46.5683 117.078L45.9041 119.766L44.5174 124.219L44.3606 125.592L44.0467 126.914L42.711 129.719L42.1455 130.763L41.7477 131.872L41.5214 133.282L41.1236 134.644L40.1456 137.153L38.6895 139.313L37.697 140.101L35.5512 141.243L34.4636 141.474L32.0516 141.5L29.716 142.151L27.282 143.404L24.9391 144.843L24.0415 145.528L23.0525 145.919L19.9578 146L19.0311 145.689L15.9326 143.323L14.7321 142.935L12.4586 142.613L11.7726 142.411L11.1485 142.104L10.2288 140.87L8.4042 139.83L7.9663 139.504L7.689 138.786L7.49923 138.013L7.0248 137.149L6.67444 135.505L6.07974 134.359L4.401 132.334L4.22214 131.686L4.08717 129.54L4.14196 128.09L3.9778 125.438L4.17114 124.193L4.76227 123.073L4.5215 121.861L3.89383 120.586L3.66019 119.272L3.20046 118.074L1.44153 115.921L1.02903 114.863L0.744377 113.768L0.0801842 110.359L0 109.172L0.0984484 106.667L0.34301 105.378L0.769991 104.481L0.87579 103.811L1.15309 103.236L1.56916 102.779L1.85025 102.233L2.50709 99.047L3.339 98.3403L4.5725 97.9337L5.56144 97.1025L6.13075 95.9821L6.70006 93.6715L8.25474 91.3828L8.80935 90.1817L10.0647 88.3653L11.1741 85.8167L11.5098 84.6155L11.7506 83.3887L12.0316 80.6973L12.2432 79.3607L12.1996 78.0351L11.5646 76.6764L10.05 74.2121L10.0025 73.7543L10.123 71.9234L9.99541 70.6013L9.43701 69.2831L8.72181 68.0453L8.01753 65.7312L7.67452 61.9117L7.74735 60.5349L7.53932 59.3117L7.02859 58.1472L7.39343 56.1149L11.9221 48.7545L12.0717 47.8902L11.8893 45.6529L11.9842 44.353L12.1412 43.8695L12.4878 43.5876L13.2614 43.4521L16.9218 43.1335L17.3924 42.9064L18.3047 42.2912L19.56 41.0975L20.1367 40.7533L20.633 40.8815L20.9504 41.3904L21.3593 41.6688L22.8371 41.1305L23.4029 41.1158L23.9831 41.2037L24.2531 40.7057L24.4136 40.0392L24.629 39.5705L25.023 39.3032L26.9243 39.1567L28.1395 38.9663L29.7087 38.5012L30.0444 38.5928L31.3108 40.2699L31.6939 40.4127L32.1866 40.4823L32.6172 40.1783L31.5881 39.3032L31.4349 38.8088L31.4895 38.2449L32.0405 37.0401L32.9602 36.1209L35.0037 34.7258L37.1277 33.1146L37.7445 33.0047L38.2664 33.2574L38.6677 35.1615L38.6165 35.4728L38.9559 35.5167L39.3502 35.2823L39.7003 34.5171L39.7186 33.8799L39.4339 33.2683L39.2954 32.752L39.2845 32.276L40.3609 31.1518L41.2076 30.0825L41.598 28.8045L41.9375 28.2149L42.8315 27.5521L43.0943 27.6547L43.3021 28.1929L43.4191 28.7642L43.1892 29.3318L42.8643 29.8921L42.7331 30.639L43.2367 30.7855L43.7111 30.6062L44.4042 29.2549L45.1963 27.9769L45.6669 27.3104L46.2618 26.8491L47.2508 26.9406L48.2105 27.2262L46.6449 25.8786L46.2545 24.033L48.1156 20.8435L48.1339 20.1807L48.4039 19.9756L48.5317 19.7193L47.5682 18.6463L47.3857 18.1117L47.5136 17.3024L47.9733 16.5847L48.393 16.0831L48.9879 15.889L49.4585 16.1636L50.4949 17.0461L51.192 17.1816L52.0349 16.3357L52.7247 15.2774L53.7611 14.5524L54.9398 14.1019L56.7317 12.4358L57.8992 8.95695L57.9906 7.94258L57.7315 6.71587L57.319 5.54772L56.6294 4.09025L56.8083 3.76807L57.7899 3.96218L58.1184 3.75711L59.184 2.46805L60.9391 0L61.5158 0.00357608L62.012 0.461314L62.1982 1.13876L62.5486 1.63684L63.7346 2.80867L64.3293 3.65084ZM52.0752 13.4135L52.0897 13.7944L50.743 13.6369L50.5314 12.3223L51.192 12.2819L51.3379 11.7437L51.7393 11.6778L52.1736 12.8459L52.0752 13.4135ZM68.4056 50.8638L67.2561 52.8266L67.5808 51.1896L68.9128 48.8314L69.2923 48.652L68.4056 50.8638Z" fill="url(#paint0_linear_2_293)"/>
<defs>
<linearGradient id="paint0_linear_2_293" x1="9" y1="20" x2="82.5" y2="183.5" gradientUnits="userSpaceOnUse">
<stop stop-color="#8FFFF4"/>
<stop offset="1" stop-color="#3064FF"/>
</linearGradient>
</defs>
</svg>
