<svg width="226" height="141" viewBox="0 0 226 141" fill="none" xmlns="http://www.w3.org/2000/svg">
<path d="M151.51 54.8401L151.38 56.4633L150.949 57.7902L149.529 60.548L148.937 62.2547L147.791 67.1117L147.438 70.2822L147.355 71.7712L147.256 71.9814L147.362 72.1992L147.088 75.4836L147.235 78.2793L147.141 78.7124L146.725 79.5531L146.433 80.7154L146.547 81.232L146.542 81.5891L146.969 83.3541L147.106 84.6785L148.378 86.9424L149.092 87.7325L149.978 88.4162L150.303 88.8011L150.143 89.7609L149.783 90.2446L149.628 91.0143L149.45 90.3788L149.519 89.5532L149.801 89.1101L149.811 88.786L149.29 88.439L148.338 87.302L147.174 85.2862L148.002 88.5048L148.287 89.0189L148.508 89.2316L148.879 89.457L148.975 89.8064L148.978 90.0647L149.999 92.2932L151.154 94.5926L151.215 95.2206L151.678 95.9929L154.621 99.209L156.422 101.605L157.047 103.874L157.423 104.58L157.608 105.547L158.787 106.631L159.147 107.33L159.78 107.718L160.29 108.888L161.25 109.571L161.022 109.584L160.181 109.24L160.237 109.467L160.943 109.951L162.327 110.427H162.673L162.127 110.179L161.664 109.845L161.827 109.797L162.795 110.212L165.5 110.349L166.691 111.319L168.235 111.736L169.066 112.975L170.031 114.266L170.648 114.327L171.128 114.332L172.576 114.114L174.826 113.301L175.601 112.904L177.112 112.364L179.426 112.266L180.142 112.418L181.872 112.081L182.697 111.668L182.984 111.293L183.119 111.017L184.722 110.622L185.039 110.544L186.662 110.473L187.447 110.326L188.369 110.24L189.034 110.822V111.106L188.59 111.374L188.798 111.635L189.588 112.066L191.036 112.24L191.506 112.172L192.174 111.536L193.35 110.921L193.324 110.204L193.113 109.812L192.773 109.787L192.692 109.566L192.931 109.039L192.87 108.862L192.138 109.369H191.97L192.052 109.133L192.204 108.946L194.348 107.842L194.896 107.388L195.638 106.988L197.175 105.487L197.502 102.655L197.81 102.159L198.828 101.288L198.937 101.025L199.003 100.432L198.976 98.9405L199.031 97.7656L198.988 96.4361L199.171 95.2485L199.336 94.9167L199.92 93.0124L201.134 92.1691L203.24 91.1688L203.723 91.0042L210.43 89.9457L211.373 89.6874L212.526 89.0012L213.369 88.7682L214.906 88.786L215.378 88.6948L215.472 88.6011L215.475 88.5074L215.759 88.4137L216.648 88.5048L218.309 88.9201L218.914 89.024L220.4 89.5051L222.035 89.6976L222.269 89.614L222.485 89.4671L222.65 89.186L222.48 88.9404L222.32 88.9581L222.043 89.0898L221.713 89.1025L221.065 88.8999L221.195 88.7302L221.855 88.7454L222.279 88.6644L222.906 88.3681L223.574 88.591L224.453 89.5734L225.078 89.885L225.129 91.3082L225.223 91.569L225.451 91.9437L225.139 93.0453L224.788 93.9544L224.349 94.6989L223.399 95.8714L222.246 96.8084L220.819 98.8874L220.494 99.8598L220.501 100.64L220.742 101.392L220.674 101.67L220.499 101.951L220.209 101.926L219.645 102.286L218.919 103.354L218.904 103.679L219.221 103.977L219.635 103.833L220.173 103.82L220.476 103.732L220.793 103.754L220.722 104.367L220.382 104.803L220.166 104.94L219.78 105.013L219.348 105.261L219.127 105.489L219.147 106.196L219.386 106.251L219.894 105.725L220.189 105.75L220.247 105.973L219.589 107.778L219.165 109.63L218.591 110.701L218.388 112.258L218.086 112.922L217.735 113.577L217.529 113.542L216.976 112.299L216.409 111.98L216.285 111.678L216.607 110.169L216.46 109.333L216.16 109.366L215.785 109.824L215.284 110.222L215.294 110.797L214.72 111.752L214.578 112.066L214.032 111.992L213.397 112.033L212.958 112.263L212.508 113.42L211.385 115.049L210.938 115.836L210.573 116.107L210.286 116.214L209.966 116.029L209.199 115.583L208.607 115.796L208.401 116.307L208.409 116.953H206.91L204.365 116.95L201.124 116.948L198 116.945L195.384 116.943L195.374 118.394L195.366 119.678L195.359 121.121L193.916 121.109L192.39 121.096L192.511 121.24L193.035 121.511L193.713 122.157L194.513 123.162L195.483 123.963L196.624 124.558L197.373 125.14L197.736 125.71L197.919 126.194V126.594L198.335 126.91L199.08 127.12L199.466 127.477V127.769L199.229 128.43L199.161 129.159L199.252 129.817L198.719 129.827H197.426L195.458 129.83H193.647H192.219L190.063 129.832L189.471 130.845L188.488 132.527L187.597 134.049L186.85 135.328L186.728 135.664V135.938L187.653 137.133L187.482 137.48L187.16 137.662L187.056 137.943L187.076 138.399L186.858 139.005L186.929 139.422L187.046 139.936L186.853 140.382L186.695 140.813L186.51 141L186.299 140.838L184.399 138.853L182.418 136.667L181.638 135.953L180.884 135.411L179.868 134.403L177.201 132.187L175.824 131.175L174.529 129.962L173.366 129.288L172.22 128.85L171.71 128.597L171.263 128.265L171.014 128.245L170.889 128.695L171.291 128.921L171.771 129.113L172.149 129.126L172.548 129.285L173.724 129.901L173.917 130.217L170.572 128.987L169.21 128.873L169.063 128.68L169.741 128.037L169.53 127.804L169.289 127.771L168.56 128.217L168.291 128.247L168.243 127.953L168.276 127.677L167.806 127.272L167.509 127.287L167.265 127.571L166.63 128.105L166.65 128.316L167.895 128.543L168.324 128.673L168.225 128.814L167.158 128.812L165.837 129.055L163.486 130.541L161.296 131.18L158.147 132.608L156.757 132.681L156.028 132.909L153.91 132.362L151.225 131.02L147.162 130.597L144.424 128.837L141.706 128.113L139.981 126.421L138.943 126.348L138.275 126.077L135.806 125.464L133.365 125.059L130.985 123.578L129.428 123.107L128.082 122.517L125.118 121.509L124.018 120.949L122.979 120.083L121.285 119.186L120.561 118.437L119.754 118.169L118.598 116.755L117.996 116.16L117.485 115.882L116.939 115.786L115.362 115.9L113.008 115.274L111.921 115.115L109.647 114.193L106.63 113.162L105.642 111.977L104.796 110.87L103.272 109.412L102.322 108.789L100.674 108.049L99.7595 107.449L98.3499 106.988L95.9573 105.818L95.1979 104.816L94.7534 103.924L93.4809 102.84L92.0865 100.817L91.7258 100.07L91.4566 98.9228L91.134 98.2568L90.753 97.7352L90.9486 97.3554L91.6573 96.8868L92.8358 96.7805L93.6689 96.2741L93.7781 95.8562L93.7247 95.5979L93.1914 94.9597L92.5284 94.7901L92.0128 94.78L91.8808 94.5369L92.2694 94.2709L92.7138 93.648L93.3691 92.8883L93.8314 92.1868L93.9178 91.1967L93.8594 90.2065L94.0346 89.3683L92.4472 88.401L92.2618 87.9883L91.7614 86.8766L90.8953 85.5851L90.9207 82.9996L89.8768 80.7002L88.7973 79.5556L88.2386 79.1555L86.7222 77.3753L85.5259 76.3395L84.355 74.3871L83.1969 73.1438L81.7237 71.0546L80.6595 70.0113L75.8108 66.4786H76.0826L77.5049 67.3473L77.7437 67.2763L77.7767 66.8534L77.6141 66.3469L77.35 66.2255L76.9716 66.3394L76.461 66.233L76.2045 66.0659L75.44 65.9595L74.4825 65.3695L74.071 64.7567L74.0253 64.0577L72.6512 62.5662L72.1305 61.7331L72.3972 61.7939L72.763 62.1281L73.1338 62.2243L73.5656 62.2269L73.878 62.0927L73.7662 61.8445L73.4716 61.6369L71.4702 60.8493L70.8098 60.2973L69.169 59.3755L68.7804 59.0514L68.5214 58.1599L68.12 58.1169L67.767 58.3651L66.7993 58.6082L66.5529 58.3245L66.5174 58.051L67.2006 57.7624L67.8279 56.9191L67.8153 56.6254L67.4698 56.9647L66.9466 57.342L66.4082 57.5522L65.6081 57.7269L65.1966 57.6003L64.8385 57.4104L64.2619 56.6735L63.9724 54.2729L64.4804 53.4397L65.0747 52.6142L65.5801 52.1254L65.8722 52.4951L66.1719 52.5407L65.9611 52.1229L65.4633 51.7329L65.288 51.3429L65.2702 50.9859L65.0341 50.3224L63.5609 48.9271L62.1843 49.0335L61.623 48.9853L61.0972 48.4536L60.6502 47.5571L60.4317 46.805L60.4038 46.4049L60.2718 46.0022L57.8969 45.3439L57.1832 44.7791L56.467 44.0676L56.1698 43.4877L55.8904 43.0597L55.6618 42.3102L55.4993 41.4365L55.7634 40.3045L56.1089 39.7575L54.4757 39.3498L53.8382 39.3321L53.3226 39.5625L52.8578 39.2662L51.8926 38.9371L50.7446 37.7494L49.3959 35.5918L47.9126 34.898L47.4351 34.1459L46.8281 33.4673L46.2973 32.6265L46.2159 32.2593L46.056 32.0542L45.3143 31.4667L44.4812 30.4715L44.2653 29.6712L44.0418 28.4456L43.4856 28.0126L42.9395 27.8126L42.8328 27.2275L42.8658 26.9009L42.6804 26.2805L41.5527 24.7915L40.9813 23.5658L40.6663 23.1835L40.3717 22.6238L40.2218 21.4766L39.7545 20.0484L38.8503 18.329L38.0959 17.1692L37.72 15.9992L37.8877 14.8065L37.7606 14.0696L37.6641 13.8974L37.7403 13.6569L37.9918 13.791L38.2026 13.5758L38.1772 12.8136L37.913 12.5831L37.1816 12.3451L36.859 12.1805L35.0811 11.869L34.0626 11.436L33.9965 10.4281L33.519 9.9647L33.0948 9.67853L31.7538 9.08347L31.543 9.38734L31.3627 9.94948L30.8039 10.071L30.3162 10.0964L29.4984 9.70643L27.469 8.21994L27.0398 7.98192L26.4073 7.85526L26.0898 7.60711L24.7183 6.82209L24.9926 7.23995L25.3888 7.67295L25.7419 8.93154L25.3278 9.83804L25.0866 12.9984L25.3507 13.6264L25.9451 14.6318L26.3565 16.2246L26.4835 17.4098L26.8543 18.3493L26.7375 20.5524L26.8797 21.2209L27.4461 22.3174L28.4951 23.3455L28.7135 23.8849L30.0902 24.6674L30.9283 25.6829L32.5894 27.0655L33.1126 27.648L34.6112 29.7979L34.6595 30.436L34.9363 31.2185L35.777 31.0565L36.1529 31.6515L36.1097 31.925L36.2113 32.1352L36.6507 32.0897L37.0292 32.2517L37.8267 34.5637L38.2534 34.8803L38.802 35.0145L39.4141 35.2703L39.4548 35.8602L39.4319 36.3313L39.95 37.0125L39.8611 37.9342L40.2802 38.7142L40.2167 39.4689L40.3895 40.0639L41.6823 41.4111L43.2748 42.4798L43.6075 43.8802L44.2577 45.159L44.9232 45.4806L45.5937 46.0099L45.5099 46.5619L45.5581 46.8987L46.4572 47.904L46.602 49.1829L47.3767 50.021L47.5951 50.0869L47.7653 49.9552L47.2014 49.1145L46.9297 48.5675L46.8941 47.7065L47.0846 47.5926L48.6924 48.955L48.8625 49.9704L49.401 50.5452L49.4416 51.3201L49.7693 51.781L49.8683 52.4496L50.3865 53.5511L50.3992 55.0781L50.6735 56.1898L51.6869 57.8941L52.5073 58.2511L52.6546 59.0868L53.508 61.2443L54.4935 62.4117L54.9837 63.4019L55.0497 64.0172L54.6814 64.9288L54.6408 65.5619L55.1767 67.4916L55.9768 68.4792L56.8734 68.7172L57.0283 68.859L56.9572 69.1224L57.2569 69.3579L57.5947 69.0566L57.7598 68.6286L57.5896 68.1297L57.5591 67.7676L57.7115 67.5068L58.0036 67.4688L59.7155 68.7856L60.0025 69.2921L60.6375 69.8821L61.2217 70.6089L61.4731 71.1812L61.9405 71.6547L62.1818 72.7537L63.373 73.245L64.0054 74.1516L64.0486 74.7265L63.7413 76.1952L63.4746 76.6181L62.5145 77.2436L61.816 77.9855L61.1404 78.4439L60.4242 78.7225L59.8349 78.6591L59.2659 77.8058L58.5903 75.2202L58.1382 74.6758L57.8207 73.8629L57.2925 73.1894L55.3875 72.1688L54.4274 71.09L53.4953 70.3683L52.4921 69.3225L49.7591 67.5878L48.6263 66.7041L47.8796 65.8279L47.3996 65.8405L47.0287 65.9316L46.8865 65.6911L46.8662 65.2353L46.7011 64.939L45.1035 63.6171L44.7733 62.8853L44.7047 62.0344L45.0654 59.8414L45.2254 58.555L45.1238 57.8915L44.9562 57.8003L44.8038 57.4408L44.7682 56.3798L44.3821 55.225L42.9319 52.8522L41.8727 52.3837L40.9304 52.0419L38.3474 49.9375L37.6464 48.884L37.4762 48.2839L37.3873 47.0633L37.0317 47.7698L36.5567 48.294L35.462 48.256L34.2328 48.8461L33.5012 48.2915L33.105 47.6609L32.5031 46.9038L31.8275 46.7543L31.3957 46.7341L30.5854 45.7946L29.9302 45.4958L28.9929 45.3793L28.1954 44.9032L27.9491 44.3816L27.817 43.6446L27.5198 43.2091L26.2676 42.3455L25.2491 41.3909L24.289 40.7781L24.0071 40.2767L23.9843 39.9322L25.5031 40.0285L27.309 40.3957L28.1751 40.2918L28.7135 39.9373L29.2292 39.6815L29.3104 39.9576L29.2164 40.459L29.7117 40.9199L30.3924 41.2921L30.875 41.2567L30.4051 40.8489L30.1181 40.0184L30.2477 39.7196L30.24 39.3043L29.5669 39.3979L29.473 39.1878L30.0495 38.5547L30.7099 36.8884L31.0249 35.2424L30.334 33.7989L29.1682 32.7962L26.6384 29.8511L25.1272 28.3342L24.6904 27.7695L24.289 27.5036L23.0572 27.1567L22.0235 26.3058L20.2125 25.1004L19.4378 24.4774L18.9045 23.0163L18.4803 22.8162L18.6149 21.8033L18.4295 20.0079L18.1247 19.547L17.1443 19.0988L16.9106 17.8757L16.8624 16.7108L16.6719 15.8979L15.0032 14.528L14.9092 13.8645V13.2339L14.739 12.6085L13.8475 11.2993L12.7706 10.1546L12.3947 9.60767L12.349 8.49846L11.968 8.19969L12.1128 8.12373L12.4658 8.15155L12.6665 8.00464L12.6893 7.22975L11.0689 6.01173L10.6016 4.33281L9.73796 3.44146L9.5348 3.11981L9.06997 1.52954L11.1095 1.3497L13.149 1.16995L15.1886 0.990118L17.2281 0.810363L19.2676 0.630532L21.3072 0.450777L23.3467 0.270945L25.3863 0.0911137L26.2016 0L25.7495 1.26616L25.4092 1.73966L28.7897 2.98055L32.1703 4.21882L35.551 5.45461L38.9315 6.68786L42.3122 7.9211L45.6927 9.15179L49.0733 10.38L52.454 11.6057L54.9735 11.6006L57.4931 11.5955L60.0127 11.5905L62.5323 11.5854L65.0518 11.5803L67.5714 11.5752L70.091 11.5702L72.6106 11.5651L72.6157 10.6333L72.6182 9.70133L72.6233 8.76693L72.6283 7.83246L74.1955 7.84258L75.7626 7.8527L77.3297 7.86036L78.8968 7.87048L80.4639 7.87805L82.0311 7.88818L83.5981 7.8983L85.1653 7.90842L85.2212 7.92365L85.2872 7.95657L85.9222 8.66817L86.5724 9.7824L87.3394 10.5598L88.2233 11.0004L89.7295 12.297L91.8579 14.4469L93.5545 15.8751L94.822 16.5893L95.6703 17.2021L96.1046 17.7162L96.6888 18.8304L97.7911 21.3957V22.5706L98.2127 23.6823L99.056 25.1206L99.7925 25.9665L100.422 26.2222L101.111 26.7313L101.857 27.4935L102.718 28.005L103.694 28.2658L105.04 28.9496L106.757 30.0536L107.935 30.6158L108.573 30.6412L109.132 30.2866L109.609 29.5548L110.079 29.0837L110.541 28.8736L110.729 28.5368L110.643 28.0708L110.955 27.0275L111.667 25.4018L112.515 24.5205L113.503 24.3838L114.148 24.0774L114.453 23.6013L114.981 23.5506L115.735 23.9229L116.962 24.1635L118.661 24.2698L119.665 24.2344L119.972 24.052L120.132 24.0621L120.145 24.2622L120.396 24.3483L120.886 24.3179L121.313 24.5965L121.862 25.4802L123.746 26.8933L123.909 27.377L124.564 28.0734L125.773 29.1446L126.456 30.0663L126.616 30.8412L127.234 32.0643L128.308 33.7331L128.785 34.6321L128.669 34.7612L128.752 35.2297L129.039 36.0375L129.57 36.7213L130.35 37.2809L131.137 38.2837L131.932 39.7297L132.898 40.8287L134.03 41.5783L134.67 42.2772L134.82 42.9229L134.81 43.475L134.637 43.9334L134.711 44.3689L135.029 44.7817L135.135 45.2882L135.011 45.9896L135.018 46.1871L135.11 46.3467L136.116 47.552L136.634 48.5244L137.045 50.0742L137.048 50.0869L137.505 51.0137L138.165 51.3911L139.179 51.5329L139.948 51.8545L140.474 52.3584L141.139 52.6623L141.94 52.7661L142.707 53.1004L143.443 53.66L144.815 54.0272L146.821 54.2045L148.348 54.6603L149.397 55.3947L149.856 55.5441L149.981 55.5542L150.039 55.4427L150.118 55.2351L150.524 54.9971L151.51 54.8401ZM26.4251 8.44784L26.1889 8.48331L25.747 8.10093L25.78 7.74892L25.8765 7.71345L26.3184 8.02241L26.4683 8.29336L26.4251 8.44784ZM37.3924 30.2005L37.3416 30.3423L36.6126 29.8409L34.9617 28.1341L34.3623 27.2782L34.2632 26.8756L34.314 25.9792L34.8804 26.0855L35.5357 26.6857L35.8202 27.2428L35.8329 27.8784L37.0571 28.1797L37.2298 29.5548L37.3924 30.2005ZM44.1815 30.5804L43.6456 32.4847L43.097 32.4543L41.9642 31.8541L41.8448 31.4794L42.2791 29.2661L42.6093 28.9749L43.5973 28.6761L43.7522 28.9496L43.8564 29.6029L44.1815 30.5804ZM1.13027 31.0919L0.825497 31.4009L0.00763488 29.7144L0 29.3066L0.238774 29.104L0.634974 29.142V29.5649L0.967731 29.9219L1.09725 30.2714L1.13027 31.0919ZM23.0292 38.1115L22.9327 38.3699L21.7288 37.8355L22.3892 36.9011L22.2927 35.9185L22.5797 35.7134L22.8413 36.0375L23.1867 37.2885L23.0292 38.1115ZM52.0425 54.3741L52.1314 54.6577L52.0831 54.7388L51.791 54.5413L51.2983 55.7162L51.1535 55.8227L51.4507 54.2146L51.7631 53.9841L52.1085 53.9386L52.0425 54.3741ZM45.2203 65.9038L45.0756 65.9899L44.466 65.0909L44.3745 64.473L44.1256 64.2122L43.511 64.0046L44.0418 62.746L44.4914 60.1351L44.6895 60.6138L44.2145 63.2575L44.2374 63.6019L44.4584 63.9235L44.6971 64.468L44.7251 65.0555L45.1441 65.6025L45.2203 65.9038ZM55.8422 62.3408L56.0454 63.212L55.6796 63.0828L55.2021 62.6093L54.8745 62.004L54.9049 61.7331L54.9684 61.6824L55.6466 62.0395L55.8422 62.3408ZM47.7755 67.0864L47.6789 67.4536L45.5327 66.0026L46.0483 65.8658L46.6478 65.9671L47.7755 67.0864ZM61.275 68.9654L61.1201 68.9907L60.7543 68.5805L60.5943 67.5701L60.668 67.4637L61.3563 68.7147L61.3436 68.8691L61.275 68.9654ZM84.8173 88.4516L84.6091 89.0772L84.0706 88.8265L83.8775 88.4339L83.8394 87.7907L84.1391 87.6819L84.5735 87.9553L84.6624 88.1377L84.8173 88.4516ZM225.873 91.2727L226 91.6399L225.876 91.5968L225.713 91.3208L225.596 90.9764L225.695 90.9688L225.782 91.0878L225.873 91.2727ZM224.265 98.3455L223.894 98.581L223.694 97.7503L223.988 96.9401L224.347 96.4741L225.053 96.4209L225.52 96.2664L225.578 96.4716L225.195 97.0996L224.265 98.3455ZM53.3658 110.052L52.9365 110.209L52.3041 109.751L52.4717 109.389L52.8324 109.143L53.1702 109.602L53.3658 110.052ZM190.449 110.531L189.646 110.703L189.504 110.541L191.122 109.779L191.399 109.812L191.495 109.916L190.657 110.278L190.449 110.531Z" fill="url(#paint0_linear_2_267)"/>
<defs>
<linearGradient id="paint0_linear_2_267" x1="87" y1="10" x2="203.5" y2="157" gradientUnits="userSpaceOnUse">
<stop stop-color="#8FFFF4"/>
<stop offset="1" stop-color="#3064FF"/>
</linearGradient>
</defs>
</svg>
