<svg width="254" height="121" viewBox="0 0 254 121" fill="none" xmlns="http://www.w3.org/2000/svg">
<path d="M228.609 28.53L227.868 30.2144L226.388 33.5774L225.135 36.4088L224.471 37.998L223.987 39.2067L223.483 40.351L223.41 41.0365L222.844 42.1389L221.791 43.4679L221.563 44.906L221.606 46.1958L221.516 47.3486L220.362 48.0788L219.458 48.7279L219.717 50.9047L220.182 51.7244L220.933 52.6086L221.724 53.3164L222.408 53.9124L223.162 53.627L223.801 52.7177L225.034 51.9175L225.718 51.8979L226.196 52.0825L227.266 52.1357L228.361 51.8447L229.219 51.7832L230.328 51.979L230.728 52.1693L231.66 52.5218L232.665 53.2912L233.368 54.1502L233.881 54.3153L234.142 54.0411L234.705 53.2772L235.496 52.5414L236.456 51.3327L237.179 50.4038L237.748 50.2611L238.846 50.2639L239.338 50.0401L240.169 49.9226L240.903 50.2667L242.947 50.4486L243.495 50.9242L244.464 52.3372L245.013 53.0898L245.964 53.4675L246.538 53.7277L247.048 53.9291L247.554 54.2929L247.675 54.7322L247.881 55.4037L248.19 55.7898L248.767 56.1702L249.207 56.3997L249.344 56.8837L249.482 57.1215L249.885 57.4601L251.07 58.9038L251.647 59.2899L252.525 60.1237L252.891 60.8147L252.911 61.5394L253.139 62.0905L253.724 62.9188L254 63.4783L253.89 64.2365L253.986 64.9081L253.758 65.5991L252.815 66.1111L252.488 66.3546L251.807 66.3769L250.653 66.1195L249.53 66.265L248.188 65.9796L247.135 65.3725L246.572 64.8829L245.674 64.5947L245.252 64.7457L244.72 65.3753L244.135 65.2633L243.594 65.3753L242.204 65.2466L241.446 65.0871L240.25 65.5264L239.572 65.6635L238.3 66.2007L237.537 67.1323L236.966 67.3534L236.408 67.3087L236.011 66.9673L235.431 66.556L234.57 66.5784L234.314 66.7547L234.207 67.1323L233.926 68.2795L233.931 68.7943L233.743 69.1273L233.233 69.2364L232.341 69.2056L230.942 69.1301L229.996 68.8334L229.428 68.9594L228.654 69.5805L228.102 69.6812L227.654 69.9442L227.291 70.8591L226.723 71.4271L226.036 72.1322L225.299 73.6346L224.893 74.4936L225.023 74.9553L225.113 75.5148L224.772 76.15L224.08 76.7403L223.523 76.8494L222.689 77.4174L221.544 78.4386L220.688 79.2948L219.574 79.5018L218.783 79.7201L217.029 79.9859L216.596 80.053L214.673 80.1845L213.249 79.7256L212.5 79.7955L211.836 80.0558L211.498 80.3383L211.38 80.8756L211.262 81.3708L210.721 82.1402L209.632 83.1586L208.734 83.833L208.045 84.7058L207.653 85.022L206.865 85.3549L206.44 85.534L205.452 86.309L204.667 87.0001L204.149 87.1932L203.524 87.0113L203.11 86.9526L201.889 86.6868L201.061 86.6532L199.904 86.4825L197.197 85.6739L196.327 85.2962L195.559 84.2666L194.863 83.7434L193.92 83.6875H192.505L191.871 83.4832L190.807 83.6763L189.645 84.7227L189.096 85.5004L188.62 86.2978L188.038 87.9961L187.779 89.1293L187.582 89.7672L186.96 90.7828L186.892 91.3508L187.106 91.8432L187.554 92.3972L187.821 93.2674L188.474 94.1907L189.116 94.9097L190.323 96.0681L190.667 96.6752L191.075 97.3691L191.162 98.0462L191.086 98.4882L190.653 98.8267L189.805 98.9974L189.397 99.4646L188.775 100.091L188.038 100.813L187.692 100.852L187.275 101.045L185.189 101.938L184.396 102.187L183.771 102.484L183.03 103.39L182.448 104.064L181.727 104.96L181.409 105.354L180.77 106.247L179.929 107.265L179.461 107.811L179.208 108.135L178.977 108.563L178.096 108.891L177.37 109.24L176.272 109.766L174.699 110.343L173.427 110.902L172.619 111.361L171.417 111.94L170.601 112.125L168.957 112.103L166.925 112.251L165.444 112.363L164.332 112.223L162.652 112.142L161.366 112.03L160.507 112.245L158.484 112.472L158.03 112.522L154.425 113.071L152.832 113.362L151.374 113.496L150.301 113.709L149.693 113.977L148.793 114.358L148.317 114.526L146.721 115.275L143.169 116.82L140.793 118.071L140.402 118.283L138.8 119.165L137.875 119.509L137.23 120.292L136.715 120.787L136.174 121L135.212 120.496L134.531 120.524L132.355 120.34V118.051L130.829 118.373L128.395 118.89L126.137 119.369L124.071 118.272L122.478 117.424L121.093 116.694L118.994 116.21L117.161 115.788L113.857 115.091L112.404 114.481L111.67 113.672L110.358 111.837L109.933 111.473L109.294 111.221L108.633 111.062L107.197 111.07L105.447 110.928L102.925 110.542L100.92 110.231L97.5034 109.657L96.6929 109.587L94.9056 110.097L92.6143 110.749L88.5021 110.237L86.6782 109.999L82.9825 109.512L78.7998 108.961L74.7467 108.39L71.8026 108.703L70.1616 108.88L68.2674 109.131L68.0056 108.849L67.9295 107.755L67.589 106.907L66.5533 105.989L65.858 105.116L64.5323 103.933L64.1157 103.186L63.975 102.028L62.7533 99.0031L61.9935 96.9466L61.8019 96.5297L61.4755 95.8582L61.0478 95.5084L60.1386 95.293L59.8936 94.9293V94.2159L60.0373 93.2282L60.223 92.5063L60.0907 92.3244L57.7179 92.5287L56.2628 92.0503L55.0495 91.5299L53.327 90.1981L52.3053 89.6832L50.9964 88.3011L49.0938 87.9738L48.3844 87.431L47.4894 86.2447L46.7096 85.4809L45.6007 84.9996L43.8499 84.5715L40.8607 84.1631L39.8474 83.9896L38.198 84.2638L36.9737 84.2862L34.9893 83.9952L33.8578 83.6286L32.4618 83.6174L31.5527 83.6231L30.3395 83.5391L29.754 83.2985L29.2108 83.0047L28.1919 83.0775L27.4798 82.7837L26.8154 82.2353L26.1202 81.9752L25.3603 81.9919L25.0478 82.2353L24.7551 82.213L24.5666 81.4715L23.8544 80.2712L23.7475 79.7313L23.3112 79.1101L23.055 78.5449L23.1255 77.7643L23.4323 76.2451L24.1162 74.8685L24.561 74.5104L24.834 74.1018L25.4081 73.3885L25.7403 72.8177L25.7008 72.0343L25.3097 71.2173L25.0281 70.1625L25.0788 69.5553L25.501 68.8334L25.9965 67.2303L25.9542 66.8078L25.7599 66.4721L25.7092 65.725L25.6136 64.7234L25.0197 63.1873L24.6989 62.3703L24.136 62.0178L23.4773 61.8052L22.9086 60.6972L22.1938 59.3879L21.7463 58.5653L21.5915 58.0617L21.5211 57.1467L21.1861 56.0359L20.8342 55.426L20.5726 54.956L20.4374 54.2817L20.3024 54.0355L19.3341 53.7361L18.6416 53.2325L18.3545 52.5554L18.2532 52.0071L18.045 51.6881L17.4988 51.5873L17.1188 52.0798L16.4969 52.326L16.0747 52.2812L15.661 51.9846L15.4048 51.6741L14.9712 51.3243L14.3577 50.2136L13.7132 49.9198L12.531 49.9701L11.4783 50.485L10.8421 50.4038L10.3017 50.2304L9.69936 49.6764L9.27726 49.2175L8.64952 49.0692L7.4138 48.2606L6.57785 47.6787L6.50758 46.5343L6.11349 45.7454L5.29729 45.5215L4.47542 44.7102L3.2763 44.2737L2.52195 43.9351L1.86621 43.7309L1.77052 43.4231L1.80986 43.1601L2.11101 42.7209L2.42626 42.3096L2.50219 41.929L2.24896 41.5933L1.57055 41.2407L0.698002 40.9247L0.52071 40.4014L0 39.8558L0.0900204 39.4166L0.503874 39.0948L0.920476 38.857L1.01891 38.4429L0.720507 38.0624L0.577058 37.486L0.647322 37.0551L0.560051 36.5039L0.591146 36.5068L1.51145 36.4759L1.93372 36.2101L2.25171 35.8157L2.9413 35.3764L3.08767 34.8728L3.099 33.8739L3.54928 33.029L4.69481 32.7772L5.13391 32.654L5.60119 32.7772L6.32737 32.6569L7.02829 32.6149L7.41947 32.8751L7.93743 33.0933L8.59884 33.0682L8.82406 32.6709L8.85224 32.1141L9.13639 31.9686L9.49389 32.3547L9.69661 32.6429L9.99209 32.7744L10.7915 32.4303L11.3488 32.0581L11.5317 31.2915L11.8554 30.9138L12.289 31.1069L13.0518 31.1012L13.6793 30.5081L14.5041 30.0352L15.0951 29.8198L15.2133 29.4197L14.9375 28.5356L15.0135 27.5675L15.8044 27.0192L16.8629 26.9548L17.6481 26.5771L17.8648 25.5419L18.2532 25.2453L18.6445 25.1277L19.5987 24.9655L20.2853 24.543L20.7104 24.35L21.9095 23.782L23.0016 23.6729L23.4689 23.2196L23.8348 22.6489L24.4483 22.4306L25.0703 21.9354L25.8951 21.3058L26.2215 21.2164L27.5727 20.8498L28.1018 20.7155L28.4198 20.6344L29.0053 20.6596L29.253 19.9908L29.8469 19.5012L30.4436 19.3362L30.7336 18.8465L31.3049 18.2226L32.0789 17.8784L33.2808 17.8253L34.446 17.8952L35.147 17.7889L35.7211 16.8656L35.8309 16.4095L35.9632 15.9423L36.4304 15.7633L36.9934 16.5215L37.4691 16.9915L38.198 17.4811L38.5753 17.94L39.0087 18.0044L39.4619 17.6603L39.7827 16.8237L40.3906 16.695L41.0606 16.8292L41.2379 17.2405L41.2943 17.6434L41.6009 18.3597L42.3385 18.9836L43.2814 18.9528L43.6614 18.841L44.579 18.9276L45.4825 19.0619L46.4675 19.2102L46.7548 19.2326L47.8103 19.3082L49.3442 19.4173L50.0225 19.3669L51.4073 19.5712L51.6889 20.1251L51.945 21.4346L52.1617 22.6796L52.2264 23.6785L52.5867 24.1961L53.0456 24.364L53.3495 24.7668L53.8843 25.3152L54.2784 26.0986L54.7597 26.0455L55.0946 25.8608L55.8321 25.802L56.7721 25.8552L57.428 26.2861L57.6729 26.8569L58.2049 27.173L58.6354 27.0723L59.9246 27.0695L60.3693 27.1031L60.8141 27.4165L61.453 27.4696L61.8049 27.0723L62.9167 26.8009L63.5584 26.2358L64.0538 26.2301L64.4282 26.5043L64.7152 26.8737L65.1403 26.7085L65.371 26.4036H65.7426L66.1057 26.6022L67.0374 26.9464L67.7129 27.5899L68.2336 27.6543L68.9091 27.464L69.2187 27.3773L69.5143 27.6962L69.9505 27.8669L70.2798 27.6319L70.8456 27.464L73.0102 27.8138L73.5084 28.4572L73.8939 28.7594L74.2035 29.2826L74.7693 29.6576L75.9626 29.5288L76.4272 29.1455L77.3925 28.295L77.7782 27.464L78.265 27.1982L78.8139 27.0611L79.3291 27.0639L79.8667 27.0359L80.5224 26.426L81.0517 26.2133L81.837 25.4384L81.9833 25.0886L82.3661 24.1821L82.6025 23.6085L82.9993 22.6908L83.2134 21.2107L83.3343 20.4245L83.2302 19.8565L82.7629 19.56L82.1691 19.4201L81.6456 18.9865L81.2572 18.48L81.0292 17.7721L80.7224 16.9412L80.7392 16.3396L80.6519 15.8752L80.3901 15.4779L79.8864 14.7812L79.6414 14.2608L79.723 13.4326L80.3169 12.0169L80.3733 11.3566L80.4465 10.9481L80.4155 10.576L80.6013 9.72265L80.9363 9.36447L81.319 8.44957L81.8341 8.02709L82.4815 7.99917L82.7602 7.7501L82.8952 6.83239L83.2077 6.12455L83.4159 5.62377L83.81 5.07534L86.0815 4.01777L87.0243 2.69995L87.3593 2.03403L87.7252 0.601534L88.0771 0L88.5894 0.198604L89.1917 1.04357L89.6421 1.05202L90.312 1.50806L92.1386 2.4677L93.1266 2.76714L93.7628 2.85944L94.6044 3.12525L95.1447 3.68477L96.2002 4.59693L97.0925 4.82918L98.6406 4.92148L100.524 4.96904L101.058 5.12854L102.435 5.78318L103.96 6.50784L105.396 7.1542L106.482 7.65216L107.127 8.13903L107.732 8.41601L108.388 8.17822L109.229 8.23133L111.205 8.81331L112.455 9.30017L113.499 9.66109L113.848 10.1591L113.882 10.8222L113.741 11.3818L113.82 12.736L114.155 13.4466L114.279 14.3951L114.406 15.3016L114.316 16.1941L114.476 16.667L114.802 16.9468L115.121 17.5679L115.016 18.2226L114.876 18.6031L114.898 19.2159L115.275 19.7195L115.835 19.8174L116.325 19.9489L116.933 20.7407L118.017 21.6528L118.664 21.9046L119.41 22.3131L120.832 22.716L121.797 22.8335L122.366 23.1608L122.923 23.9415L123.846 24.1037L124.437 24.3752L125.518 24.6969L126.233 24.5122L126.861 24.238L127.28 24.2912L128.091 24.4675L129.039 24.5067L129.836 24.3191L130.472 23.768L131.212 23.0238L132.102 22.646L133.129 22.5117L133.833 22.2095L136.135 21.706L137.064 21.6165L137.784 21.1324L138.423 20.7519L139.347 20.5868L140.594 20.9869L141.787 21.3198L143.231 21.429L144.191 21.8878L144.869 22.3215L145.939 22.6657L147.126 22.5062L148.756 22.369L149.834 22.5677L150.96 23.3567L151.652 23.9862L152.432 25.3348L153.248 25.9839L153.958 26.5155L154.858 26.5519L157.102 26.5939L158.332 26.8737L159.356 27.0247L159.601 27.3045L159.5 28.2251L159.531 29.5373L159.517 30.1388L159.742 30.592L160.091 30.6732L160.282 31.3138L160.789 31.6916L161.698 32.1476L163.229 33.6949L164.144 34.3552L164.862 34.579L165.805 34.4251L167.282 34.4307L169.785 34.4335L171.499 34.898L172.093 35.2141L173.843 35.5834L175.769 35.9863L177.396 36.4088L178.352 35.8632L179.194 35.8128L179.996 36.2074L180.801 36.8005L181.421 36.7362L182.352 36.4592L185.327 34.8028L186.371 34.1817L187.103 34.3412L187.756 34.1229L188.255 33.9355L189.524 33.6781L190.298 33.6081L191.094 33.4598L192.243 33.3592L194.576 32.2708L195.522 32.0581L197.121 32.3603L197.982 32.1616L198.84 31.6133L199.95 31.0453L200.239 30.122L200.808 28.8518L202.035 27.9173L203.032 27.0975L204.048 26.3029L205.297 25.637L206.474 25.1557L207.971 23.8883L209.165 23.2448L209.759 23.035L210.465 23.2672L211.785 23.4379L212.742 23.3875L213.283 23.533L214.358 24.1541L215.337 24.6969L216.086 25.665L217.479 27.0107L218.194 27.4612L218.701 27.6486L219.956 27.7746L220.981 27.8417L221.595 27.534L222.627 26.9715L224.274 26.2553L224.921 26.2749L225.983 26.6554L227.564 27.3576L228.198 27.8837L228.609 28.53Z" fill="url(#paint0_linear_2_303)"/>
<defs>
<linearGradient id="paint0_linear_2_303" x1="87.5" y1="8.64699e-06" x2="220" y2="149" gradientUnits="userSpaceOnUse">
<stop stop-color="#8FFFF4"/>
<stop offset="1" stop-color="#3064FF"/>
</linearGradient>
</defs>
</svg>
