<svg width="216" height="175" viewBox="0 0 216 175" fill="none" xmlns="http://www.w3.org/2000/svg">
<path d="M195.418 18.2111L195.933 19.8362L196.987 21.1337L200.749 24.095L202.98 25.9193L203.043 26.549L202.325 28.0457L202.02 29.0736L202.605 30.1719L203.984 31.4952L204.092 32.1311L203.761 32.8698L203.05 34.2895L204.562 38.4521L204.816 42.4796L204.422 45.3382L204.435 46.989L204.632 48.3895L205.915 51.6205L205.058 56.9585L206.023 59.8622L207.352 62.2133L208.076 66.4013L209.143 68.3864L210.891 70.1272L211.889 70.7118L213.814 72.1507L215.193 73.3455L216 75.1312L214.272 76.5958L212.886 77.9062L212.492 79.3195L213.14 81.5805V82.7946L212.257 83.18L208.661 83.0516L205.839 82.9553L202.598 82.8459L198.036 82.6276L195.215 82.4927L191.338 82.3129L190.004 82.4027L186.452 83.0324L183.942 83.4819L183.516 83.604L182.734 84.1629L182.194 85.8266L181.711 87.7215L181.19 88.5631L173.66 91.2996L170.718 91.6785L169.015 91.396L167.802 91.6209L166.76 92.2052L166.404 93.0854L166.353 94.216L166.575 95.353L167.3 96.9332L167.427 98.5134L166.963 99.631L166.855 100.749L166.639 101.956L167.026 102.612L167.751 102.714L168.482 103.267L169.511 103.768L170.362 104.725L170.324 106.087L169.613 106.858L168.983 107.262L166.162 107.622L163.932 107.911L161.015 110.082L157.908 112.395L154.235 113.924L152.614 114.354L149.787 115.453L146.4 117.258L144.729 120.148L142.625 123.476L140.598 125.705L137.834 127.818L135.254 128.621L132.013 129.636L127.927 130.413L125.036 130.67L124.172 130.837L121.624 130.889L120.378 130.728L119.444 130.638L119.069 130.876L118.942 131.396L118.891 132.591L118.72 133.959L117.913 135.109L117.341 135.623L116.674 135.835L114.532 135.527L112.74 135.16L108.477 134.672L107.625 134.788L107.307 134.929L105.979 135.713L103.933 137.357L102.541 138.796L101.506 139.471L99.0276 139.824L97.9473 140.351L93.3339 143.942L92.3489 144.815L87.6023 147.931L86.2615 148.965L85.213 149.986L82.3788 152.286L80.5678 153.294L80.2375 153.892L80.1485 155.292V158.388V161.356V165.66V169.964V174.91H77.7528V174.916L77.7402 174.91L0 175L0.0254038 174.923L2.44012 172.61L4.07314 169.681L6.8437 168.377L12.6391 167.748L21.2492 165.313L28.9762 161.632L31.1621 160.168L33.5006 157.226L37.3895 153.391L44.6527 148.779L47.9951 146.196L53.0914 139.715L56.4782 134.338L59.2932 130.869L61.2377 127.786L62.6038 124.658L63.3727 119.609L62.8581 117.63L60.7102 114.393L59.2742 113.525L58.8865 111.997L59.6554 109.299L59.6426 104.648L60.0749 97.1965L62.464 91.1647L68.3038 83.2315L69.3905 79.9619L70.0576 74.7587L70.1148 72.915L77.4224 65.4892L81.6989 59.7787L83.1859 58.3782L86.9604 55.7639L100.14 50.0403L107.587 45.9357L111.933 42.9422L114.526 39.3899L121.706 25.3926L128.754 5.50505L129.345 3.19243L132.496 2.52434L134.727 2.23539L136.525 1.503L138.749 0L140.884 0.603788L139.817 1.62513V4.09184L141.329 6.9761L143.96 10.2136L148.738 14.3182L152.462 15.9627L157.781 16.9519L163.983 15.1533L167.452 15.1212L169.136 14.3441L170.972 15.4809L174.461 15.8471L177.829 15.2498L180.377 13.5282L181.997 11.5433L182.252 12.5196L182.328 13.5731L182.823 14.1898L183.827 16.7079L184.355 17.6908L186.293 17.53L187.977 18.0248L191.777 17.787L195.418 18.2111Z" fill="url(#paint0_linear_2_317)"/>
<defs>
<linearGradient id="paint0_linear_2_317" x1="13.3483" y1="13.7731" x2="258.414" y2="248.365" gradientUnits="userSpaceOnUse">
<stop stop-color="#8FFFF4"/>
<stop offset="1" stop-color="#3064FF"/>
</linearGradient>
</defs>
</svg>
