<svg width="128" height="179" viewBox="0 0 128 179" fill="none" xmlns="http://www.w3.org/2000/svg">
<path d="M72.0838 6.45262L72.2426 7.03822L72.829 6.6217L73.2675 5.96485L73.9748 5.29654L73.8804 6.37381L74.2433 6.61048L76.5881 7.36104L77.0723 7.98788L77.5714 8.16819L77.8514 7.81536L78.184 7.62383L79.0314 8.01812L80.945 9.11418L81.1038 9.49313L81.0055 10.0563L81.1001 10.6531L81.3609 11.1299L81.9964 11.2387L82.8436 10.5331L83.2406 10.4467L83.8004 11.449L84.0121 12.0158L83.925 11.9971L84.2921 12.56L84.7761 13.1156L85.6119 14.7635L85.4871 15.3416L85.2412 15.8633L86.009 17.391L85.506 17.4961L83.9971 17.2372L84.0462 17.5449L84.9273 18.6673L85.6685 20.2551L86.2624 21.2123L88.3575 24.1891L88.0438 25.2476L88.0929 25.9496L87.8242 26.5539L88.5391 28.138L88.0929 28.6297L87.7979 30.255L87.4727 30.5404L87.5142 31.1334L88.3614 31.291L88.872 31.5426L89.3106 32.0269L89.5829 31.445L89.9537 31.2873L90.9633 32.0642L93.0662 32.8414L93.6447 33.1305L93.9283 33.7574L94.1439 35.2738L94.5523 35.9419L95.3579 36.0695L96.224 35.8668L96.4963 35.3151L96.3223 33.8286L95.6984 31.4562L95.6944 30.6868L95.7815 29.9134L95.6379 29.1477L95.324 28.4269L94.9874 27.8752L94.5562 27.4097L94.7074 26.6852L95.3542 26.3587L95.7475 26.9705L96.0688 27.71L97.699 29.9021L98.6634 29.7484L98.7504 30.6566L99.4046 31.5801L99.7677 32.665L100.244 35.9119L100.974 38.9787L102.298 40.3151L102.453 40.9569L101.647 40.6265L101.402 40.818L101.485 41.1408L102.23 41.7301L103.107 42.0193L103.659 41.978L104.177 42.192L107.608 44.1965L109.256 44.977L113.417 46.2571L114.604 46.3586L115.262 46.3247L116.507 45.8818L117.622 45.0861L118.587 43.8961L119.419 42.5409L120.323 41.8841L121.347 41.3661L121.866 40.8856L122.41 40.544L125.197 40.7016L126.139 41.3849L127.361 41.9329L128 42.3609L127.784 43.2317L127.055 44.5154L126.495 45.923L125.995 49.1287L125.659 52.3796L125.152 53.8172L124.229 54.9245L123.208 55.7353L122.055 56.1182L121.586 57.9762L121.355 60.1571L121.423 60.7051L121.794 61.1407L121.945 61.79L121.34 63.1039L120.988 62.9124L120.489 61.8163L120.039 61.3583L118.655 61.0167L117.244 60.8591L116.022 60.9567L114.843 61.4259L113.061 62.3756L112.509 62.856L112.025 63.468L111.208 64.8344L111.011 66.5085L111.049 67.3869L111.34 68.0662L112.857 68.9934L111.352 72.2367L110.017 75.6224L109.26 76.5909L108.391 77.4881L107.57 79.534L106.137 81.2981L105.168 82.6494L104.412 84.0534L103.75 85.5474L102.339 87.6607L101.715 89.0608L100.899 90.2283L99.378 91.7185L97.7595 92.9985L95.2104 94.7702L94.4994 95.3558L93.7506 95.7874L92.8204 95.2806L92.635 94.729L92.4118 93.5165L92.2075 93.0736L91.0238 92.7057L89.4544 93.2913L89.1933 93.1674L89.1252 92.8897V91.1292L89.39 90.6336L89.0232 90.3596L88.6601 90.4684L88.5354 90.9189L88.766 91.3093L87.8734 91.7936L86.9432 91.8048L86.6632 91.6133L86.5837 91.2905L86.8107 90.7576L87.1096 90.2884L88.8378 88.0736L90.6344 85.1419L92.1812 82.0114L92.5819 80.4048L93.1493 77.4317L92.6842 76.1931L92.1092 75.0332L90.555 72.8035L88.4786 71.5459L87.1359 71.3695L85.8652 70.9003L84.6702 69.8381L83.5809 68.5881L81.4214 67.5633L79.1447 66.76L77.8475 65.6264L77.5375 64.9544L77.3332 64.1736L77.3634 63.4492L77.5261 62.7135L77.7833 62.1504L78.1879 61.7412L80.5969 60.2811L83.1499 59.4702L83.6187 59.4854L84.0688 59.3539L84.708 58.8583L85.8502 57.7247L86.183 56.9629L86.4099 54.5453L86.7767 52.1731L87.4385 49.4591L88.4371 47.7811L88.7623 46.7526L88.3575 45.0598L88.7319 44.4405L89.1859 44.065L89.7002 43.8473L88.8302 42.2633L87.8053 39.872L87.5899 39.1327L87.7448 38.4007L87.9946 37.6836L87.3554 37.5035L86.9847 36.8166L86.0658 34.5079L86.3153 34.1402L86.8485 34.3879L87.6389 36.0507L87.7677 35.195L88.3727 34.6658L89.0156 34.3918L89.7039 34.3315L88.1458 32.4773L87.6239 32.5522L86.9355 32.8489L86.2283 33.029L85.5362 32.8677L84.8894 32.4585L84.5568 31.6777L84.1519 30.1801L83.8987 29.6281L81.8489 26.5764L82.4502 26.4788L84.1067 28.0065L84.428 27.5185L84.6665 26.8167L84.5871 26.0359L84.1937 25.4428L83.6074 25.0599L83.5961 24.3655L84.0423 23.7311L84.016 23.2882L83.0666 22.3835L82.6885 22.2859L82.5183 22.7063L82.7905 23.3331L82.537 23.4046L80.234 21.7603L79.5228 20.439L78.9405 18.9901L78.88 19.5794L78.967 20.409L79.8786 22.0719L81.3573 23.9339L81.6105 24.4292L81.3912 25.0712L80.8769 25.2551L80.4231 24.8496L79.7461 23.2543L79.2583 22.4586L73.6041 14.2604L74.3266 13.1832L75.4459 12.2747L75.7033 11.8731L75.8734 11.3814L75.4006 11.2987L74.9771 11.5239L74.493 11.9407L74.0505 12.4136L73.4908 13.4684L73.226 13.7124L72.5642 12.9804L72.3107 12.53L72.3221 11.9895L72.1443 11.6479L71.6526 11.5391L70.9304 10.4655L70.4729 9.91744L71.2367 8.87018L71.2556 7.49255L70.4766 6.05099L69.5461 4.72606L67.7534 2.59008L66.1083 0.33427L67.8896 0.0488002L69.6975 0L68.8464 1.35151L69.2324 2.13209L69.8071 2.79284L71.0476 4.81976L71.1536 5.40537L71.7812 5.99853L72.0838 6.45262ZM96.2127 23.7987L96.2958 24.508L95.4828 24.2567L95.1651 23.7199L94.2536 23.1643L94.1213 22.9991L94.0191 21.9218L94.4994 21.4001L94.5788 21.1786L94.7907 21.0922L95.1651 21.659L95.8874 22.4662L96.2127 23.7987ZM70.4463 91.1404L71.6679 91.208L72.8061 90.1869L73.9711 89.3573L75.1927 88.6704L77.0534 87.0976L77.5412 86.8648L78.7477 86.5647L79.2733 86.193L79.8596 86.1067L79.3301 87.0375L78.6644 87.3491L78.5587 87.6832L78.9331 88.2236L78.3544 88.9783L78.377 89.9204L77.6886 91.0353L78.7401 90.5773L79.1295 89.8528L78.9291 89.4436L79.383 88.6328L80.0902 88.2463L79.8105 87.6344L79.8294 87.1503L80.6952 87.3303L81.1227 87.3116L81.463 87.1202L82.0871 87.0451L82.2118 87.5856L83.0516 87.518L82.7452 88.2012L82.1061 88.9932L81.9547 89.4737L80.9298 90.2732L80.2453 90.6148L81.3005 90.7012L82.8436 89.6313L83.7588 88.6892L83.7323 89.868L82.9872 90.9264L82.3519 91.5945L81.6333 91.8048L80.9184 92.3492L80.5706 93.2388L80.6121 93.8318L80.8164 94.301L81.5463 95.093L80.7257 96.6246L81.6407 96.4331L82.14 96.7222L82.8436 97.6043L82.42 98.6254L82.125 99.1471L80.3398 101.306L79.5607 102.402L78.6494 103.104L78.6607 104.256L78.1388 105.097L75.4764 107.983L75.011 108.61L72.9121 113.224L71.5732 115.168L70.8055 115.832L69.9925 116.369L68.0447 117.289L67.1824 118.347L66.2332 119.226L65.2309 119.425L65.2611 119.815L65.9042 120.033L66.4072 120.611L66.0328 121.26L65.3179 121.666L64.5767 121.782L64.1984 122.199L65.9684 121.902L66.4677 122.24L66.5584 122.957L66.7475 123.603L67.175 124.458L68.665 125.006L70.0038 125.262L70.2646 125.66L70.4652 127.03L70.2231 127.702L69.9244 128.144L69.4743 128.302L68.3852 128.388L67.2922 128.077L66.5697 127.248L64.501 127.514L63.9489 127.69L63.6652 127.54L64.8113 126.669L64.2136 126.174L63.7143 125.99L63.1735 126.279L62.8106 126.737L62.7047 127.488L62.3303 127.923L61.7629 128.047L60.9573 127.42L60.1593 126.527L58.9869 125.626L59.1686 126.181L60.0686 127.544L60.5187 128.449L59.471 129.173L58.3743 129.736L57.4514 130.066L56.5816 130.584L55.5568 131.391L54.9933 131.677L53.4957 131.696L52.6938 131.951L52.429 133.017L51.8695 133.696L50.5533 133.831L51.0297 134.045L51.321 134.387L50.4512 137.608L50.2619 138.948L50.0994 141.245L49.551 143.385L47.9892 143.373L48.2387 143.753L49.4224 144.357L49.1994 145.269L47.8982 146.939L47.3537 147.904L46.8242 150.254L46.0301 152.427L44.8159 154.905L44.8046 155.352L45.2321 155.986L45.7501 156.534L45.7804 157.307L45.6215 157.716L45.0431 157.821L44.5362 158.088L41.8283 158.771L40.9433 159.537L40.2134 160.911L39.3586 162.097L36.5148 164.732L34.8431 166.947L34.5065 167.581L34.0564 168.043L30.3994 169.094L27.8124 169.252L26.4055 168.981L25.0478 168.448L24.2952 168.268L22.8581 168.595L22.2302 168.951L21.1033 168.598L20.2107 168.865L19.9459 168.606L19.6131 167.957L19.7984 167.093L19.5526 166.455L18.9854 166.023L18.6034 165.52L18.1685 165.164L16.9809 165.025L15.1052 165.25L14.4849 165.228L13.2103 163.114L12.7906 162.596L11.274 161.924L10.7558 162.018L9.94284 163.144L9.46248 163.336L6.61078 163.456L3.7517 163.092L2.70027 162.671L2.49229 161.699L4.66326 159.03L4.02016 159.387L2.68134 160.472L1.8268 160.306L2.64741 159.124L2.7192 158.595L2.54907 158.009L1.43346 159.004L0.162736 159.135L0 158.212L0.113569 157.142L0.370716 156.838L3.80087 156.279L5.03767 155.915L5.57827 155.34L3.5248 155.145L3.39622 154.342L3.69123 153.7L5.44601 152.634L4.15266 152.904L2.7192 152.81L2.81384 151.684L3.18825 150.806L4.68957 150.78L4.22075 150.175L4.14873 149.334L4.56492 149.278L6.08887 150.412L7.18948 150.824L6.72435 149.972L6.78852 149.436L7.07983 149.195L7.97985 149.027L7.73032 148.876L6.88686 148.659L5.88089 148.013L5.77494 147.33L5.8128 146.541L6.89448 145.457L7.53365 146.102L8.29008 145.926L7.71139 145.419L7.3596 144.661L7.59805 144.162L9.89367 142.153L10.4798 144.087L10.6159 143.445L10.6499 142.837L10.3738 142.307L10.4156 141.774L10.6801 141.316L11.6635 140.862L12.9418 139.391L13.8873 138.708L14.655 139.147L15.1806 139.736L15.1012 139.15L14.7268 138.666L14.6248 137.319L16.3417 135.232L18.229 133.25L20.0406 131.178L21.005 130.427L23.0585 129.575L24.3747 129.931L24.7112 129.864L26.6627 128.377L27.472 127.991L28.2095 128.52L28.6633 128.711L28.2058 127.352L28.5649 126.73L30.1951 125.633L32.2372 124.503L33.788 124.034L34.9301 123.269L35.6185 123.25L35.5162 122.672L35.6335 122.12L36.2235 122.157L36.4049 121.94L35.883 121.639L37.566 120.536L38.4812 119.316L38.9579 119.064L39.3928 118.696L39.9297 117.856L40.5652 117.578L41.1552 117.709L41.5825 118.122L41.3479 117.435L40.5917 117.045L41.4047 116.452L42.2482 116.039L43.0688 116.335L43.8744 116.816L43.0688 116.08L42.9365 115.626L43.9159 115.1L44.4455 114.939L45.1867 115.922L45.0807 115.142L45.2548 114.451L46.3023 113.321L47.6752 111.459L48.1138 112.109L48.1858 112.893L48.1178 113.843L48.4012 113.516L48.4959 112.657L48.2842 111.144L50.0011 108.355L50.3414 108.043L50.7197 107.856L51.3173 107.781L51.132 107.36L50.6668 106.955L51.1356 105.543L51.4156 103.933L51.8127 102.386L52.4518 100.878L53.1515 98.3626L53.6847 97.837L55.1256 97.6567L55.7571 97.3039L56.8086 96.3994L58.0527 94.7626L58.7185 93.4453L59.5922 90.048L60.0838 86.5083L61.4981 83.8919L63.5745 82.0038L65.4013 80.57L66.1501 80.2697L67.4132 80.1796L68.6158 80.5737L66.377 80.919L66.1462 81.771L66.0744 82.6345L66.3315 83.4078L66.7325 84.0983L67.8178 84.7478L69.0886 85.1343L69.6559 86.5983L69.758 88.3364L69.932 89.8304L70.4463 91.1404ZM78.9291 85.3559L77.5072 86.163L77.5677 85.6036L77.8438 84.3838L78.4906 83.7682L78.8082 83.7267L79.4587 83.265L79.3869 84.2862L78.9291 85.3559ZM5.31744 147.364L5.77494 149.154L4.80314 148.813L4.39849 148.268L5.13969 147.371L5.31744 147.364ZM2.84408 154.488L2.78729 155.228L2.66241 155.599L2.29193 155.603L1.73978 155.52L1.19894 155.179L0.850845 155.276L0.56346 155.153L0.937868 154.319L2.19729 153.876L2.68134 154.233L2.84408 154.488ZM17.6882 172.81L17.6958 173.422L16.5876 173.204L16.6104 173.891L17.4839 174.255L17.8054 174.751L18.7131 174.608L18.9173 175.348L18.7054 176.012L18.1004 176.496L16.3078 176.74L15.143 177.705L14.1368 177.558L13.8647 177.645L12.7112 178.681L11.4215 179L11.0698 178.921L11.2475 177.998L12.2082 177.123L12.2271 176.282L12.4728 175.61L13.3919 175.137L13.4069 174.267L14.0272 173.489L13.6491 171.819L13.8494 170.321L15.6723 170.239L17.6882 172.81Z" fill="url(#paint0_linear_2_287)"/>
<defs>
<linearGradient id="paint0_linear_2_287" x1="28.535" y1="30.1045" x2="154.226" y2="164.202" gradientUnits="userSpaceOnUse">
<stop stop-color="#8FFFF4"/>
<stop offset="1" stop-color="#3064FF"/>
</linearGradient>
</defs>
</svg>
