<svg width="108" height="158" viewBox="0 0 108 158" fill="none" xmlns="http://www.w3.org/2000/svg">
<path d="M97.0653 35.6043L97.0135 36.158L96.7398 36.3801L96.3201 36.4288L95.6752 36.0332L95.2038 36.1337L94.7323 36.158L94.0693 35.6986L93.8411 35.2454L93.321 34.8742L92.2443 35.0233L91.3561 35.0324L90.6139 34.9471L89.9478 35.0719L89.382 35.5495L88.9593 36.1094L88.4634 36.5779L87.0065 36.8912L86.2309 36.9003L85.5344 37.2076L84.4972 37.3202L83.7885 37.594L82.5323 37.7431L81.0267 37.886L80.1872 38.3028L79.8525 38.4854L78.9978 39.0604L77.5105 39.9671L76.6892 40.2834L75.6976 41.266L74.5084 42.1879L73.7358 42.6777L72.6012 42.9029L72.1298 43.1524L71.9564 43.4474L72.0568 43.7943L71.8622 44.6826L71.5154 46.3224L71.4211 47.1286L71.3359 47.512L70.5846 48.8323L69.7756 50.0584L69.3771 50.8707L69.155 51.467L69.4045 51.9598L69.733 52.8512L70.0098 53.5632L70.0888 54.0469L69.9915 54.6006L69.6508 55.1087L69.1124 55.4403L68.3886 55.5316L66.8981 56.423L65.2374 57.7433L64.6929 58.3578L64.5378 58.9389L64.2976 59.8456L64.3979 60.3171L64.6929 60.6396L64.9911 61.4093L65.0154 61.8078L64.769 62.0299L64.2976 62.0786L63.8748 62.1547L63.5523 62.3524L63.2299 62.3037L62.9348 62.4011V62.7266L63.0322 63.0978L62.9835 63.4963L62.7858 63.7427L62.6124 63.9161L62.7858 64.1656L63.0808 64.3908L63.528 64.762L64.1485 65.483L64.6199 65.6077L65.0154 65.8571L65.064 66.2527L64.9149 66.6512L64.5682 66.8246L64.5439 67.1745L65.0154 67.5973L65.3377 67.8955L65.6602 68.3428L65.9583 68.9664V69.3619L66.2807 69.8609L66.4784 70.2838V70.6823L66.9986 71.0778L67.4456 71.379L67.765 71.6528L68.0874 71.8262L68.1635 72.1243L68.1209 72.5777L68.5832 73.3261L69.4318 73.8859L70.1193 74.6982L70.5634 75.2884L71.3876 76.2376L71.418 77.3268L70.3991 78.5771L69.3771 79.8306L71.047 79.7971L72.7503 79.8214L74.5327 80.1804L75.7341 80.5242L76.4672 80.6794L76.9873 81.0809L77.2337 81.7046L77.4314 82.2158L77.4831 82.952L78.2252 83.5513L78.1735 84.1232L78.1523 84.9295L78.4808 84.9417L80.6616 84.9447L83.0463 84.9477L85.3397 84.7987L86.2065 84.604L87.2529 83.6243L87.8825 83.3353L88.4878 82.8789L89.2239 82.0454L89.8079 81.6711L90.3006 81.2088L91.0336 80.7463L91.3378 80.4056L91.5872 80.2808L92.1561 80.0556L91.9096 80.5059L91.718 80.9653L91.6602 81.6285L91.931 82.3526L91.7059 82.8942L91.3378 83.3779L91.3318 84.6526L91.3257 86.4598L91.3166 88.0083L91.3074 89.9493L91.2983 92.1489L91.2923 93.6123L91.6816 93.3233L92.223 93.0646L92.9256 93.737L93.4275 94.0291L93.8563 94.0991L94.2973 94.0777L94.8966 93.9347L96.2105 93.3719L97.1109 92.9187L98.142 92.949L99.5564 93.1255L100.372 93.1072L101.439 94.9813L102.221 96.3564L103.112 97.9232L103.827 99.1858L104.916 101.102L105.856 102.761L106.859 104.528L108 106.539L107.632 107.05L107.334 107.458L107.367 108.148L106.917 108.517L106.44 108.739L105.877 109.323L105.494 109.825L105.475 110.546L105.548 114.203L105.454 115.198L105.162 116.052L104.861 116.484L104.679 116.825L105.113 117.674L105.53 119.384L105.846 119.724L106.236 120.421L106.412 121.081L106.333 121.334L105.551 121.647L105.272 121.915L105.199 122.898L104.861 123.251L104.289 123.713L103.921 124.242L103.611 124.61L103.307 124.823L103.158 125.471L102.954 126.129L102.242 126.564L102.121 127.37L102.111 128.036L102.489 128.702L103.714 130.105L103.839 130.44L103.139 131.285L102.735 131.873L101.737 133.667L101.719 133.996L101.965 134.845L103.453 138.483L103.705 138.779L104.165 139.125L104.916 139.086L106.05 139.478L106.601 139.929L106.653 140.151L106.525 140.3L105.926 140.601L105.259 140.996L105.028 141.371L104.983 141.964L105.135 142.843L104.846 143.129L104.18 143.47L103.605 143.963L103.03 144.781L102.054 146.028L101.716 146.369L101.57 146.801L101.013 146.944L99.9761 147.793L99.7998 148.222L99.967 148.63L100.499 148.973L100.855 149.469L100.949 150.105V150.501V150.513L100.305 151.109L99.4651 151.794L98.431 151.927L98.0386 152.271L98.1268 152.998L98.4614 154.024L98.4584 154.827L98.142 155.746L97.4029 156.753L96.2714 157.446L95.2038 157.817L94.3643 157.82L93.5521 157.893L93.2054 158L92.5788 157.391L89.7957 155.38L88.7372 154.307L87.7547 153.805L85.361 152.083L85.1237 151.532L84.8287 149.764L84.5184 149.269L83.6941 148.63L81.6289 147.781L80.8259 147.358L79.9864 146.585L78.7515 146.038L77.4071 144.915L76.6071 144.021L75.7098 143.427L72.9237 142.6L71.5275 141.769L68.9147 140.598L67.7498 139.852L64.9545 138.946L64.1242 138.514L61.3745 136.393L59.4461 135.7L57.8918 134.51L53.2016 131.982L52.4655 131.173L51.7477 129.925L50.7074 129.183L49.5363 127.476L47.7965 126.472L46.1206 125.143L45.5031 123.935L44.3899 122.399L44.0614 121.58L43.088 120.759L43.0211 119.143L42.3428 118.401L42.8295 118.033L43.3436 117.872L43.9854 115.362L43.6478 114.105L41.9079 111.827L41.2692 110.734L40.816 109.335L40.1194 108.504L39.0853 106.755L38.4526 105.207L37.0717 104.084L36.6945 103.679L36.4846 103.107L35.7151 102.703L35.6756 101.516L35.1403 99.2649L34.3737 98.1301L31.6149 96.0127L31.5693 95.1973L31.3504 93.7157L30.7359 92.1124L27.6669 87.1412L26.8973 85.6627L26.1308 83.2623L25.4404 81.9024L24.68 79.4807L23.5333 77.6401L22.8093 76.0459L22.0429 74.0653L21.9759 73.0066L20.5829 71.1873L19.8437 69.5201L18.545 68.1237L17.2766 67.0619L16.726 66.3105L14.9193 62.7449L14.6729 61.6892L13.4441 59.7299L12.2244 58.3244L11.4548 57.1896L10.4694 56.1704L4.4834 53.0338L2.3755 51.7316L1.66378 51.1111L1.33527 50.1344L1.47214 49.5625L2.08961 49.0271L2.94428 49.4408L3.46748 49.2674L3.87503 48.5707L3.88417 47.515L3.36102 46.1551L1.44174 43.5296L1.58771 42.9728L1.94967 42.343L1.21056 41.0805L0.404527 40.0674L0 39.2916L0.45623 36.3375L0.894219 35.5891L3.79599 32.5924L4.59288 31.3116L5.83997 30.5206L7.11138 29.3128L8.64131 28.394L8.86339 28.5522L9.07628 28.7074L9.08844 29.0176L9.14622 29.2854L9.31655 29.5379L9.33178 30.0004L9.52949 30.3107L9.54165 30.6605L9.55687 31.1382L9.45649 31.3785L9.55381 31.7923L9.88231 32.5589L9.75459 32.7962L9.44433 32.9514L9.13406 33.1644L8.82384 33.642L8.35541 33.6268L7.68016 33.4169L7.22695 33.6816L7.05968 34.1896L7.19956 34.6125L7.24217 35.005L7.53721 35.3427L8.39801 35.3701L7.62238 36.4531L7.24217 36.946L7.32427 37.2563L7.78965 37.521L8.13639 37.5393L8.90595 37.1438L9.4291 36.5657L9.72414 36.2432L10.22 36.1154L10.8678 36.3832L11.7286 36.9186L12.7323 37.3902L13.143 37.6487L13.879 37.5758L14.4965 37.4662L15.0166 37.8557L15.5429 38.1842L15.6645 39.3007L16.0569 40.1161L16.5375 40.7428L17.1215 41.4912L17.6598 41.7437L18.3533 41.7498L19.2962 42.0266L19.6643 41.8441L19.9867 41.3208L20.157 41.0258L20.6376 40.898L20.6802 40.5633L20.5798 40.1526L20.738 39.675L21.1303 39.2521L22.1402 38.6375L22.6269 38.379L22.7272 38.0016L22.9097 37.4936L22.8397 37.2137L22.636 36.8638L22.6846 36.3679L22.9523 35.7077L23.3325 34.935L23.661 33.9493L23.7857 33.4869L24.1385 33.1917L24.2724 32.7659L24.464 32.2639L24.899 31.701L24.8868 31.0956L25.0693 30.8278L25.0845 30.1525L25.5195 28.7652L25.5347 28.4762L25.7263 28.4001L26.0579 28.4883L26.3438 28.8048L26.4319 29.115L26.5506 29.255L26.8213 29.2276L27.1316 29.0512L27.1103 28.7712L26.8852 28.4974L26.8213 28.3332L26.9186 28.0745L27.3901 27.5117L27.9041 26.8576L29.0082 25.4977L29.6743 24.944L31.3929 24.3569L32.6978 23.9096L33.9449 23.4837L35.6421 22.8722L38.0389 22.0082L39.7574 21.3875L41.2935 20.2802L42.4827 19.4222L43.4987 18.683L44.7884 17.7398L46.5342 15.7075L47.7388 14.305L48.6148 13.2798L49.223 12.6317L49.7067 10.8094L50.2603 8.73145L50.5036 7.80663L50.6101 7.48418L50.8473 7.62103L51.1211 7.84618L51.4526 7.85528L51.7659 7.84618L51.9636 7.71842L51.6717 5.64354L51.7142 5.19018L51.8785 4.64871L51.845 4.35663L51.3158 3.94291L50.4671 3.11233L50.1143 2.37301L49.9014 1.75244L49.3083 1.34169L48.6968 0.982664L48.7486 0.687605H49.1105L50.0291 0.976629L50.6922 0.885363L51.185 0.851846L51.6655 0.547688L52.1765 0H52.5202L52.9126 0.0730685L53.6274 0.635891L54.0502 0.96753L54.5612 1.24133L55.0418 1.33863L55.4798 1.36908L55.787 1.34476L55.9664 1.71892L56.1794 2.17831L56.7238 2.48869L57.3686 2.78375L57.8887 3.29179L58.2415 3.63253L58.6583 4.03418L59.0629 4.56961L59.4278 5.50966L59.6134 6.14852L59.8233 6.50151L59.7746 6.86045L60.2065 7.51454L60.5258 7.87663L61.0856 8.10781L62.1653 8.36945L62.7432 8.95966L63.2542 9.18787L63.7957 9.79628L64.2762 9.97584L64.8846 9.94232L65.4929 10.2375L65.9552 10.8125L66.2533 11.5335L66.7156 11.9412L66.9438 12.6804L66.6822 13.5475L66.9286 14.0069L67.4061 14.3841L68.1817 14.7765L68.8904 14.6792L69.2524 14.8101L69.4835 15.1691L69.6143 15.598L69.9246 16.6384L70.0858 17.2987L69.7968 17.9375L69.6904 18.3818L69.8485 18.972L70.5846 19.2609L71.2538 19.4953L71.6674 19.9547L72.1298 20.0793L72.7777 20.052L73.605 19.9394L74.0673 19.6747L74.3624 19.5956L74.6939 19.7112L75.4299 19.9638L76.3242 20.2497L77.1363 20.0855L77.839 20.0093L78.5355 19.842L79.2412 19.3644L79.8373 19.3826L80.2784 19.0602L80.835 18.543L81.3855 18.0227L81.8144 17.9072L82.508 18.1566L83.463 18.5156L84.0044 18.9811L84.4181 19.1028L84.85 19.4465L85.6773 19.4526L86.5624 19.267L87.2711 18.6951L88.0041 18.5277L88.506 18.3666L88.9684 18.4639L90.7539 19.5135L91.2435 20.055L91.8579 20.1615L92.3629 20.4566L93.2054 20.776L93.6677 21.1046L94.2578 21.3024L94.6897 21.7587L95.3681 22.0416L95.9581 22.1968L96.2227 22.5679V22.8144L96.1437 22.9787L95.5201 23.9461L94.2973 25.8415L93.1963 27.5483L91.4656 30.2376L90.5014 31.7406L90.7477 31.8045L92.2534 32.4616L92.6275 32.4859L93.1781 32.3186L93.5369 32.057L93.8746 32.0204L94.2274 32.273L94.7232 32.5985L95.0791 33.5568L95.3437 34.0254L95.9642 34.3813L96.6273 34.9745L97.0653 35.6043Z" fill="url(#paint0_linear_2_305)"/>
<defs>
<linearGradient id="paint0_linear_2_305" x1="28.5" y1="16.5" x2="135" y2="203" gradientUnits="userSpaceOnUse">
<stop stop-color="#8FFFF4"/>
<stop offset="1" stop-color="#3064FF"/>
</linearGradient>
</defs>
</svg>
