<svg width="109" height="145" viewBox="0 0 109 145" fill="none" xmlns="http://www.w3.org/2000/svg">
<path d="M23.3247 0.662127L26.4875 0.888993L28.8529 0.293252L34.8314 1.04976L36.1175 1.64579L36.9528 2.31716L38.5202 4.5304L40.0223 7.38673L42.1247 8.71069L44.6122 10.2809L45.8885 11.4253L47.775 14.8395L49.2673 16.5136L49.7554 16.4285L50.2527 15.9935L50.6004 15.6434L50.9946 15.9649L51.0226 16.9959L51.1166 19.2943L50.7597 21.7344L51.2856 24.0325L51.3039 24.7515L50.9287 25.4137L50.9757 25.9999L51.501 26.6242L53.5192 28.147L55.3965 30.4925L57.5551 32.1383L59.5545 33.188L60.8217 33.2636L62.8863 35.1554L66.979 36.5171L68.2926 36.9902L69.1845 37.7658L69.8416 38.6643L69.8789 39.6289L69.2504 40.0829L68.3676 41.3881L68.0021 42.9675L67.3542 43.3742L66.6971 43.4025L66.2188 43.866L66.331 44.5469L66.8753 45.1995L67.7294 45.786L69.3535 46.3723L70.9679 47.233L70.949 47.9141L70.6207 48.6611L68.5744 48.9356L67.0443 49.0586L66.3499 49.3706L66.4061 50.6758L70.7049 52.0471L72.6573 53.3335L73.6805 55.0076L76.4211 56.1142L80.8792 56.6531L83.9768 58.3841L85.7229 61.2687L88.5569 60.5783L92.5086 56.2842L96.3755 55.1684L100.177 57.2206L102.252 58.9137L102.608 60.2284L101.726 60.7673L99.6043 60.5122L97.8587 61.3348L96.4975 63.2169L96.2913 65.2221L97.2486 67.3502L98.5908 68.8162L100.336 69.6295L101.266 70.7362L101.388 72.1453L101.838 72.5332L100.843 73.1763L99.7733 74.1409L99.1631 75.8245L99.0039 78.52L95.6251 80.6291L94.3579 81.017L93.785 82.4166L92.8936 86.3608L92.9967 89.321L93.4567 90.8248L93.663 92.0544L94.7612 93.5582L95.7562 95.8658L96.4133 98.9115L97.8776 101.257L101.622 103.565L103.481 104.908L104.86 106.856L105.912 108.615L109 110.951L108.765 112.616L108.09 114.243L107.376 115.009L105.837 117.099L104.335 118.272L101.867 121.951L97.9716 122.15L97.0424 122.443L95.5592 123.445L94.8362 125.28L95.5311 126.756L95.4652 128.24L94.7612 131.125L95.7001 134.218L97.0796 135.627L97.2956 136.441L97.0607 137.878L95.0052 140.81L94.3859 141.898L92.3304 142.427L91.6264 142.153L90.566 141.151L89.5801 140.848L87.1304 142.03L84.6339 142.758L82.6723 142.21L80.7389 142.144L79.3966 142.626L78.3826 142.815L76.393 144.083L73.2113 145L71.7373 144.801L71.193 143.61L70.5921 141.917L70.8831 141.141L72.9953 139.798L73.2296 138.521L76.1771 132.336L76.7402 130.321L76.7591 129.669L75.9892 129.224L74.3748 129.243L67.2133 126.727L67.5421 123.843L65.4396 122.282L63.1682 120.892L62.7924 119.341L60.2677 116.201L58.4282 114.441L56.072 113.562L54.0451 112.266L52.8249 111.472L52.2801 110.006V109.135L51.67 108.294L50.6938 108.388L49.0325 109.561L46.9959 110.564L46.6396 111.301L47.3809 113.032L47.9062 114.148L47.6621 115.188L47.024 116.522L43.1009 119.454L42.6598 120.485L43.4103 122.131L42.9319 122.887L39.6562 123.975L39.7404 123.077L39.5342 121.629L37.6569 120.088L35.0004 118.896L29.1061 114.801L26.8444 114.262L24.817 113.779L21.9165 111.822L20.4242 111.472L18.772 110.072L15.168 105.324L12.0986 102.732L10.0059 101.427L9.41465 100.15L9.29262 98.8358L9.35793 98.3911L10.9442 96.5184L12.1645 96.2537L13.7318 96.1876L14.7739 97.1332L16.1253 97.3413L16.8855 96.1308L17.2797 94.3906L17.1015 92.1678L13.8258 86.9943L11.0193 83.3815L10.691 82.5774L11.3011 81.8965L12.2865 81.5371L13.3377 81.8396L16.0783 82.1046L18.7159 81.764L19.617 80.8845V79.6928L18.6597 78.5861L15.5713 75.6069L13.1687 72.9777L10.3341 70.9538L8.2414 70.1401L7.62154 69.1094L7.35859 68.0123L7.59347 65.9976L7.7344 63.4251L8.22249 61.8174L10.1181 58.7625L11.9296 55.5182L13.0467 52.3972L13.6379 49.4935L13.4225 48.6519L12.4744 48.0371L10.4842 47.4033L7.70633 47.952L5.35009 49.0112L4.43062 49.0964L4.1207 47.7912L4.48677 47.2142L5.22807 47.2898L5.83818 47.5357L6.4861 46.94L6.88024 45.19L5.8949 39.0614L7.65935 38.5223L7.68742 37.6333L7.84668 36.8482L9.66786 37.917L12.2206 37.9358L14.464 37.7184L14.802 37.1132L14.7831 36.2429L14.3139 35.5525L13.5159 35.0038L12.9436 34.1526L11.4323 33.7745L6.69234 31.5613L4.36474 29.2063L4.43979 26.6998L5.11578 25.3285L5.93213 24.8462L5.68809 24.3827L3.02249 23.2192L2.07438 21.602L2.8535 19.5307L1.46427 15.3031L0 12.7019L1.4362 11.5765L1.63327 9.96856L1.74613 9.05128L2.33733 9.07004L4.65576 7.99199L5.50018 7.12176L5.98827 6.09105L6.54225 5.83561L8.09073 6.95147L9.73374 7.04614L11.5641 6.3462L12.9436 5.37206L14.586 4.55869L15.337 4.00076L16.2943 3.13053L18.2186 0.539169L20.4053 0L23.3247 0.662127Z" fill="url(#paint0_linear_2_309)"/>
<defs>
<linearGradient id="paint0_linear_2_309" x1="33.6015" y1="-12.6977" x2="102.803" y2="170.005" gradientUnits="userSpaceOnUse">
<stop stop-color="#8FFFF4"/>
<stop offset="1" stop-color="#3064FF"/>
</linearGradient>
</defs>
</svg>
