<svg width="153" height="133" viewBox="0 0 153 133" fill="none" xmlns="http://www.w3.org/2000/svg">
<path d="M138.11 2.55296L138.16 3.07807L138.226 3.31593L138.67 4.69975L139.334 6.77377L139.775 8.68915L140.382 11.3215L140.362 12.791L140.511 13.3591L141.055 14.0692L141.721 15.2912L141.947 15.9814L142.169 16.5L142.872 17.4841L143.419 18.977L143.884 20.9553L144.282 21.9063L144.431 22.3754L144.61 23.2274L144.587 25.0273L144.597 27.1178L144.61 29.4529L144.62 31.3848L144.55 32.3625L144.6 35.1466L144 36.5964L144.073 37.7391L144.258 38.4789L144.013 38.5946L143.545 38.7266L141.396 37.5543L139.3 36.3158L138.999 36.2793L138.558 36.4081L137.371 37.3065L136.259 38.7133L135.749 39.9155L134.93 41.1574L133.61 43.1587L133.474 43.5915L133.461 45.2228L133.524 46.7784L133.64 46.9963L134.353 47.0691L134.863 48.3438L136.031 50.3783L137.991 51.6862L139.811 52.2806L142.351 52.4292L144.361 52.3862L144.245 51.0123L144.444 48.8095L144.699 47.3299L144.981 47.264L145.509 47.4059L145.8 47.5579L146.606 47.495L148.039 47.7857L149.196 47.756L150.231 47.7262L151.979 47.6768L153 47.6603L152.655 50.048L151.322 53.7965L150.868 55.5205L149.73 61.6997L148.245 64.8273L147.412 66.1218L145.005 68.414L144.335 68.8796L143.741 69.1767L142.686 69.441L138.561 74.0978L137.026 76.35L135.659 79.6428L134.303 81.4559L132.31 85.3333L130.529 88.3353L128.821 91.083L125.866 94.8745L124.553 95.9743L123.668 96.4764L121.32 98.6857L118.013 102.253L115.483 105.423L111.699 109.036L109.507 110.621L106.217 113.749L105.299 114.211L101.591 117.128L98.9248 118.904L94.6102 120.969L92.8958 121.547L88.8002 121.011L87.0923 121.295L85.6629 122.544L85.5303 124.34L84.9334 124.611L84.0313 124.532L81.1694 123.782L79.6173 123.924L78.7119 124.886L77.9825 126.101L75.8268 126.164L71.9867 124.905L67.4699 124.139L66.4253 124.053L64.2364 124.988L63.4737 125.123L60.2868 124.922L58.5191 124.334L56.8278 124.331L55.5312 124.816L53.9592 124.988L49.7111 128.373L47.5157 128.376L45.6222 128.769L44.6836 128.756L42.9261 128.28L42.2727 128.314L41.2712 128.525L40.2696 129.123L37.9881 129.38L37.1025 129.892L33.2491 133L32.3702 132.875L31.6605 132.673L29.6575 132.634L27.3925 130.979L26.5236 131.084L26.7558 130.589L26.8254 129.711L26.3447 129.09L26.0228 128.812L25.1342 128.865L24.66 128.119L23.3002 128.049L22.8294 128.238L22.176 128.277L22.1196 127.521L22.1693 127.045L22.1297 126.316L21.9671 125.421L21.4399 125.137L21.0352 125.018L20.0736 125.08L19.4103 125.176L19.0986 125.437L18.7438 126.094L18.7403 128.089L18.2628 127.518L17.719 126.322L17.5433 125.047L17.7388 123.545L18.7703 122.973L18.6905 121.959L18.4717 121.081L17.321 118.835L16.8733 117.808L15.8983 117.114L15.1388 115.443L14.3762 114.839L14.0578 113.67L13.3117 112.738L13.0595 111.265L13.4708 110.423L14.1207 109.961L14.784 110.691L15.6098 110.407L16.7804 109.343L17.4734 107.732L17.5166 105.159L17.3376 103.557L16.409 99.4289L15.9714 98.4811L13.8754 95.5385L11.4445 91.6116L8.37026 85.4522L6.90116 81.7664L4.67607 74.3685L2.71614 70.204L0.308473 66.3333L0 66.0823L0.368184 65.6133L1.66482 64.7215L2.25181 64.4804L2.56676 64.5927L2.87199 64.3484L3.16711 63.744L3.2335 63.1792L3.37923 62.38L3.66787 61.901L3.98626 60.95L4.52669 60.339L5.67092 59.9328L6.53642 60.4711L6.89793 60.9962L7.0471 61.6898L7.43188 62.0266L8.04863 62.0034L8.483 62.4296L8.7352 63.308L8.68541 63.9422L8.33382 64.3385L8.38361 64.8569L8.83134 65.501L9.01696 66.1152L9.31551 66.9277L10.8874 67.4L11.6568 67.6643L12.9799 67.7534L14.2302 68.1166L15.4074 68.7508L17.3441 68.9028L20.0404 68.5758L22.259 68.721L23.9999 69.342L25.2634 69.4575L26.0461 69.0645L26.3878 68.4998L26.2815 67.76L26.6695 67.2944L27.5484 67.0961L28.2514 66.5413L28.7821 65.6266L30.0058 64.8834L31.9259 64.3121L32.8811 64.3318V62.8555V58.2055V53.5786V48.9681V44.3742V39.8V35.2456V30.7045V26.4343L33.3286 26.7413L36.2769 29.007L37.0728 30.1991L37.4675 30.9555L38.7342 33.7066L39.676 36.1803L40.4421 38.0495L40.5018 38.905L40.6113 39.7406L40.7206 40.1534L40.651 40.6091L40.1106 41.6295L39.56 42.409L38.8967 43.4758L38.8338 44.886L39.0327 46.5506L39.4406 47.3795L39.9513 47.6536L41.1718 47.2408L41.9444 47.3696L43.0354 47.6867L46.6103 47.4918L47.0415 47.5942L48.3913 47.7131L48.8423 47.5744L49.2469 47.221L49.7145 46.2236L50.1323 45.8933L50.8917 45.7249L51.7904 45.454L52.5333 44.8793L53.7105 42.9077L56.0683 41.1607L56.7914 40.7446L57.249 40.2755L57.6469 39.6448L58.4728 37.4519L59.0962 35.6288L59.3085 34.7701L59.8656 33.3697L60.5388 32.4747L61.1988 32.0024L61.5304 31.8835L62.3793 31.6424L63.4705 31.4179L64.6177 31.6688L65.8482 32.2105L67.2377 33.122L68.6605 34.2516L69.3136 34.8261L70.0201 35.0837L71.2768 35.173L72.0994 35.1531L73.3794 36.2761L74.0262 36.3454L75.4754 36.6857L77.2661 37.0356L78.3903 36.9961L79.5975 36.3883L80.4664 36.3619L81.5906 36.4115L82.8275 36.2464L83.7329 35.9854L84.426 35.4571L85.0362 34.8791L85.7392 33.1585L86.1438 31.7779L86.7672 30.1893L87.5334 28.0393L87.8086 26.5432L88.0872 26.1303L89.2014 25.6746L90.12 25.3609L92.6007 24.7731L93.1079 24.4593L93.5723 23.7558L94.6533 22.5636L95.9866 21.5695L96.6764 21.0014L97.9364 16.1862L98.089 15.5917L99.0043 14.317L99.5715 13.7785L99.9362 13.7687L100.454 13.4318L101.127 12.7713L101.926 12.3617L102.851 12.2099L103.451 11.7706L103.727 11.0506L104.204 10.7005L104.884 10.7204L105.272 10.4924L105.365 10.0135L105.776 9.60067L106.502 9.26061L106.881 8.85444L106.917 8.3888L107.783 7.25594L109.477 5.45606L111.072 4.45524L112.571 4.25044L113.994 3.87732L115.337 3.33246L116.322 2.47697L116.952 1.31448L118.037 0.663791L120.222 0.472293L120.341 0.462416L123.001 0L125.226 0.376544L127.909 1.44006L130.42 1.8164L132.761 1.50598L134.664 1.43663L136.127 1.60838L137.281 1.97827L138.11 2.55296ZM114.369 81.7896L115.897 81.1125L116.587 80.6996L117.085 80.3596L117.728 79.8443L117.95 78.5926L118.139 77.5292L118.63 77.0039L119.134 76.6572L119.549 76.1057L120.063 74.7813L120.414 73.4868L120.451 72.9583L120.268 72.4167L119.94 71.8387L119.618 71.0592L119.23 70.9371L118.471 70.5011L117.353 69.6226L116.385 68.8598L115.476 67.7534L115.105 67.5718L114.226 66.8221L113.848 66.3928L113.583 65.8775L113.334 65.709L112.939 65.8412L111.901 66.069L109.676 66.9675L108.297 67.7931L107.136 68.7772L105.932 69.1537L105.05 69.4807L104.35 70.6069L103.697 71.6571L103.11 72.6049L102.772 73.0311L102.467 73.305L102.158 73.9128L101.525 74.9235L100.944 75.6004L100.135 75.9703L99.0906 76.4492L98.7357 76.7266L98.686 77.1362L99.0574 78.0872L99.4156 79.0054L100.003 80.082L100.434 80.8714L101.113 81.8357L101.511 82.4005L101.458 83.3483L101.594 83.6886L101.82 84.0815L102.009 84.1807L102.221 84.3226L102.785 84.5967L102.921 84.7783L103.315 85.1021L103.694 85.6933L104.41 86.5056L105.216 87.1233L106.599 87.3776L107.68 87.5758L108.038 87.4534L108.406 86.9547L108.708 86.3208L108.804 85.5149L109.149 85.0855L110.446 83.0411L111.158 82.285L111.596 82.2288L112.157 82.0835L112.873 82.0208L113.41 82.0835L113.526 82.0603L114.369 81.7896Z" fill="url(#paint0_linear_2_289)"/>
<defs>
<linearGradient id="paint0_linear_2_289" x1="66" y1="9.5" x2="147" y2="142.5" gradientUnits="userSpaceOnUse">
<stop stop-color="#8FFFF4"/>
<stop offset="1" stop-color="#3064FF"/>
</linearGradient>
</defs>
</svg>
