<svg width="188" height="139" viewBox="0 0 188 139" fill="none" xmlns="http://www.w3.org/2000/svg">
<path d="M103.174 6.73805L103.194 7.3976L103.738 8.30319L104.301 8.63785L105.487 9.10063L106.401 9.16462L107.647 9.38106L108.492 9.90288L108.541 10.715L108.329 11.6206L107.815 12.4525L107.523 13.0874L107.795 13.4516L108.24 13.737L108.719 13.8157L109.045 13.7223L109.292 13.2202L109.762 12.6049L110.024 12.5262L110.004 12.8757L110.226 13.3088L111.753 14.0323L115.104 15.381L116.418 15.4055L117.481 15.5631L117.792 16.129L119.927 18.2061L120.436 18.152L121.385 18.2013L122.531 18.0339L123.361 17.6451L123.905 17.709L124.508 18.1126L125.21 18.462L126.119 19.1462L126.93 19.9878L127.488 20.2634L130.853 19.6975L131.604 20.1946L132.4 20.1897L133.295 20.0617L135.242 20.3226L136.823 20.2586L136.966 20.0518L137.1 18.1816L137.352 17.5171L137.727 17.3398L138.661 17.4728L142.066 18.5802L143.47 19.2742L144.819 19.8157L145.995 19.8747L146.776 20.2389L147.868 22.0108L147.68 22.9016L147.779 23.2315L147.893 23.8467L147.863 24.5308L148.15 24.9787L148.668 25.0329L149.331 24.9L150.057 24.6341L151.332 23.8762L151.712 23.7531L153.847 24.6144L154.791 25.1903L155.117 25.8155L155.607 26.4553L156.244 26.5488L157.153 25.9434L158.572 25.2936L160.983 25.8646L163.667 26.6915L164.828 26.79L164.868 26.3864L165.08 25.8105L165.52 25.5202L166.182 25.4365L167.101 25.1313L168.149 24.6293L169.241 24.4225L170.383 24.7966L171.761 25.1017L172.587 25.0969L172.982 26.2781L173.649 26.726L173.911 27.7498L172.685 28.2814L171.964 28.3551L171.742 30.1025L172.087 30.5945L172.774 31.0573L172.962 31.5937L173.1 34.1532L171.697 35.6937L169.73 37.4214L160.104 42.9585L157.811 45.6311L156.936 46.2464L149.78 47.9248L144.779 49.7163L142.382 50.366L139.388 53.4717L137.969 54.7218L139.101 55.0664L140.42 56.5479L139.976 57.2025L138.054 58.2164L137.213 58.5265L136.759 58.3642L136.329 58.5019L133.107 63.8422L130.26 67.6715L128.659 69.335L127.018 71.8108L123.525 78.1749L123.5 80.0057L125.22 86.301L126.208 87.9498L127.592 89.3329L130.211 90.5091L130.858 91.6659L129.954 92.7684L127.335 94.7224L122.778 97.3604L120.841 99.4375L120.431 101.436L119.097 102.337L118.593 105.127L117.782 106.973L117.629 107.598L116.769 108.996L116.656 110.015L118.064 111.413L117.367 112.018L116.67 112.284L115.064 112.446L109.663 112.623L105.319 115.641L103.15 118.308L101.183 123.255L98.796 126.164L97.7434 126.7L96.1077 125.425L94.0618 125.228L92.0801 125.652L91.0424 126.666L89.4214 127.232L87.8351 126.744L84.4055 126.479L82.8785 126.528L80.4916 127.35L78.4457 126.803L74.9914 126.523L67.5145 127.178L66.5706 127.483L65.6366 128.703L63.2547 130.805L59.6323 130.879L56.356 132.217L55.5357 133.074L54.1618 135.432L53.7319 137.149L53.4453 137.164L53.0894 136.741L52.5854 136.879L52.3234 138.188L51.093 138.783L50.065 139L47.5299 137.942L45.4149 136.352L44.308 136.239L42.5091 133.758L41.7333 132.178L41.1847 130.465L41.2984 129.811L41.1452 129.264L39.549 128.57L39.1585 126.995L40.3249 124.943L41.2786 124.072L41.8716 123.821L40.4287 123.909L39.386 125.228L38.0516 123.112L32.6108 118.982L32.9616 118.033L32.9023 117.521L31.9881 118.628L31.3654 118.914L28.5832 118.736L25.3809 119.243L24.5359 114.942L24.1356 113.288L24.0319 112.215L24.8571 109.734L25.7614 108.72L26.9623 106.629L28.4448 104.886L30.0114 104.473L30.7032 104.217L31.2814 102.868L31.6076 101.716L31.3704 101.603L29.5419 101.839L26.2606 96.9914L26.3643 96.2186L26.7745 95.0718L27.0463 93.6199L27.1155 92.4731L27.9705 91.4837L29.28 90.4894L30.3819 89.072L30.9354 87.6889L31.0491 86.4289L30.4264 85.5282L28.6327 85.0311L26.7795 81.4282L26.3693 79.1691L25.9888 78.9328L24.8472 77.9041L23.7502 75.9649L23.592 75.6597L24.7237 75.3201L29.3887 75.3054L30.3622 74.8771L30.5104 74.7295L31.3604 73.2184L32.25 70.733L32.4575 69.212L32.1758 68.582L30.6291 67.0415L30.5599 66.5886L30.8069 65.8602L31.7261 65.0825L32.9665 64.1966L33.6435 63.4337L33.4805 62.8332L33.1198 62.2081L33.0605 61.6224L33.2878 60.9038L33.3718 58.4429L33.53 57.8129L33.2878 55.5684L32.9863 53.7326L32.0029 51.3503L32.1808 50.8237L32.6355 50.3808L34.123 49.5539L35.3089 47.6048L37.0336 45.9707L39.292 44.6566L40.8734 43.1948L41.4961 42.0725L41.9359 41.7772L41.8074 41.2555L41.5109 40.4976L40.6114 39.7543L39.4502 39.3311L38.1603 39.3507L37.3598 39.1981L37.1276 38.6173L37.2165 37.0424L37.1473 35.4821L36.9001 34.7635L36.3022 34.222L35.1212 34.3648L34.0982 33.9219L33.3223 33.8185L32.8726 34.1679L30.5846 34.0646L29.6309 33.8136L28.9637 33.5034L28.5387 33.6757L28.2965 33.9809L28.257 34.4583L28.099 35.0884L27.2785 35.6593L25.4056 36.2253L23.8934 36.181L22.5048 35.7774L22.06 35.4771L21.3928 35.2114L18.5712 35.5411L18.2302 35.3L17.2567 35.8857L15.8235 36.5846L15.0181 36.6239L14.7264 36.4763L14.6226 36.1662L14.0198 35.0785L14.1779 34.5026L15.3343 32.8144L15.2058 32.4108L14.7314 31.8645L14.3064 31.077L14.1829 30.6684L13.4465 30.5995L12.6607 31.013L9.67105 31.8645L8.95441 32.1745L7.65968 32.9915L6.35019 34.2418L5.30748 34.5026L4.94675 34.1335L4.82308 31.2L6.41444 29.246L7.54598 28.0648L7.01723 27.8236L5.81647 27.8579L5.90048 26.9426L6.46375 26.4995L7.00743 25.5005L6.36995 25.0722L5.87077 24.4127L5.90048 22.69L6.03877 21.9911L5.87574 21.2332L3.42959 22.2568L2.80192 22.1043L2.77718 20.8246L4.13131 18.8706L4.2696 18.2701L2.68338 17.9797L1.49725 17.0199L0.775765 16.1586L0.00496768 14.9232L0 13.8109L0.800504 11.2071L1.94214 10.4492L2.9304 9.98158L5.02079 8.17522L7.9019 8.50987L9.68584 8.12114L11.287 7.19573L12.2062 6.98905L13.6837 6.18184L13.6344 5.08925L13.1254 4.27709L13.5701 3.5142L15.2256 2.57902L17.064 1.33863L19.1741 1.09755L21.3188 0L22.7568 0.708668L24.017 0.467589L25.4649 1.30919L27.3675 3.23362L30.1547 4.00642L32.3785 3.40095L36.3072 3.27297L38.2691 3.52892L41.7579 3.05157L43.7545 3.22385L46.9914 2.269L49.4968 3.45998L54.3546 4.01619L57.2702 4.99072L65.3451 6.6248L68.2607 6.64448L72.387 5.72417L74.1365 5.03503L75.7376 5.44359L78.085 4.6511L79.2117 4.81362L80.6794 5.94076L85.8436 7.46159L87.1976 6.17208L88.2058 5.8915L91.9219 6.67902L95.6677 8.28351L97.6149 8.39677L100.461 7.95862L102.72 6.90538L103.174 6.73805ZM187.605 72.4064L187.353 72.6131L183.088 70.541L181.694 70.3095L181.353 69.9946L181.393 68.9167L181.502 68.4393L184.358 68.2227L186.666 68.9906L187.906 71.0577L188 71.412L187.605 72.4064ZM171.677 73.3317L173.007 73.9272L174.41 73.3907L175.156 73.558L175.893 73.8485L176.071 74.9805L175.418 76.2405L174.504 77.5203L173.733 78.9229L173.061 80.5325L171.811 81.4824L170.679 82.0533L168.287 80.8572L166.894 80.557L166.479 80.1092L166.147 78.3275L165.52 77.7614L164.596 77.5104L163.785 77.968L162.728 78.9082L162.164 77.968L161.27 77.791L160.934 77.2248L160.949 76.4965L166.686 72.1701L168.346 71.2103L171.87 70.0931L172.409 70.2604L171.949 70.92L171.984 71.2202L172.423 71.54L172.32 72.0519L171.875 72.4949L171.677 73.3317ZM148.095 88.8357L147.591 89.9235L145.481 89.5395L145.016 89.1015L145.471 87.8711L146.079 87.7234L146.118 86.8473L146.756 85.9662L149.751 85.2525L150.428 85.8531L150.571 86.7143L148.782 88.5946L148.095 88.8357ZM150.161 93.1916L149.849 93.4229L148.93 93.2113H147.552L147.497 92.4977L147.71 92.0005L147.977 91.4936L148.817 92.4878L150.146 92.6748L150.161 93.1916Z" fill="url(#paint0_linear_2_295)"/>
<defs>
<linearGradient id="paint0_linear_2_295" x1="44.5" y1="11.5" x2="155" y2="163.5" gradientUnits="userSpaceOnUse">
<stop stop-color="#8FFFF4"/>
<stop offset="1" stop-color="#3064FF"/>
</linearGradient>
</defs>
</svg>
