<svg width="102" height="188" viewBox="0 0 102 188" fill="none" xmlns="http://www.w3.org/2000/svg">
<path d="M33.8975 1.47428L33.8052 2.24912L34.1084 2.41287L34.5351 2.04984L35.0758 1.16881L35.6694 0.672966L36.3112 0.562314L36.9926 1.16435L37.7136 2.47488L38.4524 3.21864L38.7996 3.30268L39.0502 3.90039L39.0897 4.47595L38.7381 5.68893L38.1446 7.09674L37.2961 8.8411L37.573 10.3065L38.7293 11.5019L40.1054 12.2058L41.5652 12.011L42.3434 11.6524L42.9807 11.0901L43.57 10.8245L44.3173 10.7537L46.6387 11.1653L47.3466 11.5727L47.4521 12.3828L47.1663 14.4592L47.5267 15.9822L48.182 17.5848L48.2609 19.0457L47.4475 21.4497L46.7705 23.7253L46.0409 24.8321L45.4736 25.5449L45.3064 26.0273L45.355 26.4835L45.8737 27.1652L46.4275 28.0462L46.5639 28.8874L46.5024 29.9189L46.1243 31.3355L44.7174 34.4037L43.6005 37.1707L44.1853 37.7241L45.2933 38.1268L46.0274 38.5209L46.7971 38.2685L48.4281 36.635L49.8307 35.4218L51.576 34.2089L51.6772 34.1025L53.207 33.2083L53.906 32.3848L54.2844 31.3355L54.8251 30.9327L55.5241 31.1673L56.4121 30.7113L57.4892 29.5602L58.316 29.029L58.8919 29.1176L59.9207 29.8303L61.4068 31.1673L62.7257 31.9642L63.882 32.221L64.449 32.7169L64.4184 33.4562L64.6776 33.9255L65.2186 34.1247L65.4604 34.045L65.3987 33.6864L65.9219 33.1596L67.0299 32.469L68.1554 32.0616L69.2985 31.9422L70.0416 31.3931L70.5294 29.9676L71.2373 28.883L71.8706 28.3916L72.6531 28.1436L72.8597 27.7983L72.4816 27.3556L72.5168 26.904L72.9697 26.4479L73.9411 26.2532L75.4361 26.3196L77.1814 26.78L79.1862 27.6389L80.5008 27.9177L81.1295 27.608L82.3518 28.936L84.172 31.9023L85.7284 34.1424L87.0342 35.6565L88.406 36.8164L89.8435 37.6266L90.8769 38.729L91.8177 40.8185L91.1141 43.7006L90.9252 46.1932L91.0129 49.2435L91.8617 51.581L93.4707 53.2058L94.4072 54.5163L94.671 55.5168L95.9239 56.3757L98.1707 57.0885L99.107 57.7348L98.7246 58.3147L98.6937 58.9877L99.0104 59.7536L99.7929 60.3912L101.028 60.8913L101.767 61.4227L102 61.9804L101.974 62.8881L101.688 64.1409L101.173 65.1016L100.426 65.7702L100.334 66.3014L100.14 67.1072V68.7584L100.672 69.8565L100.835 71.251L100.545 72.3888L100.263 74.713L100.228 75.6117L99.96 76.3864L99.3093 77.1302L98.3113 77.8298L97.0979 78.454L96.3548 78.7285L96.1791 78.8569L95.6469 79.5608L95.0051 80.2425H94.5084L94.1346 79.8972L93.8708 79.4501L93.717 78.4717L92.5959 77.9891L91.3647 77.6836L88.8586 78.1662L86.8318 78.4275L84.559 78.0954L82.4221 78.5115L81.5296 78.5735L80.5054 78.5071L79.5117 78.516L78.5663 78.3655L76.8253 77.7678L76.1571 77.8165L74.7545 78.3124L73.2861 78.6576L71.8792 78.8967L69.7998 79.915L68.296 81.3892L67.8521 82.4296L67.1045 83.4788L66.0714 85.139L64.7305 86.7284L63.7983 87.4544L64.0578 87.8839L63.8248 88.3974L62.365 88.6276L61.2265 88.7206L61.0198 88.9774L61.1561 92.1738L61.5563 93.3824L62.2904 94.8389L62.7697 95.6402L63.1301 98.0044L63.2355 100.01L64.8402 101.276L65.7462 102.241L66.3923 103.091L66.168 103.631L65.7813 105.247L66.1549 107.341L68.3971 111.857L68.5906 112.176L68.3225 112.211L67.9707 111.344L66.8319 109.878L66.4804 108.315L65.1437 106.593L64.3964 105.911L64.1546 106.482L63.728 107.093L62.4179 106.208L61.2925 105.283L60.2591 103.49L60.1273 103.906L59.8941 104.282L58.7161 102.874L57.4849 101.75L56.3769 101.347L55.6956 100.975L55.036 100.377L53.6557 99.7576L50.2174 100.652L45.8428 99.9567L44.159 100.621L43.4688 100.209L43.0424 99.4432L43.4511 98.1328L43.5434 95.388L44.0667 93.4577L43.8206 91.9879L44.0755 91.2972L44.269 90.3542L43.5785 89.9691L40.488 89.2209L39.8373 88.6276L39.0105 89.3094L35.2999 89.6901L33.9018 90.2612L32.6092 91.3592L32.2751 92.7493L33.0224 93.6657L33.5017 95.2551L32.1696 98.726L31.9453 99.7576L32.4597 103.999L32.2531 106.323L31.5277 107.881L30.3803 109.28L29.9053 111.649L29.0042 112.747L27.7951 115.253L26.9772 118.374L26.397 119.817L26.0584 122.473L23.5654 126.498L22.9807 128.769L22.0882 129.628L22.4006 130.305L22.4532 131.438L22.1411 134.462L22.0399 136.968L22.418 138.309L23.6094 140.97L23.3282 141.74L23.1873 142.838L24.1942 143.334L24.9152 143.48L28.9865 142.223L30.3626 142.546L30.8813 143.719L31.2157 144.742L31.9058 150.258L32.2619 151.281L33.0841 152.255L33.9855 153.291L34.293 153.105L34.3502 152.72L34.4119 152.286L35.2164 153.331L35.8451 155.279L37.9905 165.572L38.6107 166.878L39.1248 168.255L37.8148 167.586L37.463 165.302L37.0894 164.341L36.6276 164.199L35.898 164.217L35.8494 163.81L36.399 163.066L36.3112 162.172L35.5593 161.437L34.3459 162.021L34.381 163.624L34.9218 164.85L36.9794 167.595L37.6213 168.742L38.4392 169.069L39.6307 168.888L41.055 170.057L42.1762 171.141L44.9592 172.801L46.643 172.624L48.4632 172.213L49.681 172.319L50.877 172.744L52.3145 174.13L54.5965 177.6L58.3246 180.487L57.9202 181.204L57.7576 182.298L56.2892 183.754L56.0517 184.595L55.5153 185.662L54.4953 186.233L53.6159 186.34L53.1104 186.238L52.7586 186.025L52.1607 185.016L51.8575 184.711L51.6023 184.64L49.725 185.335L47.9093 186.105L47.5753 186.796L47.0914 187.601L46.5639 187.92L46.1463 188L45.7462 187.526L45.0515 186.911L44.5151 186.335L44.6514 185.406L45.6714 184.038L45.8034 183.081L45.6759 181.435L45.3987 180.487L45.1043 180.456L44.6031 180.301L43.1873 180.456L42.4794 179.385L42.2025 178.207L41.7189 177.786L41.2397 177.53L40.1802 177.937L39.3669 177.694L36.6716 176.671L35.6385 175.02L35.0846 174.971L34.5965 175.152L34.4031 175.529L34.1173 177.428L33.8843 178.008L30.7936 174.183L28.6656 172.607L28.9645 169.751L28.3183 169.198L27.5093 169.145L26.8983 168.352L27.439 166.652L26.6036 166.975L25.4473 166.913L24.4977 166.444L23.7809 164.089L23.3237 163.372L22.3345 162.136H21.0288L20.5935 161.543L20.699 160.02L19.745 159.086L18.4919 158.325L17.4633 157.877L16.4125 155.42L15.586 154.818L14.8824 154.327L13.9018 154.659L13.5809 155.544L12.9304 156.399L12.1874 156.293L11.5058 155.806L10.675 153.348L10.5387 151.843L10.7233 149.045L11.7607 146.535L12.3191 142.515L13.2028 139.987L13.8229 139.128L14.6714 135.671L16.4079 131.248L16.6059 130.301L16.9575 129.238L17.2212 128.233L17.3093 126.648L17.0849 125.816V125.347L17.4499 124.749L18.6853 123.744L20.3958 122.088L22.4269 119.76L24.5108 116.182L25.5439 114.106L25.9792 113.371L26.4365 113.141L27.1486 112.428L27.6368 111.64L27.6631 111.242L26.5333 107.35L25.7903 106.079L25.4165 104.579L25.2141 103.494L24.9418 102.498L25.0735 101.559L24.6646 100.975L23.7415 100.236L22.7829 99.1332L22.2114 97.3315V96.3265L21.6004 95.4455L21.3937 94.5246L21.763 93.6436L22.2422 92.8821L22.1851 89.5351L21.9916 88.5347L21.7541 86.7461L21.1299 85.3957L20.2463 83.8153L19.2438 82.5093L16.6234 80.1451L14.7549 78.5646L13.8315 77.1214L12.6578 75.4612L11.8179 74.2659L10.7585 72.7562L10.2177 70.6976L9.9188 68.5017L10.0814 67.7757L10.587 67.2975L11.2509 66.9123L11.7873 66.8239L13.2997 65.8143L14.3505 65.903L14.5966 65.686L14.6977 65.2255L14.5614 63.2245L14.6097 60.5461L14.8032 58.3635L15.0318 56.9246L17.8194 55.2512L18.4041 54.5251L18.6853 53.7415V53.0508L18.4481 52.5063L18.0303 52.2053L16.2278 53.6485L15.876 53.3298L15.0495 50.9568L14.6934 50.2307L14.179 49.3631L13.6249 48.15L13.5372 46.0515L13.1371 45.0112L10.8859 42.7931L9.87909 41.5978L8.50302 39.8712L6.85431 37.7993L5.17045 35.8823L4.37911 34.6559L4.10218 34.3771L4.0096 33.9034L4.51972 32.5841L4.26479 31.2558L3.42944 29.485L3.06878 28.3871L3.18766 27.9665L2.783 27.8026L1.84674 27.8957L0.94967 27.0633L0.0837233 25.3102L0 25.0003L0.281493 25.0047L1.36748 25.3057L1.73672 25.2616L2.50607 24.8587L3.67122 24.4336L4.3614 24.2919L4.59003 24.0838L4.6869 23.6589L4.09332 19.6036L4.19449 18.7579L5.29792 17.0048L5.17475 15.2339L5.45624 12.6927L6.68713 10.9528L7.61051 10.1515L7.90059 8.8942L8.32269 8.62858L9.08774 8.72599L10.6661 9.66458L11.3389 9.70889L12.2971 9.68228L13.326 9.61148L13.8052 9.52285L17.0983 8.60642L17.8237 8.50901L18.5184 8.62412L19.024 8.57994L19.5295 8.15936L19.8899 7.42005L20.3034 5.04704L20.5407 4.62645L20.9673 4.29004L21.6664 4.06414L22.484 4.08184L23.5523 4.53796L24.2207 4.55566L24.9769 4.36529L25.6188 4.03766L26.0452 3.62153L26.2387 3.12123L26.0672 2.16049L25.5791 0.956284L25.7154 0.810234L26.6125 1.07585L27.9314 1.37241L28.9382 1.30608L29.5933 1.09801L30.2351 0.526916L31.0442 0L31.831 0.119569L32.4423 0.58893L33.8975 1.47428ZM62.3299 108.647L62.3696 108.948L61.7277 108.718L61.5034 108.824L60.7866 108.74L60.4351 106.992L60.4877 106.58L60.9978 106.708L61.7277 107.576L62.1013 108.178L62.3299 108.647ZM64.5459 112.583L64.3435 113.898L63.6402 113.358L63.8071 112.694L64.0841 112.393L64.5459 112.583ZM33.3039 137.455L33.1853 137.663L32.706 137.265L32.3674 136.813L32.1873 136.237L32.9258 136.26L33.2908 136.791L33.3039 137.455ZM33.2599 138.841L33.3171 139.549L33.049 140.399L31.9233 140.899L31.5366 140.217L31.6378 139.168L31.809 138.903L32.9127 138.956L33.2599 138.841ZM11.5058 145.53L10.8068 145.663L10.8991 144.981L11.0837 144.552L11.4223 144.437L11.5629 145.171L11.5058 145.53ZM12.759 159.874L12.6269 160.79L12.1214 160.777L11.607 161.366L11.3652 161.446L10.9474 159.577L11.4266 156.957L11.6861 156.585L12.0422 157.28L13.0753 157.59L12.6269 159.099L12.759 159.874ZM15.0098 159.476L14.8649 159.684L14.2362 157.297L15.1639 157.939L15.0098 159.476ZM21.0156 163.735L21.3366 165.235L20.8836 164.93L20.5101 164.275L20.5144 163.314L20.6067 163.181L21.0156 163.735ZM28.226 177.043L27.9928 177.118L27.5313 176.113L28.116 174.656L28.7007 176.441L28.226 177.043Z" fill="url(#paint0_linear_2_273)"/>
<defs>
<linearGradient id="paint0_linear_2_273" x1="12" y1="15" x2="91.5" y2="196" gradientUnits="userSpaceOnUse">
<stop stop-color="#8FFFF4"/>
<stop offset="1" stop-color="#3064FF"/>
</linearGradient>
</defs>
</svg>
