<svg width="242" height="101" viewBox="0 0 242 101" fill="none" xmlns="http://www.w3.org/2000/svg">
<path d="M29.6433 2.1059L29.3011 4.02829L30.0981 6.14322L31.9624 9.06934L33.8401 10.5436L41.4276 14.182L42.8235 14.4912L42.5083 15.9789L42.049 17.2963L41.5491 18.1746L39.3245 18.7391L33.1915 17.1215L31.6381 16.9692L30.5439 17.2918L28.5175 18.4658L26.2704 18.0894L23.1364 18.7527L22.2627 20.9617L20.0879 23.4845L16.5081 25.5188L13.9504 26.6077L10.1048 30.4972L8.36204 32.7599L7.62794 33.1992L6.75449 33.5487L7.0472 32.4598L7.47952 31.4649L7.38031 30.7122L7.39845 29.6189L8.67728 28.3776L9.84343 27.477L13.2883 25.8415L14.198 24.4792L11.4961 24.5105L8.74929 24.8108L7.02466 24.6182L5.52073 24.7302L5.04773 23.5383L4.68302 22.8213L5.07494 22.5973L5.5702 22.4405L6.45272 21.1679L7.24069 20.2313L8.37551 19.0483L8.66381 18.3404V17.6817L8.38897 17.2247L8.3351 16.6779L8.2991 15.9117L8.36204 14.321L10.9648 12.5824L11.7978 12.3987L12.0815 11.6011L11.8924 9.75485L11.5321 8.2628L11.0637 8.16421L10.4379 7.72949L10.0281 7.22325L9.37071 6.67202L8.24056 6.33152L8.20455 5.86098L8.32164 5.39043L8.74022 4.90648L10.6495 4.48982L10.8746 4.14932L11.1313 3.30682L11.5095 2.44654L11.96 2.16416L12.7661 2.1911L14.297 1.99391L15.3642 1.71166L16.4223 1.12023L16.9673 0.582406L19.2639 0.273221L19.9078 0L20.5471 0.23288L21.4071 1.15155L22.8212 2.46897L23.5778 2.90806L24.1451 2.70636L25.1719 2.22693H26.1533L26.946 2.31212L27.3285 1.89531L27.9277 1.80574L29.6433 2.1059ZM200.194 9.68771L201.032 10.0238L202.617 10.4539L203.598 10.9737L204.157 11.1126L205.449 10.0551L207.368 10.0821L209.056 10.203L209.925 10.4002L210.992 10.7497L212.28 10.9872L212.807 10.4808L213.559 8.98866L213.852 8.80049L214.059 8.66607L215.014 8.54956L215.919 8.66156L216.346 8.917L216.774 10.1134L217.85 10.5391L219.751 12.4434L220.913 13.2053L221.196 13.5233L220.813 13.9087L220.966 14.3837L221.629 15.0021L222.56 15.2351L223.569 15.1499L224.119 15.3741L224.51 15.7234L224.614 16.2164L224.587 16.5301L224.785 17.2335L225.573 18.2284L226.51 18.8377L227.014 19.4875L227.834 21.7235L228.167 22.9557L228.041 24.1431L227.473 25.3576L226.23 26.8675L226.537 27.4994L226.816 28.3329L226.721 28.9377L227.604 30.8645L228.005 32.061L227.671 32.3388L227.455 32.7196L229.04 33.6383L230.941 34.409L231.742 34.5568L233.922 34.2029L235.327 34.1267L236.723 34.8571L238.753 36.627L240.946 38.9302L241.383 39.6293L241.572 39.9385L242 40.4941L241.554 40.4851L240.834 39.9877L239.091 38.5717L238.2 39.1812L237.429 40.2297L236.587 44.2043L235.907 44.6255L234.705 44.6165L233.233 44.4777L232.22 44.6747L231.958 44.9256L232.093 45.3513L232.395 46.0057L232.607 46.8301L232.67 47.5022L233.201 48.1117L233.917 48.6897L233.949 49.2812L233.841 50.1192L233.674 50.7554L233.494 51.1184L233.827 52.0863L234.606 53.2289L235.101 53.668L234.917 55.8412L235.21 56.8046L235.435 58.131L235.344 60.3357L235.439 60.8779L235.705 61.0615L236.416 61.1467L237.11 61.3483L237.353 61.7112L237.348 61.9757L236.479 62.9839L236.376 63.7007L236.074 64.709L235.826 65.3005L235.052 66.4208L234.561 67.5589L234.336 68.4954L234.484 68.939L235.916 69.0734L236.691 69.7455L238.758 71.0854L239.122 71.6276L238.56 72.452L238.569 72.797L238.839 73.2362L238.965 74.0024L238.915 74.8493L238.925 75.9695L239.303 76.1533L240.708 77.2018L241.707 78.2503L241.739 78.5774L241.257 79.4064L241.36 80.3609L241.343 80.5804L240.91 80.222L240.131 80.0921L239.33 80.0517L238.825 80.334L237.943 81.0822L236.754 81.8978L235.79 82.6461L235.236 83.1615L234.777 83.0763L234.422 82.6282L234.223 82.0009L234.309 79.6305L234.097 78.8866L233.647 78.3669L233.115 78.0711L232.485 77.9053L231.832 77.8874L230.909 78.582L229.599 79.3034L227.568 79.2452L226.204 79.1108L225.546 78.9763L222.903 77.874L222.353 77.8471L221.367 77.399L220.197 77.0449L218.224 77.7172L217.373 77.5558L216.18 76.9733L215.757 77.1301L214.424 78.9045L212.154 80.8L210.929 81.1182L210.348 79.2137L209.786 78.4743L209.52 78.3848L208.953 78.1472L208.511 78.2817L207.147 79.5812L204.958 80.3609L203.148 80.8358L200.266 81.4139L198.042 81.7006L197.096 81.723L195.043 81.4632L193.232 81.1003L191.422 81.1137L190.031 81.2794L186.807 82.673L181.322 85.5364L177.152 86.903L174.815 87.4722L172.982 87.7947L169.848 87.8127L167.295 87.593L165.525 87.6155L164.544 87.2705L163.143 86.1144L161.45 84.9717L160.694 84.7029L159.708 84.4833L158.267 84.3534L154.664 86.0292L153.543 86.4863L152.309 86.8268L149.819 87.8485L148.716 88.3952L147.333 88.3458L145.568 88.2025L144.037 88.2518L143.015 87.4765L142.461 86.6029L140.376 86.065L138.886 85.9083L138.503 86.298L138.107 87.4901L137.472 90.5326L137.355 91.2944L138.67 94.3101L138.611 94.7671L137.674 94.9239L136.598 94.9777L135.896 95.2465L135.315 95.7438L134.964 98.3429L133.716 98.8178L133.122 99.36L132.51 100.964L132.176 101L130.159 99.7857L129.213 99.6871L130.028 98.4279L129.146 95.9322L128.182 93.5931L129.092 92.0964L130.974 90.2861L132.951 88.1622V86.8493L132.847 85.8456L132.28 85.151L131.19 84.228L129.367 85.2138L128.065 86.3026L127.214 86.5222L126.291 87.1405L125.841 88.2608L124.724 89.1301L122.9 89.4706L120.158 88.5385L117.213 87.1226L115.547 85.9709L114.187 85.6932L112.895 86.1996L109.081 89.0136L105.591 93.118L104.726 93.8261L101.439 95.587L99.2685 96.1741L98.2463 96.0396L93.919 96.8103L91.7711 96.9223L90.069 97.8499L86.7681 96.8462L84.7959 95.5602L83.6072 94.2518L81.6709 91.4333L80.2973 90.0935L77.2127 88.8837L71.8363 85.9441L70.4222 85.6214L66.7523 85.2002L62.8845 84.9314L62.1009 86.0024L61.8035 90.2368L61.1417 91.3973L60.8581 93.5886L60.385 94.2158L59.6422 94.6281L58.4804 93.9381L57.6743 93.6334L55.7966 94.534L52.0816 95.7932L50.8162 95.9725L46.5113 94.3862L44.9354 93.3646L43.9177 92.2353L43.5755 90.322L42.9359 89.233L42.8414 88.4848L42.5894 87.6245L41.7203 87.2839L40.7881 87.9382L39.7885 87.9113L38.5366 87.5125L35.5782 85.9038L33.3085 85.7739L31.9398 87.7365L30.877 88.3594L29.7153 88.5475L29.6477 87.9919L30.5302 86.7194L26.9864 86.9524L25.1177 87.9201L23.6586 87.7678L22.5644 87.3332L22.7266 86.7999L23.8342 86.6029L24.7981 86.1681L28.6346 85.8141L29.5306 85.4602L30.5123 84.0755L32.2955 82.8836L32.5252 82.3729L31.1516 82.3683L25.2708 82.7134L21.2361 82.5252L20.7587 83.1166L20.1508 83.2018L19.9842 81.5931L20.6238 80.8448L21.4794 80.9165L23.5913 80.2668L23.4022 78.927L21.8936 78.0218L21.5874 77.4842L20.4886 77.3586L19.6014 76.7178L19.4079 75.1048L18.701 73.3303L17.6923 72.4744L17.8182 72.0039L19.669 71.4036L20.0519 68.9165L19.7682 67.3885L18.836 67.2586L16.1208 66.0488L15.2966 66.1787L14.3962 64.8479L12.82 63.8934L12.0411 64.2429L11.5502 64.6777L10.8208 64.4714L9.60047 63.6425L8.39804 63.1945L7.86677 62.6388L8.53326 61.1556L9.45178 61.1914L9.61834 60.0309L8.89331 58.0907L8.96531 57.0915L9.76703 56.8181L10.6811 57.0063L11.6043 58.1669L11.9058 59.2871L11.7124 60.3804L12.2978 61.438L12.7163 61.7068L12.9956 60.591L13.3875 60.3804L13.9278 60.8643L15.0849 61.1064L18.084 60.4252L18.6603 59.8472L16.463 59.9143L15.6613 59.3723L14.7878 58.1578L14.2519 57.0555L14.1573 56.5134L13.8558 55.7203L14.1889 55.2946L15.6929 54.6583L17.0124 52.8704L16.4583 52.3551L15.8281 52.1087L15.1435 52.2923L14.4951 51.6785L14.4096 50.8271L14.9274 50.1371L14.9816 49.1871L13.2839 46.8435L12.8109 46.3328L13.1803 45.5664L14.4773 44.2805L15.711 42.6852L15.5623 42.161L14.6482 41.9459L10.3164 42.6314L8.63221 43.223L5.62874 43.4962L5.41272 42.6269L5.48006 41.8473L6.15561 40.4224L6.0924 36.9004L6.49339 34.987L8.16388 34.4135L10.2128 31.595L13.5315 28.2611L16.9989 28.3239L18.3858 27.4008L20.4435 27.3471L20.8173 28.0147L21.0514 28.6555L22.8572 29.5785L26.0453 29.4307L26.8198 29.0678L27.5718 28.5614L26.0948 26.9214L26.5631 26.4554L27.9005 26.4016L29.3505 26.787L29.4182 27.1633L29.0353 27.6786L28.5851 28.5793L29.0128 28.7541L33.1376 28.2074L37.4515 28.6465L38.8249 28.4091L42.2156 28.427L42.8235 27.8623L41.7967 27.1499L40.7927 26.9035L40.1172 26.5583L39.4416 26.0521L41.5942 24.4613L42.8101 24.1566L48.5421 23.1753L52.8066 22.6869L52.8607 22.3194H52.2437L46.7364 21.5039L45.4081 20.8766L43.5664 19.3754L43.1657 18.9497L42.7018 18.2148L42.981 16.651L43.3232 15.392L44.0031 14.6615L46.2052 14.5495L53.7523 15.8311L59.1288 15.0649L65.0051 16.9289L70.6295 16.5524L71.7868 15.7146L73.1962 13.0126L81.1394 8.51373L83.9178 6.16127L86.8987 4.87066L92.0096 3.43686L96.2831 1.5369L97.5034 1.31728L107.761 2.22693L114.808 2.34343L118.041 0.546578L119.919 1.15155L119.744 1.79234L119.401 2.34343L119.505 3.45026L120.604 5.07687L121.725 6.18356L125.012 7.76983L129.583 6.4345L130.321 6.58246L131.253 6.95427L132.865 11.2425L134.117 12.7526L135.72 13.7788L137.04 13.9805L138.017 12.9095L138.773 12.4793L140.426 12.2956L143.132 13.7654L144.069 15.2798L148.675 16.4494L152.904 17.0364L154.728 18.3179L160.68 19.5995L162.905 19.4024L166.633 18.0581L173.892 16.5839L178.715 18.6405L180.021 18.9094L181.146 18.7302L182.768 19.2949L184.497 18.9901L189.833 16.5614L191.503 15.1812L193.273 14.8273L194.84 13.9984L199.019 11.2874L200.194 9.68771ZM3.8049 32.5539L0.900654 33.0602L0 32.5629L0.909724 31.5726L2.60274 30.9587L3.15215 30.8869L3.89505 31.8727L3.8049 32.5539Z" fill="url(#paint0_linear_2_311)"/>
<defs>
<linearGradient id="paint0_linear_2_311" x1="75.4691" y1="-30.5494" x2="215.743" y2="119.761" gradientUnits="userSpaceOnUse">
<stop stop-color="#8FFFF4"/>
<stop offset="1" stop-color="#3064FF"/>
</linearGradient>
</defs>
</svg>
