<svg width="121" height="198" viewBox="0 0 121 198" fill="none" xmlns="http://www.w3.org/2000/svg">
<path d="M86.598 184.915L85.5738 185.577L85.2514 186.356L85.003 186.66L84.3275 186.861L83.6562 186.865L81.1025 185.307L80.5142 185.377L81.0982 184.663L82.6844 184.08L83.5779 183.31L85.6392 184.054L86.598 184.915ZM48.2998 132.823L48.814 133.202L50.1041 133.141L49.6769 133.985L48.2562 134.925L47.3018 135.852L46.1469 136.627L45.5891 135.735L44.9398 135.77L43.9461 134.055L43.7675 131.487L45.0662 130.817L46.8616 130.856L48.2998 132.823ZM21.6593 92.7339L23.3851 93.2693L24.6707 93.2605L25.8125 94.8143L26.4225 97.2599L27.8476 99.6709L29.7129 101.76L29.7869 103.035L29.1202 103.718L27.73 104.567L27.7343 105.476L28.654 105.019L29.447 104.811L31.3559 105.011L32.0226 105.933L32.4846 107.313L32.7287 108.444L32.563 109.672L32.0488 109.28L31.5259 108.183L30.9461 107.678L30.2706 107.404L30.5757 108.914L30.4538 110.929L30.7457 111.116L31.6522 111.151L31.0552 113.205L29.8131 113.762L28.3707 113.971L28.022 114.698L27.7605 115.634L27.0065 117.026L26.0129 117.814L24.784 117.653L23.5812 117.03L22.5308 116.904L21.7987 117.274L21.3238 117.618L20.8617 117.557L19.5413 117.688L18.2993 117.662L18.1205 117.118L18.3341 115.481L18.0552 115.037L16.8699 114.811L16.4296 114.419L15.7455 113.288L15.6104 112.757L15.5145 112.026L14.7911 111.081L13.9151 110.403L13.4009 110.368L12.3767 111.473L11.5313 112.592L11.8276 113.153L12.1022 113.888L11.6446 114.419L10.2544 115.629L10.0365 116.099L9.66175 116.356L8.9993 116.021L7.34762 116.099L6.58928 115.886L5.70459 114.994L3.5474 114.398L3.18565 112.966L2.77163 112.696L0.326904 110.237L0 109.415L0.318126 108.923L1.22888 108.179L4.29257 106.943L4.77641 106.447L4.87656 106.007L3.97445 105.507L3.16384 104.95L2.88933 104.588L2.86752 104.271L3.32955 103.857L4.25334 103.827L4.98561 104.014L5.56521 103.644L6.58489 103.27L7.26915 102.8L7.85753 101.586L8.48061 100.493L8.54605 99.9015L9.0908 97.8169L9.3915 97.2991L11.3265 95.9326L11.8146 96.6812L12.7689 96.8639L13.6232 96.1763L14.6472 94.0048L15.3576 93.8699L16.1421 94.0482L17.6847 93.7741L20.4216 92.7601L21.6593 92.7339ZM37.1868 88.2951L35.6441 88.3125L35.0863 88.1254L34.4196 87.6032L33.6699 84.6439L33.9401 83.5951L34.2452 83.0816L34.5852 82.6812L35.4 82.5158L36.2106 83.0772L36.5157 83.5994L37.1956 85.6013L37.322 87.3159L37.1868 88.2951ZM24.6707 77.8768L25.1108 80.6663L25.5422 82.3896L25.5728 82.9772L25.1675 83.7953L23.1498 84.8833L22.5134 84.8876L22.4873 84.6221L22.9406 83.5168L22.5484 82.2591L22.74 81.3017L22.5526 81.1275L22.1604 81.2625L20.7136 82.7813L20.2299 82.9292L20.1776 82.6203L20.535 81.3756L20.5784 80.5226L20.792 80.0004L21.1842 79.5174L21.6505 79.1561L22.0297 79.104L22.4307 79.4782L23.5986 78.4338L24.6707 77.8768ZM26.6143 80.4008L26.3572 80.6315L25.7384 80.5662L25.5074 80.2137L25.3811 79.6741L25.3679 78.6861L25.7427 77.9768L27.329 76.9062L26.6099 76.5276L26.5839 76.2579L26.9935 75.3657L28.6974 73.9774L29.1551 73.7251L29.6083 73.7643L28.728 76.2273L26.6143 80.4008ZM28.9633 68.8292L24.091 70.0521L22.4133 69.9432L22.2607 69.3427L22.5963 68.9424L23.9865 68.555L24.5486 65.6089L22.4481 64.2467L22.3392 63.868L22.5048 63.2197L22.7488 62.928L24.0213 62.2405L24.5574 62.0881L24.9931 62.1795L25.891 62.9759L26.902 64.6427L28.2574 64.9082L29.1769 65.6131L28.9633 68.8292ZM18.8135 63.5199L18.1205 63.6417L18.0683 63.3284L19.2755 61.8314L20.0555 61.5833L20.3301 61.7313L19.7636 62.6017L18.8135 63.5199ZM8.91644 55.0555L7.8401 55.3602L7.44351 55.1817L7.37369 54.8988L7.61774 54.1286L8.44151 53.8544L9.03853 54.2722L9.13442 54.6508L8.91644 55.0555ZM22.8359 55.0729L22.4742 55.3602L22.0167 55.3036L21.5634 54.9337L20.962 53.8806L22.313 53.1494L22.8533 53.5803L23.0582 54.0721L23.0669 54.616L22.8359 55.0729ZM10.9603 51.6959L10.4418 51.822L9.76628 51.7002L9.34788 51.3521L8.92522 49.9725L8.84675 49.137L9.03414 47.5791L8.99052 45.712L10.3851 45.6555L10.7469 45.9253L10.9865 51.4565L10.9603 51.6959ZM24.4789 42.9051L24.4615 43.9061L24.2435 45.0854L24.5224 46.3344L24.5879 47.2265L25.1022 47.5093L25.4159 47.9185L27.7082 48.3754L29.8392 48.2448L30.249 48.6104L30.2969 49.1936L29.9613 49.8333L28.7455 50.9995L27.2986 52.884L26.8672 53.2756L26.4007 53.293L26.0652 53.1233L25.8255 49.7724L24.2567 50.2032L22.9929 50.1553L22.2999 49.7462L21.8162 48.9585L20.8357 46.9306L17.9854 46.1298L17.1792 45.0071L16.9352 44.3282L17.0354 43.9539L17.6281 43.1183L18.369 43.4143L18.8266 43.2314L19.1055 42.8572L19.1011 42.5483L18.7133 41.8215L18.6959 41.5952L21.6113 40.6726L21.8685 39.2278L22.5004 39.1103L23.2239 39.5846L24.2131 41.086L24.4789 42.9051ZM11.5008 38.8579L12.8822 40.1373L11.7841 42.261L10.0974 42.2524L7.7224 40.703L7.71363 40.3853L7.90979 39.9197L8.26715 39.5499L8.63755 39.4627L9.22592 39.7152L10.0452 39.3061L10.6988 39.4367L11.5008 38.8579ZM23.8165 23.1955L22.2607 27.2384L21.6505 27.3385L21.1146 28.3481L19.4585 29.4579L20.9053 29.4796L21.3106 29.8495L21.3194 30.6458L21.0449 31.1072L19.1752 32.9437L17.8897 33.64L16.5037 35.5548L15.8022 35.5766L15.1093 36.7908L14.5427 37.326H14.2202L13.854 37.0562L12.9956 35.8681L14.5557 34.6974L14.6995 34.0403L15.7673 33.3527L15.6757 33.1394L13.9805 32.1734L13.3137 31.525L13.3747 31.1856L14.1897 30.4371L13.8062 30.3413L13.5447 29.9365L13.074 29.7799L12.9303 29.4057L12.843 28.4133L12.9694 27.3993L13.4618 26.9511L13.6624 26.4725L13.8628 26.3245L14.6254 26.5812L15.4012 27.3951L16.3077 27.0817L17.358 27.234L17.3798 27.0469L16.6084 25.0494L16.7478 24.6404L17.1662 24.1746L19.5892 22.7429L22.6093 20.3319L23.3414 19.9533L23.5637 20.2841L23.8688 21.533L23.8165 23.1955ZM61.5961 19.6488L61.7006 21.5548L61.5569 22.1336L61.2648 22.8473L60.341 24.1746L57.9092 26.0677L53.4597 30.4021L50.8274 32.5433L50.4657 33.5704L50.2696 34.9977L51.8428 35.2806L52.453 35.7637L52.0782 36.4861L49.7467 38.9971L49.0624 41.2602L50.8492 41.1774L52.3223 40.7422L55.2551 39.3322L58.0138 38.2834L59.3386 38.24L61.9142 39.0755L62.4982 39.1016L63.5921 38.7142L64.699 38.6446L72.186 38.9057L74.2691 38.4139L75.6463 39.0015L76.7968 40.4637L77.8906 43.1575L77.8558 43.6058L77.1934 44.8286L75.9731 46.3605L74.9228 48.4667L74.6178 49.5983L74.413 50.8386L74.0817 51.9831L71.9942 57.336L69.9591 60.2864L69.0526 62.3754L67.9327 64.0335L66.8518 65.0779L65.7013 65.7742L62.3719 66.514L61.4392 67.0449L60.3278 67.9544L59.16 68.407L60.5284 68.3504L61.8838 67.8456L64.3547 67.6629L67.1961 69.4036L66.9303 70.8267L65.7885 71.9494L63.1911 72.1279L60.7637 74.6215L59.6698 75.3874L58.5106 75.7661L57.0637 75.6529L54.4359 74.9872L53.2853 74.2908L54.3225 75.4266L55.5036 76.0185L62.3413 77.4154L62.7553 77.2675L64.9343 75.7965L67.841 75.7748L73.3714 78.4816L74.962 80.5488L77.2457 83.495L78.4878 84.6439L79.3855 85.6839L79.9389 87.2375L81.011 92.3555L82.2356 97.3253L83.835 102.678L84.5627 104.158L85.5171 105.193L90.3458 107.57L91.4223 108.357L93.2962 110.638L95.1048 113.062L96.7869 114.92L98.6043 116.421L97.724 117.2L97.1226 118.423L97.5757 120.081L98.3123 121.661L99.7635 124.185L101.045 126.931L100.574 126.518L100.077 126.291L99.3974 126.361L98.735 126.23L97.5104 125.369L96.3338 124.311L93.9935 124.738L92.6948 124.546L91.566 124.577L93.7058 125.186L96.0461 125.229L101.206 129.829L102.949 132.545L103.986 136.118L103.28 137.719L102.182 138.755L101.158 139.934L100.195 141.27L103.058 143.224L103.677 143.168L104.309 142.894L104.919 142.228L105.943 140.605L106.47 140.03L108.253 139.821L109.748 139.947L111.234 140.309L112.546 140.195L115.182 140.892L116.537 141.519L119.897 144.334L120.625 145.875L120.961 147.859L121 150.053L120.434 152.05L119.784 153.852L119.383 156.171L119.1 157.007L118.703 157.66L116.925 159.483L115.744 160.232L115.248 159.905L114.711 159.949L114.655 160.388L115.217 161.315L115.221 162.434L114.171 163.26L113.103 163.613L111.317 163.173L108.837 164.714L110.619 165.506L110.981 166.346L110.536 167.821L109.416 168.478L108.17 168.77L106.898 168.839L105.843 169.201L104.832 169.897L106.1 169.531L106.98 169.853L107.534 171.089L108.035 171.446L110.519 171.973L112.053 171.968L115.017 171.668L116.442 171.673L116.947 171.899L116.956 172.922L116.738 175.428L116.346 175.946L112.419 178.044L111.613 179.506L111.391 180.389L109.094 180.233L108.018 181.168L106.157 181.791L104.719 182.448L103.311 183.279L102.152 183.527L97.1531 182.539L94.133 182.622L90.0408 183.484L88.9862 183.34L87.4086 182.517L85.7874 181.96L83.9265 181.717L82.3184 180.951L83.3207 182.417L81.0938 183.832L80.0654 184.11L78.9975 184.067L76.8185 184.45L74.7921 184.241L75.0972 185.242L75.6375 186.116L75.1974 186.495L74.7354 186.591L70.8917 185.934L70.3469 186.055L69.8719 186.665L68.473 186.338L67.1133 185.316L65.6708 184.624L64.1543 184.297L62.9515 184.41L57.9963 186.029L57.0071 187.648L56.5103 189.942L55.7956 191.974L54.6276 193.536L53.2374 193.741L51.93 192.657L49.446 191.465L48.6005 190.655L48.3303 190.608L48.0514 190.895L47.0752 191.26L46.0684 191.278L44.5126 191.6L41.8063 192.57L40.7126 193.227L38.3636 195.042L37.8841 195.543L37.03 197.366L35.7269 197.688L34.5329 196.522L33.1731 196.113L31.7393 196.509L30.8721 197.131L30.4668 196.626L30.4538 195.59L31.4997 194.355L34.2931 193.419L36.7467 190.986L37.9496 189.502L38.4289 188.662L39.0173 188.127L39.7842 187.927L40.1808 187L43.5845 183.266L43.8634 182.409L44.0333 180.868L44.3122 179.384L47.0838 178.422L48.4088 175.293L48.7748 175.045L52.6404 174.471L55.5079 174.519L58.358 175.132L59.8179 175.189L61.2824 174.976L62.4328 174.127L64.3983 171.063L65.5052 169.71L66.7734 168.487L67.9587 167.09L69.8807 164.496L68.582 165.393L67.013 166.812L66.1023 167.634L63.2085 168.461L61.9621 169.305L59.7788 171.207L59.3604 171.364L56.0657 170.907L53.6166 168.439L52.052 167.429L51.407 167.312L50.7359 167.612L49.3065 167.921L47.851 167.869L48.5961 166.725L49.6072 166.085L47.3411 165.641L46.7091 165.293L45.9901 164.488L44.2119 164.353L43.3665 164.557L41.937 165.619L39.6797 166.746L36.956 165.184L36.4242 164.501L36.4373 163.173L36.0276 162.12L35.2737 161.75L36.2368 160.379L37.4048 159.466L39.9672 158.556L43.8503 156.393L46.0293 155.471L48.0514 153.878L48.8881 152.903L49.4939 151.567L50.0953 149.931L50.9538 148.595L50.1215 148.277L49.7467 147.272L49.8468 146.249L50.2304 145.339L49.8861 144.199L49.2716 143.007L49.3065 142.076L49.4721 141.079L47.9119 141.131L46.3561 141.445L44.9441 142.149L43.5757 143.107L42.3598 143.285L42.3773 142.519L42.9046 141.571L44.2818 140.213L45.7547 139.086L46.2776 138.228L46.6916 137.232L47.4238 136.431L49.3501 134.917L53.0413 133.211L53.5904 133.111L55.0373 133.311L56.4623 133.05L57.7088 132.436L58.9508 132.306L61.7486 134.077L60.9162 131.335L62.1495 130.678L63.9363 133.158L64.5987 133.42L66.002 133.058L65.4616 132.641L64.8298 132.615L64.0017 132.24L63.3044 131.444L62.1452 128.911L62.2105 127.405L62.9907 125.839L63.8536 124.394L63.1301 124.107L62.5505 123.554L62.3849 122.105L62.6115 120.821L64.1629 119.689L64.6205 117.966L64.8123 116.064L64.5551 115.19L63.0124 115.329L62.2628 115.686L61.5917 116.247L60.9032 116.212L58.9987 114.106L57.9136 112.509L55.9656 109.123L55.6909 107.091L57.2467 102.695L59.6524 99.8711L62.4852 98.8833L61.936 98.6961L57.6173 98.657L56.1922 99.005L54.8717 100.163L54.1264 100.519L53.342 100.65L52.6273 101.225L51.93 102.021L51.2022 102.534L49.7597 102.399L49.0624 102.569L48.5613 102.108L48.1385 101.346L47.5894 101.142L46.9749 101.377L45.6762 102.404L44.3601 103.009L42.7695 102.36L40.682 101.151L40.2723 101.594L39.8104 102.717L39.5446 104.462L38.0629 102.943L36.8034 100.911L36.3762 99.6318L36.3458 98.1869L37.03 97.6256L37.7752 98.139L38.8821 94.7054L41.0873 90.2143L41.8674 88.8957L42.4121 87.168L42.3206 86.0366L41.8369 85.0791L39.7842 82.9032L39.8104 81.1232L40.0283 79.1127L40.5861 77.9028L40.8215 77.6721L43.5452 77.7027L42.4818 77.076L40.3638 75.2525L40.4031 74.6041L40.8999 72.9112L40.6689 73.0809L40.2157 73.8643L39.3484 75.7573L38.8211 76.1969L37.322 76.6451L37.0475 77.5721L36.8077 77.8158L36.0625 77.9202L35.8315 78.7863L35.6659 78.8428L35.4524 77.9116L35.4306 76.3623L35.7269 74.9348L36.2935 73.8165L38.4899 71.2706L37.4222 72.0583L34.9992 74.4126L33.7615 75.9576L33.4302 76.4798L33.3301 76.9194L33.3343 77.4242L33.8879 80.1267L33.7265 81.3756L31.6392 89.579L31.2426 90.3971L30.8808 90.8235L30.5365 90.9236L29.5081 90.7669L29.0504 90.1534L29.0548 89.4614L29.2466 88.4213L30.1138 84.5352L30.4886 83.4514L31.0464 82.4418L32.2754 80.6749L32.2448 80.5575L31.4256 80.9056L31.077 80.7925L30.8242 80.44L30.9854 75.1699L31.6522 73.4292L31.9006 70.892L32.4759 68.7117L33.1427 67.1189L33.6525 65.0779L34.4152 64.1683L34.62 62.7758L35.4785 61.2656L36.141 59.6859L35.7836 59.8426L31.5433 63.9508L30.4624 64.6949L28.9895 64.4948L27.8652 64.0335L26.9847 63.0629L26.5925 61.196L25.5074 61.1481L24.5791 60.826L24.5879 60.5737L25.7863 59.5553L27.7082 59.2072L29.5081 57.5709L27.9086 56.4655L28.0438 56.1131L29.4384 55.1687L31.212 51.9961L31.5694 49.0673L30.7239 47.6878L30.4189 46.7826L28.7236 45.773L28.4404 44.4805L28.6364 43.7538L29.1899 43.0443L30.0223 42.4961L31.3297 41.9651L30.1443 41.3993L29.6998 40.7292L29.3643 39.7588L29.3337 39.1974L29.9483 36.6906L30.3056 35.6548L31.0072 34.3319L34.1798 34.4059L34.5459 33.8228L34.9077 33.801L36.5288 34.3363L36.2891 33.7618L33.635 30.6067L33.3954 30.0062L34.1537 28.3002L34.206 27.5386L34.0971 26.7248L34.3149 26.1026L35.156 25.8109L37.7185 25.8371L38.3504 25.5498L38.0629 24.723L37.4657 23.635L37.3482 22.7211L37.4875 21.9117L37.5181 20.2797L37.6357 19.5574L38.2459 18.4737L38.747 18.1516L39.3702 17.9645L40.7779 18.3257L41.314 18.7609L41.9328 19.7923L42.3859 19.7096L44.1379 18.5868L44.6652 18.4259L45.3843 19.727L48.3782 18.6913L52.4006 18.23L54.8194 17.5468L57.3644 17.2987L59.7396 16.5197L62.2585 16.8765L62.3457 17.3291L62.2149 17.9558L61.5961 19.6488ZM63.8055 14.3525L63.6878 14.4221L63.239 13.9912L62.5068 12.4464L63.6618 12.1374L64.2065 12.3289L64.0017 12.986L63.8055 14.3525ZM60.9206 13.1166L60.2189 13.4299L59.526 13.4081L58.4453 12.046L58.0355 11.0538L58.1096 10.3967L58.5629 10.1747L59.6089 10.4968L60.1492 11.6326L60.2189 12.3681L60.3453 12.6552L60.9947 12.9468L60.9206 13.1166ZM62.2367 7.5592L62.0712 8.14236L62.9993 8.12934L64.3459 8.62539L65.1609 8.68634L65.8408 9.3043L65.466 10.4576L65.0606 10.7839L64.6031 10.8493L62.9993 9.69595L60.8988 10.1747L60.4804 10.0268L60.2059 9.7091L60.0926 9.31307V8.5036L59.9793 8.26428L59.2167 9.03019L58.8854 8.93881L58.698 8.57319L58.6153 7.81591L58.698 6.7237L59.1468 5.16134L59.9008 4.84805L61.0251 5.03079L62.3152 5.91423L62.703 6.45821L62.6942 6.89343L62.2367 7.5592ZM68.4556 2.76348L67.0741 2.78951L67.7888 1.37962L68.6212 1.02269L70.1944 1.17941L69.9155 1.8147L68.4556 2.76348ZM66.2504 3.82529L65.2001 4.41721L64.7513 3.92981L64.6336 2.39786L63.3829 1.74072L62.7727 1.33167L62.302 0.557068L62.4197 0.31768L63.2347 0L64.6292 1.40565L65.2001 2.53717L66.233 2.87225L66.3637 3.04636L66.2504 3.82529Z" fill="url(#paint0_linear_2_271)"/>
<defs>
<linearGradient id="paint0_linear_2_271" x1="23" y1="16.6881" x2="113" y2="204.188" gradientUnits="userSpaceOnUse">
<stop stop-color="#8FFFF4"/>
<stop offset="1" stop-color="#3064FF"/>
</linearGradient>
</defs>
</svg>
