<svg width="268" height="146" viewBox="0 0 268 146" fill="none" xmlns="http://www.w3.org/2000/svg">
<path d="M145.474 5.31405L146.03 5.2281L146.508 5.25291L146.989 5.2909L147.246 5.34708L147.987 5.65453L148.47 5.90578L149.163 6.37192L149.547 6.57853L149.732 7.06283L149.947 7.68267H150.255L150.486 7.31903L151.075 7.2529L151.85 7.50742L152.531 8.23142L153.511 8.87602L154.109 9.19668L154.718 9.19502L155.491 8.87602L156.313 8.25786L156.905 8.15041L157.256 8.21156L157.456 8.69257L157.701 8.87602L158.34 8.8215L159.671 8.91406L160.732 8.78346L160.973 9.05949L161.188 9.4942L161.619 9.63139L162.203 9.4942L163.121 9.58842L162.995 9.65783L162.859 9.643L162.682 9.74711L162.462 9.9686L161.954 10.2843L161.16 10.6959L160.244 11.0727L158.386 11.752L157.228 12.4562L156.715 12.8777L154.722 14.9868L153.519 16.1058L151.572 17.6727L151.386 17.8711L151.375 18.0562L151.534 18.2297L151.931 18.481L152.24 18.5124L152.635 18.4612L154.199 18.0281L154.857 17.7273L155.504 17.2215L155.57 17.205L155.84 17.2975L155.924 17.3422L156.765 16.7587L157.041 16.6843L157.258 16.6992L157.527 16.9289L157.59 17.0677L157.499 17.3356L157.258 17.7306L157.14 18.0628L157.147 18.3322L157.043 18.6231L156.778 19.0182L156.874 19.124L157.584 18.8397L157.688 18.7289L157.699 18.6628L157.656 18.5835L157.738 18.5471L158.297 18.9355L158.669 19.1504L158.982 19.2529L159.574 19.1289L160.446 18.7785L161.19 18.3521L161.806 17.8463L162.573 17.5356L163.495 17.4215L164.153 17.243L164.55 16.9983L165.083 16.5207L165.382 16.3802L165.759 16.3372L166.042 16.1521L166.233 15.8248L166.593 15.4529L167.123 15.0364L167.425 14.8678L167.5 14.9471L167.528 15.0942L167.508 15.3108L167.64 15.4843L167.923 15.6182L168.052 15.795L168.028 16.0149L168.104 16.2017L168.282 16.357L168.329 16.6942L168.246 17.2116L168.236 17.5471L168.299 17.6992L168.362 17.7851L168.463 17.7025L168.59 17.5207L168.636 17.4083L168.669 17.2942L169.444 16.7719L169.594 16.7455L169.847 16.881L171.019 17.0694L171.48 17.2033L171.965 17.5025L172.13 17.6182L172.724 18.5835L172.996 18.9604L173.164 19.0645L173.26 19.2116L173.336 19.5521L173.429 19.6545L174.299 19.7273L174.693 19.6661L174.933 19.5289L175.199 19.6182L175.492 19.9322L175.78 20.0198L176.063 19.8826L176.329 19.886L176.579 20.033L176.695 20.1388L176.771 20.1339L177.265 19.6545L177.861 19.2281L178.657 18.7669L179.118 18.562L179.246 18.6116L179.979 18.4578L180.639 18.4446L181.514 18.5372L182.324 18.4297L183.071 18.1207L183.731 17.9488L184.305 17.9124L184.521 17.9984L184.381 18.2083L184.305 18.567L184.295 19.076L184.245 19.3967L184.158 19.5322L184.148 19.6611L184.214 19.7835L184.771 19.8628L185.064 20.0281L185.4 20.0347L185.779 19.8843L186.068 19.9422L186.27 20.205L186.563 20.2529L186.847 20.0645L187.048 19.8876L187.22 19.8099L187.354 19.7934L187.496 19.8826L187.592 20.033L187.833 20.4463L187.953 20.7256L188.025 21.1405L188.077 21.2777L188.07 21.519L187.908 21.6827L187.865 21.8132L187.963 21.9438L188.512 21.9802L188.762 22.1091L188.854 22.2529L188.791 22.4116L188.826 22.5818L188.96 22.7603L189.4 23.0314L189.508 23.1603L189.476 23.2975L189.346 23.3851L189.116 23.4248L187.435 23.1703L186.94 23.129L186.867 23.2231L186.821 23.2364L186.742 23.2116L186.598 23.2066L186.525 23.1454L186.464 22.9752L186.318 22.8661L186.085 22.8182L185.885 22.9471L185.651 23.4512L185.688 23.5454L185.65 23.8678L185.709 23.9554L185.706 24.0281L185.64 24.0893L185.502 24.081L185.294 24.005L184.505 23.243L183.908 22.8628L183.168 22.5835L182.583 22.4463L182.152 22.4529L181.798 22.6496L181.522 23.0331L181.09 23.2512L180.503 23.3041L180.185 23.4082L180.136 23.562L179.924 23.5653L179.55 23.4199L179.165 23.3785L178.766 23.443L178.475 23.5934L178.165 24.0645L178.104 24.2959L177.881 24.4975L177.287 24.8116L177.257 24.9273L176.945 25.2843L176.845 25.481L176.847 25.6744L176.743 25.6628L176.533 25.4463L176.524 25.1554L176.718 24.7885L176.892 24.6116L177.044 24.6231L177.138 24.4595L177.174 24.1223L177.12 23.9537L176.824 24.0199L176.668 24.1537L176.471 24.1835L176.235 24.1074L176.026 24.2909L175.846 24.7355L175.631 25.0264L175.381 25.1636L175.212 25.0116L175.126 24.5702V24.2248L175.227 23.8066L175.176 23.7256L175.07 23.8595L174.911 24.2083L174.7 24.9686L174.564 25.2149L174.38 25.319L174.089 25.7785L173.692 26.5918L173.244 27.3802L172.744 28.1405L172.443 28.5488L172.342 28.6066L172.297 28.7422L172.273 29.2297L172.183 29.5603L171.922 29.8198L171.239 30.1471L171.131 30.3702L171.116 30.5537L170.676 31.3124L170.461 31.7769L170.321 32.2595L170.365 32.5636L170.595 32.6876L170.782 32.6397L170.924 32.4199L171.143 32.2199L171.439 32.0413L171.654 31.7785L171.953 31.1388L172.289 30.7702L172.468 30.7488L172.517 30.7587L172.867 30.5917L173.148 30.6463L173.318 30.8975L173.492 31.0694L173.53 31.2314L173.444 31.5918L173.283 31.9719L173.05 32.3703L172.838 32.967L172.648 33.762L172.608 34.362L172.718 34.7669L172.613 35.1289L172.296 35.4463L172.039 35.8711L171.846 36.4017L171.737 36.8463L171.71 37.2066L171.738 37.476L171.857 37.8397L171.849 38.0231L171.505 38.8215L171.381 39.2083L171.359 39.5141L171.273 39.8149L171.01 40.4248L170.928 40.7636L170.913 41.0744L170.972 41.5835L170.939 41.7554L170.954 41.886L171.019 41.9736V42.1339L170.951 42.3669L170.977 42.5471L171.096 42.676L171.172 42.9223L171.207 43.2843L171.298 43.5868L171.445 43.8281L171.472 44.1802L171.378 44.6396L171.33 45.5025L171.328 46.767L171.397 47.5769L171.54 47.9355L171.699 48.2L171.874 48.3703L172.076 48.8925L172.304 49.7686L172.514 50.3471L172.709 50.6281L172.885 50.7835L173.024 50.8744L173.126 50.8876L173.184 51.0248L173.446 51.1075L173.924 51.1422L174.364 51.0876L174.764 50.9454L176.038 50.2083L176.533 49.8066L176.807 49.4463L177.074 48.9719L177.33 48.3835L177.853 47.5008L178.108 46.967L178.352 46.2893L178.538 45.5785L178.662 44.8331L178.721 44.0578L178.715 43.2546L178.589 42.4446L178.346 41.6264L178.215 41.2083L178.164 41.0975L177.724 40.0463L177.227 38.5785L177.234 38.4529L177.697 37.5752L177.709 37.4562L177.659 36.7422L177.56 36.3835L177.323 35.9008L177.332 35.7785L177.813 35.162L178.104 34.6926L178.369 34.1223L178.541 33.4562L178.619 32.6942L178.617 32.1852L178.533 31.9306L178.541 31.7339L178.642 31.5967L179.158 31.4182L179.332 31.1157L179.368 30.5835L179.474 30.319L179.649 30.324L179.812 30.2149L179.96 29.9917L180.157 29.9273L180.402 30.0248L180.745 29.6942L181.185 28.9356L181.522 28.5107L181.759 28.4215L181.803 28.4909L181.658 28.7173L181.613 28.9669L181.669 29.238L181.62 29.5008L181.511 29.8595L181.578 29.9719L181.39 30.5488L181.381 30.8364L181.496 31.0545L181.631 30.9785L181.788 30.6066L181.836 30.4083L181.772 30.3834L181.797 30.2248L181.908 29.9339L182.007 29.795L182.093 29.8116L182.116 29.9702L182.078 30.2727L181.828 30.9851L181.779 31.2017L181.835 31.2628L182.136 30.8166L182.387 30.1058L182.579 29.5603L182.614 29.2628L182.556 28.4942L182.568 28.1785L182.64 27.9603L182.902 27.7141L183.35 27.4397L183.794 27.2926L184.232 27.2744L184.538 27.2L184.712 27.0695L184.651 26.9636L184.356 26.8859L184.131 26.714L183.979 26.4479L183.928 26.1422L183.979 25.7984L184.166 25.4595L184.49 25.1273L184.593 24.8843L184.472 24.7273L184.611 24.6711L185.008 24.7157L185.286 24.6727L185.443 24.5421L185.486 24.5587L185.818 24.6827L186.412 25.0909L186.977 25.3289L187.511 25.3967L187.901 25.5405L188.146 25.7603L188.323 26.0066L188.431 26.2793L188.685 26.4331L189.087 26.4678L189.403 26.5835L189.633 26.7802L190.911 27.2876L191.445 27.5554L191.739 27.8165L191.822 27.9851L191.797 28.1504L191.827 28.3273L192.045 28.6711L192.128 28.7025L192.179 28.8678L192.198 29.1686L192.262 29.3703L192.371 29.4727L192.304 29.514L191.91 29.3405L191.686 29.3934L191.582 29.6182L191.566 29.8314L191.637 30.0314L192.14 30.633L192.27 31.1818L192.295 31.8446L192.232 32.1025L192.179 32.6694L192.136 33.5455L192.127 33.8447L191.961 34.1372L191.513 34.557L191.506 34.4777L191.399 34.4562L191.283 34.5207L191.121 34.8793L190.982 35.5339L190.813 35.8893L190.613 35.9455L190.492 36.0397L190.452 36.1719L190.239 36.2611L189.85 36.3074L189.584 36.5058L189.385 37.0645L189.394 37.3322L189.301 37.6644L189.307 37.9488L189.412 38.1851L189.726 38.4215L190.249 38.6579L190.561 38.6942L190.777 38.5951L191.002 38.2083L191.22 38.0562L191.486 37.9917L191.587 37.8165L192.026 37.0413V36.8694L191.865 36.8033L191.888 36.7554L192.095 36.724L192.274 36.6198L192.426 36.4413L192.692 36.3091L193.341 36.1058L193.688 35.8744L193.908 35.8364L194.229 35.9603L194.649 36.2446L194.982 36.6595L195.227 37.2033L195.536 38.6099L195.91 40.8694L196.165 42.1289L196.302 42.3967L196.37 42.5306L196.041 44.2843L195.776 45.0066L195.313 45.4248L194.853 45.8297L194.279 46.5074L193.649 46.8413L193.326 47.038L193.256 47.1653L193.179 47.1256L193.007 47.4926L192.853 48L192.792 48.3918L192.846 48.6066L192.715 48.7438L192.479 49.0017L192.434 49.0959L192.451 49.2463L192.401 49.319L192.287 49.3157L192.199 49.3884L191.986 49.6579L191.619 50.362L191.549 50.5091L191.61 50.6182L192.031 50.686L192.317 50.8149L192.54 51.0083L193.346 51.3868L193.592 51.6215L193.837 51.7504L194.08 51.7736L194.247 51.6992L194.337 51.5273L194.451 51.5157L194.59 51.6645L195.043 51.8265L195.058 51.8777L193.801 52.1587L193.538 52.2893L193.852 52.3802L194.17 52.3587L194.489 52.2231L194.856 52.2298L195.179 52.2942L195.281 52.2397L195.323 52.2116L195.872 52.5802L196.077 52.6347L196.291 52.5934L196.511 52.4545L196.995 52.2744L197.743 52.0512L198.463 51.9603L199.154 52.0017L199.591 51.9389L199.991 51.7074L200.875 50.9471L201.889 50.3339L203.558 49.5719L206.04 48.6546L206.423 48.4413L206.812 48.2314L207.014 48.1107L207.239 48.0016L208.966 47.0397L209.856 46.4711L210.301 46.0578L210.771 45.7141L211.264 45.4397L211.654 45.0876L211.944 44.6579L212.263 44.3372L212.612 44.1273L212.801 43.9058L212.827 43.6744L212.761 43.3603L212.606 42.9653L212.584 42.6546L212.697 42.4264L212.722 42.2728L212.659 42.1934L211.926 41.967L211.957 40.8761L211.947 40.8446L211.985 40.8314L213.674 40.3471L214.751 40.1801L216.063 40.1356L217.627 40.3752L218.234 40.5934L218.618 40.8711L219.061 40.9455L219.564 40.8165L220.26 40.7735L221.152 40.8165L221.629 40.8827L221.691 40.9702L221.753 40.9438L221.814 40.805L222.052 40.6512L222.72 40.4215L222.81 40.4694L222.947 40.3537L223.132 40.0727L223.473 39.762L223.969 39.4215L224.418 39.2446L224.82 39.2298L225.088 39.1471L225.223 38.9934L225.265 38.8579L225.212 38.7405L225.235 38.6099L225.258 38.5455L225.238 38.4925L225.19 38.3818L225.152 37.8231L225.075 37.5603L224.965 37.3653L224.826 37.2397L224.843 37.1091L225.084 36.9471L225.066 37.0975L225.129 37.1438L225.242 37.0744L225.5 36.7372L225.529 36.6099L225.705 36.4794L225.836 36.276L225.692 36.2463L225.349 36.3074L225.271 36.2463L225.448 35.9752L225.415 35.8215L225.359 35.757L225.247 35.7306L224.861 35.9686L224.742 35.9901L224.726 35.8645L224.527 35.5851L225.06 35.0893L226.942 33.7058L227.134 33.4959L227.205 33.3074L227.154 33.1421L227.101 33.1008L227.129 33.0595L228.944 31.2711L229.975 30.443L230.825 29.9802L231.474 29.7603L231.912 29.7917L232.16 29.7603H232.372L233.452 29.7587L235.384 29.7554L237.317 29.7537L239.249 29.7504L241.18 29.7471L243.112 29.7438L245.044 29.7405L246.975 29.7372L247.433 28.4744L247.858 27.8843L248.442 28.0794L248.753 28.0628L249.099 27.7587L249.379 27.5736L249.562 27.6017L249.719 27.8793L249.85 28.0645L250.004 28.01L250.135 27.7471L250.13 27.3818L250.308 27.1272L250.522 27.0893L250.719 27.0975L250.818 26.9736L250.806 26.7967L250.737 26.5091L250.762 26.1636L251.253 25.5504L251.855 25.1355L252.065 24.9273L252.127 24.5058L252.472 24.0678L252.644 23.8149L252.686 23.595L252.596 23.324L252.605 22.8066L252.724 22.1885L252.866 21.514L253.184 20.9058L253.705 20.2413L253.84 19.3653L253.981 18.4397L254.613 17.5356L255.329 16.5058L255.738 15.919L256.473 14.8496L256.995 14.086L257.258 13.7355L257.533 13.319L257.981 13.4446L258.428 13.5686L258.362 14.1736L258.435 14.6132L258.646 14.8661L258.952 15.038L259.184 15.0959L259.457 15.0926L260.201 14.7504L261.075 14.5289L261.556 14.3223L261.644 14.1289L261.862 14.0611L262.211 14.119L262.857 14.6033L263.609 15.3339L264.203 15.9108L264.221 16.9091L264.233 17.9637L264.245 19.0711L264.253 19.8595L264.268 20.9405L264.279 21.7967L264.294 22.9124L264.303 23.5075L264.384 23.6793L264.334 23.9124L264.312 24.0297L264.317 24.124L264.351 24.2413L264.346 24.405L264.269 24.5521L264.231 24.724L264.221 25.0033L264.303 25.1752L264.438 25.276H264.552L264.7 25.3769L264.89 25.5554L265.179 25.7107L265.479 25.7653L265.686 25.7273L265.935 25.8281L266.023 26.076L265.973 26.3091L265.833 26.4182L265.681 26.5025L265.652 26.681L265.729 26.8661L265.838 27.0281L265.957 27.3124L265.907 27.5604L265.798 27.7686L265.75 27.9835L265.843 28.1686L266.088 28.4149L266.24 28.6529L266.48 28.7835L266.594 28.6909L266.686 28.5669L266.784 28.4744L266.953 28.5289L267.15 28.5984L267.363 28.681L267.337 28.881L267.467 29.2165L267.568 29.8612L267.413 30.1537L267.446 30.5405L267.876 30.6529L267.98 30.7719L268 30.9141L267.052 31.9041L266.25 31.7669L265.815 32.0297L265.36 32.1058L265.16 32.5471L264.91 32.6413L264.567 32.6149L264.271 32.4909L264.046 32.5521L263.73 33.3471L263.472 33.2777L263.37 33.5636L263.234 33.6892L263.035 33.7951L262.863 33.443L262.754 33.1074L262.592 33.0347L262.377 32.9487L262.157 32.9521L262.01 33L261.826 33.2166L261.561 33.4033L261.361 33.2479L261.204 32.9983L261.07 33.4L260.875 33.8232L260.908 34.3157L260.823 34.6082L260.638 34.5306L260.455 34.2744L259.938 34.0694L259.526 34.0876L259.611 33.8132L260 33.4198L259.879 33.3438L259.689 33.3983L259.606 33.3438L259.743 32.9851L259.756 32.5901L259.583 32.7273L259.364 33.1438L258.835 33.476L258.86 34.0314L258.362 35.1653L258.339 35.6479L258.019 36.0314L257.606 36.362L257.055 36.2694L256.635 36.5554L256.421 36.8843L256.236 36.9339L256.14 36.5157L256.07 36.3868L255.915 37.005L255.758 37.043L255.698 36.605L255.624 36.3157L255.409 36.5653L255.266 37.2264L255.118 37.1703L255.07 36.9256L254.962 36.8513L254.926 37.1322L254.979 37.5273L254.901 37.7372L254.752 37.6248L254.603 37.4347L254.357 37.5785L254.13 37.6363V37.443L254.173 37.205L253.723 37.3356L253.182 37.7736L252.762 38.3785L252.907 38.4793L253.071 38.6711L252.342 39.6017L251.594 40.438L251.03 41.7983L250.803 41.957L250.608 42.205L250.401 43.0231L250.163 43.7487L250.297 44.0727L250.385 44.4049L250.596 44.7322L250.777 44.762L250.972 44.7025L251.114 44.7157L251.207 44.8545L251.167 45.0215L250.942 45.0628L250.522 45.3537L250.153 45.4661L249.969 45.8165L249.693 46.2215L249.155 46.8529L249.385 47.0479L250.214 47.2661L250.585 47.4909L251.144 48.6644L251.016 48.7818L250.965 48.9967L251.463 49.2975L251.622 50.1372L252.031 50.4232L252.639 50.5983L253.385 50.3455L254.006 49.9967L253.984 49.7108L253.594 49.043L253.5 48.7306L253.21 48.5273L253.101 48.6992L252.914 48.476L252.892 48.3504L253.066 48.2893L253.27 48.3141L253.506 48.4314L254.115 49.1603L254.284 50.1124L254.32 50.7157L254.251 50.9223L254.074 50.8794L253.736 50.9207L252.133 51.2331L251.777 51.5074L250.962 51.805L250.911 51.6562L250.97 51.3488L250.919 50.7174L250.758 50.6876L249.489 51.7174L249 51.7818L248.588 52.0827L248.495 51.9157L248.422 51.1454L248.68 50.4975L248.543 50.5074L248.113 50.8959L247.929 50.6562L247.837 50.3934L247.704 50.2446L247.561 50.1884L247.685 50.762L247.392 51.1917L247.312 52.3008L246.945 52.7604L245.8 53.0562L245.054 52.9934L244.386 53.086L243.497 53.2975L243.006 53.1719L242.503 53.395L240.796 53.4562L240.435 53.3372L239.975 53.7587L239.239 54.0082L237.378 54.9521L236.968 55.2959L236.468 55.8298L236.132 56.1173L235.856 56.2116L235.686 56.4513L235.5 56.6066L235.679 56.0744L235.873 55.6248L236.035 54.7504L235.987 54.043L235.786 53.752L235.58 53.557L235.821 54.2562L235.861 55.1124L235.777 55.6132L235.32 56.5769L235.126 56.8L234.9 56.9984L234.728 57.0827L234.569 57.2364L234.385 57.4793L234.212 57.962L234.317 58.4017L235.207 58.562L235.447 58.4264L235.568 58.7405L235.638 59.1769L235.57 59.6496L235.421 60.1289L235.308 60.724L235.212 61.6281L235.068 62.4397L235.049 62.1934L235.14 61.2049L234.994 61.3091L234.893 61.5372L234.622 62.8099L234.248 63.4859L233.904 63.9537L233.548 63.876L233.628 64.2479L233.53 64.4413L233.447 64.8446L233.235 65.1107L233.037 65.086L232.752 65.2694L232.64 65.4099L232.632 65.6793L232.44 65.9157L231.75 67.1422L231.151 67.5025L231.009 67.4496L231.166 66.8711L231.273 66.286L230.909 66.0314L230.562 65.8959L230.163 65.914L229.722 65.4579L229.154 65.1273L228.362 64.2281L228.385 63.9785L228.365 63.5587L228.607 62.8959L228.837 62.4314L229.156 62.1901L230.082 61.9454L230.314 61.5769L230.451 61.2661L229.993 61.8L229.306 61.9818L228.936 62.1818L228.64 62.4859L228.464 62.8678L228.067 63.3272L228.095 63.6347L228.162 63.8529L228.13 64.3091L228.382 64.752L228.878 65.4777L228.974 66.6017L229.353 67.3521L229.935 68.2248L230.382 68.4727L230.405 68.7967L230.198 69.3323L229.925 69.5768L230.279 69.5273L230.455 69.6496L230.627 70.0959L230.613 70.5504L230.555 70.805L230.448 70.9074L230.451 70.6463L230.375 70.5554L230.249 70.6678L230.168 70.7967L230.134 71.3041L230.048 71.557L229.743 71.6314L229.434 72.2959L229.148 72.6728L228.021 75.2116L228.064 75.6347L227.857 75.7702L227.546 75.881L227.23 76.1339L227.02 76.4116L226.825 77.1587L226.451 77.9984L226.218 77.6496L226.158 77.3504L226.262 76.5669L226.666 75.2826L227.111 74.4827L227.45 74.1025L227.728 73.3256L227.376 73.2099L226.838 73.2231L226.939 72.8645L227.096 72.5488L226.817 72.2331L226.651 72.1934L226.481 72.0645L226.681 71.8017L226.779 71.524L226.719 71.1851L226.803 70.9289L226.664 70.967L226.439 71.238L226.3 71.3455L226.216 71.1058L226.118 71.1603L226.056 71.3256L225.912 71.4149L225.609 71.1901L225.167 70.9339L224.922 70.4909L224.782 70.1471L224.924 69.5256L225.23 69.4149L225.627 69.5157H226.147L226.072 69.3785L225.887 69.4017L225.339 68.8959L225.162 68.5901L224.86 68.5058L224.722 68.8L224.568 68.8777L224.757 68.2347L225.005 68.2082L225.371 68.0298L225.265 67.6562L225.033 67.4926L224.616 67.6975L224.621 67.4347L224.699 67.0992H225.013L225.29 67.2083L225.525 66.6645L225.534 66.4215L225.146 66.7752L225.058 66.0132L225.44 65.2777L225.806 64.9554L226.262 64.9653L226.726 64.9141L226.434 64.7785L226.135 64.7058L226.36 64.4132L226.552 64.3603L226.74 64.1058L226.289 64.1438L226.342 63.6612L226.122 63.7604L225.859 63.8049L225.756 64.01L225.776 64.3504L225.7 64.5735L225.495 64.752L225.149 64.8909L225.116 64.6496L225.002 64.5405L224.959 65.0578L224.868 65.2331L224.615 64.7488L224.539 64.8463L224.549 64.9835L224.484 65.2215L224.267 65.3455L224.28 65.6496L224.196 65.8165L223.503 65.5521L223.486 65.6414L223.878 66.2116L224.165 66.4066L224.199 66.7174L223.953 66.9752L223.614 66.7537L223.556 66.7703L223.741 67.1504L223.857 67.4826L223.738 67.7603L223.756 68.1041L223.73 68.4149L223.657 68.6859L223.822 69.9306L224.021 70.2694L224.216 70.5918L224.32 70.8942L224.113 70.9372L223.783 70.6893L223.491 70.4992L223.146 69.8926L223.089 69.6496L223.005 69.4579L223.045 69.8975L223.169 70.3884L224.251 71.486L224.451 71.9058L224.603 72.2364L224.565 72.5504L224.282 72.3273L224.039 72.043L223.392 71.7206L222.576 71.5174L222.117 70.7669L222.118 71.0793L222.016 71.3455L221.734 71.0215L221.557 70.7455L221.498 70.443L221.147 70.4628L220.78 70.7273L220.424 70.6645L220.383 70.1504L220.479 69.8777L220.877 69.2331L221.255 68.9025L221.42 68.4761L221.364 67.8149L221.294 68.4876L221.079 68.8198L220.74 69.0744L220.295 69.5273L220.188 69.9454L220.049 70.7273L220.236 70.9918L220.428 71.0612L220.993 70.8843L221.286 70.9637L221.938 71.9025L223.152 72.2728L223.596 72.5041L223.956 72.9934L224.499 73.2744L224.921 73.6827L224.932 73.9488L224.787 74.2628L224.729 74.6876L224.55 74.9554L224.122 74.9868L223.862 74.9174L222.467 73.4215L222.3 73.2843L221.782 72.4992L221.175 72.0777L220.987 72.0859L221.85 72.8645L222.203 73.4082L222.823 74.1686L223.266 74.4909L223.592 74.9934L223.897 75.2281L224.726 75.562L224.438 75.8033L224.898 76.0083L224.964 76.3835L224.922 76.8116L224.284 76.6413L224.262 76.957L224.32 77.1421L224.039 77.2959L223.647 77.0876L222.629 75.9471L222.638 76.0992L222.72 76.276L223.311 77.0099L223.839 77.4496L224.285 77.6479L224.63 78.0165L224.752 78.2381L224.833 78.5752L224.578 78.8033L224.287 78.9306L224.004 78.7025L223.796 78.4612L223.352 78.0529L223.218 77.5951L222.881 77.6182L221.471 77.038L220.338 76.9702L220.449 77.0876L220.591 77.1653L221.493 77.3074L221.849 77.5752L222.59 77.8132L223.025 77.8777L223.2 78.6049L223.801 79.1058L223.878 79.4761L224.289 79.5174L225.01 79.1554L225.475 79.2826L226.147 79.3868L226.3 79.6794L226.415 80.2347L226.653 80.8595L227.268 83.3157L228.193 85.314L228.307 85.6579L228.092 85.3554L227.406 84.0331L227.027 83.0744L226.638 81.3785L226.525 80.9984L226.391 80.8463L226.304 80.9702L226.266 81.1868L226.33 81.3537L226.176 81.9124L226.243 82.1686L226.491 82.4331L226.762 83.0926L226.979 83.9802L226.686 83.6198L226.375 83.4298L225.89 83.2843L225.458 83.0281L225.49 83.3951L225.448 83.7917L225.116 83.6711L224.889 83.5388L225.091 83.9603L224.656 83.8347L224.365 83.8611L224.176 84.2364L223.923 84.4628L223.549 84.5356L222.993 84.1934L222.815 83.7769L222.74 83.3124L222.71 83.8611L222.81 84.4314L222.775 84.8644L223.309 84.9438L223.809 84.8744L224.484 84.8926L224.924 84.8116L225.189 84.6744L225.824 84.7934L225.869 85.3157L225.796 85.8347L225.759 86.3851L225.935 86.3818L226.142 86.205L226.246 85.2149L226.826 84.8479L227.022 84.8744L227.207 85.1917L227.27 85.5141L227.336 85.957L227.2 86.6314L226.309 87.4182L225.67 88.1438L225.343 88.2909L224.873 88.2066L224.338 88.0248L224.075 87.9884L223.877 88.0496L223.756 87.8248L223.678 87.4165L223.472 87.281L223.314 87.2959L223.208 87.7289L222.71 87.8529L222.034 87.6727L221.324 87.3091L221.629 87.6992L223.387 88.4281L223.586 88.5653L223.771 88.7637L223.526 89.076L223.333 89.4281L223.304 89.7041L223.237 89.8777L222.535 90.3455L222.156 90.2628L221.185 89.4182L221.629 90.1488L221.983 90.4578L222.697 90.6231L224.036 90.3504L224.476 90.648L224.115 91.1752L223.758 91.5438L223.288 91.5851L222.874 91.686L222.752 91.9388L222.457 91.9554L221.996 91.9703L221.283 91.9934L220.891 91.9339L220.343 92.4513L220.136 92.5223L219.848 92.4248L219.728 92.0083L219.599 91.8033L219.595 92.5818L219.647 92.7918L219.751 92.9488L219.111 93.3703L218.497 93.8959L218.277 94.038L218.027 94.3008L217.516 95.0595L217.39 95.6116L217.205 96.2265L217.182 95.9504L217.213 95.4843L217.087 94.9504L217.006 95.9289L216.808 96.3818L214.985 96.3504L214.187 96.5967L212.963 97.4248L212.597 97.7884L211.585 99.1884L211.327 100.083L211.12 99.7074L211.171 99.4265L211.175 99.195L210.922 99.6661L211.163 100.387L210.946 100.661L210.278 101.174L209.912 101.256L209.502 101.402L209.373 101.906L208.816 102.37L208.491 102.575L207.896 102.451L208.079 102.898L207.861 103.236L207.484 103.496L207.016 103.665L206.748 103.643L206.519 103.732L206.339 103.947L205.901 104.149L205.446 104.036L204.93 103.969L204.642 104.089L205.125 104.289L205.385 104.577L205.332 104.965L205.202 105.114L204.896 105.317L204.762 105.288L204.681 105.106L204.582 104.726L204.44 104.807L204.415 104.984L204.293 105.048L203.859 104.441L203.881 104.904L204.031 105.26L204.177 105.44L204.324 105.545L204.36 105.711L204.064 106.112L203.912 106.202L203.641 106.266L203.489 106.512L203.533 106.726L203.295 107.187L202.728 107.474L202.556 107.463L202.415 107.547L202.498 107.752L202.638 107.901L202.633 108.04L202.484 108.228L202.188 108.281L202.023 108.494L202.076 108.698L202.173 108.81L202.152 109.003L201.816 109.198L201.737 109.39L201.904 109.446L202.033 109.39L202.127 109.431L201.925 109.752L201.745 109.947L201.573 110.298L201.174 110.395L201.189 110.509L201.414 110.61L201.603 110.879L201.249 111.377L201.027 111.336L200.891 111.226L200.805 111.618L200.838 111.826L200.754 112.255L200.618 112.767L200.526 112.977L200.546 113.369L200.603 113.747L200.82 114.233L201.153 116.218L201.379 116.906L201.786 118.757L202.46 120.545L203.409 122.699L204.968 125.298L205.155 125.666L204.951 125.979L204.89 126.302L204.872 126.79L204.928 127.266L205.112 127.846L205.466 128.732L205.267 128.557L204.754 127.284L204.695 126.537L204.767 125.474L204.647 125.501L204.549 125.846L204.494 126.251L204.364 126.408L204.187 125.788L204.2 125.509L204.389 125.182L204.334 125.064L204.028 124.896L203.963 124.633L204.005 124.372L203.831 124.233L203.694 124.24L203.786 124.883L203.93 125.276L204.109 126.22L204.398 126.79L204.567 127.268L206.536 132.342L207.002 132.985L207.174 133.446L207.353 134.41L207.393 135.645L207.072 137.894L206.999 139.423L206.953 139.377L206.921 139.215L206.847 139.193L206.569 139.893L206.19 140.522L206.064 141.501L205.882 141.99L205.335 142.507L204.996 142.494L204.165 142.883L203.581 142.782L202.886 143L202.43 142.975L202.165 142.514L202.205 142.307L202.309 142.101L202.488 142.053L203.101 142.537L203.217 142.332L203.032 142.091L202.676 141.955L202.415 141.807L201.887 140.703L201.34 139.944L201.247 139.435L200.302 139.124L199.619 138.653L199.172 137.817L198.916 136.331L198.615 136.164L198.488 136.048L198.782 135.494L199.093 135.03L198.848 135.145L198.668 135.317L198.438 135.727L198.269 135.79L198.115 135.727L197.938 134.941L197.99 133.974L198.238 133.612L197.856 133.602L197.46 133.739L197.518 134.061L197.462 134.238L197.174 134.192L196.954 134.079L196.658 133.742L196.252 133.101L195.42 131.329L195.258 131.079L194.982 130.817L195.113 130.736L195.349 130.688L195.884 129.888L196.302 129.403L196.441 129.068L196.416 128.924L196.231 128.716L195.988 128.898L195.884 128.846L195.609 128.425L195.348 128.306L195.166 128.397L195.357 128.741L195.53 128.869L195.462 129.37L195.392 129.532L195.23 129.676L194.977 129.598L194.85 129.722L194.699 129.592L194.55 129.372L194.383 129.01L194.825 126.967L195.233 125.661L195.28 124.167L195.311 123.945L195.276 123.547L194.729 122.683L192.309 120.565L190.434 118.046L188.81 117.099L187.577 117.307L187.364 117.498L187.273 117.745L187.349 118.028L187.238 118.145L186.907 118.131L186.462 118.197L185.299 118.86L184.889 118.835L184.516 119.007L184.237 119.136L183.509 119.205L182.892 119.352L182.626 119.273L182.452 118.888V118.489L182.592 118.795L182.811 119.035L182.912 118.939L182.948 118.727L182.731 118.312L182.032 117.78L181.236 117.002L181.479 117.028L181.54 116.861L181.294 116.641L181.398 116.388L181.572 116.122L181.236 116.162L180.933 116.349L180.923 116.579L180.864 116.762L180.702 116.736L180.4 116.509L178.918 115.878L177.621 115.521L178.617 115.36L179.156 115.484L179.092 115.293L178.961 115.17L178.536 115.017L177.993 115.074L177.651 115.002L177.302 115.155L176.918 115.382L176.576 115.498L175.239 115.661L174.155 115.838L174.329 115.651L174.514 115.531L175.155 115.347L175.25 114.967L175.1 114.6L174.931 114.688L174.754 114.974L174.537 114.767L174.298 114.769L174.231 115.223L173.922 115.529L173.783 115.836L172.878 116.078L172.762 115.998L173.027 115.706L173.006 115.544L172.704 115.683L172.198 116.235L170.416 116.415L170.514 116.289L170.891 116.263L171.419 116.089L171.311 115.795L171.108 115.471L170.919 115.435L170.795 115.245L170.802 114.646L170.681 114.296L170.392 113.936L170.294 114.005L170.081 114.623L169.904 115.431L169.816 115.693L169.288 115.711L168.82 115.655L167.232 115.752L166.64 115.478L166.393 115.425L166.243 115.431L165.553 115.683L164.765 115.874L164.58 115.813L164.315 115.805L163.744 116.458L163.071 116.764L161.374 116.213L160.952 115.772L160.576 115.678L160.115 115.623L159.62 116.167L159.243 116.899L159.837 117.301L160.346 117.493L161.187 117.332L161.652 116.977L162.031 116.988L162.213 116.917L162.378 116.732L162.702 116.878L162.714 117.025L162.484 117.231L162.193 117.405L162.017 117.61L162.348 118.022L162.869 118.16L163.065 118.101L163.185 117.638L163.506 117.339L163.941 117.403L163.88 117.592L163.941 117.769L164.141 118.071L164.118 118.504L164.156 118.608L163.688 118.798L163.339 118.863L163.06 119.112L163.207 119.256L162.922 119.383L162.73 119.332L162.633 119.379L162.603 119.532L162.456 119.673L162.669 120.101L163.108 120.379L163.417 120.729L164.661 121.188L164.962 121.175L165.258 121.638L165.498 121.797L165.728 121.878L165.702 122.195L165.291 122.428L165.18 122.706L165.078 122.861L164.893 122.664L164.704 122.521L164.266 122.955L164.054 123.048L164.158 122.579L163.993 122.395L163.743 121.924L163.377 121.633L163.119 121.536L162.919 121.352L162.676 121.278L162.469 121.298L162.118 121.19L162.095 120.939L161.997 120.75L161.723 120.529L160.414 120.109L160.406 120.283L160.497 120.413L160.686 120.501L160.911 120.669L160.909 121.17L160.811 121.382L160.77 121.683L160.682 121.99L160.522 122.231L160.164 122.395L160.007 122.258L159.752 121.598L159.392 121.392L158.819 121.367L158.431 121.516L158.007 122.155L157.665 122.26L156.495 121.929L155.162 121.423L155.196 121.255L155.407 121.2L155.81 121.269L155.789 121.096L155.377 120.531L155.302 120.276L155.355 119.965L155.221 119.972L154.975 120.233L154.124 120.012L153.889 119.745L153.39 118.998L152.685 118.974L152.366 118.521L151.788 118.711L151.497 118.921L151.241 119.246L151.34 119.415L151.597 119.683L151.481 119.813L150.659 120.003L148.753 119.79L148.195 119.59L147.447 119.167L146.412 118.823L145.912 118.767L145.424 118.835L144.001 118.869L143.672 118.96L143.391 119.107L143.209 118.945L143.125 118.656L143.29 118.61L143.474 118.44L143.639 118.102L143.659 117.898L143.543 117.765L143.323 117.752L142.837 118.63L143.115 119.121L143.096 119.298L142.125 119.398L139.92 120.385L139.06 120.917L139.105 120.739L140.143 120.05L139.776 119.944L139.186 120.116L138.974 120.05L139.224 119.479L139.143 118.975L138.722 118.962L138.454 119.364L138.269 119.347L138.026 119.175L137.837 119.23L137.976 120.14L138.241 120.514L138.463 120.992L137.859 121.579L137.298 122.063L137.237 122.531L136.673 123.139L136.143 123.484L134.898 124.294L134.542 124.466L133.979 124.841L133.205 125.122L132.461 125.569L132.211 125.636L132.686 125.258L133.248 124.884L132.765 124.936L132.021 124.764L131.566 124.754L131.564 124.891L131.218 125.084L130.859 124.802L130.704 124.612L130.629 124.446L130.477 124.407L130.332 124.483L130.868 125.64L131.096 125.689L131.347 125.803L131.033 126.073L130.694 126.278L130.161 126.413L129.711 125.992L129.614 126.521L129.556 127.048L129.405 127.184L129.164 127.377L129.033 127.231L128.97 127.026L128.814 127.208L128.588 127.345L128.214 127.374L127.934 127.446L127.941 127.664L128.005 127.884L128.502 127.711L128.321 128.274L127.865 128.831L127.493 128.962L126.924 128.881L126.783 128.937L126.657 129.053L127.321 129.921L126.894 131.228L126.621 131.702L126.432 131.764L126.224 131.779L125.489 131.359L125.089 131.033L125.443 131.917L126.406 132.175L126.455 132.511L126.45 132.795L126.26 133.131L126.083 133.575L126.214 133.884L126.366 134.65L126.497 135L126.639 136.063L126.791 136.522L127.666 138.212L127.961 138.225L128.007 138.407L127.979 138.757L127.35 138.86L127.086 139.015L127.034 139.15L126.996 139.223L126.915 139.217L126.616 139.119L125.933 138.64L124.938 138.342L123.631 138.226L122.738 137.987L122.258 137.621L121.759 137.403L121.238 137.336L120.804 137.137L120.462 136.808L119.96 136.598L119.3 136.506L118.87 136.26L118.572 135.655L118.571 135.646L118.303 134.635L117.965 134L117.31 133.213L117.251 133.109L117.246 132.98L117.327 132.522L117.257 132.192L117.05 131.922L117.002 131.638L117.115 131.339L117.122 130.979L117.024 130.557L116.607 130.101L115.869 129.612L115.241 128.894L114.723 127.95L114.21 127.296L113.702 126.931L113.356 126.484L113.169 125.957L113.115 125.651L113.191 125.567L112.88 124.98L112.18 123.891L111.778 123.093L111.674 122.587L111.229 121.985L110.441 121.286L110.014 120.831L109.91 120.516L108.681 119.593L108.324 119.017L108.046 118.835L107.726 118.855L107.563 118.798L107.554 118.668L107.45 118.661L107.25 118.78L106.597 118.803L105.49 118.734L104.691 118.577L104.199 118.334L103.855 118.367L103.657 118.678L103.237 118.878L102.593 118.967L102.04 119.542L101.577 120.603L101.374 121.284L101.43 121.588L101.308 121.808L101.006 121.945L100.7 122.253L100.389 122.731L100.025 122.962L99.6102 122.945L98.8426 122.579L97.7242 121.858L96.8474 121.412L96.2122 121.241L95.6513 120.907L95.1649 120.41L94.7166 120.078L94.3063 119.911L93.8266 119.359L93.2773 118.42L93.0027 117.694V116.927L92.2847 115.253L91.9042 114.526L91.6213 114.19L91.0688 113.79L90.2432 113.324L89.1381 112.392L87.7518 110.988L86.7707 110.142L86.1951 109.855L85.6955 109.347L85.2719 108.62L84.8583 108.155L84.8153 108.134L84.7789 108.124L83.7582 108.117L82.7374 108.111L81.7167 108.104L80.696 108.099L79.6752 108.093L78.6545 108.088L77.6338 108.081L76.613 108.074L76.6097 108.684L76.5932 109.299L76.5915 109.907L76.5882 110.516L74.9471 110.519L73.306 110.522L71.6649 110.526L70.0237 110.529L68.3827 110.532L66.7415 110.536L65.1004 110.539L63.4593 110.542L61.2573 109.742L59.0554 108.941L56.8535 108.137L54.6515 107.332L52.4496 106.527L50.2476 105.721L48.0457 104.912L45.8437 104.102L46.0654 103.793L46.3599 102.967L45.8288 103.026L44.5004 103.144L43.172 103.261L41.8435 103.379L40.5151 103.496L39.1866 103.613L37.8582 103.731L36.5297 103.848L35.2013 103.965L35.1914 103.931L35.1583 103.331L34.9432 103.119L34.6669 103.25L34.5412 102.469L34.6107 102.101L34.5776 101.741L34.3179 100.853L33.628 99.7753L32.1374 98.4314L31.3781 97.9818L30.7825 97.4132L30.4037 97.2545L29.9272 97.2116L29.7899 97.4677L29.2506 97.2926L29.3317 96.6562L28.8056 95.7703L28.3754 95.6711L27.2918 95.7306L25.8443 95.243L25.4175 94.9521L25.2702 94.4314L24.5919 93.9785L23.6986 93.5339L23.2006 93.638L22.5505 93.5686L21.6224 93.2479L21.0814 93.2082L20.0276 93.3025L19.6338 93.2347L19.2682 92.8297L18.8745 92.6264L18.9572 92.1273L18.9076 91.676L18.9671 91.324L18.7901 90.5521L18.9274 89.8347L18.8083 89.5752L18.585 89.3752L17.8869 89.081L17.7595 88.7124L17.8736 88.2L17.6916 87.8612L17.1192 87.5455L16.5849 86.8281L15.9066 86.4347L15.6287 85.7752L15.2118 85.3669L15.0662 85.005L14.1397 83.7107L13.1504 82.6975L12.9982 82.1124L12.9602 81.3108L13.3473 80.8215L13.5558 80.3901L13.5343 79.9951L13.4747 79.7041L13.1339 79.1984L11.8171 78.8975L10.7467 77.643L10.6838 76.681L10.2636 75.6959L10.2586 75.0529L10.1941 74.357L10.5134 74.205L10.7979 74.2612L10.7698 74.5372L10.8658 75.0347L11.2016 75.4083L11.5209 75.5719L11.8121 75.9339L12.0305 76.043L12.2554 76.0694L12.1347 75.8364L12.0056 75.6876L11.8485 75.2049L11.5507 74.5885L11.2082 74.248L11.0345 73.6265L10.8856 73.4827L10.793 73.2512L11.1239 72.9769L11.5755 72.7818L12.181 72.7289L13.8982 72.8215L14.2638 72.6611L14.5666 72.7124L14.7882 72.6926L14.3217 72.5273L14.0603 72.5818L13.751 72.5471L13.1372 72.5802L12.8891 72.5107L12.6161 72.3157L12.4374 72.2959L11.87 72.6364L11.6169 72.5951L11.018 72.2232L10.7566 72.1703L10.3364 72.3818L10.2851 73.2926L10.4158 73.9686L10.1643 74.038L9.87151 73.7603L9.42318 73.595L9.05261 73.3422L8.52985 72.8711L8.25522 72.6992L7.9442 73.0909L7.93262 72.9107L8.08648 72.4545L8.04346 71.6893L8.51164 72.3008L8.36604 71.8711L8.00211 71.3967L7.72581 71.2314L7.37842 70.3818L6.5959 69.8711L5.96889 69.0446L4.68513 67.6711L4.60074 66.4612L4.13258 64.9256L4.32943 64.0496L4.30296 63.4281L4.07301 62.4859L3.83314 61.9735L2.79253 60.5636L1.79166 59.6116L1.64111 58.8892L1.57162 58.1604L1.79001 57.5108L1.98026 56.8248L2.11756 56.643L2.17216 56.719L2.13411 56.8645L2.27639 56.9091L2.33097 56.6066L2.41536 56.4513L2.26647 56.4314L2.28134 56.3355L2.37068 56.1438L2.68171 55.2413L2.64861 54.1008L2.98115 52.6975L2.9646 52.2331L2.75284 51.2314L2.54108 50.6298L2.16389 50.2033L2.33097 49.5785L2.31774 48.9818L1.65104 48.1207L1.39627 46.9884L1.3483 46.5091L1.41446 45.2397L1.24077 44.6958L0.795747 43.7983L0.98599 43.0165L1.19114 42.5388L1.6924 40.4512L1.81317 40.281L2.02161 40.2859L2.38723 39.9306L2.21848 39.8479L1.96371 40.0182L2.19035 39.1885L2.44513 38.4761L2.61057 38.2198L2.69494 35.8859L2.84052 34.0926L3.08039 33.4992L2.99602 32.886L3.09363 32.0546L3.02415 31.2116L3.53865 27.1306L3.47083 26.6347L3.62799 25.9686L3.48075 24.2083L3.54693 22.2281L3.41623 21.9752L3.35005 21.7008L3.47247 21.6595L3.7107 21.9487L4.81581 21.9455L5.52059 21.6777L5.77701 21.7653L6.07477 22.1289L6.45032 22.2017L6.91848 22.1372L6.77621 22.0463L6.55619 22.0215L6.06319 21.6859L5.78362 21.3504L4.92169 21.3736L4.74632 21.1587L3.78351 21.3736L3.48572 21.1537L2.96129 21.2959L3.09033 20.6711L3.06717 19.881L3.0953 19.1108L3.22433 19.6727L3.55023 20.2694L3.7074 19.5934L3.81493 18.7405L3.4973 18.4132L2.96791 18.1703L2.77765 17.3735L4.02999 16.6926L3.36494 16.5488L3.10355 16.243L2.78095 16.2049L2.75615 16.4413L2.65192 16.7504L2.53942 16.3389L2.50634 15.8546L2.37398 15.0265L1.86114 13.6893L1.55012 11.9488L1.15968 11.086L0.411938 10.2595L0.216711 9.77687L0.0380486 8.54876L0.138969 7.61653L0 6.95867L0.359003 6.99669L1.30362 7.51404L2.47987 7.91898L2.83555 8.21321L3.4063 8.43143L6.56941 8.77025L6.77621 8.7372L7.18486 8.52727L7.35855 8.55371L7.82344 9.03473L8.05669 9.09258L8.35943 9.06775L8.58279 8.97687L8.96494 8.64793L9.01621 8.77025L9.0096 9.07604L9.14526 9.51075L9.42486 10.0727L9.53073 10.4215L8.96494 11.4033L8.8574 11.4248L8.84085 11.0926L8.7664 11.0264L7.701 12.6827L7.32713 13.4645L7.29073 13.8165L7.30395 14.0232L7.45286 14.0744L7.79365 13.9934L8.29824 13.6694L8.32306 13.5983L7.8532 13.7141L7.6282 13.724L7.65965 13.3537L7.71258 13.1785L8.02028 12.6297L8.3429 12.3008L8.80114 11.9504L9.06584 11.6611L9.24782 11.238L9.75736 10.7323L9.85167 10.5917L9.83017 10.1752L9.86159 10.0959L10.1081 10.1521L10.2107 10.8694L10.1494 11.1885L9.70939 11.5768L9.6548 11.7141L9.73091 12.2446L9.66307 12.2959L9.49599 12.2331L9.4447 12.2678L9.85994 12.843L9.99228 13.2893L10.0105 13.6876L9.89799 14.4496L9.77723 14.5769L9.57044 14.5306L9.29581 14.2926L9.2346 14.3686L9.01621 14.9603L8.94508 14.9091L8.80942 14.2066L8.73498 14.1537L8.31311 14.4744L8.14272 14.7818L7.99714 15.2711L7.81185 15.5008L8.33793 15.5504L8.81272 15.4512L9.19323 15.6843L9.32226 15.6909L9.66968 15.4628L9.77555 15.3091L10.0634 14.5703L10.2073 14.438L10.4208 14.4331L10.6275 14.3223L10.9353 13.9157L10.9485 13.7538L10.836 12.843L10.8691 12.3256L10.8112 12.162L10.6739 11.9917L10.6904 11.8264L10.7979 11.5537L10.8062 11.3074L10.7136 11.0876L10.7549 10.838L11.0461 10.2991L11.1007 10.0612L11.4547 9.52396L11.3654 9.30747L11.104 9.04299L10.9386 8.8099L10.7731 8.44626L10.6474 8.32398L10.606 8.38018L10.7831 8.97519L10.745 9.01489L10.2851 8.69423L10.1776 8.4909L10.1213 8.21487L10.161 8.00827L10.4092 7.80331L10.7053 7.72893L10.6805 7.55701L10.3099 6.99837L10.0634 6.74378L9.87318 6.61985L9.61675 6.58676L9.5026 6.49585L9.47281 6.36532L9.52742 6.1934L9.66471 6.13721L10.0601 6.20662L10.2735 6.08429L10.2537 5.86115L10.1892 5.7372L10.1991 4.9372L10.0485 4.28592L9.97076 4.1752L9.88641 4.16365L9.79707 4.25122L9.54892 4.27437L9.39507 4.06116L9.22468 3.64794L8.91695 2.6628H9.39341H11.3737H13.3523H15.3325H17.3128H19.2914H21.2717H23.2519H25.2322H27.2108H29.191H31.1713H33.1499H35.1302H37.1104H39.0907H41.0693H43.0496H45.0298H47.0084H48.9887H50.9689H52.9492H54.9278H56.908H58.8883H60.8669H62.8472H64.8275H66.8077H68.7863H70.7666H72.7468H74.7254H76.7057H78.686H80.6662H82.6448H84.6251H86.6053H88.584H90.5642H92.5445H94.5231H96.5033H98.4836H100.464H102.442H104.423H106.403H108.382H110.362H112.342H114.322H116.298H118.278H120.258H122.237H124.217H126.197H128.178H130.156H132.136H134.117H136.095L137.19 2.67273L137.209 1.18014L137.222 0L138.224 0.143815L138.524 0.358698L138.62 0.461136L138.592 0.786806L138.674 1.77356L138.856 2.59339L139.277 3.57686L139.278 3.57853L139.313 3.962L139.45 4.20164L139.703 4.42479L140.663 4.69421L142.329 5.00993L143.274 5.37191L143.497 5.78018L143.942 5.94382L144.609 5.86446L145.075 5.69423L145.474 5.31405ZM8.95169 4.92065L9.0129 5.07273L8.82598 5.22149L8.69363 5.24464L8.48187 5.00661L8.38922 4.97683L8.46366 5.34381L8.43721 5.4694L8.00541 5.24464L7.92599 5.06612L8.04677 4.87766L8.31972 4.68266L8.41403 4.65951L8.95169 4.92065ZM7.87969 6.12234L8.00211 6.35204L7.50249 6.20496L7.29239 6.07274L7.2295 5.94382L7.15506 5.52231L7.18981 5.38512L7.41315 5.33721L7.83006 5.85954L7.87969 6.12234ZM8.77137 6.60662L8.69858 6.67603L8.45043 6.58515L8.30485 6.42978L8.25522 6.23637L8.34787 5.86446L8.47193 5.76858L8.54969 5.79008L8.58279 6.11734L8.80281 6.46281L8.77137 6.60662ZM9.92444 8.51737L10.1511 9.42479L10.2487 9.04628L10.8807 9.7008V10.0231L10.8046 10.1306L10.6722 10.1686L10.5515 10.0744L10.4406 9.84795L10.2983 9.7289L9.99559 9.65289L9.83844 9.39503L9.78384 9.21983L9.76894 8.71073L9.69284 8.55208L9.53236 8.51737L9.37854 8.39668L9.14029 8.03969L9.10721 7.94381L9.2197 7.65289L9.47779 7.16527L9.66471 6.9339L9.78054 6.95867L9.92444 7.1058L10.0965 7.37355L10.0634 7.56201L9.36858 7.93058L9.34544 8.01654L9.68292 8.12065L9.80699 8.21321L9.92444 8.51737ZM166.008 10.1124L165.984 10.2265L166.153 10.2612L166.122 10.319L165.938 10.4231L165.419 10.6347L165.071 10.7025L164.893 10.6264L164.874 10.4859L165.015 10.2793V10.1769H164.871L164.906 10.0942L165.119 9.93057L166.936 8.88762L167.712 8.50745L168.125 8.38679L168.191 8.44626L167.743 8.83966L167.672 9.00002L167.688 9.10745L167.541 9.31407L166.213 10.0446L166.008 10.1124ZM10.2752 12.3918L10.2504 12.524L9.99394 12.3669L9.90957 12.2215L9.91949 11.8958L9.98402 11.6843L10.032 11.6413L10.1825 11.7339L10.2256 11.7884L10.2752 12.3918ZM10.7533 13.757L10.7318 13.9124L10.5548 14.033L10.4621 14.0017L10.4555 13.8182L10.4075 13.7901L10.2156 14.0099L10.2305 13.5752L10.3248 13.1174L10.4075 13.1091L10.53 13.4099L10.7533 13.757ZM169.412 15.0165L169.326 15.2363L169.343 15.3686L168.779 15.9504L168.574 16.3174L168.403 16.3752L168.266 16.1256V15.924L168.405 15.7719L168.542 15.5554L168.559 15.2562L168.506 15.1471L168.334 15.4165L168.43 15.4744L168.458 15.5207L168.425 15.6182L167.776 15.4744L167.583 15.2644L167.616 14.9719L167.832 14.5967L168.612 13.8017L168.956 13.5802L169.932 13.2297L170.469 13.1487H171.01L171.402 13.2645L171.646 13.4942L171.416 13.6463L170.347 13.7768L170.317 13.8182L170.522 13.9438L170.56 14.033L170.372 14.2661L169.412 15.0165ZM8.6225 15.0562L8.5778 15.1901L8.51164 15.1835L8.36604 14.9107L8.34787 14.719L8.47193 14.5802L8.63903 14.9785L8.6225 15.0562ZM159.175 16.2711L159.023 16.3768L158.965 16.3273L159.001 16.119L159.078 15.9983L159.195 15.9636L159.253 16.0149L159.251 16.1504L159.175 16.2711ZM157.87 16.9388L157.8 16.9868L157.623 16.8727L157.599 16.7785L157.646 16.6843L157.729 16.7058L157.845 16.843L157.87 16.9388ZM158.619 16.9934L158.464 17.0314L158.131 16.9719L158.136 16.8727L158.482 16.7355L158.636 16.6975L158.672 16.7554L158.619 16.9934ZM157.858 17.9124L157.592 18.005L157.481 17.9884L157.526 17.8612L157.663 17.7091L158.282 17.3289L158.389 17.3356L158.422 17.4264L158.123 17.6132L158.01 17.7124L157.997 17.8165L157.858 17.9124ZM188.398 20.7454V20.8893L188.255 20.8562L188.136 20.7587L188.04 20.5967L187.921 20.1917L187.739 19.9041L188.012 19.5785L188.176 19.5405L188.351 19.6132L188.376 19.8033L188.247 20.1107L188.254 20.4248L188.398 20.7454ZM188.454 21.524L188.388 21.5603L188.154 21.2991L188.105 21.1389L188.14 21.005L188.229 20.9984L188.374 21.1207L188.457 21.2628L188.475 21.4248L188.454 21.524ZM191.319 23.0777L191.364 23.2264L191.251 23.4446L190.925 23.5554L190.264 23.5438L189.835 23.4595L189.638 23.3041L189.595 23.2231L189.614 23.0496L189.71 23.038L189.85 23.1322L190.06 23.0926L190.34 22.9173L190.487 22.7851L190.5 22.6975L190.411 22.5289L190.482 22.4579L190.833 22.524L190.964 22.633L191.2 23.0099L191.319 23.0777ZM186.427 24.357L187.021 24.4496L187.079 24.3983L187.248 24.5736L187.274 24.7223L187.203 24.8463L187.099 24.9157L186.965 24.9273L186.75 24.8017L186.399 24.4678L186.427 24.357ZM181.81 25.8016L181.651 25.8347L181.53 25.757L181.55 25.4463L181.712 24.9041L181.871 24.6562L182.086 24.757L182.043 24.8232L182.086 25.4017L182.009 25.6545L181.81 25.8016ZM175.727 27.4512L175.588 27.5174L175.333 27.4942L175.241 27.3455L175.375 26.967L175.429 27.0364L175.651 27.0413L175.727 27.0777L175.752 27.1719L175.727 27.4512ZM175.123 28.1818L175.037 28.2661L174.893 28.2099L174.837 28.3339L174.87 28.6364L174.822 28.7752L174.695 28.752L174.688 28.8082L174.8 28.9422L174.812 29.0892L174.724 29.2496L174.638 29.324L174.557 29.3124L174.43 29.4942L174.258 29.8694L174.198 30.0859L174.253 30.1455L174.213 30.2711L173.785 30.8397L173.619 30.8942L173.439 30.8149L173.312 30.6496L173.237 30.3967L173.216 30.2017L173.245 30.0628L173.623 29.5587L173.79 29.2297L173.886 28.8595L174.059 28.6231L174.314 28.5207L174.521 28.2909L174.678 27.9322L174.86 27.7768L175.065 27.8231L175.155 27.9587L175.123 28.1818ZM179.838 29.0926L179.783 29.1851L179.654 29.1769L179.552 29.0876L179.451 28.7984L179.484 28.7356L179.734 28.7769L179.821 28.8992L179.838 29.0926ZM262.431 34.1009L262.16 34.2265L261.864 34.1719L261.871 34.5124L261.838 34.6347L261.51 34.4595L261.389 34.3471L261.399 33.8959L261.689 33.4678L261.91 33.2975L262.195 33.4149L262.413 33.8942L262.431 34.1009ZM225.64 34.4562L225.495 34.5091L225.46 34.4331L225.483 34.362L225.604 34.2727H225.807L225.784 34.3438L225.64 34.4562ZM260.407 34.9818L260.231 35.1091L260.043 35.0678L260.036 34.7504L260.094 34.643L260.158 34.595L260.256 34.6843L260.407 34.9818ZM224.941 36.3058L224.871 36.3256L224.878 36.1885L224.949 36.0992L225.084 36.0595L225.081 36.1289L224.941 36.3058ZM212.554 42.4744L212.412 42.6909L212.275 42.6694L212.174 42.6L212.139 42.4628L212.164 42.2909L212.286 42.2149L212.619 42.281L212.631 42.3504L212.554 42.4744ZM248.252 52.0314L248.022 52.2L247.766 52.1702L247.896 51.9421L247.946 51.6066L248.073 51.238L248.146 51.1256L248.297 51.0265L248.252 52.0314ZM247.676 52.0727L247.547 52.1868L247.499 51.8893L247.59 51.5455L247.681 51.5388L247.728 51.7206L247.676 52.0727ZM251.647 52.7438L250.368 53.0447L250.164 52.8513L250.484 52.7604L250.886 52.2992L251.154 52.2463L251.574 52.5074L251.647 52.7438ZM254.117 53.4264L253.759 53.5256L252.932 53.2992L253.612 53.1074L253.723 53.0397L253.812 52.757L253.824 52.6149L254.082 53.2232L254.117 53.4264ZM242.363 55.1421L242.033 55.5372L242.331 55.5769L242.588 55.4611L242.829 55.2264L243.393 54.9091L243.875 54.7702L244.025 54.7405L244.255 54.9636L244.71 54.7851L245.178 54.6843L243.155 55.7041L242.741 55.8182L242.149 56.1223L241.59 56.3372L241.188 56.4149L239.185 57.1686L239.026 57.1852L238.854 57.1124L237.203 57.4992L236.526 57.5421L235.909 57.6777L236.365 57.3653L236.375 57.248L236.266 57.157L236.023 57.1835L235.773 57.5042L235.375 57.6116L235.295 57.2628L235.429 56.9918L235.609 56.7339L236.005 56.3289L236.572 56.0727L236.86 55.8513L237.06 56.0463L237.103 55.7818L237.257 55.6298L237.424 55.5471L237.825 55.5455L238.041 55.5041L238.197 55.4165L238.357 55.4L238.797 55.5207L239.226 55.486L239.572 55.3207L239.932 55.2645L240.884 55.2281L241.828 55.1074L242.207 54.8926L243.001 54.2876L243.458 54.119L242.746 54.8215L242.363 55.1421ZM234.571 57.967L234.349 57.9917L234.571 57.4083L234.978 57.1405L235.125 57.1967L235.13 57.4033L235.073 57.5785L234.8 57.8513L234.571 57.967ZM234.825 63.0546L234.281 63.962L234.269 63.7884L234.949 62.6612L234.825 63.0546ZM229.253 73.6777L229.042 73.7735L229.75 72.6L230.162 71.6132L230.345 71.2711L230.167 71.962L229.856 72.5967L229.253 73.6777ZM227.849 85.4132L227.779 85.5289L227.47 84.8992L227.788 85.1025L227.844 85.2727L227.849 85.4132ZM228.274 88.9091L227.652 89.0628L227.597 89.0132L228.31 88.6909L228.535 87.5537L228.567 87.0281L228.461 86.0992L228.464 85.9074L228.58 86.2066L228.683 87.0727L228.645 87.7273L228.438 88.681L228.274 88.9091ZM227.171 89.1917L226.327 89.595L226.231 89.5703L226.785 89.2826L227.171 89.1917ZM223.819 92.2728L223.703 92.3372L224.128 91.6364L224.967 90.7455L225.194 90.6083L224.496 91.3686L223.819 92.2728ZM223.622 92.2066L223.518 92.2198L223.336 92.1587L223.084 92.0397L223.028 91.9521L223.268 91.9835L223.622 92.2066ZM22.4148 95.4248L23.3594 95.7107L23.869 95.5735L23.9616 95.7107L23.9021 95.8314L22.7539 96.0463L22.4016 95.8959L22.3702 95.6893L22.251 95.4909L22.4148 95.4248ZM20.4461 95.7289L20.1996 95.7438L19.8191 95.6843L19.9531 95.5537L20.1633 95.4595L20.2311 95.5306L20.4461 95.7289ZM21.6671 96.3206L21.3411 96.3984L21.0946 96.3256L20.7009 95.7934L21.5364 95.7223L21.897 95.9537L21.945 96.0182L21.6671 96.3206ZM29.5401 99.2777L29.775 99.6843L29.4375 99.6347L29.0852 99.6578L28.9776 99.4364L28.8734 99.1273L28.8023 99.0496L28.5607 99.0215L28.5425 98.9934L28.5144 98.843L28.5822 98.7719L29.3399 99.1157L29.5401 99.2777ZM24.4778 100.208L24.271 100.218L23.9864 100.167L23.8409 99.8694L24.0741 99.8496L24.2892 99.8909L24.4596 100.124L24.4778 100.208ZM29.5285 102.354L29.2572 102.403L28.9578 102.291L28.6997 101.76L28.4151 101.345L28.569 101.226L28.799 101.626L29.3763 102.235L29.5285 102.354ZM200.997 112.446L200.79 113.757L200.701 113.293L200.693 112.843L200.848 112.575L200.997 112.446ZM170.11 116.304L169.702 116.418L169.096 116.407L168.974 116.367L169.215 116.291L169.933 116.188L170.11 116.304ZM167.852 116.499L167.793 116.559L167.381 116.448L167.131 116.344L167.086 116.24L167.776 116.426L167.852 116.499ZM164.759 117.202L164.775 117.45L164.547 117.326L164.209 117.314L164.358 117.23L164.462 117.147L164.515 117.058L164.941 116.749L164.82 116.975L164.759 117.202ZM166.6 118.674L166.469 118.845L166.598 118.033L166.418 117.349L166.608 117.65L166.671 118.007L166.6 118.674ZM166.314 119.18L166.062 119.458L166.074 119.352L166.259 119.074L166.391 118.965L166.314 119.18ZM184.799 119.552L184.333 119.744L183.828 119.605L184.141 119.579L184.368 119.635L184.942 119.36L185.243 119.154L185.59 119.076L184.799 119.552ZM152.829 120.304L152.657 120.38L151.889 119.921L151.841 119.724L152.22 119.545L152.452 119.562L152.817 119.797L152.951 119.861L153.014 119.955L152.98 120.102L152.829 120.304ZM137.758 122.183L137.526 122.235L138.539 121.421L138.75 121.15L139.022 121.162L138.57 121.617L137.758 122.183ZM129.749 127.407L129.579 127.428L129.791 127.145L130.135 127.003L130.889 126.46L131.197 126.421L131.357 126.235L131.427 126.207L131.382 126.436L130.777 126.764L129.749 127.407ZM128.589 128.719L128.489 128.732L128.714 128.304L128.755 128.132L129.124 127.59L129.319 127.509L129.4 127.74L129.021 128.121L128.589 128.719ZM206.718 131.964L206.794 132.345L206.367 131.458L205.839 130.064L205.558 128.985L205.748 129.278L205.935 129.881L206.718 131.964ZM127.015 131.851L126.869 132.15L126.909 131.706L127.286 130.693L128.052 129.359L128.374 129.136L127.491 130.598L127.015 131.851ZM127.863 137.744L127.799 137.983L127.415 136.868L126.79 134.336L126.766 132.888L126.866 132.388L127.026 134.435L127.718 137.022L127.863 137.744ZM197.912 135.721L197.905 136.023L197.67 135.516L197.515 134.954L197.738 135.136L197.912 135.721ZM198.127 136.23L197.961 136.365L197.626 136.266L197.444 136.089L197.364 135.744L197.655 136.111L197.76 136.193L198.127 136.23ZM205.813 142.95L204.89 143.907L204.992 143.668L205.353 143.155L205.469 142.914L205.712 142.762L205.939 142.486L205.955 142.162L206.284 141.936L206.392 141.903L205.813 142.95ZM204.622 144.167L204.498 144.192L204.681 143.975L204.733 143.992L204.622 144.167ZM203.735 144.673H203.647L203.69 144.6L203.874 144.456L203.94 144.512L203.934 144.585L203.735 144.673ZM202.738 145.114L202.526 145.235L202.306 145.145L202.547 145.025L203.267 144.896L202.996 145.056L202.738 145.114ZM201.389 145.451L201.25 145.555L201.184 145.522V145.37L200.986 145.033L200.992 144.945L201.445 145.274L201.457 145.364L201.389 145.451ZM200.312 145.707L200.011 145.757L200.254 145.557L200.332 145.253L200.474 145.489L200.473 145.633L200.312 145.707ZM199.303 145.988L199.186 146L199.176 145.922L199.379 145.826L199.515 145.833L199.51 145.939L199.303 145.988Z" fill="url(#paint0_linear_2_285)"/>
<defs>
<linearGradient id="paint0_linear_2_285" x1="30.0345" y1="-18.019" x2="233.792" y2="146.019" gradientUnits="userSpaceOnUse">
<stop stop-color="#8FFFF4"/>
<stop offset="1" stop-color="#3064FF"/>
</linearGradient>
</defs>
</svg>
