<svg width="91" height="188" viewBox="0 0 91 188" fill="none" xmlns="http://www.w3.org/2000/svg">
<path d="M72.6928 24.2789L72.1078 24.3969L70.6588 24.4188L69.3913 25.6133L68.5181 26.112L67.1489 26.5277L65.6953 27.2016L65.2742 28.3873L65.2344 29.2448L64.9996 30.203L62.6418 31.5944L61.9858 31.45L61.5295 30.9338L60.8338 31.0387L60.364 31.2968L59.8057 31.2618L59.1806 31.577L58.3608 31.4807L57.6074 31.0387L57.173 30.9249L56.6545 30.9205L56.5571 31.4413L57.3283 33.4583L57.5277 34.3859L55.0062 37.1073L55.2853 38.8575L54.6029 40.2007L53.0784 41.2814L50.2199 44.0641L48.9302 44.1254L47.9597 44.7555L45.8415 49.3146L45.8193 50.8765L45.4869 52.0186L45.5577 53.1124L44.6316 55.2651L43.6654 56.1751L43.4528 57.3477L44.822 59.7585L44.9773 60.183L45.775 61.478L46.1604 62.4012L46.772 63.3244L48.9746 65.7177L49.9583 66.4485L51.1417 66.9428L53.2867 69.0955L54.3678 70.4651L53.8761 71.3969L54.1198 73.3703L52.5907 72.7883L52.7681 73.0202L54.5896 74.101L57.3105 77.8812L59.6815 79.7452L62.0878 81.8628L62.8414 83.8711L65.0129 85.2012L67.4281 87.1263L67.3261 87.5595L67.9777 88.0758L69.5995 89.0953L70.5879 90.1759L70.969 91.1998L71.5673 91.366L72.2452 91.1123L72.919 91.016L73.3975 91.0948L74.1243 92.2192L75.1391 93.2212L75.6265 94.1444L76.0255 94.022L76.3533 94.1619L76.4377 94.9319L76.5838 95.4395L77.9444 96.9184L78.5914 98.3097L80.2135 100.567L81.4144 101.849L82.2654 102.571L83.2446 103.188L84.2018 105.687L84.7203 107.953L85.7441 110.46L86.5196 111.554L86.5464 113.615L87.1756 115.737L87.8448 117.167L88.0441 118.629L88.2524 119.355L88.5096 119.902L89.2407 122.374L89.0503 123.525L88.5405 122.4L88.607 125.717L89.0546 127.471L88.8553 129.62L89.3205 130.372L90.1536 132.801L90.743 133.671L90.69 136.633L91 138.13L90.2113 137.237L89.6397 136.222L88.8729 136.76L88.1861 137.552L89.254 140.737L88.0398 140.436L88.1461 144.715L88.6514 145.712L88.6868 146.189L88.5405 146.758L88.2037 146.132L88.1328 145.489L87.9424 145.634L87.9511 145.966L87.5434 146.719L87.4239 147.651L87.8626 148.447L87.9378 149.051L87.6232 149.799L87.118 150.591L85.9613 150.696L85.6955 152.245L85.3011 153.885L83.2359 154.148L81.7379 155.596L79.8854 156.134L78.2324 157.565L76.411 158.891L75.2232 159.066L74.2086 159.35L73.0431 161.547L71.1018 161.801L67.6141 163.594L66.4397 164.461L65.3718 164.798L63.8427 165.546L63.5149 165.279L63.0053 164.636L61.6845 164.303L61.0375 163.581L60.8514 162.654L60.6786 162.291L60.3951 162.816L60.1733 165.021L59.9385 165.519L59.3756 165.738L58.2634 165.113L57.2041 163.839L55.6929 164.719L56.1538 164.824L56.8409 164.754L57.3727 164.973L57.8246 165.821L57.8068 166.281L57.572 166.819L56.1582 166.907L54.2704 166.718L53.9248 166.788L55.6486 167.615L57.222 168.092L57.9177 168.613V169.046L57.0359 169.742L56.3532 170.595L56.3399 171.124L56.3267 171.715L55.5601 172.223L55.086 172.122L53.7387 171.234L49.852 167.738L50.4371 168.727L54.4655 172.699L55.1744 174.008L55.2721 174.931L54.8555 175.395L54.1728 175.942L52.8523 175.981L50.6897 174.506L47.2286 170.962L46.0498 170.481L49.5507 174.533L50.1268 175.517L50.7162 176.65L50.5477 177.324L50.2464 177.959L41.9503 181.708L40.7095 183.323L39.7258 185.314L38.0947 186.421L37.1375 187.431L34.3723 188L32.861 187.821L34.4299 185.983L33.4594 185.301L33.4104 180.562L33.7915 175.36L34.514 172.761L35.5554 172.113L36.8672 171.715L36.8983 171.168L36.7696 170.542L36.065 169.654L35.2941 169.243L34.1418 169.063L33.2554 167.974L32.5819 168.018L31.5359 168.381L30.9022 167.913L30.6674 167.182L29.6969 166.272L28.58 165.388L29.0853 165.248L29.6701 164.741L30.2995 164.089L31.8594 163.997L33.4239 164.028L33.8627 163.857L34.4961 163.166L35.5199 162.277L36.3 161.783L36.4861 161.385L36.1759 160.448L36.003 159.486L36.2911 159.184L37.7049 159.355L39.2602 159.805L39.637 160.007L40.5278 158.825L40.7715 158.681L41.3565 158.685L42.8989 158.466L44.4055 158.156L45.119 158.208L45.8104 159L46.3378 159.779L46.6124 159.84L47.3968 159.508L48.0438 159.923L49.4 160.602L50.211 160.632L49.8077 159.053L50.2596 157.928L50.1712 157.622L49.409 157.106L46.8207 155.041L46.3776 154.424L46.4395 153.452L46.3511 152.026L46.1206 151.129L46.1604 150.604L46.32 150.184L46.7941 150.018L47.2551 149.961L47.6229 149.593L48.2434 148.653L49.4487 148.736L51.1417 149.269L52.3914 149.602L53.1314 149.536L53.2953 149.401L53.2731 148.893L53.3619 146.732L53.3132 146.272L54.3811 146.062L56.0121 146.014L56.8717 145.887L57.674 144.977L59.7392 144.662L61.2325 143.433L62.5798 142.168L63.2401 141.831L64.0778 141.613L64.7069 141.643L65.496 142.374L66.1473 141.932L66.9006 141.074L67.295 140.234L67.5122 138.882L67.3661 136.808L66.9671 135.185L66.5904 133.969L66.5152 132.753L67.3837 130.307L68.1327 127.642L67.9909 126.592L67.1754 124.929L66.3466 122.904L65.4427 120.672L65.1013 120.34L64.8576 119.718L64.7202 118.992L65.0791 116.712L65.1324 115.947L66.1738 114.905L66.7324 113.715L67.2552 112.398L67.0559 111.703L66.985 110.285L67.1178 109.598L66.8698 109.042L66.5682 108.233L66.7678 107.708L67.4989 107.257L67.9287 106.483L68.4784 105.577L68.7221 104.75L68.3277 104.059L67.6141 103.022L66.3112 102.086L64.8089 100.887L64.0732 100.147L63.4884 99.3949L62.952 98.5198L62.6596 97.8197L62.9431 97.3602L65.0791 96.3058L65.4692 95.9252L65.6953 95.3389L65.5268 94.7657L64.9507 94.4551L64.2815 94.2451L63.2977 93.58L61.463 91.7555L60.621 91.3485L59.7346 90.8235L59.265 90.2722L58.7508 88.7584L58.516 88.6227L58.0064 89.0821L57.3594 89.559L56.8187 89.476L56.3267 89.0471L56.0919 88.4696L55.5466 87.6777L54.9529 87.0345L54.7979 84.8643L54.7048 84.1555L54.4122 83.1666L53.9513 82.8123L53.4638 82.5498L52.3116 80.747L51.5139 79.8152L48.2434 77.2774L47.8355 76.8705L46.9537 75.8248L45.4203 74.3416L44.3257 73.1471L43.528 71.9089L43.1558 70.8325L43.0449 69.9925L42.1764 68.7892L41.4274 67.8004L40.7006 67.481L39.8718 67.3454L39.1228 66.7591L37.7536 65.429L37.1464 64.5758L36.7874 63.9982L36.8053 63.4032L37.1331 62.4143L37.5321 61.8499L37.5454 61.4081L37.1553 61.0493L35.6352 60.4105L32.1962 59.4435L30.9111 58.704L29.7234 57.759L28.8281 57.1158L24.6358 54.3812L23.3639 53.9262L22.2736 53.4405L21.9414 52.9679L21.9991 52.5129L22.4464 52.176L23.6342 51.4717L24.0775 50.6665L23.9355 49.6121L23.4659 48.5445L23.6964 48.1769L24.0818 48.1333L24.8795 48.1026L26.5324 48.0414L30.0956 49.0127L30.6098 48.9077L32.5465 47.1444L33.2733 46.0899L33.4415 45.2105L33.8226 44.6504L34.8418 43.7316L34.8554 42.8916L34.3544 41.7671L33.8448 41.3339L33.4061 41.1458L31.9925 41.2945L31.7177 41.0408L31.5316 40.2051L31.4651 39.6931L30.9998 39.0937L29.4707 38.5818L28.1767 38.4375L27.8754 38.223L28.3718 37.6455L29.2535 37.0767L29.9227 36.7442L30.4502 36.1535L30.5476 35.5497L29.8919 35.0115L29.0363 34.4121L27.6493 33.2702L25.7261 32.0582L24.556 31.6425L23.9444 31.6994L21.8262 32.7408L20.6872 33.4189L19.7389 34.6265L18.7505 34.8846L17.7489 34.3509L16.6145 33.804L13.4725 33.0077L12.1473 32.3426L9.40406 28.2735L9.00076 27.4466L9.26232 26.5102L9.45301 25.1669L9.72756 24.2964L10.2107 23.465L10.3437 22.7256L10.2239 21.9992L9.82953 21.5835L9.31101 21.4611L8.92556 21.2948L8.56203 20.3409L8.3405 20.4635L8.00374 21.6229L7.60044 22.0386L7.06433 22.2442L6.64751 22.0605L6.38162 21.5968L6.26639 20.8092L5.99185 19.7504L5.65482 19.059L4.47171 18.3546L3.91342 17.4401L2.15822 15.4494L0.687039 14.0537L0 12.7978L0.602918 12.3297L1.36055 11.6515L2.17608 10.5927L3.08897 9.26264L3.47009 8.4488L3.74058 8.1206L4.27669 7.87998L4.85282 8.01124L5.8631 8.54948L7.38784 9.23633L8.74812 10.0502L9.29775 10.8684L10.0557 11.6515L10.6361 11.8879L10.9285 11.8266L11.8017 11.2359L12.555 10.6452L12.5728 9.97579L13.2642 9.37199L14.1682 8.37883L14.598 7.70493L14.9215 7.63497L15.2893 7.83191L16.7164 9.91451L16.9912 10.0415L17.3945 9.73078L17.9572 8.1031L18.5777 7.47313L18.7905 7.63056L22.2428 10.6978L22.5706 10.6759L22.9428 10.5402L23.1868 10.0677L23.457 9.0044L23.9709 7.8669L25.0788 7.23239L25.943 7.10994L26.2622 7.65246L27.0112 8.40073L27.9198 8.50568L29.8519 7.17991L30.4856 6.96988L31.1591 6.99177L31.8462 6.9393L32.5021 6.43177L33.1935 5.76228L33.4283 4.44091L33.5746 3.25521L34.0488 2.77398L34.616 2.45459L35.6795 2.00394L38.0815 0.853225L38.702 0.306307L39.1583 0L40.0934 0.49885L41.2102 1.4613L41.884 2.18768L42.336 2.9708L42.5532 3.6228L44.3303 4.19162L45.4647 4.99664L46.218 5.61353L46.9627 5.58736L47.707 5.42112L48.1858 4.92668L49.0232 4.91786L50.0159 4.99224L50.4593 5.18919L51.2791 6.32669L51.647 6.48425L52.3781 6.40547L53.783 6.00302L54.9131 5.81048L55.9323 6.26553L57.8733 7.53001L57.3283 8.43131L56.8939 9.40257L56.0429 10.0852L55.4138 10.2558L55.0148 11.2053L54.8376 12.6054L55.0549 13.3186L55.5423 13.5461L56.083 14.0187L56.3045 14.6442L56.38 16.0269L56.3489 17.5846L56.4243 18.1008L56.8452 18.0045L57.2442 17.8208L58.0505 18.0614L59.0521 18.4684L59.6859 18.8796L60.2531 18.8272L60.6964 19.2296L60.8603 19.9997L61.3832 20.5379L62.8368 21.5485L64.0023 21.6361L64.9861 22.9706L66.0056 22.533L66.4751 23.1107L68.5893 22.9093L70.0604 22.3668L70.5879 22.4936L71.913 23.605L72.6928 24.2789ZM68.0929 28.0941L66.3023 29.7348L65.6155 29.7087L66.2271 27.8535L66.5195 27.4115L67.5966 28.0504L68.0929 28.0941ZM67.078 31.8919L66.3821 32.2332L65.5579 32.1938L66.5463 31.5551L67.0469 30.7631L67.4502 30.4874L67.4459 31.1788L67.078 31.8919ZM58.9193 33.3401L58.7773 33.594L58.1438 32.977L57.7227 32.7102L58.0419 31.8789L58.7862 32.7888L58.9193 33.3401ZM60.9845 34.2372L60.4703 34.2896L59.4819 33.2308L60.014 32.6708L61.1352 33.0646L61.3964 33.3227L61.3878 33.5502L61.1173 34.0533L60.9845 34.2372ZM62.6772 165.559L61.6358 166.307L61.565 165.677L62.4689 165.27L62.7881 164.951L63.0186 164.955L62.6772 165.559ZM24.0775 165.638L24.3123 166.255L24.2236 167.698L23.7407 169.112L23.8825 169.729L23.5103 170.122L22.6815 167.475L21.6401 166.329L21.4097 165.887L22.0166 165.918L23.1024 165.191L23.6255 165.174L24.0775 165.638ZM55.8347 186.766L55.4847 186.792L55.2188 186.539L56.3445 185.729L56.2336 186.267L56.2734 186.539L55.8347 186.766Z" fill="url(#paint0_linear_2_307)"/>
<defs>
<linearGradient id="paint0_linear_2_307" x1="9" y1="-9.17621e-08" x2="114" y2="208" gradientUnits="userSpaceOnUse">
<stop stop-color="#8FFFF4"/>
<stop offset="1" stop-color="#3064FF"/>
</linearGradient>
</defs>
</svg>
